<?xml version="1.0" encoding="utf-8"?>
<!-- Generator: Adobe Illustrator 24.1.2, SVG Export Plug-In . SVG Version: 6.00 Build 0)  -->
<svg version="1.1" id="Layer_1" xmlns="http://www.w3.org/2000/svg" xmlns:xlink="http://www.w3.org/1999/xlink" x="0px" y="0px"
	 viewBox="0 0 595.3 599.3" style="enable-background:new 0 0 595.3 599.3;" xml:space="preserve">
<style type="text/css">
	.st0{fill:#020203;}
	.st1{font-family:'Helvetica-Bold';}
	.st2{font-size:15px;}
</style>
<g id="cSAsCs.tif">
	
		<image style="overflow:visible;" width="941" height="718" xlink:href="2DAF776DE4FF0F37.png"  transform="matrix(0.295 0 0 0.295 12.389 27.1378)">
	</image>
</g>
<image style="overflow:visible;" width="907" height="906" xlink:href="2DAF776DE4FF0F35.jpg"  transform="matrix(0.1598 0 0 0.1598 12.6675 269.1149)">
</image>
<image style="overflow:visible;" width="893" height="489" xlink:href="2DAF776DE4FF0F3B.jpg"  transform="matrix(0.1428 0 0 0.1428 160.8094 269.1149)">
</image>
<image style="overflow:visible;" width="895" height="492" xlink:href="2DAF776DE4FF0F3D.jpg"  transform="matrix(0.1425 0 0 0.1425 161.06 343.3816)">
</image>
<g id="J4bEqU.tif">
	
		<image style="overflow:visible;" width="1466" height="1108" id="Layer_0_2_" xlink:href="2DAF776DE4FF0F3F.png"  transform="matrix(0.1907 0 0 0.1907 300.6756 27.3602)">
	</image>
</g>
<text transform="matrix(1 0 0 1 12.6673 20.5494)" class="st0 st1 st2">A</text>
<text transform="matrix(1 0 0 1 12.6673 261.5923)" class="st0 st1 st2">B</text>
<text transform="matrix(1 0 0 1 297.6376 20.5493)" class="st0 st1 st2">C</text>
<image style="overflow:visible;" width="866" height="867" xlink:href="2DAF776DE4FF0F3C.jpg"  transform="matrix(0.167 0 0 0.167 300.6756 269.1149)">
</image>
<image style="overflow:visible;" width="867" height="451" xlink:href="2DAF776DE4FF0F34.jpg"  transform="matrix(0.1506 0 0 0.1506 449.7414 269.1149)">
</image>
<image style="overflow:visible;" width="861" height="465" xlink:href="2DAF776DE4FF0F37.jpg"  transform="matrix(0.1516 0 0 0.1516 449.7414 343.191)">
</image>
<image style="overflow:visible;" width="865" height="877" xlink:href="2DAF776DE4FF0F32.jpg"  transform="matrix(0.1674 0 0 0.1674 300.4347 429.2098)">
</image>
<image style="overflow:visible;" width="876" height="470" xlink:href="9A5C42E218DD32F4.jpg"  transform="matrix(0.149 0 0 0.149 449.7414 429.2098)">
</image>
<image style="overflow:visible;" width="872" height="474" xlink:href="9A5C42E218DD32F3.jpg"  transform="matrix(0.1497 0 0 0.1497 449.7414 502.6318)">
</image>
<image style="overflow:visible;" width="863" height="882" xlink:href="9A5C42E218DD330C.jpg"  transform="matrix(0.1695 0 0 0.1695 11.3406 426.5866)">
</image>
<image style="overflow:visible;" width="872" height="476" xlink:href="9A5C42E218DD330F.jpg"  transform="matrix(0.1476 0 0 0.1476 161.06 426.5866)">
</image>
<image style="overflow:visible;" width="883" height="485" xlink:href="9A5C42E218DD330D.jpg"  transform="matrix(0.146 0 0 0.146 160.8094 505.2203)">
</image>
<text transform="matrix(1 0 0 1 300.6756 261.5925)" class="st0 st1 st2">D</text>
</svg>
