<?xml version="1.0" encoding="utf-8" standalone="no"?>
<!DOCTYPE svg PUBLIC "-//W3C//DTD SVG 1.1//EN"
  "http://www.w3.org/Graphics/SVG/1.1/DTD/svg11.dtd">
<!-- Created with matplotlib (https://matplotlib.org/) -->
<svg height="493.808594pt" version="1.1" viewBox="0 0 502.730156 493.808594" width="502.730156pt" xmlns="http://www.w3.org/2000/svg" xmlns:xlink="http://www.w3.org/1999/xlink">
 <defs>
  <style type="text/css">
*{stroke-linecap:butt;stroke-linejoin:round;}
  </style>
 </defs>
 <g id="figure_1">
  <g id="patch_1">
   <path d="M 0 493.808594 
L 502.730156 493.808594 
L 502.730156 0 
L 0 0 
z
" style="fill:#ffffff;"/>
  </g>
  <g id="axes_1">
   <g id="patch_2">
    <path d="M 56.450156 451.78 
L 420.259299 451.78 
L 420.259299 83.413714 
L 56.450156 83.413714 
z
" style="fill:#eaeaf2;"/>
   </g>
   <g id="matplotlib.axis_1">
    <g id="xtick_1">
     <g id="line2d_1">
      <path clip-path="url(#pbaa3a0386e)" d="M 72.639078 451.78 
L 72.639078 83.413714 
" style="fill:none;stroke:#ffffff;stroke-linecap:round;"/>
     </g>
     <g id="text_1">
      <!-- −125 -->
      <defs>
       <path d="M 52.828125 31.203125 
L 5.5625 31.203125 
L 5.5625 39.40625 
L 52.828125 39.40625 
z
" id="ArialMT-8722"/>
       <path d="M 37.25 0 
L 28.46875 0 
L 28.46875 56 
Q 25.296875 52.984375 20.140625 49.953125 
Q 14.984375 46.921875 10.890625 45.40625 
L 10.890625 53.90625 
Q 18.265625 57.375 23.78125 62.296875 
Q 29.296875 67.234375 31.59375 71.875 
L 37.25 71.875 
z
" id="ArialMT-49"/>
       <path d="M 50.34375 8.453125 
L 50.34375 0 
L 3.03125 0 
Q 2.9375 3.171875 4.046875 6.109375 
Q 5.859375 10.9375 9.828125 15.625 
Q 13.8125 20.3125 21.34375 26.46875 
Q 33.015625 36.03125 37.109375 41.625 
Q 41.21875 47.21875 41.21875 52.203125 
Q 41.21875 57.421875 37.46875 61 
Q 33.734375 64.59375 27.734375 64.59375 
Q 21.390625 64.59375 17.578125 60.78125 
Q 13.765625 56.984375 13.71875 50.25 
L 4.6875 51.171875 
Q 5.609375 61.28125 11.65625 66.578125 
Q 17.71875 71.875 27.9375 71.875 
Q 38.234375 71.875 44.234375 66.15625 
Q 50.25 60.453125 50.25 52 
Q 50.25 47.703125 48.484375 43.546875 
Q 46.734375 39.40625 42.65625 34.8125 
Q 38.578125 30.21875 29.109375 22.21875 
Q 21.1875 15.578125 18.9375 13.203125 
Q 16.703125 10.84375 15.234375 8.453125 
z
" id="ArialMT-50"/>
       <path d="M 4.15625 18.75 
L 13.375 19.53125 
Q 14.40625 12.796875 18.140625 9.390625 
Q 21.875 6 27.15625 6 
Q 33.5 6 37.890625 10.78125 
Q 42.28125 15.578125 42.28125 23.484375 
Q 42.28125 31 38.0625 35.34375 
Q 33.84375 39.703125 27 39.703125 
Q 22.75 39.703125 19.328125 37.765625 
Q 15.921875 35.84375 13.96875 32.765625 
L 5.71875 33.84375 
L 12.640625 70.609375 
L 48.25 70.609375 
L 48.25 62.203125 
L 19.671875 62.203125 
L 15.828125 42.96875 
Q 22.265625 47.46875 29.34375 47.46875 
Q 38.71875 47.46875 45.15625 40.96875 
Q 51.609375 34.46875 51.609375 24.265625 
Q 51.609375 14.546875 45.953125 7.46875 
Q 39.0625 -1.21875 27.15625 -1.21875 
Q 17.390625 -1.21875 11.203125 4.25 
Q 5.03125 9.71875 4.15625 18.75 
z
" id="ArialMT-53"/>
      </defs>
      <g style="fill:#262626;" transform="translate(60.251187 469.153594)scale(0.11 -0.11)">
       <use xlink:href="#ArialMT-8722"/>
       <use x="58.398438" xlink:href="#ArialMT-49"/>
       <use x="114.013672" xlink:href="#ArialMT-50"/>
       <use x="169.628906" xlink:href="#ArialMT-53"/>
      </g>
     </g>
    </g>
    <g id="xtick_2">
     <g id="line2d_2">
      <path clip-path="url(#pbaa3a0386e)" d="M 118.057441 451.78 
L 118.057441 83.413714 
" style="fill:none;stroke:#ffffff;stroke-linecap:round;"/>
     </g>
     <g id="text_2">
      <!-- −100 -->
      <defs>
       <path d="M 4.15625 35.296875 
Q 4.15625 48 6.765625 55.734375 
Q 9.375 63.484375 14.515625 67.671875 
Q 19.671875 71.875 27.484375 71.875 
Q 33.25 71.875 37.59375 69.546875 
Q 41.9375 67.234375 44.765625 62.859375 
Q 47.609375 58.5 49.21875 52.21875 
Q 50.828125 45.953125 50.828125 35.296875 
Q 50.828125 22.703125 48.234375 14.96875 
Q 45.65625 7.234375 40.5 3 
Q 35.359375 -1.21875 27.484375 -1.21875 
Q 17.140625 -1.21875 11.234375 6.203125 
Q 4.15625 15.140625 4.15625 35.296875 
z
M 13.1875 35.296875 
Q 13.1875 17.671875 17.3125 11.828125 
Q 21.4375 6 27.484375 6 
Q 33.546875 6 37.671875 11.859375 
Q 41.796875 17.71875 41.796875 35.296875 
Q 41.796875 52.984375 37.671875 58.78125 
Q 33.546875 64.59375 27.390625 64.59375 
Q 21.34375 64.59375 17.71875 59.46875 
Q 13.1875 52.9375 13.1875 35.296875 
z
" id="ArialMT-48"/>
      </defs>
      <g style="fill:#262626;" transform="translate(105.66955 469.153594)scale(0.11 -0.11)">
       <use xlink:href="#ArialMT-8722"/>
       <use x="58.398438" xlink:href="#ArialMT-49"/>
       <use x="114.013672" xlink:href="#ArialMT-48"/>
       <use x="169.628906" xlink:href="#ArialMT-48"/>
      </g>
     </g>
    </g>
    <g id="xtick_3">
     <g id="line2d_3">
      <path clip-path="url(#pbaa3a0386e)" d="M 163.475804 451.78 
L 163.475804 83.413714 
" style="fill:none;stroke:#ffffff;stroke-linecap:round;"/>
     </g>
     <g id="text_3">
      <!-- −75 -->
      <defs>
       <path d="M 4.734375 62.203125 
L 4.734375 70.65625 
L 51.078125 70.65625 
L 51.078125 63.8125 
Q 44.234375 56.546875 37.515625 44.484375 
Q 30.8125 32.421875 27.15625 19.671875 
Q 24.515625 10.6875 23.78125 0 
L 14.75 0 
Q 14.890625 8.453125 18.0625 20.40625 
Q 21.234375 32.375 27.171875 43.484375 
Q 33.109375 54.59375 39.796875 62.203125 
z
" id="ArialMT-55"/>
      </defs>
      <g style="fill:#262626;" transform="translate(154.146429 469.153594)scale(0.11 -0.11)">
       <use xlink:href="#ArialMT-8722"/>
       <use x="58.398438" xlink:href="#ArialMT-55"/>
       <use x="114.013672" xlink:href="#ArialMT-53"/>
      </g>
     </g>
    </g>
    <g id="xtick_4">
     <g id="line2d_4">
      <path clip-path="url(#pbaa3a0386e)" d="M 208.894168 451.78 
L 208.894168 83.413714 
" style="fill:none;stroke:#ffffff;stroke-linecap:round;"/>
     </g>
     <g id="text_4">
      <!-- −50 -->
      <g style="fill:#262626;" transform="translate(199.564793 469.153594)scale(0.11 -0.11)">
       <use xlink:href="#ArialMT-8722"/>
       <use x="58.398438" xlink:href="#ArialMT-53"/>
       <use x="114.013672" xlink:href="#ArialMT-48"/>
      </g>
     </g>
    </g>
    <g id="xtick_5">
     <g id="line2d_5">
      <path clip-path="url(#pbaa3a0386e)" d="M 254.312531 451.78 
L 254.312531 83.413714 
" style="fill:none;stroke:#ffffff;stroke-linecap:round;"/>
     </g>
     <g id="text_5">
      <!-- −25 -->
      <g style="fill:#262626;" transform="translate(244.983156 469.153594)scale(0.11 -0.11)">
       <use xlink:href="#ArialMT-8722"/>
       <use x="58.398438" xlink:href="#ArialMT-50"/>
       <use x="114.013672" xlink:href="#ArialMT-53"/>
      </g>
     </g>
    </g>
    <g id="xtick_6">
     <g id="line2d_6">
      <path clip-path="url(#pbaa3a0386e)" d="M 299.730894 451.78 
L 299.730894 83.413714 
" style="fill:none;stroke:#ffffff;stroke-linecap:round;"/>
     </g>
     <g id="text_6">
      <!-- 0 -->
      <g style="fill:#262626;" transform="translate(296.672379 469.153594)scale(0.11 -0.11)">
       <use xlink:href="#ArialMT-48"/>
      </g>
     </g>
    </g>
    <g id="xtick_7">
     <g id="line2d_7">
      <path clip-path="url(#pbaa3a0386e)" d="M 345.149258 451.78 
L 345.149258 83.413714 
" style="fill:none;stroke:#ffffff;stroke-linecap:round;"/>
     </g>
     <g id="text_7">
      <!-- 25 -->
      <g style="fill:#262626;" transform="translate(339.032227 469.153594)scale(0.11 -0.11)">
       <use xlink:href="#ArialMT-50"/>
       <use x="55.615234" xlink:href="#ArialMT-53"/>
      </g>
     </g>
    </g>
    <g id="xtick_8">
     <g id="line2d_8">
      <path clip-path="url(#pbaa3a0386e)" d="M 390.567621 451.78 
L 390.567621 83.413714 
" style="fill:none;stroke:#ffffff;stroke-linecap:round;"/>
     </g>
     <g id="text_8">
      <!-- 50 -->
      <g style="fill:#262626;" transform="translate(384.45059 469.153594)scale(0.11 -0.11)">
       <use xlink:href="#ArialMT-53"/>
       <use x="55.615234" xlink:href="#ArialMT-48"/>
      </g>
     </g>
    </g>
    <g id="text_9">
     <!-- PDQ39_change -->
     <defs>
      <path d="M 7.71875 0 
L 7.71875 71.578125 
L 34.71875 71.578125 
Q 41.84375 71.578125 45.609375 70.90625 
Q 50.875 70.015625 54.4375 67.546875 
Q 58.015625 65.09375 60.1875 60.640625 
Q 62.359375 56.203125 62.359375 50.875 
Q 62.359375 41.75 56.546875 35.421875 
Q 50.734375 29.109375 35.546875 29.109375 
L 17.1875 29.109375 
L 17.1875 0 
z
M 17.1875 37.546875 
L 35.6875 37.546875 
Q 44.875 37.546875 48.734375 40.96875 
Q 52.59375 44.390625 52.59375 50.59375 
Q 52.59375 55.078125 50.3125 58.265625 
Q 48.046875 61.46875 44.34375 62.5 
Q 41.9375 63.140625 35.5 63.140625 
L 17.1875 63.140625 
z
" id="ArialMT-80"/>
      <path d="M 7.71875 0 
L 7.71875 71.578125 
L 32.375 71.578125 
Q 40.71875 71.578125 45.125 70.5625 
Q 51.265625 69.140625 55.609375 65.4375 
Q 61.28125 60.640625 64.078125 53.1875 
Q 66.890625 45.75 66.890625 36.1875 
Q 66.890625 28.03125 64.984375 21.734375 
Q 63.09375 15.4375 60.109375 11.296875 
Q 57.125 7.171875 53.578125 4.796875 
Q 50.046875 2.4375 45.046875 1.21875 
Q 40.046875 0 33.546875 0 
z
M 17.1875 8.453125 
L 32.46875 8.453125 
Q 39.546875 8.453125 43.578125 9.765625 
Q 47.609375 11.078125 50 13.484375 
Q 53.375 16.84375 55.25 22.53125 
Q 57.125 28.21875 57.125 36.328125 
Q 57.125 47.5625 53.4375 53.59375 
Q 49.75 59.625 44.484375 61.671875 
Q 40.671875 63.140625 32.234375 63.140625 
L 17.1875 63.140625 
z
" id="ArialMT-68"/>
      <path d="M 61.96875 7.671875 
Q 68.5625 3.125 74.125 1.03125 
L 71.34375 -5.5625 
Q 63.625 -2.78125 55.953125 3.21875 
Q 48 -1.21875 38.375 -1.21875 
Q 28.65625 -1.21875 20.75 3.46875 
Q 12.84375 8.15625 8.5625 16.640625 
Q 4.296875 25.140625 4.296875 35.796875 
Q 4.296875 46.390625 8.59375 55.078125 
Q 12.890625 63.765625 20.828125 68.3125 
Q 28.765625 72.859375 38.578125 72.859375 
Q 48.484375 72.859375 56.4375 68.140625 
Q 64.40625 63.421875 68.578125 54.953125 
Q 72.75 46.484375 72.75 35.84375 
Q 72.75 27 70.0625 19.9375 
Q 67.390625 12.890625 61.96875 7.671875 
z
M 41.109375 19.78125 
Q 49.3125 17.484375 54.640625 12.9375 
Q 62.984375 20.5625 62.984375 35.84375 
Q 62.984375 44.53125 60.03125 51.015625 
Q 57.078125 57.515625 51.390625 61.109375 
Q 45.703125 64.703125 38.625 64.703125 
Q 28.03125 64.703125 21.046875 57.453125 
Q 14.0625 50.203125 14.0625 35.796875 
Q 14.0625 21.828125 20.96875 14.359375 
Q 27.875 6.890625 38.625 6.890625 
Q 43.703125 6.890625 48.1875 8.796875 
Q 43.75 11.671875 38.8125 12.890625 
z
" id="ArialMT-81"/>
      <path d="M 4.203125 18.890625 
L 12.984375 20.0625 
Q 14.5 12.59375 18.140625 9.296875 
Q 21.78125 6 27 6 
Q 33.203125 6 37.46875 10.296875 
Q 41.75 14.59375 41.75 20.953125 
Q 41.75 27 37.796875 30.921875 
Q 33.84375 34.859375 27.734375 34.859375 
Q 25.25 34.859375 21.53125 33.890625 
L 22.515625 41.609375 
Q 23.390625 41.5 23.921875 41.5 
Q 29.546875 41.5 34.03125 44.421875 
Q 38.53125 47.359375 38.53125 53.46875 
Q 38.53125 58.296875 35.25 61.46875 
Q 31.984375 64.65625 26.8125 64.65625 
Q 21.6875 64.65625 18.265625 61.421875 
Q 14.84375 58.203125 13.875 51.765625 
L 5.078125 53.328125 
Q 6.6875 62.15625 12.390625 67.015625 
Q 18.109375 71.875 26.609375 71.875 
Q 32.46875 71.875 37.390625 69.359375 
Q 42.328125 66.84375 44.9375 62.5 
Q 47.5625 58.15625 47.5625 53.265625 
Q 47.5625 48.640625 45.0625 44.828125 
Q 42.578125 41.015625 37.703125 38.765625 
Q 44.046875 37.3125 47.5625 32.6875 
Q 51.078125 28.078125 51.078125 21.140625 
Q 51.078125 11.765625 44.234375 5.25 
Q 37.40625 -1.265625 26.953125 -1.265625 
Q 17.53125 -1.265625 11.296875 4.34375 
Q 5.078125 9.96875 4.203125 18.890625 
z
" id="ArialMT-51"/>
      <path d="M 5.46875 16.546875 
L 13.921875 17.328125 
Q 14.984375 11.375 18.015625 8.6875 
Q 21.046875 6 25.78125 6 
Q 29.828125 6 32.875 7.859375 
Q 35.9375 9.71875 37.890625 12.8125 
Q 39.84375 15.921875 41.15625 21.1875 
Q 42.484375 26.46875 42.484375 31.9375 
Q 42.484375 32.515625 42.4375 33.6875 
Q 39.796875 29.5 35.234375 26.875 
Q 30.671875 24.265625 25.34375 24.265625 
Q 16.453125 24.265625 10.296875 30.703125 
Q 4.15625 37.15625 4.15625 47.703125 
Q 4.15625 58.59375 10.578125 65.234375 
Q 17 71.875 26.65625 71.875 
Q 33.640625 71.875 39.421875 68.109375 
Q 45.21875 64.359375 48.21875 57.390625 
Q 51.21875 50.4375 51.21875 37.25 
Q 51.21875 23.53125 48.234375 15.40625 
Q 45.265625 7.28125 39.375 3.03125 
Q 33.5 -1.21875 25.59375 -1.21875 
Q 17.1875 -1.21875 11.859375 3.4375 
Q 6.546875 8.109375 5.46875 16.546875 
z
M 41.453125 48.140625 
Q 41.453125 55.71875 37.421875 60.15625 
Q 33.40625 64.59375 27.734375 64.59375 
Q 21.875 64.59375 17.53125 59.8125 
Q 13.1875 55.03125 13.1875 47.40625 
Q 13.1875 40.578125 17.3125 36.296875 
Q 21.4375 32.03125 27.484375 32.03125 
Q 33.59375 32.03125 37.515625 36.296875 
Q 41.453125 40.578125 41.453125 48.140625 
z
" id="ArialMT-57"/>
      <path d="M -1.515625 -19.875 
L -1.515625 -13.53125 
L 56.734375 -13.53125 
L 56.734375 -19.875 
z
" id="ArialMT-95"/>
      <path d="M 40.4375 19 
L 49.078125 17.875 
Q 47.65625 8.9375 41.8125 3.875 
Q 35.984375 -1.171875 27.484375 -1.171875 
Q 16.84375 -1.171875 10.375 5.78125 
Q 3.90625 12.75 3.90625 25.734375 
Q 3.90625 34.125 6.6875 40.421875 
Q 9.46875 46.734375 15.15625 49.875 
Q 20.84375 53.03125 27.546875 53.03125 
Q 35.984375 53.03125 41.359375 48.75 
Q 46.734375 44.484375 48.25 36.625 
L 39.703125 35.296875 
Q 38.484375 40.53125 35.375 43.15625 
Q 32.28125 45.796875 27.875 45.796875 
Q 21.234375 45.796875 17.078125 41.03125 
Q 12.9375 36.28125 12.9375 25.984375 
Q 12.9375 15.53125 16.9375 10.796875 
Q 20.953125 6.0625 27.390625 6.0625 
Q 32.5625 6.0625 36.03125 9.234375 
Q 39.5 12.40625 40.4375 19 
z
" id="ArialMT-99"/>
      <path d="M 6.59375 0 
L 6.59375 71.578125 
L 15.375 71.578125 
L 15.375 45.90625 
Q 21.53125 53.03125 30.90625 53.03125 
Q 36.671875 53.03125 40.921875 50.75 
Q 45.171875 48.484375 47 44.484375 
Q 48.828125 40.484375 48.828125 32.859375 
L 48.828125 0 
L 40.046875 0 
L 40.046875 32.859375 
Q 40.046875 39.453125 37.1875 42.453125 
Q 34.328125 45.453125 29.109375 45.453125 
Q 25.203125 45.453125 21.75 43.421875 
Q 18.3125 41.40625 16.84375 37.9375 
Q 15.375 34.46875 15.375 28.375 
L 15.375 0 
z
" id="ArialMT-104"/>
      <path d="M 40.4375 6.390625 
Q 35.546875 2.25 31.03125 0.53125 
Q 26.515625 -1.171875 21.34375 -1.171875 
Q 12.796875 -1.171875 8.203125 3 
Q 3.609375 7.171875 3.609375 13.671875 
Q 3.609375 17.484375 5.34375 20.625 
Q 7.078125 23.78125 9.890625 25.6875 
Q 12.703125 27.59375 16.21875 28.5625 
Q 18.796875 29.25 24.03125 29.890625 
Q 34.671875 31.15625 39.703125 32.90625 
Q 39.75 34.71875 39.75 35.203125 
Q 39.75 40.578125 37.25 42.78125 
Q 33.890625 45.75 27.25 45.75 
Q 21.046875 45.75 18.09375 43.578125 
Q 15.140625 41.40625 13.71875 35.890625 
L 5.125 37.0625 
Q 6.296875 42.578125 8.984375 45.96875 
Q 11.671875 49.359375 16.75 51.1875 
Q 21.828125 53.03125 28.515625 53.03125 
Q 35.15625 53.03125 39.296875 51.46875 
Q 43.453125 49.90625 45.40625 47.53125 
Q 47.359375 45.171875 48.140625 41.546875 
Q 48.578125 39.3125 48.578125 33.453125 
L 48.578125 21.734375 
Q 48.578125 9.46875 49.140625 6.21875 
Q 49.703125 2.984375 51.375 0 
L 42.1875 0 
Q 40.828125 2.734375 40.4375 6.390625 
z
M 39.703125 26.03125 
Q 34.90625 24.078125 25.34375 22.703125 
Q 19.921875 21.921875 17.671875 20.9375 
Q 15.4375 19.96875 14.203125 18.09375 
Q 12.984375 16.21875 12.984375 13.921875 
Q 12.984375 10.40625 15.640625 8.0625 
Q 18.3125 5.71875 23.4375 5.71875 
Q 28.515625 5.71875 32.46875 7.9375 
Q 36.421875 10.15625 38.28125 14.015625 
Q 39.703125 17 39.703125 22.796875 
z
" id="ArialMT-97"/>
      <path d="M 6.59375 0 
L 6.59375 51.859375 
L 14.5 51.859375 
L 14.5 44.484375 
Q 20.21875 53.03125 31 53.03125 
Q 35.6875 53.03125 39.625 51.34375 
Q 43.5625 49.65625 45.515625 46.921875 
Q 47.46875 44.1875 48.25 40.4375 
Q 48.734375 37.984375 48.734375 31.890625 
L 48.734375 0 
L 39.9375 0 
L 39.9375 31.546875 
Q 39.9375 36.921875 38.90625 39.578125 
Q 37.890625 42.234375 35.28125 43.8125 
Q 32.671875 45.40625 29.15625 45.40625 
Q 23.53125 45.40625 19.453125 41.84375 
Q 15.375 38.28125 15.375 28.328125 
L 15.375 0 
z
" id="ArialMT-110"/>
      <path d="M 4.984375 -4.296875 
L 13.53125 -5.5625 
Q 14.0625 -9.515625 16.5 -11.328125 
Q 19.78125 -13.765625 25.4375 -13.765625 
Q 31.546875 -13.765625 34.859375 -11.328125 
Q 38.1875 -8.890625 39.359375 -4.5 
Q 40.046875 -1.8125 39.984375 6.78125 
Q 34.234375 0 25.640625 0 
Q 14.9375 0 9.078125 7.71875 
Q 3.21875 15.4375 3.21875 26.21875 
Q 3.21875 33.640625 5.90625 39.90625 
Q 8.59375 46.1875 13.6875 49.609375 
Q 18.796875 53.03125 25.6875 53.03125 
Q 34.859375 53.03125 40.828125 45.609375 
L 40.828125 51.859375 
L 48.921875 51.859375 
L 48.921875 7.03125 
Q 48.921875 -5.078125 46.453125 -10.125 
Q 44 -15.1875 38.640625 -18.109375 
Q 33.296875 -21.046875 25.484375 -21.046875 
Q 16.21875 -21.046875 10.5 -16.875 
Q 4.78125 -12.703125 4.984375 -4.296875 
z
M 12.25 26.859375 
Q 12.25 16.65625 16.296875 11.96875 
Q 20.359375 7.28125 26.46875 7.28125 
Q 32.515625 7.28125 36.609375 11.9375 
Q 40.71875 16.609375 40.71875 26.5625 
Q 40.71875 36.078125 36.5 40.90625 
Q 32.28125 45.75 26.3125 45.75 
Q 20.453125 45.75 16.34375 40.984375 
Q 12.25 36.234375 12.25 26.859375 
z
" id="ArialMT-103"/>
      <path d="M 42.09375 16.703125 
L 51.171875 15.578125 
Q 49.03125 7.625 43.21875 3.21875 
Q 37.40625 -1.171875 28.375 -1.171875 
Q 17 -1.171875 10.328125 5.828125 
Q 3.65625 12.84375 3.65625 25.484375 
Q 3.65625 38.578125 10.390625 45.796875 
Q 17.140625 53.03125 27.875 53.03125 
Q 38.28125 53.03125 44.875 45.953125 
Q 51.46875 38.875 51.46875 26.03125 
Q 51.46875 25.25 51.421875 23.6875 
L 12.75 23.6875 
Q 13.234375 15.140625 17.578125 10.59375 
Q 21.921875 6.0625 28.421875 6.0625 
Q 33.25 6.0625 36.671875 8.59375 
Q 40.09375 11.140625 42.09375 16.703125 
z
M 13.234375 30.90625 
L 42.1875 30.90625 
Q 41.609375 37.453125 38.875 40.71875 
Q 34.671875 45.796875 27.984375 45.796875 
Q 21.921875 45.796875 17.796875 41.75 
Q 13.671875 37.703125 13.234375 30.90625 
z
" id="ArialMT-101"/>
     </defs>
     <g style="fill:#262626;" transform="translate(195.66004 484.082969)scale(0.12 -0.12)">
      <use xlink:href="#ArialMT-80"/>
      <use x="66.699219" xlink:href="#ArialMT-68"/>
      <use x="138.916016" xlink:href="#ArialMT-81"/>
      <use x="216.699219" xlink:href="#ArialMT-51"/>
      <use x="272.314453" xlink:href="#ArialMT-57"/>
      <use x="327.929688" xlink:href="#ArialMT-95"/>
      <use x="383.544922" xlink:href="#ArialMT-99"/>
      <use x="433.544922" xlink:href="#ArialMT-104"/>
      <use x="489.160156" xlink:href="#ArialMT-97"/>
      <use x="544.775391" xlink:href="#ArialMT-110"/>
      <use x="600.390625" xlink:href="#ArialMT-103"/>
      <use x="656.005859" xlink:href="#ArialMT-101"/>
     </g>
    </g>
   </g>
   <g id="matplotlib.axis_2">
    <g id="ytick_1">
     <g id="line2d_9">
      <path clip-path="url(#pbaa3a0386e)" d="M 56.450156 430.176863 
L 420.259299 430.176863 
" style="fill:none;stroke:#ffffff;stroke-linecap:round;"/>
     </g>
     <g id="text_10">
      <!-- −200 -->
      <g style="fill:#262626;" transform="translate(22.174375 434.11366)scale(0.11 -0.11)">
       <use xlink:href="#ArialMT-8722"/>
       <use x="58.398438" xlink:href="#ArialMT-50"/>
       <use x="114.013672" xlink:href="#ArialMT-48"/>
       <use x="169.628906" xlink:href="#ArialMT-48"/>
      </g>
     </g>
    </g>
    <g id="ytick_2">
     <g id="line2d_10">
      <path clip-path="url(#pbaa3a0386e)" d="M 56.450156 386.479127 
L 420.259299 386.479127 
" style="fill:none;stroke:#ffffff;stroke-linecap:round;"/>
     </g>
     <g id="text_11">
      <!-- −100 -->
      <g style="fill:#262626;" transform="translate(22.174375 390.415924)scale(0.11 -0.11)">
       <use xlink:href="#ArialMT-8722"/>
       <use x="58.398438" xlink:href="#ArialMT-49"/>
       <use x="114.013672" xlink:href="#ArialMT-48"/>
       <use x="169.628906" xlink:href="#ArialMT-48"/>
      </g>
     </g>
    </g>
    <g id="ytick_3">
     <g id="line2d_11">
      <path clip-path="url(#pbaa3a0386e)" d="M 56.450156 342.78139 
L 420.259299 342.78139 
" style="fill:none;stroke:#ffffff;stroke-linecap:round;"/>
     </g>
     <g id="text_12">
      <!-- 0 -->
      <g style="fill:#262626;" transform="translate(40.833125 346.718187)scale(0.11 -0.11)">
       <use xlink:href="#ArialMT-48"/>
      </g>
     </g>
    </g>
    <g id="ytick_4">
     <g id="line2d_12">
      <path clip-path="url(#pbaa3a0386e)" d="M 56.450156 299.083654 
L 420.259299 299.083654 
" style="fill:none;stroke:#ffffff;stroke-linecap:round;"/>
     </g>
     <g id="text_13">
      <!-- 100 -->
      <g style="fill:#262626;" transform="translate(28.599063 303.020451)scale(0.11 -0.11)">
       <use xlink:href="#ArialMT-49"/>
       <use x="55.615234" xlink:href="#ArialMT-48"/>
       <use x="111.230469" xlink:href="#ArialMT-48"/>
      </g>
     </g>
    </g>
    <g id="ytick_5">
     <g id="line2d_13">
      <path clip-path="url(#pbaa3a0386e)" d="M 56.450156 255.385918 
L 420.259299 255.385918 
" style="fill:none;stroke:#ffffff;stroke-linecap:round;"/>
     </g>
     <g id="text_14">
      <!-- 200 -->
      <g style="fill:#262626;" transform="translate(28.599063 259.322715)scale(0.11 -0.11)">
       <use xlink:href="#ArialMT-50"/>
       <use x="55.615234" xlink:href="#ArialMT-48"/>
       <use x="111.230469" xlink:href="#ArialMT-48"/>
      </g>
     </g>
    </g>
    <g id="ytick_6">
     <g id="line2d_14">
      <path clip-path="url(#pbaa3a0386e)" d="M 56.450156 211.688182 
L 420.259299 211.688182 
" style="fill:none;stroke:#ffffff;stroke-linecap:round;"/>
     </g>
     <g id="text_15">
      <!-- 300 -->
      <g style="fill:#262626;" transform="translate(28.599063 215.624979)scale(0.11 -0.11)">
       <use xlink:href="#ArialMT-51"/>
       <use x="55.615234" xlink:href="#ArialMT-48"/>
       <use x="111.230469" xlink:href="#ArialMT-48"/>
      </g>
     </g>
    </g>
    <g id="ytick_7">
     <g id="line2d_15">
      <path clip-path="url(#pbaa3a0386e)" d="M 56.450156 167.990445 
L 420.259299 167.990445 
" style="fill:none;stroke:#ffffff;stroke-linecap:round;"/>
     </g>
     <g id="text_16">
      <!-- 400 -->
      <defs>
       <path d="M 32.328125 0 
L 32.328125 17.140625 
L 1.265625 17.140625 
L 1.265625 25.203125 
L 33.9375 71.578125 
L 41.109375 71.578125 
L 41.109375 25.203125 
L 50.78125 25.203125 
L 50.78125 17.140625 
L 41.109375 17.140625 
L 41.109375 0 
z
M 32.328125 25.203125 
L 32.328125 57.46875 
L 9.90625 25.203125 
z
" id="ArialMT-52"/>
      </defs>
      <g style="fill:#262626;" transform="translate(28.599063 171.927242)scale(0.11 -0.11)">
       <use xlink:href="#ArialMT-52"/>
       <use x="55.615234" xlink:href="#ArialMT-48"/>
       <use x="111.230469" xlink:href="#ArialMT-48"/>
      </g>
     </g>
    </g>
    <g id="ytick_8">
     <g id="line2d_16">
      <path clip-path="url(#pbaa3a0386e)" d="M 56.450156 124.292709 
L 420.259299 124.292709 
" style="fill:none;stroke:#ffffff;stroke-linecap:round;"/>
     </g>
     <g id="text_17">
      <!-- 500 -->
      <g style="fill:#262626;" transform="translate(28.599063 128.229506)scale(0.11 -0.11)">
       <use xlink:href="#ArialMT-53"/>
       <use x="55.615234" xlink:href="#ArialMT-48"/>
       <use x="111.230469" xlink:href="#ArialMT-48"/>
      </g>
     </g>
    </g>
    <g id="text_18">
     <!-- Motor_VAT -->
     <defs>
      <path d="M 7.421875 0 
L 7.421875 71.578125 
L 21.6875 71.578125 
L 38.625 20.90625 
Q 40.96875 13.8125 42.046875 10.296875 
Q 43.265625 14.203125 45.84375 21.78125 
L 62.984375 71.578125 
L 75.734375 71.578125 
L 75.734375 0 
L 66.609375 0 
L 66.609375 59.90625 
L 45.796875 0 
L 37.25 0 
L 16.546875 60.9375 
L 16.546875 0 
z
" id="ArialMT-77"/>
      <path d="M 3.328125 25.921875 
Q 3.328125 40.328125 11.328125 47.265625 
Q 18.015625 53.03125 27.640625 53.03125 
Q 38.328125 53.03125 45.109375 46.015625 
Q 51.90625 39.015625 51.90625 26.65625 
Q 51.90625 16.65625 48.90625 10.90625 
Q 45.90625 5.171875 40.15625 2 
Q 34.421875 -1.171875 27.640625 -1.171875 
Q 16.75 -1.171875 10.03125 5.8125 
Q 3.328125 12.796875 3.328125 25.921875 
z
M 12.359375 25.921875 
Q 12.359375 15.96875 16.703125 11.015625 
Q 21.046875 6.0625 27.640625 6.0625 
Q 34.1875 6.0625 38.53125 11.03125 
Q 42.875 16.015625 42.875 26.21875 
Q 42.875 35.84375 38.5 40.796875 
Q 34.125 45.75 27.640625 45.75 
Q 21.046875 45.75 16.703125 40.8125 
Q 12.359375 35.890625 12.359375 25.921875 
z
" id="ArialMT-111"/>
      <path d="M 25.78125 7.859375 
L 27.046875 0.09375 
Q 23.34375 -0.6875 20.40625 -0.6875 
Q 15.625 -0.6875 12.984375 0.828125 
Q 10.359375 2.34375 9.28125 4.8125 
Q 8.203125 7.28125 8.203125 15.1875 
L 8.203125 45.015625 
L 1.765625 45.015625 
L 1.765625 51.859375 
L 8.203125 51.859375 
L 8.203125 64.703125 
L 16.9375 69.96875 
L 16.9375 51.859375 
L 25.78125 51.859375 
L 25.78125 45.015625 
L 16.9375 45.015625 
L 16.9375 14.703125 
Q 16.9375 10.9375 17.40625 9.859375 
Q 17.875 8.796875 18.921875 8.15625 
Q 19.96875 7.515625 21.921875 7.515625 
Q 23.390625 7.515625 25.78125 7.859375 
z
" id="ArialMT-116"/>
      <path d="M 6.5 0 
L 6.5 51.859375 
L 14.40625 51.859375 
L 14.40625 44 
Q 17.4375 49.515625 20 51.265625 
Q 22.5625 53.03125 25.640625 53.03125 
Q 30.078125 53.03125 34.671875 50.203125 
L 31.640625 42.046875 
Q 28.421875 43.953125 25.203125 43.953125 
Q 22.3125 43.953125 20.015625 42.21875 
Q 17.71875 40.484375 16.75 37.40625 
Q 15.28125 32.71875 15.28125 27.15625 
L 15.28125 0 
z
" id="ArialMT-114"/>
      <path d="M 28.171875 0 
L 0.4375 71.578125 
L 10.6875 71.578125 
L 29.296875 19.578125 
Q 31.546875 13.328125 33.0625 7.859375 
Q 34.71875 13.71875 36.921875 19.578125 
L 56.25 71.578125 
L 65.921875 71.578125 
L 37.890625 0 
z
" id="ArialMT-86"/>
      <path d="M -0.140625 0 
L 27.34375 71.578125 
L 37.546875 71.578125 
L 66.84375 0 
L 56.0625 0 
L 47.703125 21.6875 
L 17.78125 21.6875 
L 9.90625 0 
z
M 20.515625 29.390625 
L 44.78125 29.390625 
L 37.3125 49.21875 
Q 33.890625 58.25 32.234375 64.0625 
Q 30.859375 57.171875 28.375 50.390625 
z
" id="ArialMT-65"/>
      <path d="M 25.921875 0 
L 25.921875 63.140625 
L 2.34375 63.140625 
L 2.34375 71.578125 
L 59.078125 71.578125 
L 59.078125 63.140625 
L 35.40625 63.140625 
L 35.40625 0 
z
" id="ArialMT-84"/>
     </defs>
     <g style="fill:#262626;" transform="translate(15.789375 297.924982)rotate(-90)scale(0.12 -0.12)">
      <use xlink:href="#ArialMT-77"/>
      <use x="83.300781" xlink:href="#ArialMT-111"/>
      <use x="138.916016" xlink:href="#ArialMT-116"/>
      <use x="166.699219" xlink:href="#ArialMT-111"/>
      <use x="222.314453" xlink:href="#ArialMT-114"/>
      <use x="255.615234" xlink:href="#ArialMT-95"/>
      <use x="311.230469" xlink:href="#ArialMT-86"/>
      <use x="377.820312" xlink:href="#ArialMT-65"/>
      <use x="444.410156" xlink:href="#ArialMT-84"/>
     </g>
    </g>
   </g>
   <g id="PathCollection_1">
    <defs>
     <path d="M 0 3 
C 0.795609 3 1.55874 2.683901 2.12132 2.12132 
C 2.683901 1.55874 3 0.795609 3 0 
C 3 -0.795609 2.683901 -1.55874 2.12132 -2.12132 
C 1.55874 -2.683901 0.795609 -3 0 -3 
C -0.795609 -3 -1.55874 -2.683901 -2.12132 -2.12132 
C -2.683901 -1.55874 -3 -0.795609 -3 0 
C -3 0.795609 -2.683901 1.55874 -2.12132 2.12132 
C -1.55874 2.683901 -0.795609 3 0 3 
z
" id="mf1ec7710b8" style="stroke:#8172b3;stroke-opacity:0.8;"/>
    </defs>
    <g clip-path="url(#pbaa3a0386e)">
     <use style="fill:#8172b3;fill-opacity:0.8;stroke:#8172b3;stroke-opacity:0.8;" x="279.791125" xlink:href="#mf1ec7710b8" y="290.759235"/>
     <use style="fill:#8172b3;fill-opacity:0.8;stroke:#8172b3;stroke-opacity:0.8;" x="190.289055" xlink:href="#mf1ec7710b8" y="267.713049"/>
     <use style="fill:#8172b3;fill-opacity:0.8;stroke:#8172b3;stroke-opacity:0.8;" x="295.299835" xlink:href="#mf1ec7710b8" y="193.505554"/>
     <use style="fill:#8172b3;fill-opacity:0.8;stroke:#8172b3;stroke-opacity:0.8;" x="299.730894" xlink:href="#mf1ec7710b8" y="212.754406"/>
     <use style="fill:#8172b3;fill-opacity:0.8;stroke:#8172b3;stroke-opacity:0.8;" x="176.978561" xlink:href="#mf1ec7710b8" y="284.960546"/>
     <use style="fill:#8172b3;fill-opacity:0.8;stroke:#8172b3;stroke-opacity:0.8;" x="224.402877" xlink:href="#mf1ec7710b8" y="277.269744"/>
     <use style="fill:#8172b3;fill-opacity:0.8;stroke:#8172b3;stroke-opacity:0.8;" x="191.066399" xlink:href="#mf1ec7710b8" y="254.284735"/>
     <use style="fill:#8172b3;fill-opacity:0.8;stroke:#8172b3;stroke-opacity:0.8;" x="240.581398" xlink:href="#mf1ec7710b8" y="313.722396"/>
    </g>
   </g>
   <g id="PolyCollection_1">
    <defs>
     <path d="M 56.450156 -271.521277 
L 56.450156 -58.772516 
L 60.124996 -62.051317 
L 63.799836 -65.330119 
L 67.474676 -68.608921 
L 71.149516 -71.887722 
L 74.824355 -75.166524 
L 78.499195 -78.445325 
L 82.174035 -81.724127 
L 85.848875 -85.002929 
L 89.523715 -88.28173 
L 93.198555 -91.560532 
L 96.873394 -94.839333 
L 100.548234 -98.118135 
L 104.223074 -101.396937 
L 107.897914 -104.675738 
L 111.572754 -107.95454 
L 115.247593 -111.233341 
L 118.922433 -114.512143 
L 122.597273 -117.790945 
L 126.272113 -121.069746 
L 129.946953 -124.383382 
L 133.621793 -127.788356 
L 137.296632 -131.19333 
L 140.971472 -134.520568 
L 144.646312 -137.789268 
L 148.321152 -141.044766 
L 151.995992 -144.001408 
L 155.670832 -147.267848 
L 159.345671 -150.535153 
L 163.020511 -153.802459 
L 166.695351 -157.069765 
L 170.370191 -159.688625 
L 174.045031 -162.186544 
L 177.719871 -164.684463 
L 181.39471 -167.578738 
L 185.06955 -170.533879 
L 188.74439 -174.018098 
L 192.41923 -176.509828 
L 196.09407 -179.947703 
L 199.768909 -183.386239 
L 203.443749 -186.09848 
L 207.118589 -188.545514 
L 210.793429 -191.573859 
L 214.468269 -194.483884 
L 218.143109 -196.512376 
L 221.817948 -198.85598 
L 225.492788 -199.028743 
L 229.167628 -200.85946 
L 232.842468 -201.361827 
L 236.517308 -200.894549 
L 240.192148 -201.004359 
L 243.866987 -200.212042 
L 247.541827 -198.839898 
L 251.216667 -197.257906 
L 254.891507 -196.754607 
L 258.566347 -196.724539 
L 262.241187 -196.163196 
L 265.916026 -195.320871 
L 269.590866 -194.229907 
L 273.265706 -193.543483 
L 276.940546 -192.547 
L 280.615386 -191.365183 
L 284.290226 -190.393679 
L 287.965065 -189.251559 
L 291.639905 -187.830989 
L 295.314745 -186.410419 
L 298.989585 -184.989848 
L 302.664425 -183.569278 
L 306.339264 -182.152546 
L 310.014104 -180.742973 
L 313.688944 -179.485699 
L 317.363784 -178.480374 
L 321.038624 -177.488249 
L 324.713464 -176.497353 
L 328.388303 -175.506457 
L 332.063143 -174.404129 
L 335.737983 -172.99593 
L 339.412823 -171.684162 
L 343.087663 -170.372395 
L 346.762503 -169.060627 
L 350.437342 -167.74886 
L 354.112182 -166.447924 
L 357.787022 -165.154237 
L 361.461862 -163.860551 
L 365.136702 -162.9916 
L 368.811542 -162.146709 
L 372.486381 -161.30678 
L 376.161221 -160.470034 
L 379.836061 -159.029932 
L 383.510901 -157.546691 
L 387.185741 -156.220369 
L 390.86058 -155.22779 
L 394.53542 -154.23521 
L 398.21026 -153.073905 
L 401.8851 -151.753692 
L 405.55994 -150.433478 
L 409.23478 -149.113265 
L 412.909619 -147.793051 
L 416.584459 -146.477554 
L 420.259299 -145.162107 
L 420.259299 -393.650957 
L 420.259299 -393.650957 
L 416.584459 -390.56139 
L 412.909619 -387.045376 
L 409.23478 -383.523152 
L 405.55994 -380.585691 
L 401.8851 -377.795782 
L 398.21026 -375.044474 
L 394.53542 -372.176529 
L 390.86058 -369.061258 
L 387.185741 -366.459596 
L 383.510901 -363.375298 
L 379.836061 -360.804223 
L 376.161221 -357.823957 
L 372.486381 -355.136286 
L 368.811542 -351.673245 
L 365.136702 -349.090058 
L 361.461862 -345.305 
L 357.787022 -342.507342 
L 354.112182 -339.702212 
L 350.437342 -336.947928 
L 346.762503 -333.938414 
L 343.087663 -331.216316 
L 339.412823 -328.492393 
L 335.737983 -325.088016 
L 332.063143 -321.606882 
L 328.388303 -318.624993 
L 324.713464 -315.950606 
L 321.038624 -313.161641 
L 317.363784 -310.256677 
L 313.688944 -307.186622 
L 310.014104 -304.44318 
L 306.339264 -300.12071 
L 302.664425 -297.5719 
L 298.989585 -294.936114 
L 295.314745 -292.0791 
L 291.639905 -289.440355 
L 287.965065 -286.870722 
L 284.290226 -284.311921 
L 280.615386 -281.87768 
L 276.940546 -279.372772 
L 273.265706 -276.950428 
L 269.590866 -274.884554 
L 265.916026 -272.573526 
L 262.241187 -270.088197 
L 258.566347 -267.60256 
L 254.891507 -265.113194 
L 251.216667 -262.625359 
L 247.541827 -260.141786 
L 243.866987 -257.648828 
L 240.192148 -255.0368 
L 236.517308 -252.587813 
L 232.842468 -250.182979 
L 229.167628 -247.876096 
L 225.492788 -245.578176 
L 221.817948 -243.436657 
L 218.143109 -241.538193 
L 214.468269 -239.586918 
L 210.793429 -237.743939 
L 207.118589 -235.917141 
L 203.443749 -234.083642 
L 199.768909 -232.364927 
L 196.09407 -230.792585 
L 192.41923 -229.44299 
L 188.74439 -228.854812 
L 185.06955 -229.367652 
L 181.39471 -230.102098 
L 177.719871 -230.266898 
L 174.045031 -231.44191 
L 170.370191 -233.32434 
L 166.695351 -234.235494 
L 163.020511 -235.13798 
L 159.345671 -236.312999 
L 155.670832 -237.712537 
L 151.995992 -239.282721 
L 148.321152 -240.526824 
L 144.646312 -241.941645 
L 140.971472 -243.348276 
L 137.296632 -244.751186 
L 133.621793 -246.152708 
L 129.946953 -247.55423 
L 126.272113 -248.674238 
L 122.597273 -249.74388 
L 118.922433 -250.813522 
L 115.247593 -251.883163 
L 111.572754 -252.952805 
L 107.897914 -254.022446 
L 104.223074 -255.254816 
L 100.548234 -256.555821 
L 96.873394 -257.851535 
L 93.198555 -258.981848 
L 89.523715 -260.112161 
L 85.848875 -261.242474 
L 82.174035 -262.372787 
L 78.499195 -263.5031 
L 74.824355 -264.633413 
L 71.149516 -265.895441 
L 67.474676 -267.3019 
L 63.799836 -268.708359 
L 60.124996 -270.114818 
L 56.450156 -271.521277 
z
" id="mdd0f6ec385" style="stroke:#ffffff;stroke-opacity:0.15;"/>
    </defs>
    <g clip-path="url(#pbaa3a0386e)">
     <use style="fill:#8172b3;fill-opacity:0.15;stroke:#ffffff;stroke-opacity:0.15;" x="0" xlink:href="#mdd0f6ec385" y="493.808594"/>
    </g>
   </g>
   <g id="line2d_17">
    <path clip-path="url(#pbaa3a0386e)" d="M 56.450156 336.895728 
L 60.124996 335.370968 
L 63.799836 333.846208 
L 67.474676 332.321448 
L 71.149516 330.796688 
L 74.824355 329.271928 
L 78.499195 327.747168 
L 82.174035 326.222408 
L 85.848875 324.697648 
L 89.523715 323.172887 
L 93.198555 321.648127 
L 96.873394 320.123367 
L 100.548234 318.598607 
L 104.223074 317.073847 
L 107.897914 315.549087 
L 111.572754 314.024327 
L 115.247593 312.499567 
L 118.922433 310.974807 
L 122.597273 309.450047 
L 126.272113 307.925287 
L 129.946953 306.400527 
L 133.621793 304.875767 
L 137.296632 303.351007 
L 140.971472 301.826246 
L 144.646312 300.301486 
L 148.321152 298.776726 
L 151.995992 297.251966 
L 155.670832 295.727206 
L 159.345671 294.202446 
L 163.020511 292.677686 
L 166.695351 291.152926 
L 170.370191 289.628166 
L 174.045031 288.103406 
L 177.719871 286.578646 
L 181.39471 285.053886 
L 185.06955 283.529126 
L 188.74439 282.004365 
L 192.41923 280.479605 
L 196.09407 278.954845 
L 199.768909 277.430085 
L 203.443749 275.905325 
L 207.118589 274.380565 
L 210.793429 272.855805 
L 214.468269 271.331045 
L 218.143109 269.806285 
L 221.817948 268.281525 
L 225.492788 266.756765 
L 229.167628 265.232005 
L 232.842468 263.707245 
L 236.517308 262.182485 
L 240.192148 260.657724 
L 243.866987 259.132964 
L 247.541827 257.608204 
L 251.216667 256.083444 
L 254.891507 254.558684 
L 258.566347 253.033924 
L 262.241187 251.509164 
L 265.916026 249.984404 
L 269.590866 248.459644 
L 273.265706 246.934884 
L 276.940546 245.410124 
L 280.615386 243.885364 
L 284.290226 242.360604 
L 287.965065 240.835844 
L 291.639905 239.311083 
L 295.314745 237.786323 
L 298.989585 236.261563 
L 302.664425 234.736803 
L 306.339264 233.212043 
L 310.014104 231.687283 
L 313.688944 230.162523 
L 317.363784 228.637763 
L 321.038624 227.113003 
L 324.713464 225.588243 
L 328.388303 224.063483 
L 332.063143 222.538723 
L 335.737983 221.013963 
L 339.412823 219.489202 
L 343.087663 217.964442 
L 346.762503 216.439682 
L 350.437342 214.914922 
L 354.112182 213.390162 
L 357.787022 211.865402 
L 361.461862 210.340642 
L 365.136702 208.815882 
L 368.811542 207.291122 
L 372.486381 205.766362 
L 376.161221 204.241602 
L 379.836061 202.716842 
L 383.510901 201.192082 
L 387.185741 199.667322 
L 390.86058 198.142561 
L 394.53542 196.617801 
L 398.21026 195.093041 
L 401.8851 193.568281 
L 405.55994 192.043521 
L 409.23478 190.518761 
L 412.909619 188.994001 
L 416.584459 187.469241 
L 420.259299 185.944481 
" style="fill:none;stroke:#8172b3;stroke-linecap:round;stroke-width:2.25;"/>
   </g>
   <g id="patch_3">
    <path d="M 56.450156 451.78 
L 56.450156 83.413714 
" style="fill:none;stroke:#ffffff;stroke-linecap:square;stroke-linejoin:miter;stroke-width:1.25;"/>
   </g>
   <g id="patch_4">
    <path d="M 56.450156 451.78 
L 420.259299 451.78 
" style="fill:none;stroke:#ffffff;stroke-linecap:square;stroke-linejoin:miter;stroke-width:1.25;"/>
   </g>
  </g>
  <g id="axes_2">
   <g id="patch_5">
    <path d="M 56.450156 70.711429 
L 420.259299 70.711429 
L 420.259299 7.2 
L 56.450156 7.2 
z
" style="fill:#eaeaf2;"/>
   </g>
   <g id="matplotlib.axis_3">
    <g id="xtick_9">
     <g id="line2d_18">
      <path clip-path="url(#p99ec94b19c)" d="M 72.639078 70.711429 
L 72.639078 7.2 
" style="fill:none;stroke:#ffffff;stroke-linecap:round;"/>
     </g>
    </g>
    <g id="xtick_10">
     <g id="line2d_19">
      <path clip-path="url(#p99ec94b19c)" d="M 118.057441 70.711429 
L 118.057441 7.2 
" style="fill:none;stroke:#ffffff;stroke-linecap:round;"/>
     </g>
    </g>
    <g id="xtick_11">
     <g id="line2d_20">
      <path clip-path="url(#p99ec94b19c)" d="M 163.475804 70.711429 
L 163.475804 7.2 
" style="fill:none;stroke:#ffffff;stroke-linecap:round;"/>
     </g>
    </g>
    <g id="xtick_12">
     <g id="line2d_21">
      <path clip-path="url(#p99ec94b19c)" d="M 208.894168 70.711429 
L 208.894168 7.2 
" style="fill:none;stroke:#ffffff;stroke-linecap:round;"/>
     </g>
    </g>
    <g id="xtick_13">
     <g id="line2d_22">
      <path clip-path="url(#p99ec94b19c)" d="M 254.312531 70.711429 
L 254.312531 7.2 
" style="fill:none;stroke:#ffffff;stroke-linecap:round;"/>
     </g>
    </g>
    <g id="xtick_14">
     <g id="line2d_23">
      <path clip-path="url(#p99ec94b19c)" d="M 299.730894 70.711429 
L 299.730894 7.2 
" style="fill:none;stroke:#ffffff;stroke-linecap:round;"/>
     </g>
    </g>
    <g id="xtick_15">
     <g id="line2d_24">
      <path clip-path="url(#p99ec94b19c)" d="M 345.149258 70.711429 
L 345.149258 7.2 
" style="fill:none;stroke:#ffffff;stroke-linecap:round;"/>
     </g>
    </g>
    <g id="xtick_16">
     <g id="line2d_25">
      <path clip-path="url(#p99ec94b19c)" d="M 390.567621 70.711429 
L 390.567621 7.2 
" style="fill:none;stroke:#ffffff;stroke-linecap:round;"/>
     </g>
    </g>
   </g>
   <g id="matplotlib.axis_4">
    <g id="ytick_9"/>
    <g id="ytick_10"/>
   </g>
   <g id="patch_6">
    <path clip-path="url(#p99ec94b19c)" d="M 176.978561 70.711429 
L 238.354728 70.711429 
L 238.354728 10.224354 
L 176.978561 10.224354 
z
" style="fill:#8172b3;opacity:0.4;stroke:#ffffff;stroke-linejoin:miter;"/>
   </g>
   <g id="patch_7">
    <path clip-path="url(#p99ec94b19c)" d="M 238.354728 70.711429 
L 299.730894 70.711429 
L 299.730894 10.224354 
L 238.354728 10.224354 
z
" style="fill:#8172b3;opacity:0.4;stroke:#ffffff;stroke-linejoin:miter;"/>
   </g>
   <g id="line2d_26">
    <path clip-path="url(#p99ec94b19c)" d="M 72.986935 70.327764 
L 80.799587 70.230128 
L 88.612239 69.935275 
L 96.42489 69.379874 
L 101.633325 68.817369 
L 106.841759 68.05985 
L 112.050193 67.068703 
L 117.258628 65.805831 
L 122.467062 64.237676 
L 127.675497 62.339825 
L 132.883931 60.101793 
L 138.092365 57.531407 
L 143.3008 54.658097 
L 148.509234 51.534444 
L 156.321886 46.548918 
L 166.738755 39.868382 
L 171.947189 36.76348 
L 177.155623 33.956802 
L 182.364058 31.535399 
L 187.572492 29.562229 
L 190.176709 28.755577 
L 192.780927 28.071355 
L 195.385144 27.508997 
L 197.989361 27.066056 
L 203.197795 26.519904 
L 208.40623 26.380531 
L 213.614664 26.575466 
L 218.823099 27.019316 
L 226.63575 27.954294 
L 239.656836 29.555149 
L 247.469488 30.236475 
L 255.282139 30.645582 
L 273.51166 31.312883 
L 278.720094 31.763006 
L 283.928529 32.480261 
L 289.136963 33.531072 
L 294.345397 34.958547 
L 299.553832 36.776652 
L 304.762266 38.967754 
L 309.970701 41.483885 
L 315.179135 44.251516 
L 325.596004 50.166175 
L 333.408655 54.542406 
L 338.61709 57.263708 
L 343.825524 59.749486 
L 349.033959 61.955932 
L 354.242393 63.860697 
L 359.450827 65.460979 
L 364.659262 66.770028 
L 369.867696 67.812794 
L 375.076131 68.62135 
L 380.284565 69.230653 
L 388.097217 69.845013 
L 395.909868 70.186013 
L 403.72252 70.321732 
L 403.72252 70.321732 
" style="fill:none;stroke:#8172b3;stroke-linecap:round;stroke-width:1.5;"/>
   </g>
   <g id="patch_8">
    <path d="M 56.450156 70.711429 
L 420.259299 70.711429 
" style="fill:none;stroke:#ffffff;stroke-linecap:square;stroke-linejoin:miter;stroke-width:1.25;"/>
   </g>
  </g>
  <g id="axes_3">
   <g id="patch_9">
    <path d="M 432.804442 451.78 
L 495.530156 451.78 
L 495.530156 83.413714 
L 432.804442 83.413714 
z
" style="fill:#eaeaf2;"/>
   </g>
   <g id="matplotlib.axis_5">
    <g id="xtick_17"/>
    <g id="xtick_18"/>
   </g>
   <g id="matplotlib.axis_6">
    <g id="ytick_11">
     <g id="line2d_27">
      <path clip-path="url(#p1396a4e402)" d="M 432.804442 430.176863 
L 495.530156 430.176863 
" style="fill:none;stroke:#ffffff;stroke-linecap:round;"/>
     </g>
    </g>
    <g id="ytick_12">
     <g id="line2d_28">
      <path clip-path="url(#p1396a4e402)" d="M 432.804442 386.479127 
L 495.530156 386.479127 
" style="fill:none;stroke:#ffffff;stroke-linecap:round;"/>
     </g>
    </g>
    <g id="ytick_13">
     <g id="line2d_29">
      <path clip-path="url(#p1396a4e402)" d="M 432.804442 342.78139 
L 495.530156 342.78139 
" style="fill:none;stroke:#ffffff;stroke-linecap:round;"/>
     </g>
    </g>
    <g id="ytick_14">
     <g id="line2d_30">
      <path clip-path="url(#p1396a4e402)" d="M 432.804442 299.083654 
L 495.530156 299.083654 
" style="fill:none;stroke:#ffffff;stroke-linecap:round;"/>
     </g>
    </g>
    <g id="ytick_15">
     <g id="line2d_31">
      <path clip-path="url(#p1396a4e402)" d="M 432.804442 255.385918 
L 495.530156 255.385918 
" style="fill:none;stroke:#ffffff;stroke-linecap:round;"/>
     </g>
    </g>
    <g id="ytick_16">
     <g id="line2d_32">
      <path clip-path="url(#p1396a4e402)" d="M 432.804442 211.688182 
L 495.530156 211.688182 
" style="fill:none;stroke:#ffffff;stroke-linecap:round;"/>
     </g>
    </g>
    <g id="ytick_17">
     <g id="line2d_33">
      <path clip-path="url(#p1396a4e402)" d="M 432.804442 167.990445 
L 495.530156 167.990445 
" style="fill:none;stroke:#ffffff;stroke-linecap:round;"/>
     </g>
    </g>
    <g id="ytick_18">
     <g id="line2d_34">
      <path clip-path="url(#p1396a4e402)" d="M 432.804442 124.292709 
L 495.530156 124.292709 
" style="fill:none;stroke:#ffffff;stroke-linecap:round;"/>
     </g>
    </g>
   </g>
   <g id="patch_10">
    <path clip-path="url(#p1396a4e402)" d="M 432.804442 313.722396 
L 492.543217 313.722396 
L 492.543217 273.650115 
L 432.804442 273.650115 
z
" style="fill:#8172b3;opacity:0.4;stroke:#ffffff;stroke-linejoin:miter;"/>
   </g>
   <g id="patch_11">
    <path clip-path="url(#p1396a4e402)" d="M 432.804442 273.650115 
L 462.67383 273.650115 
L 462.67383 233.577834 
L 432.804442 233.577834 
z
" style="fill:#8172b3;opacity:0.4;stroke:#ffffff;stroke-linejoin:miter;"/>
   </g>
   <g id="patch_12">
    <path clip-path="url(#p1396a4e402)" d="M 432.804442 233.577834 
L 462.67383 233.577834 
L 462.67383 193.505554 
L 432.804442 193.505554 
z
" style="fill:#8172b3;opacity:0.4;stroke:#ffffff;stroke-linejoin:miter;"/>
   </g>
   <g id="line2d_35">
    <path clip-path="url(#p1396a4e402)" d="M 433.040126 379.770234 
L 433.205482 371.823383 
L 433.550548 365.863245 
L 434.175126 359.903107 
L 434.802637 355.929681 
L 435.643091 351.956256 
L 436.734118 347.98283 
L 438.109603 344.009405 
L 439.796518 340.035979 
L 441.812305 336.062554 
L 444.163085 332.089128 
L 446.842605 328.115703 
L 449.831604 324.142277 
L 453.097042 320.168852 
L 458.403496 314.208713 
L 471.242731 300.301724 
L 474.50116 296.328299 
L 477.31494 292.354873 
L 478.50919 290.368161 
L 479.53898 288.381448 
L 480.389227 286.394735 
L 481.046951 284.408022 
L 481.501708 282.42131 
L 481.745964 280.434597 
L 481.775398 278.447884 
L 481.589129 276.461171 
L 481.189851 274.474459 
L 480.583869 272.487746 
L 479.781043 270.501033 
L 478.794632 268.51432 
L 477.641053 266.527608 
L 474.911819 262.554182 
L 471.773752 258.580757 
L 461.953267 246.66048 
L 459.183191 242.687055 
L 457.9766 240.700342 
L 456.903985 238.713629 
L 455.972087 236.726916 
L 455.183881 234.740204 
L 454.53858 232.753491 
L 454.031725 230.766778 
L 453.655389 228.780065 
L 453.247064 224.80664 
L 453.194074 220.833214 
L 453.453234 214.873076 
L 453.650844 208.912938 
L 453.522289 204.939512 
L 453.075691 200.966087 
L 452.265715 196.992662 
L 451.092267 193.019236 
L 449.596148 189.045811 
L 447.850219 185.072385 
L 443.989098 177.125534 
L 441.152853 171.165396 
L 439.44172 167.19197 
L 437.935378 163.218545 
L 436.659719 159.245119 
L 435.619217 155.271694 
L 434.801269 151.298268 
L 434.181665 147.324843 
L 433.557668 141.364705 
L 433.209642 135.404566 
L 433.04055 127.457715 
L 433.04055 127.457715 
" style="fill:none;stroke:#8172b3;stroke-linecap:round;stroke-width:1.5;"/>
   </g>
   <g id="patch_13">
    <path d="M 432.804442 451.78 
L 432.804442 83.413714 
" style="fill:none;stroke:#ffffff;stroke-linecap:square;stroke-linejoin:miter;stroke-width:1.25;"/>
   </g>
  </g>
 </g>
 <defs>
  <clipPath id="pbaa3a0386e">
   <rect height="368.366286" width="363.809143" x="56.450156" y="83.413714"/>
  </clipPath>
  <clipPath id="p99ec94b19c">
   <rect height="63.511429" width="363.809143" x="56.450156" y="7.2"/>
  </clipPath>
  <clipPath id="p1396a4e402">
   <rect height="368.366286" width="62.725714" x="432.804442" y="83.413714"/>
  </clipPath>
 </defs>
</svg>
