<?xml version="1.0" encoding="utf-8" standalone="no"?>
<!DOCTYPE svg PUBLIC "-//W3C//DTD SVG 1.1//EN"
  "http://www.w3.org/Graphics/SVG/1.1/DTD/svg11.dtd">
<!-- Created with matplotlib (https://matplotlib.org/) -->
<svg height="364.390469pt" version="1.1" viewBox="0 0 409.213551 364.390469" width="409.213551pt" xmlns="http://www.w3.org/2000/svg" xmlns:xlink="http://www.w3.org/1999/xlink">
 <defs>
  <style type="text/css">
*{stroke-linecap:butt;stroke-linejoin:round;}
  </style>
 </defs>
 <g id="figure_1">
  <g id="patch_1">
   <path d="M 0 364.390469 
L 409.213551 364.390469 
L 409.213551 0 
L 0 0 
z
" style="fill:#ffffff;"/>
  </g>
  <g id="axes_1">
   <g id="patch_2">
    <path d="M 50.025469 322.369375 
L 341.571301 322.369375 
L 341.571301 21.789375 
L 50.025469 21.789375 
z
" style="fill:#eaeaf2;"/>
   </g>
   <g id="matplotlib.axis_1">
    <g id="xtick_1">
     <g id="line2d_1">
      <path clip-path="url(#p58c37691d6)" d="M 107.641522 322.369375 
L 107.641522 21.789375 
" style="fill:none;stroke:#ffffff;stroke-linecap:round;"/>
     </g>
     <g id="text_1">
      <!-- −60 -->
      <defs>
       <path d="M 52.828125 31.203125 
L 5.5625 31.203125 
L 5.5625 39.40625 
L 52.828125 39.40625 
z
" id="ArialMT-8722"/>
       <path d="M 49.75 54.046875 
L 41.015625 53.375 
Q 39.84375 58.546875 37.703125 60.890625 
Q 34.125 64.65625 28.90625 64.65625 
Q 24.703125 64.65625 21.53125 62.3125 
Q 17.390625 59.28125 14.984375 53.46875 
Q 12.59375 47.65625 12.5 36.921875 
Q 15.671875 41.75 20.265625 44.09375 
Q 24.859375 46.4375 29.890625 46.4375 
Q 38.671875 46.4375 44.84375 39.96875 
Q 51.03125 33.5 51.03125 23.25 
Q 51.03125 16.5 48.125 10.71875 
Q 45.21875 4.9375 40.140625 1.859375 
Q 35.0625 -1.21875 28.609375 -1.21875 
Q 17.625 -1.21875 10.6875 6.859375 
Q 3.765625 14.9375 3.765625 33.5 
Q 3.765625 54.25 11.421875 63.671875 
Q 18.109375 71.875 29.4375 71.875 
Q 37.890625 71.875 43.28125 67.140625 
Q 48.6875 62.40625 49.75 54.046875 
z
M 13.875 23.1875 
Q 13.875 18.65625 15.796875 14.5 
Q 17.71875 10.359375 21.1875 8.171875 
Q 24.65625 6 28.46875 6 
Q 34.03125 6 38.03125 10.484375 
Q 42.046875 14.984375 42.046875 22.703125 
Q 42.046875 30.125 38.078125 34.390625 
Q 34.125 38.671875 28.125 38.671875 
Q 22.171875 38.671875 18.015625 34.390625 
Q 13.875 30.125 13.875 23.1875 
z
" id="ArialMT-54"/>
       <path d="M 4.15625 35.296875 
Q 4.15625 48 6.765625 55.734375 
Q 9.375 63.484375 14.515625 67.671875 
Q 19.671875 71.875 27.484375 71.875 
Q 33.25 71.875 37.59375 69.546875 
Q 41.9375 67.234375 44.765625 62.859375 
Q 47.609375 58.5 49.21875 52.21875 
Q 50.828125 45.953125 50.828125 35.296875 
Q 50.828125 22.703125 48.234375 14.96875 
Q 45.65625 7.234375 40.5 3 
Q 35.359375 -1.21875 27.484375 -1.21875 
Q 17.140625 -1.21875 11.234375 6.203125 
Q 4.15625 15.140625 4.15625 35.296875 
z
M 13.1875 35.296875 
Q 13.1875 17.671875 17.3125 11.828125 
Q 21.4375 6 27.484375 6 
Q 33.546875 6 37.671875 11.859375 
Q 41.796875 17.71875 41.796875 35.296875 
Q 41.796875 52.984375 37.671875 58.78125 
Q 33.546875 64.59375 27.390625 64.59375 
Q 21.34375 64.59375 17.71875 59.46875 
Q 13.1875 52.9375 13.1875 35.296875 
z
" id="ArialMT-48"/>
      </defs>
      <g style="fill:#262626;" transform="translate(98.312147 339.742969)scale(0.11 -0.11)">
       <use xlink:href="#ArialMT-8722"/>
       <use x="58.398438" xlink:href="#ArialMT-54"/>
       <use x="114.013672" xlink:href="#ArialMT-48"/>
      </g>
     </g>
    </g>
    <g id="xtick_2">
     <g id="line2d_2">
      <path clip-path="url(#p58c37691d6)" d="M 169.880635 322.369375 
L 169.880635 21.789375 
" style="fill:none;stroke:#ffffff;stroke-linecap:round;"/>
     </g>
     <g id="text_2">
      <!-- −50 -->
      <defs>
       <path d="M 4.15625 18.75 
L 13.375 19.53125 
Q 14.40625 12.796875 18.140625 9.390625 
Q 21.875 6 27.15625 6 
Q 33.5 6 37.890625 10.78125 
Q 42.28125 15.578125 42.28125 23.484375 
Q 42.28125 31 38.0625 35.34375 
Q 33.84375 39.703125 27 39.703125 
Q 22.75 39.703125 19.328125 37.765625 
Q 15.921875 35.84375 13.96875 32.765625 
L 5.71875 33.84375 
L 12.640625 70.609375 
L 48.25 70.609375 
L 48.25 62.203125 
L 19.671875 62.203125 
L 15.828125 42.96875 
Q 22.265625 47.46875 29.34375 47.46875 
Q 38.71875 47.46875 45.15625 40.96875 
Q 51.609375 34.46875 51.609375 24.265625 
Q 51.609375 14.546875 45.953125 7.46875 
Q 39.0625 -1.21875 27.15625 -1.21875 
Q 17.390625 -1.21875 11.203125 4.25 
Q 5.03125 9.71875 4.15625 18.75 
z
" id="ArialMT-53"/>
      </defs>
      <g style="fill:#262626;" transform="translate(160.55126 339.742969)scale(0.11 -0.11)">
       <use xlink:href="#ArialMT-8722"/>
       <use x="58.398438" xlink:href="#ArialMT-53"/>
       <use x="114.013672" xlink:href="#ArialMT-48"/>
      </g>
     </g>
    </g>
    <g id="xtick_3">
     <g id="line2d_3">
      <path clip-path="url(#p58c37691d6)" d="M 232.119747 322.369375 
L 232.119747 21.789375 
" style="fill:none;stroke:#ffffff;stroke-linecap:round;"/>
     </g>
     <g id="text_3">
      <!-- −40 -->
      <defs>
       <path d="M 32.328125 0 
L 32.328125 17.140625 
L 1.265625 17.140625 
L 1.265625 25.203125 
L 33.9375 71.578125 
L 41.109375 71.578125 
L 41.109375 25.203125 
L 50.78125 25.203125 
L 50.78125 17.140625 
L 41.109375 17.140625 
L 41.109375 0 
z
M 32.328125 25.203125 
L 32.328125 57.46875 
L 9.90625 25.203125 
z
" id="ArialMT-52"/>
      </defs>
      <g style="fill:#262626;" transform="translate(222.790372 339.742969)scale(0.11 -0.11)">
       <use xlink:href="#ArialMT-8722"/>
       <use x="58.398438" xlink:href="#ArialMT-52"/>
       <use x="114.013672" xlink:href="#ArialMT-48"/>
      </g>
     </g>
    </g>
    <g id="xtick_4">
     <g id="line2d_4">
      <path clip-path="url(#p58c37691d6)" d="M 294.358859 322.369375 
L 294.358859 21.789375 
" style="fill:none;stroke:#ffffff;stroke-linecap:round;"/>
     </g>
     <g id="text_4">
      <!-- −30 -->
      <defs>
       <path d="M 4.203125 18.890625 
L 12.984375 20.0625 
Q 14.5 12.59375 18.140625 9.296875 
Q 21.78125 6 27 6 
Q 33.203125 6 37.46875 10.296875 
Q 41.75 14.59375 41.75 20.953125 
Q 41.75 27 37.796875 30.921875 
Q 33.84375 34.859375 27.734375 34.859375 
Q 25.25 34.859375 21.53125 33.890625 
L 22.515625 41.609375 
Q 23.390625 41.5 23.921875 41.5 
Q 29.546875 41.5 34.03125 44.421875 
Q 38.53125 47.359375 38.53125 53.46875 
Q 38.53125 58.296875 35.25 61.46875 
Q 31.984375 64.65625 26.8125 64.65625 
Q 21.6875 64.65625 18.265625 61.421875 
Q 14.84375 58.203125 13.875 51.765625 
L 5.078125 53.328125 
Q 6.6875 62.15625 12.390625 67.015625 
Q 18.109375 71.875 26.609375 71.875 
Q 32.46875 71.875 37.390625 69.359375 
Q 42.328125 66.84375 44.9375 62.5 
Q 47.5625 58.15625 47.5625 53.265625 
Q 47.5625 48.640625 45.0625 44.828125 
Q 42.578125 41.015625 37.703125 38.765625 
Q 44.046875 37.3125 47.5625 32.6875 
Q 51.078125 28.078125 51.078125 21.140625 
Q 51.078125 11.765625 44.234375 5.25 
Q 37.40625 -1.265625 26.953125 -1.265625 
Q 17.53125 -1.265625 11.296875 4.34375 
Q 5.078125 9.96875 4.203125 18.890625 
z
" id="ArialMT-51"/>
      </defs>
      <g style="fill:#262626;" transform="translate(285.029484 339.742969)scale(0.11 -0.11)">
       <use xlink:href="#ArialMT-8722"/>
       <use x="58.398438" xlink:href="#ArialMT-51"/>
       <use x="114.013672" xlink:href="#ArialMT-48"/>
      </g>
     </g>
    </g>
    <g id="text_5">
     <!-- UPDRS3 change -->
     <defs>
      <path d="M 54.6875 71.578125 
L 64.15625 71.578125 
L 64.15625 30.21875 
Q 64.15625 19.4375 61.71875 13.078125 
Q 59.28125 6.734375 52.90625 2.75 
Q 46.53125 -1.21875 36.1875 -1.21875 
Q 26.125 -1.21875 19.71875 2.25 
Q 13.328125 5.71875 10.59375 12.28125 
Q 7.859375 18.84375 7.859375 30.21875 
L 7.859375 71.578125 
L 17.328125 71.578125 
L 17.328125 30.28125 
Q 17.328125 20.953125 19.0625 16.53125 
Q 20.796875 12.109375 25.015625 9.71875 
Q 29.25 7.328125 35.359375 7.328125 
Q 45.796875 7.328125 50.234375 12.0625 
Q 54.6875 16.796875 54.6875 30.28125 
z
" id="ArialMT-85"/>
      <path d="M 7.71875 0 
L 7.71875 71.578125 
L 34.71875 71.578125 
Q 41.84375 71.578125 45.609375 70.90625 
Q 50.875 70.015625 54.4375 67.546875 
Q 58.015625 65.09375 60.1875 60.640625 
Q 62.359375 56.203125 62.359375 50.875 
Q 62.359375 41.75 56.546875 35.421875 
Q 50.734375 29.109375 35.546875 29.109375 
L 17.1875 29.109375 
L 17.1875 0 
z
M 17.1875 37.546875 
L 35.6875 37.546875 
Q 44.875 37.546875 48.734375 40.96875 
Q 52.59375 44.390625 52.59375 50.59375 
Q 52.59375 55.078125 50.3125 58.265625 
Q 48.046875 61.46875 44.34375 62.5 
Q 41.9375 63.140625 35.5 63.140625 
L 17.1875 63.140625 
z
" id="ArialMT-80"/>
      <path d="M 7.71875 0 
L 7.71875 71.578125 
L 32.375 71.578125 
Q 40.71875 71.578125 45.125 70.5625 
Q 51.265625 69.140625 55.609375 65.4375 
Q 61.28125 60.640625 64.078125 53.1875 
Q 66.890625 45.75 66.890625 36.1875 
Q 66.890625 28.03125 64.984375 21.734375 
Q 63.09375 15.4375 60.109375 11.296875 
Q 57.125 7.171875 53.578125 4.796875 
Q 50.046875 2.4375 45.046875 1.21875 
Q 40.046875 0 33.546875 0 
z
M 17.1875 8.453125 
L 32.46875 8.453125 
Q 39.546875 8.453125 43.578125 9.765625 
Q 47.609375 11.078125 50 13.484375 
Q 53.375 16.84375 55.25 22.53125 
Q 57.125 28.21875 57.125 36.328125 
Q 57.125 47.5625 53.4375 53.59375 
Q 49.75 59.625 44.484375 61.671875 
Q 40.671875 63.140625 32.234375 63.140625 
L 17.1875 63.140625 
z
" id="ArialMT-68"/>
      <path d="M 7.859375 0 
L 7.859375 71.578125 
L 39.59375 71.578125 
Q 49.171875 71.578125 54.140625 69.640625 
Q 59.125 67.71875 62.109375 62.828125 
Q 65.09375 57.953125 65.09375 52.046875 
Q 65.09375 44.4375 60.15625 39.203125 
Q 55.21875 33.984375 44.921875 32.5625 
Q 48.6875 30.765625 50.640625 29 
Q 54.78125 25.203125 58.5 19.484375 
L 70.953125 0 
L 59.03125 0 
L 49.5625 14.890625 
Q 45.40625 21.34375 42.71875 24.75 
Q 40.046875 28.171875 37.921875 29.53125 
Q 35.796875 30.90625 33.59375 31.453125 
Q 31.984375 31.78125 28.328125 31.78125 
L 17.328125 31.78125 
L 17.328125 0 
z
M 17.328125 39.984375 
L 37.703125 39.984375 
Q 44.1875 39.984375 47.84375 41.328125 
Q 51.515625 42.671875 53.421875 45.625 
Q 55.328125 48.578125 55.328125 52.046875 
Q 55.328125 57.125 51.640625 60.390625 
Q 47.953125 63.671875 39.984375 63.671875 
L 17.328125 63.671875 
z
" id="ArialMT-82"/>
      <path d="M 4.5 23 
L 13.421875 23.78125 
Q 14.0625 18.40625 16.375 14.96875 
Q 18.703125 11.53125 23.578125 9.40625 
Q 28.46875 7.28125 34.578125 7.28125 
Q 39.984375 7.28125 44.140625 8.890625 
Q 48.296875 10.5 50.3125 13.296875 
Q 52.34375 16.109375 52.34375 19.4375 
Q 52.34375 22.796875 50.390625 25.3125 
Q 48.4375 27.828125 43.953125 29.546875 
Q 41.0625 30.671875 31.203125 33.03125 
Q 21.34375 35.40625 17.390625 37.5 
Q 12.25 40.1875 9.734375 44.15625 
Q 7.234375 48.140625 7.234375 53.078125 
Q 7.234375 58.5 10.296875 63.203125 
Q 13.375 67.921875 19.28125 70.359375 
Q 25.203125 72.796875 32.421875 72.796875 
Q 40.375 72.796875 46.453125 70.234375 
Q 52.546875 67.671875 55.8125 62.6875 
Q 59.078125 57.71875 59.328125 51.421875 
L 50.25 50.734375 
Q 49.515625 57.515625 45.28125 60.984375 
Q 41.0625 64.453125 32.8125 64.453125 
Q 24.21875 64.453125 20.28125 61.296875 
Q 16.359375 58.15625 16.359375 53.71875 
Q 16.359375 49.859375 19.140625 47.359375 
Q 21.875 44.875 33.421875 42.265625 
Q 44.96875 39.65625 49.265625 37.703125 
Q 55.515625 34.8125 58.484375 30.390625 
Q 61.46875 25.984375 61.46875 20.21875 
Q 61.46875 14.5 58.203125 9.4375 
Q 54.9375 4.390625 48.796875 1.578125 
Q 42.671875 -1.21875 35.015625 -1.21875 
Q 25.296875 -1.21875 18.71875 1.609375 
Q 12.15625 4.4375 8.421875 10.125 
Q 4.6875 15.828125 4.5 23 
z
" id="ArialMT-83"/>
      <path id="ArialMT-32"/>
      <path d="M 40.4375 19 
L 49.078125 17.875 
Q 47.65625 8.9375 41.8125 3.875 
Q 35.984375 -1.171875 27.484375 -1.171875 
Q 16.84375 -1.171875 10.375 5.78125 
Q 3.90625 12.75 3.90625 25.734375 
Q 3.90625 34.125 6.6875 40.421875 
Q 9.46875 46.734375 15.15625 49.875 
Q 20.84375 53.03125 27.546875 53.03125 
Q 35.984375 53.03125 41.359375 48.75 
Q 46.734375 44.484375 48.25 36.625 
L 39.703125 35.296875 
Q 38.484375 40.53125 35.375 43.15625 
Q 32.28125 45.796875 27.875 45.796875 
Q 21.234375 45.796875 17.078125 41.03125 
Q 12.9375 36.28125 12.9375 25.984375 
Q 12.9375 15.53125 16.9375 10.796875 
Q 20.953125 6.0625 27.390625 6.0625 
Q 32.5625 6.0625 36.03125 9.234375 
Q 39.5 12.40625 40.4375 19 
z
" id="ArialMT-99"/>
      <path d="M 6.59375 0 
L 6.59375 71.578125 
L 15.375 71.578125 
L 15.375 45.90625 
Q 21.53125 53.03125 30.90625 53.03125 
Q 36.671875 53.03125 40.921875 50.75 
Q 45.171875 48.484375 47 44.484375 
Q 48.828125 40.484375 48.828125 32.859375 
L 48.828125 0 
L 40.046875 0 
L 40.046875 32.859375 
Q 40.046875 39.453125 37.1875 42.453125 
Q 34.328125 45.453125 29.109375 45.453125 
Q 25.203125 45.453125 21.75 43.421875 
Q 18.3125 41.40625 16.84375 37.9375 
Q 15.375 34.46875 15.375 28.375 
L 15.375 0 
z
" id="ArialMT-104"/>
      <path d="M 40.4375 6.390625 
Q 35.546875 2.25 31.03125 0.53125 
Q 26.515625 -1.171875 21.34375 -1.171875 
Q 12.796875 -1.171875 8.203125 3 
Q 3.609375 7.171875 3.609375 13.671875 
Q 3.609375 17.484375 5.34375 20.625 
Q 7.078125 23.78125 9.890625 25.6875 
Q 12.703125 27.59375 16.21875 28.5625 
Q 18.796875 29.25 24.03125 29.890625 
Q 34.671875 31.15625 39.703125 32.90625 
Q 39.75 34.71875 39.75 35.203125 
Q 39.75 40.578125 37.25 42.78125 
Q 33.890625 45.75 27.25 45.75 
Q 21.046875 45.75 18.09375 43.578125 
Q 15.140625 41.40625 13.71875 35.890625 
L 5.125 37.0625 
Q 6.296875 42.578125 8.984375 45.96875 
Q 11.671875 49.359375 16.75 51.1875 
Q 21.828125 53.03125 28.515625 53.03125 
Q 35.15625 53.03125 39.296875 51.46875 
Q 43.453125 49.90625 45.40625 47.53125 
Q 47.359375 45.171875 48.140625 41.546875 
Q 48.578125 39.3125 48.578125 33.453125 
L 48.578125 21.734375 
Q 48.578125 9.46875 49.140625 6.21875 
Q 49.703125 2.984375 51.375 0 
L 42.1875 0 
Q 40.828125 2.734375 40.4375 6.390625 
z
M 39.703125 26.03125 
Q 34.90625 24.078125 25.34375 22.703125 
Q 19.921875 21.921875 17.671875 20.9375 
Q 15.4375 19.96875 14.203125 18.09375 
Q 12.984375 16.21875 12.984375 13.921875 
Q 12.984375 10.40625 15.640625 8.0625 
Q 18.3125 5.71875 23.4375 5.71875 
Q 28.515625 5.71875 32.46875 7.9375 
Q 36.421875 10.15625 38.28125 14.015625 
Q 39.703125 17 39.703125 22.796875 
z
" id="ArialMT-97"/>
      <path d="M 6.59375 0 
L 6.59375 51.859375 
L 14.5 51.859375 
L 14.5 44.484375 
Q 20.21875 53.03125 31 53.03125 
Q 35.6875 53.03125 39.625 51.34375 
Q 43.5625 49.65625 45.515625 46.921875 
Q 47.46875 44.1875 48.25 40.4375 
Q 48.734375 37.984375 48.734375 31.890625 
L 48.734375 0 
L 39.9375 0 
L 39.9375 31.546875 
Q 39.9375 36.921875 38.90625 39.578125 
Q 37.890625 42.234375 35.28125 43.8125 
Q 32.671875 45.40625 29.15625 45.40625 
Q 23.53125 45.40625 19.453125 41.84375 
Q 15.375 38.28125 15.375 28.328125 
L 15.375 0 
z
" id="ArialMT-110"/>
      <path d="M 4.984375 -4.296875 
L 13.53125 -5.5625 
Q 14.0625 -9.515625 16.5 -11.328125 
Q 19.78125 -13.765625 25.4375 -13.765625 
Q 31.546875 -13.765625 34.859375 -11.328125 
Q 38.1875 -8.890625 39.359375 -4.5 
Q 40.046875 -1.8125 39.984375 6.78125 
Q 34.234375 0 25.640625 0 
Q 14.9375 0 9.078125 7.71875 
Q 3.21875 15.4375 3.21875 26.21875 
Q 3.21875 33.640625 5.90625 39.90625 
Q 8.59375 46.1875 13.6875 49.609375 
Q 18.796875 53.03125 25.6875 53.03125 
Q 34.859375 53.03125 40.828125 45.609375 
L 40.828125 51.859375 
L 48.921875 51.859375 
L 48.921875 7.03125 
Q 48.921875 -5.078125 46.453125 -10.125 
Q 44 -15.1875 38.640625 -18.109375 
Q 33.296875 -21.046875 25.484375 -21.046875 
Q 16.21875 -21.046875 10.5 -16.875 
Q 4.78125 -12.703125 4.984375 -4.296875 
z
M 12.25 26.859375 
Q 12.25 16.65625 16.296875 11.96875 
Q 20.359375 7.28125 26.46875 7.28125 
Q 32.515625 7.28125 36.609375 11.9375 
Q 40.71875 16.609375 40.71875 26.5625 
Q 40.71875 36.078125 36.5 40.90625 
Q 32.28125 45.75 26.3125 45.75 
Q 20.453125 45.75 16.34375 40.984375 
Q 12.25 36.234375 12.25 26.859375 
z
" id="ArialMT-103"/>
      <path d="M 42.09375 16.703125 
L 51.171875 15.578125 
Q 49.03125 7.625 43.21875 3.21875 
Q 37.40625 -1.171875 28.375 -1.171875 
Q 17 -1.171875 10.328125 5.828125 
Q 3.65625 12.84375 3.65625 25.484375 
Q 3.65625 38.578125 10.390625 45.796875 
Q 17.140625 53.03125 27.875 53.03125 
Q 38.28125 53.03125 44.875 45.953125 
Q 51.46875 38.875 51.46875 26.03125 
Q 51.46875 25.25 51.421875 23.6875 
L 12.75 23.6875 
Q 13.234375 15.140625 17.578125 10.59375 
Q 21.921875 6.0625 28.421875 6.0625 
Q 33.25 6.0625 36.671875 8.59375 
Q 40.09375 11.140625 42.09375 16.703125 
z
M 13.234375 30.90625 
L 42.1875 30.90625 
Q 41.609375 37.453125 38.875 40.71875 
Q 34.671875 45.796875 27.984375 45.796875 
Q 21.921875 45.796875 17.796875 41.75 
Q 13.671875 37.703125 13.234375 30.90625 
z
" id="ArialMT-101"/>
     </defs>
     <g style="fill:#262626;" transform="translate(150.108385 354.664844)scale(0.12 -0.12)">
      <use xlink:href="#ArialMT-85"/>
      <use x="72.216797" xlink:href="#ArialMT-80"/>
      <use x="138.916016" xlink:href="#ArialMT-68"/>
      <use x="211.132812" xlink:href="#ArialMT-82"/>
      <use x="283.349609" xlink:href="#ArialMT-83"/>
      <use x="350.048828" xlink:href="#ArialMT-51"/>
      <use x="405.664062" xlink:href="#ArialMT-32"/>
      <use x="433.447266" xlink:href="#ArialMT-99"/>
      <use x="483.447266" xlink:href="#ArialMT-104"/>
      <use x="539.0625" xlink:href="#ArialMT-97"/>
      <use x="594.677734" xlink:href="#ArialMT-110"/>
      <use x="650.292969" xlink:href="#ArialMT-103"/>
      <use x="705.908203" xlink:href="#ArialMT-101"/>
     </g>
    </g>
   </g>
   <g id="matplotlib.axis_2">
    <g id="ytick_1">
     <g id="line2d_5">
      <path clip-path="url(#p58c37691d6)" d="M 50.025469 284.595807 
L 341.571301 284.595807 
" style="fill:none;stroke:#ffffff;stroke-linecap:round;"/>
     </g>
     <g id="text_6">
      <!-- 20 -->
      <defs>
       <path d="M 50.34375 8.453125 
L 50.34375 0 
L 3.03125 0 
Q 2.9375 3.171875 4.046875 6.109375 
Q 5.859375 10.9375 9.828125 15.625 
Q 13.8125 20.3125 21.34375 26.46875 
Q 33.015625 36.03125 37.109375 41.625 
Q 41.21875 47.21875 41.21875 52.203125 
Q 41.21875 57.421875 37.46875 61 
Q 33.734375 64.59375 27.734375 64.59375 
Q 21.390625 64.59375 17.578125 60.78125 
Q 13.765625 56.984375 13.71875 50.25 
L 4.6875 51.171875 
Q 5.609375 61.28125 11.65625 66.578125 
Q 17.71875 71.875 27.9375 71.875 
Q 38.234375 71.875 44.234375 66.15625 
Q 50.25 60.453125 50.25 52 
Q 50.25 47.703125 48.484375 43.546875 
Q 46.734375 39.40625 42.65625 34.8125 
Q 38.578125 30.21875 29.109375 22.21875 
Q 21.1875 15.578125 18.9375 13.203125 
Q 16.703125 10.84375 15.234375 8.453125 
z
" id="ArialMT-50"/>
      </defs>
      <g style="fill:#262626;" transform="translate(28.291406 288.532603)scale(0.11 -0.11)">
       <use xlink:href="#ArialMT-50"/>
       <use x="55.615234" xlink:href="#ArialMT-48"/>
      </g>
     </g>
    </g>
    <g id="ytick_2">
     <g id="line2d_6">
      <path clip-path="url(#p58c37691d6)" d="M 50.025469 236.375114 
L 341.571301 236.375114 
" style="fill:none;stroke:#ffffff;stroke-linecap:round;"/>
     </g>
     <g id="text_7">
      <!-- 40 -->
      <g style="fill:#262626;" transform="translate(28.291406 240.311911)scale(0.11 -0.11)">
       <use xlink:href="#ArialMT-52"/>
       <use x="55.615234" xlink:href="#ArialMT-48"/>
      </g>
     </g>
    </g>
    <g id="ytick_3">
     <g id="line2d_7">
      <path clip-path="url(#p58c37691d6)" d="M 50.025469 188.154421 
L 341.571301 188.154421 
" style="fill:none;stroke:#ffffff;stroke-linecap:round;"/>
     </g>
     <g id="text_8">
      <!-- 60 -->
      <g style="fill:#262626;" transform="translate(28.291406 192.091218)scale(0.11 -0.11)">
       <use xlink:href="#ArialMT-54"/>
       <use x="55.615234" xlink:href="#ArialMT-48"/>
      </g>
     </g>
    </g>
    <g id="ytick_4">
     <g id="line2d_8">
      <path clip-path="url(#p58c37691d6)" d="M 50.025469 139.933729 
L 341.571301 139.933729 
" style="fill:none;stroke:#ffffff;stroke-linecap:round;"/>
     </g>
     <g id="text_9">
      <!-- 80 -->
      <defs>
       <path d="M 17.671875 38.8125 
Q 12.203125 40.828125 9.5625 44.53125 
Q 6.9375 48.25 6.9375 53.421875 
Q 6.9375 61.234375 12.546875 66.546875 
Q 18.171875 71.875 27.484375 71.875 
Q 36.859375 71.875 42.578125 66.421875 
Q 48.296875 60.984375 48.296875 53.171875 
Q 48.296875 48.1875 45.671875 44.5 
Q 43.0625 40.828125 37.75 38.8125 
Q 44.34375 36.671875 47.78125 31.875 
Q 51.21875 27.09375 51.21875 20.453125 
Q 51.21875 11.28125 44.71875 5.03125 
Q 38.234375 -1.21875 27.640625 -1.21875 
Q 17.046875 -1.21875 10.546875 5.046875 
Q 4.046875 11.328125 4.046875 20.703125 
Q 4.046875 27.6875 7.59375 32.390625 
Q 11.140625 37.109375 17.671875 38.8125 
z
M 15.921875 53.71875 
Q 15.921875 48.640625 19.1875 45.40625 
Q 22.46875 42.1875 27.6875 42.1875 
Q 32.765625 42.1875 36.015625 45.375 
Q 39.265625 48.578125 39.265625 53.21875 
Q 39.265625 58.0625 35.90625 61.359375 
Q 32.5625 64.65625 27.59375 64.65625 
Q 22.5625 64.65625 19.234375 61.421875 
Q 15.921875 58.203125 15.921875 53.71875 
z
M 13.09375 20.65625 
Q 13.09375 16.890625 14.875 13.375 
Q 16.65625 9.859375 20.171875 7.921875 
Q 23.6875 6 27.734375 6 
Q 34.03125 6 38.125 10.046875 
Q 42.234375 14.109375 42.234375 20.359375 
Q 42.234375 26.703125 38.015625 30.859375 
Q 33.796875 35.015625 27.4375 35.015625 
Q 21.234375 35.015625 17.15625 30.90625 
Q 13.09375 26.8125 13.09375 20.65625 
z
" id="ArialMT-56"/>
      </defs>
      <g style="fill:#262626;" transform="translate(28.291406 143.870526)scale(0.11 -0.11)">
       <use xlink:href="#ArialMT-56"/>
       <use x="55.615234" xlink:href="#ArialMT-48"/>
      </g>
     </g>
    </g>
    <g id="ytick_5">
     <g id="line2d_9">
      <path clip-path="url(#p58c37691d6)" d="M 50.025469 91.713036 
L 341.571301 91.713036 
" style="fill:none;stroke:#ffffff;stroke-linecap:round;"/>
     </g>
     <g id="text_10">
      <!-- 100 -->
      <defs>
       <path d="M 37.25 0 
L 28.46875 0 
L 28.46875 56 
Q 25.296875 52.984375 20.140625 49.953125 
Q 14.984375 46.921875 10.890625 45.40625 
L 10.890625 53.90625 
Q 18.265625 57.375 23.78125 62.296875 
Q 29.296875 67.234375 31.59375 71.875 
L 37.25 71.875 
z
" id="ArialMT-49"/>
      </defs>
      <g style="fill:#262626;" transform="translate(22.174375 95.649833)scale(0.11 -0.11)">
       <use xlink:href="#ArialMT-49"/>
       <use x="55.615234" xlink:href="#ArialMT-48"/>
       <use x="111.230469" xlink:href="#ArialMT-48"/>
      </g>
     </g>
    </g>
    <g id="ytick_6">
     <g id="line2d_10">
      <path clip-path="url(#p58c37691d6)" d="M 50.025469 43.492344 
L 341.571301 43.492344 
" style="fill:none;stroke:#ffffff;stroke-linecap:round;"/>
     </g>
     <g id="text_11">
      <!-- 120 -->
      <g style="fill:#262626;" transform="translate(22.174375 47.429141)scale(0.11 -0.11)">
       <use xlink:href="#ArialMT-49"/>
       <use x="55.615234" xlink:href="#ArialMT-50"/>
       <use x="111.230469" xlink:href="#ArialMT-48"/>
      </g>
     </g>
    </g>
    <g id="text_12">
     <!-- Motor VAT -->
     <defs>
      <path d="M 7.421875 0 
L 7.421875 71.578125 
L 21.6875 71.578125 
L 38.625 20.90625 
Q 40.96875 13.8125 42.046875 10.296875 
Q 43.265625 14.203125 45.84375 21.78125 
L 62.984375 71.578125 
L 75.734375 71.578125 
L 75.734375 0 
L 66.609375 0 
L 66.609375 59.90625 
L 45.796875 0 
L 37.25 0 
L 16.546875 60.9375 
L 16.546875 0 
z
" id="ArialMT-77"/>
      <path d="M 3.328125 25.921875 
Q 3.328125 40.328125 11.328125 47.265625 
Q 18.015625 53.03125 27.640625 53.03125 
Q 38.328125 53.03125 45.109375 46.015625 
Q 51.90625 39.015625 51.90625 26.65625 
Q 51.90625 16.65625 48.90625 10.90625 
Q 45.90625 5.171875 40.15625 2 
Q 34.421875 -1.171875 27.640625 -1.171875 
Q 16.75 -1.171875 10.03125 5.8125 
Q 3.328125 12.796875 3.328125 25.921875 
z
M 12.359375 25.921875 
Q 12.359375 15.96875 16.703125 11.015625 
Q 21.046875 6.0625 27.640625 6.0625 
Q 34.1875 6.0625 38.53125 11.03125 
Q 42.875 16.015625 42.875 26.21875 
Q 42.875 35.84375 38.5 40.796875 
Q 34.125 45.75 27.640625 45.75 
Q 21.046875 45.75 16.703125 40.8125 
Q 12.359375 35.890625 12.359375 25.921875 
z
" id="ArialMT-111"/>
      <path d="M 25.78125 7.859375 
L 27.046875 0.09375 
Q 23.34375 -0.6875 20.40625 -0.6875 
Q 15.625 -0.6875 12.984375 0.828125 
Q 10.359375 2.34375 9.28125 4.8125 
Q 8.203125 7.28125 8.203125 15.1875 
L 8.203125 45.015625 
L 1.765625 45.015625 
L 1.765625 51.859375 
L 8.203125 51.859375 
L 8.203125 64.703125 
L 16.9375 69.96875 
L 16.9375 51.859375 
L 25.78125 51.859375 
L 25.78125 45.015625 
L 16.9375 45.015625 
L 16.9375 14.703125 
Q 16.9375 10.9375 17.40625 9.859375 
Q 17.875 8.796875 18.921875 8.15625 
Q 19.96875 7.515625 21.921875 7.515625 
Q 23.390625 7.515625 25.78125 7.859375 
z
" id="ArialMT-116"/>
      <path d="M 6.5 0 
L 6.5 51.859375 
L 14.40625 51.859375 
L 14.40625 44 
Q 17.4375 49.515625 20 51.265625 
Q 22.5625 53.03125 25.640625 53.03125 
Q 30.078125 53.03125 34.671875 50.203125 
L 31.640625 42.046875 
Q 28.421875 43.953125 25.203125 43.953125 
Q 22.3125 43.953125 20.015625 42.21875 
Q 17.71875 40.484375 16.75 37.40625 
Q 15.28125 32.71875 15.28125 27.15625 
L 15.28125 0 
z
" id="ArialMT-114"/>
      <path d="M 28.171875 0 
L 0.4375 71.578125 
L 10.6875 71.578125 
L 29.296875 19.578125 
Q 31.546875 13.328125 33.0625 7.859375 
Q 34.71875 13.71875 36.921875 19.578125 
L 56.25 71.578125 
L 65.921875 71.578125 
L 37.890625 0 
z
" id="ArialMT-86"/>
      <path d="M -0.140625 0 
L 27.34375 71.578125 
L 37.546875 71.578125 
L 66.84375 0 
L 56.0625 0 
L 47.703125 21.6875 
L 17.78125 21.6875 
L 9.90625 0 
z
M 20.515625 29.390625 
L 44.78125 29.390625 
L 37.3125 49.21875 
Q 33.890625 58.25 32.234375 64.0625 
Q 30.859375 57.171875 28.375 50.390625 
z
" id="ArialMT-65"/>
      <path d="M 25.921875 0 
L 25.921875 63.140625 
L 2.34375 63.140625 
L 2.34375 71.578125 
L 59.078125 71.578125 
L 59.078125 63.140625 
L 35.40625 63.140625 
L 35.40625 0 
z
" id="ArialMT-84"/>
     </defs>
     <g style="fill:#262626;" transform="translate(15.789375 200.737812)rotate(-90)scale(0.12 -0.12)">
      <use xlink:href="#ArialMT-77"/>
      <use x="83.300781" xlink:href="#ArialMT-111"/>
      <use x="138.916016" xlink:href="#ArialMT-116"/>
      <use x="166.699219" xlink:href="#ArialMT-111"/>
      <use x="222.314453" xlink:href="#ArialMT-114"/>
      <use x="255.615234" xlink:href="#ArialMT-32"/>
      <use x="283.398438" xlink:href="#ArialMT-86"/>
      <use x="349.988281" xlink:href="#ArialMT-65"/>
      <use x="416.578125" xlink:href="#ArialMT-84"/>
     </g>
    </g>
   </g>
   <g id="PathCollection_1">
    <defs>
     <path d="M 0 3 
C 0.795609 3 1.55874 2.683901 2.12132 2.12132 
C 2.683901 1.55874 3 0.795609 3 0 
C 3 -0.795609 2.683901 -1.55874 2.12132 -2.12132 
C 1.55874 -2.683901 0.795609 -3 0 -3 
C -0.795609 -3 -1.55874 -2.683901 -2.12132 -2.12132 
C -2.683901 -1.55874 -3 -0.795609 -3 0 
C -3 0.795609 -2.683901 1.55874 -2.12132 2.12132 
C -1.55874 2.683901 -0.795609 3 0 3 
z
" id="m52a908b347" style="stroke:#0173b2;stroke-opacity:0.8;"/>
    </defs>
    <g clip-path="url(#p58c37691d6)">
     <use style="fill:#0173b2;fill-opacity:0.8;stroke:#0173b2;stroke-opacity:0.8;" x="232.119747" xlink:href="#m52a908b347" y="308.706153"/>
     <use style="fill:#0173b2;fill-opacity:0.8;stroke:#0173b2;stroke-opacity:0.8;" x="325.478415" xlink:href="#m52a908b347" y="260.48546"/>
     <use style="fill:#0173b2;fill-opacity:0.8;stroke:#0173b2;stroke-opacity:0.8;" x="273.612488" xlink:href="#m52a908b347" y="212.264768"/>
     <use style="fill:#0173b2;fill-opacity:0.8;stroke:#0173b2;stroke-opacity:0.8;" x="232.119747" xlink:href="#m52a908b347" y="164.044075"/>
     <use style="fill:#0173b2;fill-opacity:0.8;stroke:#0173b2;stroke-opacity:0.8;" x="325.478415" xlink:href="#m52a908b347" y="115.823383"/>
     <use style="fill:#0173b2;fill-opacity:0.8;stroke:#0173b2;stroke-opacity:0.8;" x="273.612488" xlink:href="#m52a908b347" y="67.60269"/>
     <use style="fill:#0173b2;fill-opacity:0.8;stroke:#0173b2;stroke-opacity:0.8;" x="232.119747" xlink:href="#m52a908b347" y="308.706153"/>
     <use style="fill:#0173b2;fill-opacity:0.8;stroke:#0173b2;stroke-opacity:0.8;" x="325.478415" xlink:href="#m52a908b347" y="260.48546"/>
     <use style="fill:#0173b2;fill-opacity:0.8;stroke:#0173b2;stroke-opacity:0.8;" x="273.612488" xlink:href="#m52a908b347" y="212.264768"/>
     <use style="fill:#0173b2;fill-opacity:0.8;stroke:#0173b2;stroke-opacity:0.8;" x="232.119747" xlink:href="#m52a908b347" y="164.044075"/>
     <use style="fill:#0173b2;fill-opacity:0.8;stroke:#0173b2;stroke-opacity:0.8;" x="325.478415" xlink:href="#m52a908b347" y="115.823383"/>
     <use style="fill:#0173b2;fill-opacity:0.8;stroke:#0173b2;stroke-opacity:0.8;" x="273.612488" xlink:href="#m52a908b347" y="67.60269"/>
    </g>
   </g>
   <g id="PolyCollection_1">
    <defs>
     <path d="M 232.119747 -247.485735 
L 232.119747 -92.725193 
L 233.062764 -93.832474 
L 234.00578 -94.893177 
L 234.948797 -95.48477 
L 235.891814 -96.140353 
L 236.834831 -97.875253 
L 237.777848 -99.328216 
L 238.720865 -100.493806 
L 239.663882 -101.523512 
L 240.606898 -102.61626 
L 241.549915 -103.563183 
L 242.492932 -104.505122 
L 243.435949 -105.487429 
L 244.378966 -106.407558 
L 245.321983 -107.344326 
L 246.264999 -108.282635 
L 247.208016 -109.229764 
L 248.151033 -110.066293 
L 249.09405 -111.114434 
L 250.037067 -112.069089 
L 250.980084 -113.20552 
L 251.923101 -114.069709 
L 252.866117 -114.929204 
L 253.809134 -115.849786 
L 254.752151 -116.791909 
L 255.695168 -117.694766 
L 256.638185 -118.372912 
L 257.581202 -119.223869 
L 258.524219 -120.086295 
L 259.467235 -120.722721 
L 260.410252 -121.150901 
L 261.353269 -122.302144 
L 262.296286 -122.577094 
L 263.239303 -123.085156 
L 264.18232 -124.32426 
L 265.125336 -124.49281 
L 266.068353 -125.21199 
L 267.01137 -125.885643 
L 267.954387 -126.445328 
L 268.897404 -127.106572 
L 269.840421 -127.573064 
L 270.783438 -127.63748 
L 271.726454 -127.791724 
L 272.669471 -128.579949 
L 273.612488 -128.649549 
L 274.555505 -128.568824 
L 275.498522 -129.043421 
L 276.441539 -129.102556 
L 277.384556 -129.486596 
L 278.327572 -129.606698 
L 279.270589 -130.224469 
L 280.213606 -130.874547 
L 281.156623 -131.57072 
L 282.09964 -132.41519 
L 283.042657 -132.818801 
L 283.985673 -132.962573 
L 284.92869 -132.75583 
L 285.871707 -132.779661 
L 286.814724 -132.669379 
L 287.757741 -132.55525 
L 288.700758 -132.723595 
L 289.643775 -132.793052 
L 290.586791 -132.836949 
L 291.529808 -132.895796 
L 292.472825 -133.201712 
L 293.415842 -133.911933 
L 294.358859 -134.366225 
L 295.301876 -133.512331 
L 296.244893 -134.349223 
L 297.187909 -134.509831 
L 298.130926 -134.739524 
L 299.073943 -134.563091 
L 300.01696 -133.943094 
L 300.959977 -133.379178 
L 301.902994 -133.410187 
L 302.84601 -133.461122 
L 303.789027 -133.443906 
L 304.732044 -132.969535 
L 305.675061 -132.959193 
L 306.618078 -132.277285 
L 307.561095 -131.595376 
L 308.504112 -130.913467 
L 309.447128 -130.23495 
L 310.390145 -130.377786 
L 311.333162 -130.537868 
L 312.276179 -130.837324 
L 313.219196 -130.587427 
L 314.162213 -130.281056 
L 315.10523 -129.972721 
L 316.048246 -129.66256 
L 316.991263 -129.363082 
L 317.93428 -129.063604 
L 318.877297 -128.799959 
L 319.820314 -128.870758 
L 320.763331 -128.941557 
L 321.706348 -129.012355 
L 322.649364 -129.083154 
L 323.592381 -129.153953 
L 324.535398 -129.224751 
L 325.478415 -128.697639 
L 325.478415 -289.999797 
L 325.478415 -289.999797 
L 324.535398 -288.211808 
L 323.592381 -286.42239 
L 322.649364 -284.632972 
L 321.706348 -282.843554 
L 320.763331 -281.319082 
L 319.820314 -279.817717 
L 318.877297 -278.314626 
L 317.93428 -276.810024 
L 316.991263 -276.096929 
L 316.048246 -275.189385 
L 315.10523 -273.380973 
L 314.162213 -271.568105 
L 313.219196 -269.755238 
L 312.276179 -268.614015 
L 311.333162 -267.206654 
L 310.390145 -265.531139 
L 309.447128 -263.855632 
L 308.504112 -262.486722 
L 307.561095 -261.601905 
L 306.618078 -260.717088 
L 305.675061 -259.760939 
L 304.732044 -258.775474 
L 303.789027 -257.589076 
L 302.84601 -256.060004 
L 301.902994 -254.812913 
L 300.959977 -253.565821 
L 300.01696 -252.31873 
L 299.073943 -251.116299 
L 298.130926 -249.836315 
L 297.187909 -248.598607 
L 296.244893 -247.350994 
L 295.301876 -245.986531 
L 294.358859 -244.466811 
L 293.415842 -242.947091 
L 292.472825 -241.427371 
L 291.529808 -240.260627 
L 290.586791 -239.801704 
L 289.643775 -237.619604 
L 288.700758 -236.287466 
L 287.757741 -235.434988 
L 286.814724 -234.957167 
L 285.871707 -233.729066 
L 284.92869 -232.477093 
L 283.985673 -231.417873 
L 283.042657 -230.107748 
L 282.09964 -228.830462 
L 281.156623 -229.478425 
L 280.213606 -228.602364 
L 279.270589 -228.723632 
L 278.327572 -229.168873 
L 277.384556 -229.614114 
L 276.441539 -228.643562 
L 275.498522 -228.032532 
L 274.555505 -227.081677 
L 273.612488 -227.547743 
L 272.669471 -228.010824 
L 271.726454 -228.313666 
L 270.783438 -227.871064 
L 269.840421 -227.910057 
L 268.897404 -227.494098 
L 267.954387 -226.980823 
L 267.01137 -226.97021 
L 266.068353 -227.096221 
L 265.125336 -227.744514 
L 264.18232 -228.270998 
L 263.239303 -228.275555 
L 262.296286 -228.956694 
L 261.353269 -229.651224 
L 260.410252 -230.333317 
L 259.467235 -229.906565 
L 258.524219 -230.264359 
L 257.581202 -230.776051 
L 256.638185 -231.271803 
L 255.695168 -231.546526 
L 254.752151 -231.601375 
L 253.809134 -232.306085 
L 252.866117 -233.082424 
L 251.923101 -233.809323 
L 250.980084 -234.320063 
L 250.037067 -234.845851 
L 249.09405 -235.373505 
L 248.151033 -235.892976 
L 247.208016 -236.404669 
L 246.264999 -236.916361 
L 245.321983 -237.428054 
L 244.378966 -237.976621 
L 243.435949 -238.552844 
L 242.492932 -239.129067 
L 241.549915 -239.909664 
L 240.606898 -240.971571 
L 239.663882 -242.033479 
L 238.720865 -242.630026 
L 237.777848 -243.165742 
L 236.834831 -243.701458 
L 235.891814 -244.291803 
L 234.948797 -245.090286 
L 234.00578 -245.888769 
L 233.062764 -246.687252 
L 232.119747 -247.485735 
z
" id="mfe28a90761" style="stroke:#ffffff;stroke-opacity:0.15;"/>
    </defs>
    <g clip-path="url(#p58c37691d6)">
     <use style="fill:#0173b2;fill-opacity:0.15;stroke:#ffffff;stroke-opacity:0.15;" x="0" xlink:href="#mfe28a90761" y="364.390469"/>
    </g>
   </g>
   <g id="PathCollection_2">
    <defs>
     <path d="M 0 3 
C 0.795609 3 1.55874 2.683901 2.12132 2.12132 
C 2.683901 1.55874 3 0.795609 3 0 
C 3 -0.795609 2.683901 -1.55874 2.12132 -2.12132 
C 1.55874 -2.683901 0.795609 -3 0 -3 
C -0.795609 -3 -1.55874 -2.683901 -2.12132 -2.12132 
C -2.683901 -1.55874 -3 -0.795609 -3 0 
C -3 0.795609 -2.683901 1.55874 -2.12132 2.12132 
C -1.55874 2.683901 -0.795609 3 0 3 
z
" id="mfdecd4c1ce" style="stroke:#de8f05;stroke-opacity:0.8;"/>
    </defs>
    <g clip-path="url(#p58c37691d6)">
     <use style="fill:#de8f05;fill-opacity:0.8;stroke:#de8f05;stroke-opacity:0.8;" x="66.148781" xlink:href="#mfdecd4c1ce" y="284.595807"/>
     <use style="fill:#de8f05;fill-opacity:0.8;stroke:#de8f05;stroke-opacity:0.8;" x="107.641522" xlink:href="#mfdecd4c1ce" y="236.375114"/>
     <use style="fill:#de8f05;fill-opacity:0.8;stroke:#de8f05;stroke-opacity:0.8;" x="169.880635" xlink:href="#mfdecd4c1ce" y="188.154421"/>
     <use style="fill:#de8f05;fill-opacity:0.8;stroke:#de8f05;stroke-opacity:0.8;" x="66.148781" xlink:href="#mfdecd4c1ce" y="139.933729"/>
     <use style="fill:#de8f05;fill-opacity:0.8;stroke:#de8f05;stroke-opacity:0.8;" x="107.641522" xlink:href="#mfdecd4c1ce" y="91.713036"/>
     <use style="fill:#de8f05;fill-opacity:0.8;stroke:#de8f05;stroke-opacity:0.8;" x="169.880635" xlink:href="#mfdecd4c1ce" y="43.492344"/>
     <use style="fill:#de8f05;fill-opacity:0.8;stroke:#de8f05;stroke-opacity:0.8;" x="66.148781" xlink:href="#mfdecd4c1ce" y="284.595807"/>
     <use style="fill:#de8f05;fill-opacity:0.8;stroke:#de8f05;stroke-opacity:0.8;" x="107.641522" xlink:href="#mfdecd4c1ce" y="236.375114"/>
     <use style="fill:#de8f05;fill-opacity:0.8;stroke:#de8f05;stroke-opacity:0.8;" x="169.880635" xlink:href="#mfdecd4c1ce" y="188.154421"/>
     <use style="fill:#de8f05;fill-opacity:0.8;stroke:#de8f05;stroke-opacity:0.8;" x="66.148781" xlink:href="#mfdecd4c1ce" y="139.933729"/>
     <use style="fill:#de8f05;fill-opacity:0.8;stroke:#de8f05;stroke-opacity:0.8;" x="107.641522" xlink:href="#mfdecd4c1ce" y="91.713036"/>
     <use style="fill:#de8f05;fill-opacity:0.8;stroke:#de8f05;stroke-opacity:0.8;" x="169.880635" xlink:href="#mfdecd4c1ce" y="43.492344"/>
    </g>
   </g>
   <g id="PolyCollection_2">
    <defs>
     <path d="M 66.148781 -217.007507 
L 66.148781 -92.215192 
L 67.196578 -94.241136 
L 68.244374 -96.27344 
L 69.292171 -98.21128 
L 70.339967 -99.714461 
L 71.387764 -100.95315 
L 72.43556 -102.437477 
L 73.483357 -104.851388 
L 74.531153 -106.661542 
L 75.57895 -108.023179 
L 76.626746 -109.384816 
L 77.674543 -110.746453 
L 78.722339 -112.1833 
L 79.770136 -113.769876 
L 80.817932 -115.197739 
L 81.865729 -116.32549 
L 82.913525 -117.827313 
L 83.961322 -119.450905 
L 85.009118 -121.074497 
L 86.056915 -122.69809 
L 87.104711 -124.488051 
L 88.152508 -126.088045 
L 89.200304 -128.368836 
L 90.248101 -129.192459 
L 91.295897 -130.816052 
L 92.343694 -132.439644 
L 93.39149 -134.063236 
L 94.439287 -135.667121 
L 95.487083 -137.2028 
L 96.53488 -138.912501 
L 97.582676 -140.130225 
L 98.630473 -141.893635 
L 99.678269 -143.174311 
L 100.726066 -144.505732 
L 101.773862 -145.290533 
L 102.821659 -146.013761 
L 103.869455 -146.749476 
L 104.917252 -147.691023 
L 105.965048 -148.756367 
L 107.012845 -149.185787 
L 108.060641 -149.987971 
L 109.108438 -151.335224 
L 110.156234 -151.889403 
L 111.204031 -152.660216 
L 112.251827 -153.431028 
L 113.299624 -154.208932 
L 114.34742 -155.200571 
L 115.395217 -157.035667 
L 116.443013 -157.863875 
L 117.49081 -158.473279 
L 118.538606 -158.890075 
L 119.586403 -159.411868 
L 120.634199 -159.697465 
L 121.681996 -160.472982 
L 122.729792 -161.64891 
L 123.777589 -162.354853 
L 124.825385 -162.992573 
L 125.873182 -164.225727 
L 126.920978 -165.671234 
L 127.968775 -166.252473 
L 129.016571 -166.810327 
L 130.064368 -167.720011 
L 131.112164 -167.966129 
L 132.159961 -168.275822 
L 133.207757 -168.980729 
L 134.255554 -169.511255 
L 135.30335 -170.265181 
L 136.351147 -171.322748 
L 137.398943 -172.17455 
L 138.44674 -173.000904 
L 139.494536 -173.738368 
L 140.542333 -173.869783 
L 141.590129 -174.749339 
L 142.637926 -175.040495 
L 143.685722 -174.995721 
L 144.733519 -175.121536 
L 145.781315 -174.984053 
L 146.829112 -174.848151 
L 147.876908 -174.714699 
L 148.924705 -174.585673 
L 149.972501 -174.574315 
L 151.020298 -174.793603 
L 152.068094 -175.06587 
L 153.115891 -175.786908 
L 154.163687 -175.81674 
L 155.211484 -176.114151 
L 156.25928 -176.227739 
L 157.307077 -176.120625 
L 158.354873 -176.48904 
L 159.40267 -176.812144 
L 160.450466 -177.38954 
L 161.498263 -177.985262 
L 162.546059 -178.585239 
L 163.593856 -179.118992 
L 164.641652 -179.525491 
L 165.689449 -179.894497 
L 166.737245 -180.263504 
L 167.785042 -180.300794 
L 168.832838 -179.648404 
L 169.880635 -178.996014 
L 169.880635 -328.938366 
L 169.880635 -328.938366 
L 168.832838 -326.518623 
L 167.785042 -324.098879 
L 166.737245 -321.679135 
L 165.689449 -319.270917 
L 164.641652 -317.214238 
L 163.593856 -315.726059 
L 162.546059 -314.306581 
L 161.498263 -312.887103 
L 160.450466 -310.689958 
L 159.40267 -308.381388 
L 158.354873 -306.664055 
L 157.307077 -305.091057 
L 156.25928 -303.518059 
L 155.211484 -301.950702 
L 154.163687 -300.386357 
L 153.115891 -298.824767 
L 152.068094 -297.263177 
L 151.020298 -295.701587 
L 149.972501 -294.139997 
L 148.924705 -292.578406 
L 147.876908 -290.902792 
L 146.829112 -289.054886 
L 145.781315 -287.457774 
L 144.733519 -285.658912 
L 143.685722 -283.856558 
L 142.637926 -282.053152 
L 141.590129 -280.249746 
L 140.542333 -278.442647 
L 139.494536 -276.629613 
L 138.44674 -274.81658 
L 137.398943 -273.225093 
L 136.351147 -272.15128 
L 135.30335 -270.227002 
L 134.255554 -268.354618 
L 133.207757 -267.027922 
L 132.159961 -265.3284 
L 131.112164 -264.302343 
L 130.064368 -263.114716 
L 129.016571 -261.384499 
L 127.968775 -259.633809 
L 126.920978 -257.877228 
L 125.873182 -255.981105 
L 124.825385 -254.368761 
L 123.777589 -252.631459 
L 122.729792 -250.876707 
L 121.681996 -249.087239 
L 120.634199 -247.094846 
L 119.586403 -245.626646 
L 118.538606 -245.00248 
L 117.49081 -243.680214 
L 116.443013 -242.42834 
L 115.395217 -241.87502 
L 114.34742 -241.045932 
L 113.299624 -239.484341 
L 112.251827 -238.094995 
L 111.204031 -237.347503 
L 110.156234 -236.612688 
L 109.108438 -235.718207 
L 108.060641 -235.103871 
L 107.012845 -234.408241 
L 105.965048 -233.540664 
L 104.917252 -232.75906 
L 103.869455 -232.025346 
L 102.821659 -231.195853 
L 101.773862 -230.734164 
L 100.726066 -229.999348 
L 99.678269 -229.264533 
L 98.630473 -228.994578 
L 97.582676 -227.821756 
L 96.53488 -227.092179 
L 95.487083 -227.184635 
L 94.439287 -227.29649 
L 93.39149 -226.860312 
L 92.343694 -226.252384 
L 91.295897 -225.614016 
L 90.248101 -225.155 
L 89.200304 -224.672105 
L 88.152508 -224.149451 
L 87.104711 -223.621473 
L 86.056915 -222.974149 
L 85.009118 -222.272411 
L 83.961322 -221.972701 
L 82.913525 -221.677038 
L 81.865729 -221.383112 
L 80.817932 -221.089185 
L 79.770136 -220.673967 
L 78.722339 -220.298868 
L 77.674543 -220.178299 
L 76.626746 -219.913481 
L 75.57895 -219.619554 
L 74.531153 -219.044615 
L 73.483357 -218.827667 
L 72.43556 -218.737776 
L 71.387764 -218.448775 
L 70.339967 -218.149923 
L 69.292171 -218.046307 
L 68.244374 -217.581408 
L 67.196578 -217.298828 
L 66.148781 -217.007507 
z
" id="m44f8d0f6bc" style="stroke:#ffffff;stroke-opacity:0.15;"/>
    </defs>
    <g clip-path="url(#p58c37691d6)">
     <use style="fill:#de8f05;fill-opacity:0.15;stroke:#ffffff;stroke-opacity:0.15;" x="0" xlink:href="#m44f8d0f6bc" y="364.390469"/>
    </g>
   </g>
   <g id="line2d_11">
    <path clip-path="url(#p58c37691d6)" d="M 232.119747 208.707504 
L 233.062764 208.27632 
L 234.00578 207.845136 
L 234.948797 207.413953 
L 235.891814 206.982769 
L 236.834831 206.551586 
L 237.777848 206.120402 
L 238.720865 205.689219 
L 239.663882 205.258035 
L 240.606898 204.826852 
L 241.549915 204.395668 
L 242.492932 203.964485 
L 243.435949 203.533301 
L 244.378966 203.102118 
L 245.321983 202.670934 
L 246.264999 202.23975 
L 247.208016 201.808567 
L 248.151033 201.377383 
L 249.09405 200.9462 
L 250.037067 200.515016 
L 250.980084 200.083833 
L 251.923101 199.652649 
L 252.866117 199.221466 
L 253.809134 198.790282 
L 254.752151 198.359099 
L 255.695168 197.927915 
L 256.638185 197.496732 
L 257.581202 197.065548 
L 258.524219 196.634364 
L 259.467235 196.203181 
L 260.410252 195.771997 
L 261.353269 195.340814 
L 262.296286 194.90963 
L 263.239303 194.478447 
L 264.18232 194.047263 
L 265.125336 193.61608 
L 266.068353 193.184896 
L 267.01137 192.753713 
L 267.954387 192.322529 
L 268.897404 191.891346 
L 269.840421 191.460162 
L 270.783438 191.028978 
L 271.726454 190.597795 
L 272.669471 190.166611 
L 273.612488 189.735428 
L 274.555505 189.304244 
L 275.498522 188.873061 
L 276.441539 188.441877 
L 277.384556 188.010694 
L 278.327572 187.57951 
L 279.270589 187.148327 
L 280.213606 186.717143 
L 281.156623 186.285959 
L 282.09964 185.854776 
L 283.042657 185.423592 
L 283.985673 184.992409 
L 284.92869 184.561225 
L 285.871707 184.130042 
L 286.814724 183.698858 
L 287.757741 183.267675 
L 288.700758 182.836491 
L 289.643775 182.405308 
L 290.586791 181.974124 
L 291.529808 181.542941 
L 292.472825 181.111757 
L 293.415842 180.680573 
L 294.358859 180.24939 
L 295.301876 179.818206 
L 296.244893 179.387023 
L 297.187909 178.955839 
L 298.130926 178.524656 
L 299.073943 178.093472 
L 300.01696 177.662289 
L 300.959977 177.231105 
L 301.902994 176.799922 
L 302.84601 176.368738 
L 303.789027 175.937555 
L 304.732044 175.506371 
L 305.675061 175.075187 
L 306.618078 174.644004 
L 307.561095 174.21282 
L 308.504112 173.781637 
L 309.447128 173.350453 
L 310.390145 172.91927 
L 311.333162 172.488086 
L 312.276179 172.056903 
L 313.219196 171.625719 
L 314.162213 171.194536 
L 315.10523 170.763352 
L 316.048246 170.332169 
L 316.991263 169.900985 
L 317.93428 169.469801 
L 318.877297 169.038618 
L 319.820314 168.607434 
L 320.763331 168.176251 
L 321.706348 167.745067 
L 322.649364 167.313884 
L 323.592381 166.8827 
L 324.535398 166.451517 
L 325.478415 166.020333 
" style="fill:none;stroke:#0173b2;stroke-linecap:round;stroke-width:2.25;"/>
   </g>
   <g id="line2d_12">
    <path clip-path="url(#p58c37691d6)" d="M 66.148781 208.457871 
L 67.196578 207.496533 
L 68.244374 206.535196 
L 69.292171 205.573858 
L 70.339967 204.612521 
L 71.387764 203.651183 
L 72.43556 202.689846 
L 73.483357 201.728508 
L 74.531153 200.76717 
L 75.57895 199.805833 
L 76.626746 198.844495 
L 77.674543 197.883158 
L 78.722339 196.92182 
L 79.770136 195.960483 
L 80.817932 194.999145 
L 81.865729 194.037807 
L 82.913525 193.07647 
L 83.961322 192.115132 
L 85.009118 191.153795 
L 86.056915 190.192457 
L 87.104711 189.23112 
L 88.152508 188.269782 
L 89.200304 187.308444 
L 90.248101 186.347107 
L 91.295897 185.385769 
L 92.343694 184.424432 
L 93.39149 183.463094 
L 94.439287 182.501757 
L 95.487083 181.540419 
L 96.53488 180.579081 
L 97.582676 179.617744 
L 98.630473 178.656406 
L 99.678269 177.695069 
L 100.726066 176.733731 
L 101.773862 175.772394 
L 102.821659 174.811056 
L 103.869455 173.849718 
L 104.917252 172.888381 
L 105.965048 171.927043 
L 107.012845 170.965706 
L 108.060641 170.004368 
L 109.108438 169.043031 
L 110.156234 168.081693 
L 111.204031 167.120355 
L 112.251827 166.159018 
L 113.299624 165.19768 
L 114.34742 164.236343 
L 115.395217 163.275005 
L 116.443013 162.313668 
L 117.49081 161.35233 
L 118.538606 160.390992 
L 119.586403 159.429655 
L 120.634199 158.468317 
L 121.681996 157.50698 
L 122.729792 156.545642 
L 123.777589 155.584305 
L 124.825385 154.622967 
L 125.873182 153.661629 
L 126.920978 152.700292 
L 127.968775 151.738954 
L 129.016571 150.777617 
L 130.064368 149.816279 
L 131.112164 148.854942 
L 132.159961 147.893604 
L 133.207757 146.932266 
L 134.255554 145.970929 
L 135.30335 145.009591 
L 136.351147 144.048254 
L 137.398943 143.086916 
L 138.44674 142.125579 
L 139.494536 141.164241 
L 140.542333 140.202903 
L 141.590129 139.241566 
L 142.637926 138.280228 
L 143.685722 137.318891 
L 144.733519 136.357553 
L 145.781315 135.396216 
L 146.829112 134.434878 
L 147.876908 133.47354 
L 148.924705 132.512203 
L 149.972501 131.550865 
L 151.020298 130.589528 
L 152.068094 129.62819 
L 153.115891 128.666853 
L 154.163687 127.705515 
L 155.211484 126.744177 
L 156.25928 125.78284 
L 157.307077 124.821502 
L 158.354873 123.860165 
L 159.40267 122.898827 
L 160.450466 121.93749 
L 161.498263 120.976152 
L 162.546059 120.014815 
L 163.593856 119.053477 
L 164.641652 118.092139 
L 165.689449 117.130802 
L 166.737245 116.169464 
L 167.785042 115.208127 
L 168.832838 114.246789 
L 169.880635 113.285452 
" style="fill:none;stroke:#de8f05;stroke-linecap:round;stroke-width:2.25;"/>
   </g>
   <g id="patch_3">
    <path d="M 50.025469 322.369375 
L 50.025469 21.789375 
" style="fill:none;stroke:#ffffff;stroke-linecap:square;stroke-linejoin:miter;stroke-width:1.25;"/>
   </g>
   <g id="patch_4">
    <path d="M 50.025469 322.369375 
L 341.571301 322.369375 
" style="fill:none;stroke:#ffffff;stroke-linecap:square;stroke-linejoin:miter;stroke-width:1.25;"/>
   </g>
   <g id="text_13">
    <!-- UPDRS3 outcomes &amp; Motor VAT -->
    <defs>
     <path d="M 40.578125 0 
L 40.578125 7.625 
Q 34.515625 -1.171875 24.125 -1.171875 
Q 19.53125 -1.171875 15.546875 0.578125 
Q 11.578125 2.34375 9.640625 5 
Q 7.71875 7.671875 6.9375 11.53125 
Q 6.390625 14.109375 6.390625 19.734375 
L 6.390625 51.859375 
L 15.1875 51.859375 
L 15.1875 23.09375 
Q 15.1875 16.21875 15.71875 13.8125 
Q 16.546875 10.359375 19.234375 8.375 
Q 21.921875 6.390625 25.875 6.390625 
Q 29.828125 6.390625 33.296875 8.421875 
Q 36.765625 10.453125 38.203125 13.9375 
Q 39.65625 17.4375 39.65625 24.078125 
L 39.65625 51.859375 
L 48.4375 51.859375 
L 48.4375 0 
z
" id="ArialMT-117"/>
     <path d="M 6.59375 0 
L 6.59375 51.859375 
L 14.453125 51.859375 
L 14.453125 44.578125 
Q 16.890625 48.390625 20.9375 50.703125 
Q 25 53.03125 30.171875 53.03125 
Q 35.9375 53.03125 39.625 50.640625 
Q 43.3125 48.25 44.828125 43.953125 
Q 50.984375 53.03125 60.84375 53.03125 
Q 68.5625 53.03125 72.703125 48.75 
Q 76.859375 44.484375 76.859375 35.59375 
L 76.859375 0 
L 68.109375 0 
L 68.109375 32.671875 
Q 68.109375 37.9375 67.25 40.25 
Q 66.40625 42.578125 64.15625 43.984375 
Q 61.921875 45.40625 58.890625 45.40625 
Q 53.421875 45.40625 49.796875 41.765625 
Q 46.1875 38.140625 46.1875 30.125 
L 46.1875 0 
L 37.40625 0 
L 37.40625 33.6875 
Q 37.40625 39.546875 35.25 42.46875 
Q 33.109375 45.40625 28.21875 45.40625 
Q 24.515625 45.40625 21.359375 43.453125 
Q 18.21875 41.5 16.796875 37.734375 
Q 15.375 33.984375 15.375 26.90625 
L 15.375 0 
z
" id="ArialMT-109"/>
     <path d="M 3.078125 15.484375 
L 11.765625 16.84375 
Q 12.5 11.625 15.84375 8.84375 
Q 19.1875 6.0625 25.203125 6.0625 
Q 31.25 6.0625 34.171875 8.515625 
Q 37.109375 10.984375 37.109375 14.3125 
Q 37.109375 17.28125 34.515625 19 
Q 32.71875 20.171875 25.53125 21.96875 
Q 15.875 24.421875 12.140625 26.203125 
Q 8.40625 27.984375 6.46875 31.125 
Q 4.546875 34.28125 4.546875 38.09375 
Q 4.546875 41.546875 6.125 44.5 
Q 7.71875 47.46875 10.453125 49.421875 
Q 12.5 50.921875 16.03125 51.96875 
Q 19.578125 53.03125 23.640625 53.03125 
Q 29.734375 53.03125 34.34375 51.265625 
Q 38.96875 49.515625 41.15625 46.5 
Q 43.359375 43.5 44.1875 38.484375 
L 35.59375 37.3125 
Q 35.015625 41.3125 32.203125 43.546875 
Q 29.390625 45.796875 24.265625 45.796875 
Q 18.21875 45.796875 15.625 43.796875 
Q 13.03125 41.796875 13.03125 39.109375 
Q 13.03125 37.40625 14.109375 36.03125 
Q 15.1875 34.625 17.484375 33.6875 
Q 18.796875 33.203125 25.25 31.453125 
Q 34.578125 28.953125 38.25 27.359375 
Q 41.9375 25.78125 44.03125 22.75 
Q 46.140625 19.734375 46.140625 15.234375 
Q 46.140625 10.84375 43.578125 6.953125 
Q 41.015625 3.078125 36.171875 0.953125 
Q 31.34375 -1.171875 25.25 -1.171875 
Q 15.140625 -1.171875 9.84375 3.03125 
Q 4.546875 7.234375 3.078125 15.484375 
z
" id="ArialMT-115"/>
     <path d="M 47.515625 8.453125 
Q 43.171875 3.609375 38.03125 1.1875 
Q 32.90625 -1.21875 26.953125 -1.21875 
Q 15.96875 -1.21875 9.515625 6.203125 
Q 4.296875 12.25 4.296875 19.734375 
Q 4.296875 26.375 8.5625 31.71875 
Q 12.84375 37.0625 21.34375 41.109375 
Q 16.5 46.6875 14.890625 50.140625 
Q 13.28125 53.609375 13.28125 56.84375 
Q 13.28125 63.28125 18.328125 68.03125 
Q 23.390625 72.796875 31.0625 72.796875 
Q 38.375 72.796875 43.03125 68.296875 
Q 47.703125 63.8125 47.703125 57.515625 
Q 47.703125 47.3125 34.1875 40.09375 
L 47.015625 23.734375 
Q 49.21875 28.03125 50.4375 33.6875 
L 59.578125 31.734375 
Q 57.234375 22.359375 53.21875 16.3125 
Q 58.15625 9.765625 64.40625 5.328125 
L 58.5 -1.65625 
Q 53.171875 1.765625 47.515625 8.453125 
z
M 29.640625 45.75 
Q 35.359375 49.125 37.03125 51.65625 
Q 38.71875 54.203125 38.71875 57.28125 
Q 38.71875 60.9375 36.390625 63.25 
Q 34.078125 65.578125 30.609375 65.578125 
Q 27.046875 65.578125 24.671875 63.28125 
Q 22.3125 60.984375 22.3125 57.671875 
Q 22.3125 56 23.171875 54.171875 
Q 24.03125 52.34375 25.734375 50.296875 
z
M 42 15.375 
L 25.875 35.359375 
Q 18.75 31.109375 16.25 27.46875 
Q 13.765625 23.828125 13.765625 20.265625 
Q 13.765625 15.921875 17.234375 11.234375 
Q 20.703125 6.546875 27.046875 6.546875 
Q 31 6.546875 35.21875 9 
Q 39.453125 11.46875 42 15.375 
z
" id="ArialMT-38"/>
    </defs>
    <g style="fill:#262626;" transform="translate(107.785885 15.789375)scale(0.12 -0.12)">
     <use xlink:href="#ArialMT-85"/>
     <use x="72.216797" xlink:href="#ArialMT-80"/>
     <use x="138.916016" xlink:href="#ArialMT-68"/>
     <use x="211.132812" xlink:href="#ArialMT-82"/>
     <use x="283.349609" xlink:href="#ArialMT-83"/>
     <use x="350.048828" xlink:href="#ArialMT-51"/>
     <use x="405.664062" xlink:href="#ArialMT-32"/>
     <use x="433.447266" xlink:href="#ArialMT-111"/>
     <use x="489.0625" xlink:href="#ArialMT-117"/>
     <use x="544.677734" xlink:href="#ArialMT-116"/>
     <use x="572.460938" xlink:href="#ArialMT-99"/>
     <use x="622.460938" xlink:href="#ArialMT-111"/>
     <use x="678.076172" xlink:href="#ArialMT-109"/>
     <use x="761.376953" xlink:href="#ArialMT-101"/>
     <use x="816.992188" xlink:href="#ArialMT-115"/>
     <use x="866.992188" xlink:href="#ArialMT-32"/>
     <use x="894.775391" xlink:href="#ArialMT-38"/>
     <use x="961.474609" xlink:href="#ArialMT-32"/>
     <use x="989.257812" xlink:href="#ArialMT-77"/>
     <use x="1072.558594" xlink:href="#ArialMT-111"/>
     <use x="1128.173828" xlink:href="#ArialMT-116"/>
     <use x="1155.957031" xlink:href="#ArialMT-111"/>
     <use x="1211.572266" xlink:href="#ArialMT-114"/>
     <use x="1244.873047" xlink:href="#ArialMT-32"/>
     <use x="1272.65625" xlink:href="#ArialMT-86"/>
     <use x="1339.246094" xlink:href="#ArialMT-65"/>
     <use x="1405.835938" xlink:href="#ArialMT-84"/>
    </g>
   </g>
  </g>
  <g id="legend_1">
   <g id="text_14">
    <!-- Target -->
    <g style="fill:#262626;" transform="translate(358.184114 169.145453)scale(0.102 -0.102)">
     <use xlink:href="#ArialMT-84"/>
     <use x="60.912109" xlink:href="#ArialMT-97"/>
     <use x="116.527344" xlink:href="#ArialMT-114"/>
     <use x="149.828125" xlink:href="#ArialMT-103"/>
     <use x="205.443359" xlink:href="#ArialMT-101"/>
     <use x="261.058594" xlink:href="#ArialMT-116"/>
    </g>
   </g>
   <g id="PathCollection_3">
    <g>
     <use style="fill:#0173b2;fill-opacity:0.8;stroke:#0173b2;stroke-opacity:0.8;" x="357.513551" xlink:href="#m52a908b347" y="181.912391"/>
    </g>
   </g>
   <g id="text_15">
    <!-- Gpi -->
    <defs>
     <path d="M 41.21875 28.078125 
L 41.21875 36.46875 
L 71.53125 36.53125 
L 71.53125 9.96875 
Q 64.546875 4.390625 57.125 1.578125 
Q 49.703125 -1.21875 41.890625 -1.21875 
Q 31.34375 -1.21875 22.71875 3.296875 
Q 14.109375 7.8125 9.71875 16.359375 
Q 5.328125 24.90625 5.328125 35.453125 
Q 5.328125 45.90625 9.6875 54.953125 
Q 14.0625 64.015625 22.265625 68.40625 
Q 30.46875 72.796875 41.15625 72.796875 
Q 48.921875 72.796875 55.1875 70.28125 
Q 61.46875 67.78125 65.03125 63.28125 
Q 68.609375 58.796875 70.453125 51.5625 
L 61.921875 49.21875 
Q 60.296875 54.6875 57.90625 57.8125 
Q 55.515625 60.9375 51.0625 62.8125 
Q 46.625 64.703125 41.21875 64.703125 
Q 34.71875 64.703125 29.984375 62.71875 
Q 25.25 60.75 22.34375 57.515625 
Q 19.4375 54.296875 17.828125 50.4375 
Q 15.09375 43.796875 15.09375 36.03125 
Q 15.09375 26.46875 18.390625 20.015625 
Q 21.6875 13.578125 27.984375 10.453125 
Q 34.28125 7.328125 41.359375 7.328125 
Q 47.515625 7.328125 53.375 9.6875 
Q 59.234375 12.0625 62.25 14.75 
L 62.25 28.078125 
z
" id="ArialMT-71"/>
     <path d="M 6.59375 -19.875 
L 6.59375 51.859375 
L 14.59375 51.859375 
L 14.59375 45.125 
Q 17.4375 49.078125 21 51.046875 
Q 24.5625 53.03125 29.640625 53.03125 
Q 36.28125 53.03125 41.359375 49.609375 
Q 46.4375 46.1875 49.015625 39.953125 
Q 51.609375 33.734375 51.609375 26.3125 
Q 51.609375 18.359375 48.75 11.984375 
Q 45.90625 5.609375 40.453125 2.21875 
Q 35.015625 -1.171875 29 -1.171875 
Q 24.609375 -1.171875 21.109375 0.6875 
Q 17.625 2.546875 15.375 5.375 
L 15.375 -19.875 
z
M 14.546875 25.640625 
Q 14.546875 15.625 18.59375 10.84375 
Q 22.65625 6.0625 28.421875 6.0625 
Q 34.28125 6.0625 38.453125 11.015625 
Q 42.625 15.96875 42.625 26.375 
Q 42.625 36.28125 38.546875 41.203125 
Q 34.46875 46.140625 28.8125 46.140625 
Q 23.1875 46.140625 18.859375 40.890625 
Q 14.546875 35.640625 14.546875 25.640625 
z
" id="ArialMT-112"/>
     <path d="M 6.640625 61.46875 
L 6.640625 71.578125 
L 15.4375 71.578125 
L 15.4375 61.46875 
z
M 6.640625 0 
L 6.640625 51.859375 
L 15.4375 51.859375 
L 15.4375 0 
z
" id="ArialMT-105"/>
    </defs>
    <g style="fill:#262626;" transform="translate(377.313551 184.799891)scale(0.11 -0.11)">
     <use xlink:href="#ArialMT-71"/>
     <use x="77.783203" xlink:href="#ArialMT-112"/>
     <use x="133.398438" xlink:href="#ArialMT-105"/>
    </g>
   </g>
   <g id="PathCollection_4">
    <g>
     <use style="fill:#de8f05;fill-opacity:0.8;stroke:#de8f05;stroke-opacity:0.8;" x="357.513551" xlink:href="#mfdecd4c1ce" y="197.472234"/>
    </g>
   </g>
   <g id="text_16">
    <!-- STN -->
    <defs>
     <path d="M 7.625 0 
L 7.625 71.578125 
L 17.328125 71.578125 
L 54.9375 15.375 
L 54.9375 71.578125 
L 64.015625 71.578125 
L 64.015625 0 
L 54.296875 0 
L 16.703125 56.25 
L 16.703125 0 
z
" id="ArialMT-78"/>
    </defs>
    <g style="fill:#262626;" transform="translate(377.313551 200.359734)scale(0.11 -0.11)">
     <use xlink:href="#ArialMT-83"/>
     <use x="66.699219" xlink:href="#ArialMT-84"/>
     <use x="127.783203" xlink:href="#ArialMT-78"/>
    </g>
   </g>
  </g>
 </g>
 <defs>
  <clipPath id="p58c37691d6">
   <rect height="300.58" width="291.545832" x="50.025469" y="21.789375"/>
  </clipPath>
 </defs>
</svg>
