<?xml version="1.0" encoding="utf-8"?>
<!-- Generator: Adobe Illustrator 24.1.2, SVG Export Plug-In . SVG Version: 6.00 Build 0)  -->
<svg version="1.1" id="Layer_1" xmlns="http://www.w3.org/2000/svg" xmlns:xlink="http://www.w3.org/1999/xlink" x="0px" y="0px"
	 viewBox="0 0 850 850" style="enable-background:new 0 0 850 850;" xml:space="preserve">
<style type="text/css">
	.st0{fill:#FFFFFF;}
	.st1{fill:#E5ECF6;}
	.st2{stroke:#FFFFFF;}
	.st3{fill:none;}
	.st4{fill:#2A3F5F;}
	.st5{font-family:'OpenSans';}
	.st6{font-size:12px;}
	.st7{clip-path:url(#SVGID_2_);}
	.st8{opacity:0.7;}
	.st9{fill:#E41A1C;}
	.st10{fill:#377EB8;}
	.st11{clip-path:url(#SVGID_4_);}
	.st12{clip-path:url(#SVGID_6_);}
	.st13{clip-path:url(#SVGID_8_);}
	.st14{clip-path:url(#SVGID_10_);}
	.st15{clip-path:url(#SVGID_12_);}
	.st16{clip-path:url(#SVGID_14_);}
	.st17{clip-path:url(#SVGID_16_);}
	.st18{clip-path:url(#SVGID_18_);}
	.st19{clip-path:url(#SVGID_20_);}
	.st20{clip-path:url(#SVGID_22_);}
	.st21{fill:#E41A1C;fill-opacity:0.5;stroke:#E41A1C;stroke-width:2;}
	.st22{fill:none;stroke:#E41A1C;stroke-width:2;stroke-dasharray:4,2;}
	.st23{fill:#377EB8;fill-opacity:0.5;stroke:#377EB8;stroke-width:2;}
	.st24{fill:none;stroke:#377EB8;stroke-width:2;stroke-dasharray:4,2;}
	.st25{clip-path:url(#SVGID_24_);}
	.st26{clip-path:url(#SVGID_26_);}
	.st27{clip-path:url(#SVGID_28_);}
	.st28{fill:#FFDD17;fill-opacity:0.6;stroke:#377EB8;}
	.st29{clip-path:url(#SVGID_30_);}
	.st30{font-family:'HelveticaNeue-Bold';}
	.st31{font-size:15px;}
	.st32{font-family:'Helvetica-Bold';}
	.st33{font-family:'HelveticaNeue-BoldItalic';}
</style>
<rect y="0" class="st0" width="850" height="850"/>
<g>
	<rect x="80" y="509.6" class="st1" width="127.5" height="123.8"/>
	<rect x="80" y="373.1" class="st1" width="127.5" height="123.8"/>
	<rect x="80" y="236.5" class="st1" width="127.5" height="123.8"/>
	<rect x="80" y="100" class="st1" width="127.5" height="123.8"/>
	<rect x="220.6" y="646.2" class="st1" width="127.5" height="123.8"/>
	<rect x="220.6" y="373.1" class="st1" width="127.5" height="123.8"/>
	<rect x="220.6" y="236.5" class="st1" width="127.5" height="123.8"/>
	<rect x="220.6" y="100" class="st1" width="127.5" height="123.8"/>
	<rect x="361.2" y="646.2" class="st1" width="127.5" height="123.8"/>
	<rect x="361.2" y="509.6" class="st1" width="127.5" height="123.8"/>
	<rect x="361.2" y="236.5" class="st1" width="127.5" height="123.8"/>
	<rect x="361.2" y="100" class="st1" width="127.5" height="123.8"/>
	<rect x="501.9" y="646.2" class="st1" width="127.5" height="123.8"/>
	<rect x="501.9" y="509.6" class="st1" width="127.5" height="123.8"/>
	<rect x="501.9" y="373.1" class="st1" width="127.5" height="123.8"/>
	<rect x="501.9" y="100" class="st1" width="127.5" height="123.8"/>
	<rect x="642.5" y="646.2" class="st1" width="127.5" height="123.8"/>
	<rect x="642.5" y="509.6" class="st1" width="127.5" height="123.8"/>
	<rect x="642.5" y="373.1" class="st1" width="127.5" height="123.8"/>
	<rect x="642.5" y="236.5" class="st1" width="127.5" height="123.8"/>
	<rect x="80" y="646.2" class="st1" width="127.5" height="123.8"/>
	<rect x="220.6" y="509.6" class="st1" width="127.5" height="123.8"/>
	<rect x="361.2" y="373.1" class="st1" width="127.5" height="123.8"/>
	<rect x="501.9" y="236.5" class="st1" width="127.5" height="123.8"/>
	<rect x="642.5" y="100" class="st1" width="127.5" height="123.8"/>
</g>
<path class="st2" d="M0,0"/>
<path class="st2" d="M0,0"/>
<path class="st3" d="M0,0"/>
<path class="st3" d="M0,0"/>
<g>
	<g>
		<text transform="matrix(1 0 0 1 82.7593 783)" class="st4 st5 st6">0</text>
	</g>
	<g>
		<text transform="matrix(1 0 0 1 112.9893 783)" class="st4 st5 st6">5</text>
	</g>
	<g>
		<text transform="matrix(1 0 0 1 139.7887 783)" class="st4 st5 st6">10</text>
	</g>
	<g>
		<text transform="matrix(1 0 0 1 170.0187 783)" class="st4 st5 st6">15</text>
	</g>
	<g>
		<text transform="matrix(1 0 0 1 200.2387 783)" class="st4 st5 st6">20</text>
	</g>
</g>
<g>
	<g>
		<text transform="matrix(1 0 0 1 771 613.508)" class="st4 st5 st6">−80</text>
	</g>
	<g>
		<text transform="matrix(1 0 0 1 771 588.518)" class="st4 st5 st6">−60</text>
	</g>
	<g>
		<text transform="matrix(1 0 0 1 771 563.518)" class="st4 st5 st6">−40</text>
	</g>
	<g>
		<text transform="matrix(1 0 0 1 771 538.518)" class="st4 st5 st6">−20</text>
	</g>
</g>
<path class="st2" d="M0,0"/>
<path class="st2" d="M0,0"/>
<path class="st3" d="M0,0"/>
<path class="st3" d="M0,0"/>
<g>
	<g>
		<text transform="matrix(1 0 0 1 771 488.672)" class="st4 st5 st6">−100</text>
	</g>
	<g>
		<text transform="matrix(1 0 0 1 771 455.692)" class="st4 st5 st6">−50</text>
	</g>
	<g>
		<text transform="matrix(1 0 0 1 771 422.712)" class="st4 st5 st6">0</text>
	</g>
	<g>
		<text transform="matrix(1 0 0 1 771 389.732)" class="st4 st5 st6">50</text>
	</g>
</g>
<path class="st2" d="M0,0"/>
<path class="st2" d="M0,0"/>
<path class="st3" d="M0,0"/>
<path class="st3" d="M0,0"/>
<g>
	<g>
		<text transform="matrix(1 0 0 1 771 352.126)" class="st4 st5 st6">−100</text>
	</g>
	<g>
		<text transform="matrix(1 0 0 1 771 315.316)" class="st4 st5 st6">−50</text>
	</g>
	<g>
		<text transform="matrix(1 0 0 1 771 278.516)" class="st4 st5 st6">0</text>
	</g>
	<g>
		<text transform="matrix(1 0 0 1 771 241.706)" class="st4 st5 st6">50</text>
	</g>
</g>
<path class="st2" d="M0,0"/>
<path class="st2" d="M0,0"/>
<path class="st3" d="M0,0"/>
<path class="st3" d="M0,0"/>
<g>
	<g>
		<text transform="matrix(1 0 0 1 771 221.47)" class="st4 st5 st6">−100</text>
	</g>
	<g>
		<text transform="matrix(1 0 0 1 771 182.16)" class="st4 st5 st6">−50</text>
	</g>
	<g>
		<text transform="matrix(1 0 0 1 771 142.85)" class="st4 st5 st6">0</text>
	</g>
</g>
<g>
	<g>
		<g>
			<path class="st2" d="M245.3,646.2V770"/>
			<path class="st2" d="M271.2,646.2V770"/>
			<path class="st2" d="M297,646.2V770"/>
			<path class="st2" d="M322.9,646.2V770"/>
		</g>
		<g>
			<path class="st2" d="M220.6,763.8h127.5"/>
			<path class="st2" d="M220.6,734.5h127.5"/>
			<path class="st2" d="M220.6,705.3h127.5"/>
			<path class="st2" d="M220.6,676.1h127.5"/>
		</g>
	</g>
	<path class="st2" d="M0,0"/>
	<path class="st2" d="M0,0"/>
	<g>
		<defs>
			<rect id="SVGID_1_" x="220.6" y="646.2" width="127.5" height="123.8"/>
		</defs>
		<clipPath id="SVGID_2_">
			<use xlink:href="#SVGID_1_"  style="overflow:visible;"/>
		</clipPath>
		<g transform="translate(220.622, 646.184)" class="st7">
			<g>
				<g class="st8">
					<g>
						<path class="st9" d="M86.6,75.7c0,2.8-2.2,5-5,5s-5-2.2-5-5s2.2-5,5-5S86.6,72.9,86.6,75.7z"/>
						<path class="st9" d="M103,82.7c0,2.8-2.2,5-5,5s-5-2.2-5-5s2.2-5,5-5S103,79.9,103,82.7z"/>
						<path class="st9" d="M102.3,83.4c0,2.8-2.2,5-5,5s-5-2.2-5-5s2.2-5,5-5S102.3,80.6,102.3,83.4z"/>
						<path class="st9" d="M65.8,111.4c0,2.8-2.2,5-5,5s-5-2.2-5-5s2.2-5,5-5S65.8,108.6,65.8,111.4z"/>
					</g>
				</g>
				<g class="st8">
					<g>
						<path class="st10" d="M100.8,15.9c0,2.8-2.2,5-5,5s-5-2.2-5-5s2.2-5,5-5S100.8,13.2,100.8,15.9z"/>
						<path class="st10" d="M50.7,37.8c0,2.8-2.2,5-5,5s-5-2.2-5-5c0-2.8,2.2-5,5-5S50.7,35,50.7,37.8z"/>
						<path class="st10" d="M69.4,75.4c0,2.8-2.2,5-5,5c-2.8,0-5-2.2-5-5s2.2-5,5-5C67.2,70.4,69.4,72.7,69.4,75.4z"/>
						<path class="st10" d="M43.9,67c0,2.8-2.2,5-5,5s-5-2.2-5-5s2.2-5,5-5S43.9,64.2,43.9,67z"/>
						<path class="st10" d="M29.2,72.2c0,2.8-2.2,5-5,5s-5-2.2-5-5s2.2-5,5-5S29.2,69.5,29.2,72.2z"/>
						<path class="st10" d="M65.9,98.9c0,2.8-2.2,5-5,5s-5-2.2-5-5s2.2-5,5-5S65.9,96.2,65.9,98.9z"/>
						<path class="st10" d="M53.6,12.4c0,2.8-2.2,5-5,5s-5-2.2-5-5s2.2-5,5-5S53.6,9.7,53.6,12.4z"/>
					</g>
				</g>
			</g>
		</g>
	</g>
	<path class="st3" d="M0,0"/>
	<path class="st3" d="M0,0"/>
	<g>
		<g>
			<text transform="matrix(1 0 0 1 235.05 783)" class="st4 st5 st6">−80</text>
		</g>
		<g>
			<text transform="matrix(1 0 0 1 260.89 783)" class="st4 st5 st6">−60</text>
		</g>
		<g>
			<text transform="matrix(1 0 0 1 286.72 783)" class="st4 st5 st6">−40</text>
		</g>
		<g>
			<text transform="matrix(1 0 0 1 312.56 783)" class="st4 st5 st6">−20</text>
		</g>
	</g>
	<g>
		<g>
			<text transform="matrix(1 0 0 1 771 767.984)" class="st4 st5 st6">0</text>
		</g>
		<g>
			<text transform="matrix(1 0 0 1 771 738.734)" class="st4 st5 st6">5</text>
		</g>
		<g>
			<text transform="matrix(1 0 0 1 771 709.494)" class="st4 st5 st6">10</text>
		</g>
		<g>
			<text transform="matrix(1 0 0 1 771 680.254)" class="st4 st5 st6">15</text>
		</g>
		<g>
			<text transform="matrix(1 0 0 1 771 651.004)" class="st4 st5 st6">20</text>
		</g>
	</g>
</g>
<g>
	<g>
		<g>
			<path class="st2" d="M373.9,646.2V770"/>
			<path class="st2" d="M408,646.2V770"/>
			<path class="st2" d="M442,646.2V770"/>
			<path class="st2" d="M476.1,646.2V770"/>
		</g>
		<g>
			<path class="st2" d="M361.2,763.8h127.5"/>
			<path class="st2" d="M361.2,734.5h127.5"/>
			<path class="st2" d="M361.2,705.3h127.5"/>
			<path class="st2" d="M361.2,676.1h127.5"/>
		</g>
	</g>
	<path class="st2" d="M0,0"/>
	<path class="st2" d="M0,0"/>
	<g>
		<defs>
			<rect id="SVGID_3_" x="361.2" y="646.2" width="127.5" height="123.8"/>
		</defs>
		<clipPath id="SVGID_4_">
			<use xlink:href="#SVGID_3_"  style="overflow:visible;"/>
		</clipPath>
		<g transform="translate(361.244, 646.184)" class="st11">
			<g>
				<g class="st8">
					<g>
						<path class="st9" d="M26.1,75.7c0,2.8-2.2,5-5,5s-5-2.2-5-5s2.2-5,5-5S26.1,72.9,26.1,75.7z"/>
						<path class="st9" d="M42.4,82.7c0,2.8-2.2,5-5,5s-5-2.2-5-5s2.2-5,5-5S42.4,79.9,42.4,82.7z"/>
						<path class="st9" d="M25.2,83.4c0,2.8-2.2,5-5,5s-5-2.2-5-5s2.2-5,5-5S25.2,80.6,25.2,83.4z"/>
						<path class="st9" d="M31.3,111.4c0,2.8-2.2,5-5,5s-5-2.2-5-5s2.2-5,5-5S31.3,108.6,31.3,111.4z"/>
					</g>
				</g>
				<g class="st8">
					<g>
						<path class="st10" d="M34.7,15.9c0,2.8-2.2,5-5,5s-5-2.2-5-5s2.2-5,5-5S34.7,13.2,34.7,15.9z"/>
						<path class="st10" d="M42.4,37.8c0,2.8-2.2,5-5,5s-5-2.2-5-5c0-2.8,2.2-5,5-5S42.4,35,42.4,37.8z"/>
						<path class="st10" d="M44.9,75.4c0,2.8-2.2,5-5,5s-5-2.2-5-5s2.2-5,5-5S44.9,72.7,44.9,75.4z"/>
						<path class="st10" d="M17.6,67c0,2.8-2.2,5-5,5s-5-2.2-5-5s2.2-5,5-5S17.6,64.2,17.6,67z"/>
						<path class="st10" d="M23.8,72.2c0,2.8-2.2,5-5,5s-5-2.2-5-5s2.2-5,5-5S23.8,69.5,23.8,72.2z"/>
						<path class="st10" d="M27.4,98.9c0,2.8-2.2,5-5,5s-5-2.2-5-5s2.2-5,5-5S27.4,96.2,27.4,98.9z"/>
						<path class="st10" d="M34.7,12.4c0,2.8-2.2,5-5,5s-5-2.2-5-5s2.2-5,5-5S34.7,9.7,34.7,12.4z"/>
					</g>
				</g>
			</g>
		</g>
	</g>
	<path class="st3" d="M0,0"/>
	<path class="st3" d="M0,0"/>
	<g>
		<g>
			<text transform="matrix(1 0 0 1 360.1513 783)" class="st4 st5 st6">−100</text>
		</g>
		<g>
			<text transform="matrix(1 0 0 1 397.662 783)" class="st4 st5 st6">−50</text>
		</g>
		<g>
			<text transform="matrix(1 0 0 1 438.6133 783)" class="st4 st5 st6">0</text>
		</g>
		<g>
			<text transform="matrix(1 0 0 1 469.2727 783)" class="st4 st5 st6">50</text>
		</g>
	</g>
</g>
<g>
	<g>
		<g>
			<path class="st2" d="M373.9,509.6v123.8"/>
			<path class="st2" d="M408,509.6v123.8"/>
			<path class="st2" d="M442,509.6v123.8"/>
			<path class="st2" d="M476.1,509.6v123.8"/>
		</g>
		<g>
			<path class="st2" d="M361.2,609.3h127.5"/>
			<path class="st2" d="M361.2,584.3h127.5"/>
			<path class="st2" d="M361.2,559.3h127.5"/>
			<path class="st2" d="M361.2,534.3h127.5"/>
		</g>
	</g>
	<path class="st2" d="M0,0"/>
	<path class="st2" d="M0,0"/>
	<g>
		<defs>
			<rect id="SVGID_5_" x="361.2" y="509.6" width="127.5" height="123.8"/>
		</defs>
		<clipPath id="SVGID_6_">
			<use xlink:href="#SVGID_5_"  style="overflow:visible;"/>
		</clipPath>
		<g transform="translate(361.244, 509.638)" class="st12">
			<g>
				<g class="st8">
					<g>
						<path class="st9" d="M26.1,44.7c0,2.8-2.2,5-5,5s-5-2.2-5-5c0-2.8,2.2-5,5-5S26.1,41.9,26.1,44.7z"/>
						<path class="st9" d="M42.4,28.7c0,2.8-2.2,5-5,5s-5-2.2-5-5s2.2-5,5-5S42.4,26,42.4,28.7z"/>
						<path class="st9" d="M25.2,29.4c0,2.8-2.2,5-5,5s-5-2.2-5-5s2.2-5,5-5S25.2,26.7,25.2,29.4z"/>
						<path class="st9" d="M31.3,64.8c0,2.8-2.2,5-5,5s-5-2.2-5-5c0-2.8,2.2-5,5-5S31.3,62,31.3,64.8z"/>
						<path class="st9" d="M43.2,21.4c0,2.8-2.2,5-5,5s-5-2.2-5-5s2.2-5,5-5S43.2,18.7,43.2,21.4z"/>
					</g>
				</g>
				<g class="st8">
					<g>
						<path class="st10" d="M17.6,34.3c0,2.8-2.2,5-5,5s-5-2.2-5-5s2.2-5,5-5S17.6,31.5,17.6,34.3z"/>
						<path class="st10" d="M34.7,30.9c0,2.8-2.2,5-5,5s-5-2.2-5-5s2.2-5,5-5S34.7,28.2,34.7,30.9z"/>
						<path class="st10" d="M17.6,111.4c0,2.8-2.2,5-5,5s-5-2.2-5-5c0-2.8,2.2-5,5-5S17.6,108.6,17.6,111.4z"/>
						<path class="st10" d="M42.4,79.4c0,2.8-2.2,5-5,5s-5-2.2-5-5c0-2.8,2.2-5,5-5S42.4,76.7,42.4,79.4z"/>
						<path class="st10" d="M44.9,61.2c0,2.8-2.2,5-5,5s-5-2.2-5-5c0-2.8,2.2-5,5-5S44.9,58.5,44.9,61.2z"/>
						<path class="st10" d="M17.6,86c0,2.8-2.2,5-5,5s-5-2.2-5-5c0-2.8,2.2-5,5-5S17.6,83.2,17.6,86z"/>
						<path class="st10" d="M23.8,100.2c0,2.8-2.2,5-5,5s-5-2.2-5-5c0-2.8,2.2-5,5-5S23.8,97.4,23.8,100.2z"/>
						<path class="st10" d="M27.4,64.7c0,2.8-2.2,5-5,5s-5-2.2-5-5c0-2.8,2.2-5,5-5S27.4,61.9,27.4,64.7z"/>
						<path class="st10" d="M34.7,76.6c0,2.8-2.2,5-5,5s-5-2.2-5-5c0-2.8,2.2-5,5-5S34.7,73.8,34.7,76.6z"/>
						<path class="st10" d="M119.9,87.5c0,2.8-2.2,5-5,5s-5-2.2-5-5c0-2.8,2.2-5,5-5S119.9,84.7,119.9,87.5z"/>
					</g>
				</g>
			</g>
		</g>
	</g>
	<path class="st3" d="M0,0"/>
	<path class="st3" d="M0,0"/>
</g>
<g>
	<g>
		<path class="st2" d="M514.5,646.2V770"/>
		<path class="st2" d="M552.5,646.2V770"/>
		<path class="st2" d="M590.6,646.2V770"/>
	</g>
	<g>
		<path class="st2" d="M501.9,763.8h127.5"/>
		<path class="st2" d="M501.9,734.5h127.5"/>
		<path class="st2" d="M501.9,705.3h127.5"/>
		<path class="st2" d="M501.9,676.1h127.5"/>
	</g>
</g>
<path class="st2" d="M0,0"/>
<path class="st2" d="M0,0"/>
<g>
	<defs>
		<rect id="SVGID_7_" x="501.9" y="646.2" width="127.5" height="123.8"/>
	</defs>
	<clipPath id="SVGID_8_">
		<use xlink:href="#SVGID_7_"  style="overflow:visible;"/>
	</clipPath>
	<g transform="translate(501.866, 646.184)" class="st13">
		<g>
			<g class="st8">
				<g>
					<path class="st9" d="M91.5,75.7c0,2.8-2.2,5-5,5s-5-2.2-5-5s2.2-5,5-5S91.5,72.9,91.5,75.7z"/>
					<path class="st9" d="M76.5,82.7c0,2.8-2.2,5-5,5s-5-2.2-5-5s2.2-5,5-5S76.5,79.9,76.5,82.7z"/>
					<path class="st9" d="M99.1,83.4c0,2.8-2.2,5-5,5s-5-2.2-5-5s2.2-5,5-5S99.1,80.6,99.1,83.4z"/>
					<path class="st9" d="M71.5,111.4c0,2.8-2.2,5-5,5c-2.8,0-5-2.2-5-5s2.2-5,5-5C69.3,106.4,71.5,108.6,71.5,111.4z"/>
				</g>
			</g>
			<g class="st8">
				<g>
					<path class="st10" d="M41,15.9c0,2.8-2.2,5-5,5s-5-2.2-5-5s2.2-5,5-5S41,13.2,41,15.9z"/>
					<path class="st10" d="M57.9,37.8c0,2.8-2.2,5-5,5s-5-2.2-5-5c0-2.8,2.2-5,5-5S57.9,35,57.9,37.8z"/>
					<path class="st10" d="M58,75.4c0,2.8-2.2,5-5,5s-5-2.2-5-5s2.2-5,5-5S58,72.7,58,75.4z"/>
					<path class="st10" d="M46.2,67c0,2.8-2.2,5-5,5s-5-2.2-5-5s2.2-5,5-5S46.2,64.2,46.2,67z"/>
					<path class="st10" d="M33.9,72.2c0,2.8-2.2,5-5,5s-5-2.2-5-5s2.2-5,5-5S33.9,69.5,33.9,72.2z"/>
					<path class="st10" d="M17.6,98.9c0,2.8-2.2,5-5,5s-5-2.2-5-5s2.2-5,5-5S17.6,96.2,17.6,98.9z"/>
				</g>
			</g>
		</g>
	</g>
</g>
<path class="st3" d="M0,0"/>
<path class="st3" d="M0,0"/>
<g>
	<text transform="matrix(1 0 0 1 500.7733 783)" class="st4 st5 st6">−100</text>
</g>
<g>
	<text transform="matrix(1 0 0 1 542.244 783)" class="st4 st5 st6">−50</text>
</g>
<g>
	<text transform="matrix(1 0 0 1 587.1453 783)" class="st4 st5 st6">0</text>
</g>
<g>
	<g>
		<g>
			<path class="st2" d="M514.5,509.6v123.8"/>
			<path class="st2" d="M552.5,509.6v123.8"/>
			<path class="st2" d="M590.6,509.6v123.8"/>
		</g>
		<g>
			<path class="st2" d="M501.9,609.3h127.5"/>
			<path class="st2" d="M501.9,584.3h127.5"/>
			<path class="st2" d="M501.9,559.3h127.5"/>
			<path class="st2" d="M501.9,534.3h127.5"/>
		</g>
	</g>
	<path class="st2" d="M0,0"/>
	<path class="st2" d="M0,0"/>
	<g>
		<defs>
			<rect id="SVGID_9_" x="501.9" y="509.6" width="127.5" height="123.8"/>
		</defs>
		<clipPath id="SVGID_10_">
			<use xlink:href="#SVGID_9_"  style="overflow:visible;"/>
		</clipPath>
		<g transform="translate(501.866, 509.638)" class="st14">
			<g>
				<g class="st8">
					<g>
						<path class="st9" d="M91.5,44.7c0,2.8-2.2,5-5,5s-5-2.2-5-5c0-2.8,2.2-5,5-5S91.5,41.9,91.5,44.7z"/>
						<path class="st9" d="M76.5,28.7c0,2.8-2.2,5-5,5s-5-2.2-5-5s2.2-5,5-5S76.5,26,76.5,28.7z"/>
						<path class="st9" d="M99.1,29.4c0,2.8-2.2,5-5,5s-5-2.2-5-5s2.2-5,5-5S99.1,26.7,99.1,29.4z"/>
						<path class="st9" d="M71.5,64.8c0,2.8-2.2,5-5,5c-2.8,0-5-2.2-5-5c0-2.8,2.2-5,5-5C69.3,59.8,71.5,62,71.5,64.8z"/>
						<path class="st9" d="M73.7,21.4c0,2.8-2.2,5-5,5s-5-2.2-5-5s2.2-5,5-5S73.7,18.7,73.7,21.4z"/>
					</g>
				</g>
				<g class="st8">
					<g>
						<path class="st10" d="M51.4,34.3c0,2.8-2.2,5-5,5s-5-2.2-5-5s2.2-5,5-5S51.4,31.5,51.4,34.3z"/>
						<path class="st10" d="M41,30.9c0,2.8-2.2,5-5,5s-5-2.2-5-5s2.2-5,5-5S41,28.2,41,30.9z"/>
						<path class="st10" d="M79,28.7c0,2.8-2.2,5-5,5s-5-2.2-5-5s2.2-5,5-5S79,26,79,28.7z"/>
						<path class="st10" d="M49.5,111.4c0,2.8-2.2,5-5,5s-5-2.2-5-5c0-2.8,2.2-5,5-5S49.5,108.6,49.5,111.4z"/>
						<path class="st10" d="M57.9,79.4c0,2.8-2.2,5-5,5s-5-2.2-5-5c0-2.8,2.2-5,5-5S57.9,76.7,57.9,79.4z"/>
						<path class="st10" d="M58,61.2c0,2.8-2.2,5-5,5s-5-2.2-5-5c0-2.8,2.2-5,5-5S58,58.5,58,61.2z"/>
						<path class="st10" d="M46.2,86c0,2.8-2.2,5-5,5s-5-2.2-5-5c0-2.8,2.2-5,5-5S46.2,83.2,46.2,86z"/>
						<path class="st10" d="M33.9,100.2c0,2.8-2.2,5-5,5s-5-2.2-5-5c0-2.8,2.2-5,5-5S33.9,97.4,33.9,100.2z"/>
						<path class="st10" d="M17.6,64.7c0,2.8-2.2,5-5,5s-5-2.2-5-5c0-2.8,2.2-5,5-5S17.6,61.9,17.6,64.7z"/>
						<path class="st10" d="M35,12.4c0,2.8-2.2,5-5,5s-5-2.2-5-5s2.2-5,5-5S35,9.7,35,12.4z"/>
						<path class="st10" d="M53.8,64.4c0,2.8-2.2,5-5,5s-5-2.2-5-5c0-2.8,2.2-5,5-5S53.8,61.6,53.8,64.4z"/>
						<path class="st10" d="M93.7,87.5c0,2.8-2.2,5-5,5s-5-2.2-5-5c0-2.8,2.2-5,5-5S93.7,84.7,93.7,87.5z"/>
					</g>
				</g>
			</g>
		</g>
	</g>
	<path class="st3" d="M0,0"/>
	<path class="st3" d="M0,0"/>
</g>
<g>
	<g>
		<g>
			<path class="st2" d="M514.5,373.1v123.8"/>
			<path class="st2" d="M552.5,373.1v123.8"/>
			<path class="st2" d="M590.6,373.1v123.8"/>
		</g>
		<g>
			<path class="st2" d="M501.9,484.5h127.5"/>
			<path class="st2" d="M501.9,451.5h127.5"/>
			<path class="st2" d="M501.9,418.5h127.5"/>
			<path class="st2" d="M501.9,385.5h127.5"/>
		</g>
	</g>
	<path class="st2" d="M0,0"/>
	<path class="st2" d="M0,0"/>
	<g>
		<defs>
			<rect id="SVGID_11_" x="501.9" y="373.1" width="127.5" height="123.8"/>
		</defs>
		<clipPath id="SVGID_12_">
			<use xlink:href="#SVGID_11_"  style="overflow:visible;"/>
		</clipPath>
		<g transform="translate(501.866, 373.092)" class="st15">
			<g>
				<g class="st8">
					<g>
						<path class="st9" d="M91.5,103.1c0,2.8-2.2,5-5,5s-5-2.2-5-5c0-2.8,2.2-5,5-5S91.5,100.4,91.5,103.1z"/>
						<path class="st9" d="M76.5,87.4c0,2.8-2.2,5-5,5s-5-2.2-5-5c0-2.8,2.2-5,5-5S76.5,84.6,76.5,87.4z"/>
						<path class="st9" d="M99.1,104c0,2.8-2.2,5-5,5s-5-2.2-5-5c0-2.8,2.2-5,5-5S99.1,101.3,99.1,104z"/>
						<path class="st9" d="M71.5,98.2c0,2.8-2.2,5-5,5c-2.8,0-5-2.2-5-5c0-2.8,2.2-5,5-5C69.3,93.2,71.5,95.4,71.5,98.2z"/>
						<path class="st9" d="M73.7,86.6c0,2.8-2.2,5-5,5s-5-2.2-5-5c0-2.8,2.2-5,5-5S73.7,83.9,73.7,86.6z"/>
					</g>
				</g>
				<g class="st8">
					<g>
						<path class="st10" d="M51.4,111.4c0,2.8-2.2,5-5,5s-5-2.2-5-5c0-2.8,2.2-5,5-5S51.4,108.6,51.4,111.4z"/>
						<path class="st10" d="M41,94.9c0,2.8-2.2,5-5,5s-5-2.2-5-5c0-2.8,2.2-5,5-5S41,92.1,41,94.9z"/>
						<path class="st10" d="M49.5,111.4c0,2.8-2.2,5-5,5s-5-2.2-5-5c0-2.8,2.2-5,5-5S49.5,108.6,49.5,111.4z"/>
						<path class="st10" d="M57.9,87.4c0,2.8-2.2,5-5,5s-5-2.2-5-5c0-2.8,2.2-5,5-5S57.9,84.6,57.9,87.4z"/>
						<path class="st10" d="M58,85c0,2.8-2.2,5-5,5s-5-2.2-5-5c0-2.8,2.2-5,5-5S58,82.2,58,85z"/>
						<path class="st10" d="M46.2,111.4c0,2.8-2.2,5-5,5s-5-2.2-5-5c0-2.8,2.2-5,5-5S46.2,108.6,46.2,111.4z"/>
						<path class="st10" d="M33.9,105.4c0,2.8-2.2,5-5,5s-5-2.2-5-5c0-2.8,2.2-5,5-5S33.9,102.6,33.9,105.4z"/>
						<path class="st10" d="M17.6,101.9c0,2.8-2.2,5-5,5s-5-2.2-5-5c0-2.8,2.2-5,5-5S17.6,99.2,17.6,101.9z"/>
						<path class="st10" d="M93.7,12.4c0,2.8-2.2,5-5,5s-5-2.2-5-5s2.2-5,5-5S93.7,9.7,93.7,12.4z"/>
					</g>
				</g>
			</g>
		</g>
	</g>
	<path class="st3" d="M0,0"/>
	<path class="st3" d="M0,0"/>
</g>
<g>
	<g>
		<g>
			<path class="st2" d="M649,646.2V770"/>
			<path class="st2" d="M689.6,646.2V770"/>
			<path class="st2" d="M730.3,646.2V770"/>
		</g>
		<g>
			<path class="st2" d="M642.5,763.8H770"/>
			<path class="st2" d="M642.5,734.5H770"/>
			<path class="st2" d="M642.5,705.3H770"/>
			<path class="st2" d="M642.5,676.1H770"/>
		</g>
	</g>
	<path class="st2" d="M0,0"/>
	<path class="st2" d="M0,0"/>
	<g>
		<defs>
			<rect id="SVGID_13_" x="642.5" y="646.2" width="127.5" height="123.8"/>
		</defs>
		<clipPath id="SVGID_14_">
			<use xlink:href="#SVGID_13_"  style="overflow:visible;"/>
		</clipPath>
		<g transform="translate(642.488, 646.184)" class="st16">
			<g>
				<g class="st8">
					<g>
						<path class="st9" d="M69.3,75.7c0,2.8-2.2,5-5,5c-2.8,0-5-2.2-5-5s2.2-5,5-5C67,70.7,69.3,72.9,69.3,75.7z"/>
						<path class="st9" d="M99,82.7c0,2.8-2.2,5-5,5s-5-2.2-5-5s2.2-5,5-5S99,79.9,99,82.7z"/>
						<path class="st9" d="M119.9,83.4c0,2.8-2.2,5-5,5s-5-2.2-5-5s2.2-5,5-5S119.9,80.6,119.9,83.4z"/>
						<path class="st9" d="M31.9,111.4c0,2.8-2.2,5-5,5s-5-2.2-5-5s2.2-5,5-5S31.9,108.6,31.9,111.4z"/>
					</g>
				</g>
				<g class="st8">
					<g>
						<path class="st10" d="M75.2,15.9c0,2.8-2.2,5-5,5s-5-2.2-5-5s2.2-5,5-5S75.2,13.2,75.2,15.9z"/>
						<path class="st10" d="M43.8,37.8c0,2.8-2.2,5-5,5s-5-2.2-5-5c0-2.8,2.2-5,5-5S43.8,35,43.8,37.8z"/>
						<path class="st10" d="M90.8,75.4c0,2.8-2.2,5-5,5s-5-2.2-5-5s2.2-5,5-5S90.8,72.7,90.8,75.4z"/>
						<path class="st10" d="M92.8,67c0,2.8-2.2,5-5,5s-5-2.2-5-5s2.2-5,5-5S92.8,64.2,92.8,67z"/>
						<path class="st10" d="M37.9,72.2c0,2.8-2.2,5-5,5s-5-2.2-5-5s2.2-5,5-5S37.9,69.5,37.9,72.2z"/>
						<path class="st10" d="M59.1,98.9c0,2.8-2.2,5-5,5s-5-2.2-5-5s2.2-5,5-5S59.1,96.2,59.1,98.9z"/>
						<path class="st10" d="M44.2,12.4c0,2.8-2.2,5-5,5s-5-2.2-5-5s2.2-5,5-5S44.2,9.7,44.2,12.4z"/>
					</g>
				</g>
			</g>
		</g>
	</g>
	<path class="st3" d="M0,0"/>
	<path class="st3" d="M0,0"/>
	<g>
		<g>
			<text transform="matrix(1 0 0 1 635.2953 783)" class="st4 st5 st6">−100</text>
		</g>
		<g>
			<text transform="matrix(1 0 0 1 679.356 783)" class="st4 st5 st6">−50</text>
		</g>
		<g>
			<text transform="matrix(1 0 0 1 726.8574 783)" class="st4 st5 st6">0</text>
		</g>
	</g>
</g>
<g>
	<g>
		<g>
			<path class="st2" d="M649,509.6v123.8"/>
			<path class="st2" d="M689.6,509.6v123.8"/>
			<path class="st2" d="M730.3,509.6v123.8"/>
		</g>
		<g>
			<path class="st2" d="M642.5,609.3H770"/>
			<path class="st2" d="M642.5,584.3H770"/>
			<path class="st2" d="M642.5,559.3H770"/>
			<path class="st2" d="M642.5,534.3H770"/>
		</g>
	</g>
	<path class="st2" d="M0,0"/>
	<path class="st2" d="M0,0"/>
	<g>
		<defs>
			<rect id="SVGID_15_" x="642.5" y="509.6" width="127.5" height="123.8"/>
		</defs>
		<clipPath id="SVGID_16_">
			<use xlink:href="#SVGID_15_"  style="overflow:visible;"/>
		</clipPath>
		<g transform="translate(642.488, 509.638)" class="st17">
			<g>
				<g class="st8">
					<g>
						<path class="st9" d="M69.3,44.7c0,2.8-2.2,5-5,5c-2.8,0-5-2.2-5-5c0-2.8,2.2-5,5-5C67,39.7,69.3,41.9,69.3,44.7z"/>
						<path class="st9" d="M99,28.7c0,2.8-2.2,5-5,5s-5-2.2-5-5s2.2-5,5-5S99,26,99,28.7z"/>
						<path class="st9" d="M119.9,29.4c0,2.8-2.2,5-5,5s-5-2.2-5-5s2.2-5,5-5S119.9,26.7,119.9,29.4z"/>
						<path class="st9" d="M31.9,64.8c0,2.8-2.2,5-5,5s-5-2.2-5-5c0-2.8,2.2-5,5-5S31.9,62,31.9,64.8z"/>
						<path class="st9" d="M17.6,21.4c0,2.8-2.2,5-5,5s-5-2.2-5-5s2.2-5,5-5S17.6,18.7,17.6,21.4z"/>
					</g>
				</g>
				<g class="st8">
					<g>
						<path class="st10" d="M83.9,34.3c0,2.8-2.2,5-5,5s-5-2.2-5-5s2.2-5,5-5S83.9,31.5,83.9,34.3z"/>
						<path class="st10" d="M75.2,30.9c0,2.8-2.2,5-5,5s-5-2.2-5-5s2.2-5,5-5S75.2,28.2,75.2,30.9z"/>
						<path class="st10" d="M43.8,79.4c0,2.8-2.2,5-5,5s-5-2.2-5-5c0-2.8,2.2-5,5-5S43.8,76.7,43.8,79.4z"/>
						<path class="st10" d="M90.8,61.2c0,2.8-2.2,5-5,5s-5-2.2-5-5c0-2.8,2.2-5,5-5S90.8,58.5,90.8,61.2z"/>
						<path class="st10" d="M92.8,86c0,2.8-2.2,5-5,5s-5-2.2-5-5c0-2.8,2.2-5,5-5S92.8,83.2,92.8,86z"/>
						<path class="st10" d="M37.9,100.2c0,2.8-2.2,5-5,5s-5-2.2-5-5c0-2.8,2.2-5,5-5S37.9,97.4,37.9,100.2z"/>
						<path class="st10" d="M59.1,64.7c0,2.8-2.2,5-5,5s-5-2.2-5-5c0-2.8,2.2-5,5-5S59.1,61.9,59.1,64.7z"/>
						<path class="st10" d="M44.2,76.6c0,2.8-2.2,5-5,5s-5-2.2-5-5c0-2.8,2.2-5,5-5S44.2,73.8,44.2,76.6z"/>
						<path class="st10" d="M66.3,64.4c0,2.8-2.2,5-5,5s-5-2.2-5-5c0-2.8,2.2-5,5-5S66.3,61.6,66.3,64.4z"/>
						<path class="st10" d="M68.7,87.5c0,2.8-2.2,5-5,5c-2.8,0-5-2.2-5-5c0-2.8,2.2-5,5-5C66.4,82.5,68.7,84.7,68.7,87.5z"/>
					</g>
				</g>
			</g>
		</g>
	</g>
	<path class="st3" d="M0,0"/>
	<path class="st3" d="M0,0"/>
</g>
<g>
	<g>
		<g>
			<path class="st2" d="M649,373.1v123.8"/>
			<path class="st2" d="M689.6,373.1v123.8"/>
			<path class="st2" d="M730.3,373.1v123.8"/>
		</g>
		<g>
			<path class="st2" d="M642.5,484.5H770"/>
			<path class="st2" d="M642.5,451.5H770"/>
			<path class="st2" d="M642.5,418.5H770"/>
			<path class="st2" d="M642.5,385.5H770"/>
		</g>
	</g>
	<path class="st2" d="M0,0"/>
	<path class="st2" d="M0,0"/>
	<g>
		<defs>
			<rect id="SVGID_17_" x="642.5" y="373.1" width="127.5" height="123.8"/>
		</defs>
		<clipPath id="SVGID_18_">
			<use xlink:href="#SVGID_17_"  style="overflow:visible;"/>
		</clipPath>
		<g transform="translate(642.488, 373.092)" class="st18">
			<g>
				<g class="st8">
					<g>
						<path class="st9" d="M69.3,103.1c0,2.8-2.2,5-5,5c-2.8,0-5-2.2-5-5c0-2.8,2.2-5,5-5C67,98.1,69.3,100.4,69.3,103.1z"/>
						<path class="st9" d="M99,87.4c0,2.8-2.2,5-5,5s-5-2.2-5-5c0-2.8,2.2-5,5-5S99,84.6,99,87.4z"/>
						<path class="st9" d="M119.9,104c0,2.8-2.2,5-5,5s-5-2.2-5-5c0-2.8,2.2-5,5-5S119.9,101.3,119.9,104z"/>
						<path class="st9" d="M31.9,98.2c0,2.8-2.2,5-5,5s-5-2.2-5-5c0-2.8,2.2-5,5-5S31.9,95.4,31.9,98.2z"/>
						<path class="st9" d="M17.6,86.6c0,2.8-2.2,5-5,5s-5-2.2-5-5c0-2.8,2.2-5,5-5S17.6,83.9,17.6,86.6z"/>
					</g>
				</g>
				<g class="st8">
					<g>
						<path class="st10" d="M83.9,111.4c0,2.8-2.2,5-5,5s-5-2.2-5-5c0-2.8,2.2-5,5-5S83.9,108.6,83.9,111.4z"/>
						<path class="st10" d="M75.2,94.9c0,2.8-2.2,5-5,5s-5-2.2-5-5c0-2.8,2.2-5,5-5S75.2,92.1,75.2,94.9z"/>
						<path class="st10" d="M43.8,87.4c0,2.8-2.2,5-5,5s-5-2.2-5-5c0-2.8,2.2-5,5-5S43.8,84.6,43.8,87.4z"/>
						<path class="st10" d="M90.8,85c0,2.8-2.2,5-5,5s-5-2.2-5-5c0-2.8,2.2-5,5-5S90.8,82.2,90.8,85z"/>
						<path class="st10" d="M92.8,111.4c0,2.8-2.2,5-5,5s-5-2.2-5-5c0-2.8,2.2-5,5-5S92.8,108.6,92.8,111.4z"/>
						<path class="st10" d="M37.9,105.4c0,2.8-2.2,5-5,5s-5-2.2-5-5c0-2.8,2.2-5,5-5S37.9,102.6,37.9,105.4z"/>
						<path class="st10" d="M59.1,101.9c0,2.8-2.2,5-5,5s-5-2.2-5-5c0-2.8,2.2-5,5-5S59.1,99.2,59.1,101.9z"/>
						<path class="st10" d="M44.2,94.9c0,2.8-2.2,5-5,5s-5-2.2-5-5c0-2.8,2.2-5,5-5S44.2,92.1,44.2,94.9z"/>
						<path class="st10" d="M68.7,12.4c0,2.8-2.2,5-5,5c-2.8,0-5-2.2-5-5s2.2-5,5-5C66.4,7.4,68.7,9.7,68.7,12.4z"/>
					</g>
				</g>
			</g>
		</g>
	</g>
	<path class="st3" d="M0,0"/>
	<path class="st3" d="M0,0"/>
</g>
<g>
	<g>
		<g>
			<path class="st2" d="M649,236.5v123.8"/>
			<path class="st2" d="M689.6,236.5v123.8"/>
			<path class="st2" d="M730.3,236.5v123.8"/>
		</g>
		<g>
			<path class="st2" d="M642.5,347.9H770"/>
			<path class="st2" d="M642.5,311.1H770"/>
			<path class="st2" d="M642.5,274.3H770"/>
		</g>
	</g>
	<path class="st2" d="M0,0"/>
	<path class="st2" d="M0,0"/>
	<g>
		<defs>
			<rect id="SVGID_19_" x="642.5" y="236.5" width="127.5" height="123.8"/>
		</defs>
		<clipPath id="SVGID_20_">
			<use xlink:href="#SVGID_19_"  style="overflow:visible;"/>
		</clipPath>
		<g transform="translate(642.488, 236.546)" class="st19">
			<g>
				<g class="st8">
					<g>
						<path class="st9" d="M69.3,39.9c0,2.8-2.2,5-5,5c-2.8,0-5-2.2-5-5c0-2.8,2.2-5,5-5C67,34.9,69.3,37.1,69.3,39.9z"/>
						<path class="st9" d="M99,54.4c0,2.8-2.2,5-5,5s-5-2.2-5-5c0-2.8,2.2-5,5-5S99,51.7,99,54.4z"/>
						<path class="st9" d="M119.9,32.5c0,2.8-2.2,5-5,5s-5-2.2-5-5s2.2-5,5-5S119.9,29.7,119.9,32.5z"/>
						<path class="st9" d="M31.9,59.2c0,2.8-2.2,5-5,5s-5-2.2-5-5c0-2.8,2.2-5,5-5S31.9,56.5,31.9,59.2z"/>
						<path class="st9" d="M17.6,57.1c0,2.8-2.2,5-5,5s-5-2.2-5-5c0-2.8,2.2-5,5-5S17.6,54.4,17.6,57.1z"/>
					</g>
				</g>
				<g class="st8">
					<g>
						<path class="st10" d="M83.9,78.7c0,2.8-2.2,5-5,5s-5-2.2-5-5s2.2-5,5-5S83.9,75.9,83.9,78.7z"/>
						<path class="st10" d="M75.2,88.8c0,2.8-2.2,5-5,5s-5-2.2-5-5s2.2-5,5-5S75.2,86,75.2,88.8z"/>
						<path class="st10" d="M43.8,72.4c0,2.8-2.2,5-5,5s-5-2.2-5-5s2.2-5,5-5S43.8,69.6,43.8,72.4z"/>
						<path class="st10" d="M90.8,72.3c0,2.8-2.2,5-5,5s-5-2.2-5-5s2.2-5,5-5S90.8,69.6,90.8,72.3z"/>
						<path class="st10" d="M92.8,83.8c0,2.8-2.2,5-5,5s-5-2.2-5-5s2.2-5,5-5S92.8,81,92.8,83.8z"/>
						<path class="st10" d="M37.9,95.7c0,2.8-2.2,5-5,5s-5-2.2-5-5s2.2-5,5-5S37.9,92.9,37.9,95.7z"/>
						<path class="st10" d="M59.1,111.4c0,2.8-2.2,5-5,5s-5-2.2-5-5s2.2-5,5-5S59.1,108.6,59.1,111.4z"/>
						<path class="st10" d="M66.3,76.3c0,2.8-2.2,5-5,5s-5-2.2-5-5s2.2-5,5-5S66.3,73.6,66.3,76.3z"/>
						<path class="st10" d="M68.7,37.8c0,2.8-2.2,5-5,5c-2.8,0-5-2.2-5-5c0-2.8,2.2-5,5-5C66.4,32.8,68.7,35,68.7,37.8z"/>
					</g>
				</g>
			</g>
		</g>
	</g>
	<path class="st3" d="M0,0"/>
	<path class="st3" d="M0,0"/>
</g>
<g>
	<g>
		<g>
			<path class="st2" d="M80,763.8h127.5"/>
			<path class="st2" d="M80,734.5h127.5"/>
			<path class="st2" d="M80,705.3h127.5"/>
			<path class="st2" d="M80,676.1h127.5"/>
		</g>
	</g>
	<path class="st2" d="M0,0"/>
	<path class="st2" d="M0,0"/>
	<g>
		<defs>
			<rect id="SVGID_21_" x="80" y="646.2" width="127.5" height="123.8"/>
		</defs>
		<clipPath id="SVGID_22_">
			<use xlink:href="#SVGID_21_"  style="overflow:visible;"/>
		</clipPath>
		<g transform="translate(80, 646.184)" class="st20">
			<g>
				<g>
					<path class="st21" d="M16.3,83h31.2 M16.3,97.4h31.2V79.2H16.3V97.4z M31.9,97.4v14 M31.9,79.2v-3.5 M24.1,111.4h15.6
						 M24.1,75.7h15.6"/>
					<path class="st22" d="M16.3,88.3h31.2 M47.5,88.3l-15.6,13.7L16.3,88.3l15.6-13.7L47.5,88.3z"/>
				</g>
				<g>
					<path class="st23" d="M80,67h31.2 M80,74.6h31.2V21.4H80V74.6z M95.6,74.6v24.3 M95.6,21.4v-9 M87.8,98.9h15.6 M87.8,12.4h15.6
						"/>
					<path class="st24" d="M80,54.2h31.2 M111.2,54.2L95.6,84.5L80,54.2L95.6,24L111.2,54.2z"/>
				</g>
			</g>
		</g>
	</g>
	<path class="st3" d="M0,0"/>
	<path class="st3" d="M0,0"/>
</g>
<g>
	<g>
		<g>
			<path class="st2" d="M220.6,609.3h127.5"/>
			<path class="st2" d="M220.6,584.3h127.5"/>
			<path class="st2" d="M220.6,559.3h127.5"/>
			<path class="st2" d="M220.6,534.3h127.5"/>
		</g>
	</g>
	<path class="st2" d="M0,0"/>
	<path class="st2" d="M0,0"/>
	<g>
		<defs>
			<rect id="SVGID_23_" x="220.6" y="509.6" width="127.5" height="123.8"/>
		</defs>
		<clipPath id="SVGID_24_">
			<use xlink:href="#SVGID_23_"  style="overflow:visible;"/>
		</clipPath>
		<g transform="translate(220.622, 509.638)" class="st25">
			<g>
				<g>
					<path class="st21" d="M16.3,29.4h31.2 M16.3,49.7h31.2V26.9H16.3V49.7z M31.9,49.7v15.1 M31.9,26.9v-5.5 M24.1,64.8h15.6
						 M24.1,21.4h15.6"/>
					<path class="st22" d="M16.3,37.8h31.2 M47.5,37.8L31.9,53.3L16.3,37.8l15.6-15.5L47.5,37.8z"/>
				</g>
				<g>
					<path class="st23" d="M80,64.7h31.2 M80,86.4h31.2V33.4H80V86.4z M95.6,86.4v25 M95.6,33.4v-21 M87.8,111.4h15.6 M87.8,12.4
						h15.6"/>
					<path class="st24" d="M80,64.4h31.2 M111.2,64.4L95.6,93.4L80,64.4l15.6-28.9L111.2,64.4z"/>
				</g>
			</g>
		</g>
	</g>
	<path class="st3" d="M0,0"/>
	<path class="st3" d="M0,0"/>
</g>
<g>
	<g>
		<g>
			<path class="st2" d="M361.2,484.5h127.5"/>
			<path class="st2" d="M361.2,451.5h127.5"/>
			<path class="st2" d="M361.2,418.5h127.5"/>
			<path class="st2" d="M361.2,385.5h127.5"/>
		</g>
	</g>
	<path class="st2" d="M0,0"/>
	<path class="st2" d="M0,0"/>
	<g>
		<defs>
			<rect id="SVGID_25_" x="361.2" y="373.1" width="127.5" height="123.8"/>
		</defs>
		<clipPath id="SVGID_26_">
			<use xlink:href="#SVGID_25_"  style="overflow:visible;"/>
		</clipPath>
		<g transform="translate(361.244, 373.092)" class="st26">
			<g>
				<g>
					<path class="st21" d="M16.3,98.2h31.2 M16.3,103.4h31.2V87.2H16.3V103.4z M31.9,103.4v0.7 M31.9,87.2v-0.6 M24.1,104h15.6
						 M24.1,86.6h15.6"/>
					<path class="st22" d="M16.3,95.9h31.2 M47.5,95.9l-15.6,7.5l-15.6-7.5l15.6-7.5L47.5,95.9z"/>
				</g>
				<g>
					<path class="st23" d="M80,98.4h31.2 M80,111.4h31.2v-24H80V111.4z M95.6,111.4L95.6,111.4 M95.6,87.4V85 M87.8,111.4h15.6
						 M87.8,85h15.6"/>
					<g>
						<path class="st10" d="M98.6,12.4c0,1.7-1.3,3-3,3s-3-1.3-3-3s1.3-3,3-3S98.6,10.8,98.6,12.4z"/>
					</g>
					<path class="st24" d="M80,91.6h31.2 M111.2,91.6l-15.6,28L80,91.6l15.6-28L111.2,91.6z"/>
				</g>
			</g>
		</g>
	</g>
	<path class="st3" d="M0,0"/>
	<path class="st3" d="M0,0"/>
</g>
<g>
	<g>
		<g>
			<path class="st2" d="M501.9,347.9h127.5"/>
			<path class="st2" d="M501.9,311.1h127.5"/>
			<path class="st2" d="M501.9,274.3h127.5"/>
		</g>
	</g>
	<path class="st2" d="M0,0"/>
	<path class="st2" d="M0,0"/>
	<g>
		<defs>
			<rect id="SVGID_27_" x="501.9" y="236.5" width="127.5" height="123.8"/>
		</defs>
		<clipPath id="SVGID_28_">
			<use xlink:href="#SVGID_27_"  style="overflow:visible;"/>
		</clipPath>
		<g transform="translate(501.866, 236.546)" class="st27">
			<g>
				<g>
					<path class="st21" d="M16.3,36.2h31.2 M16.3,55.8h31.2V20.5H16.3V55.8z M31.9,55.8v3.5 M31.9,20.5v-8 M24.1,59.2h15.6
						 M24.1,12.4h15.6"/>
					<path class="st22" d="M16.3,37.1h31.2 M47.5,37.1L31.9,54.3L16.3,37.1l15.6-17.3L47.5,37.1z"/>
				</g>
				<g>
					<path class="st23" d="M80,79.6h31.2 M80,89h31.2V72.4H80V89z M95.6,89v22.4 M95.6,72.4V52 M87.8,111.4h15.6 M87.8,52h15.6"/>
					<g>
						<path class="st28" d="M98.6,37.8c0,1.7-1.3,3-3,3s-3-1.3-3-3c0-1.7,1.3-3,3-3S98.6,36.1,98.6,37.8z"/>
					</g>
					<path class="st24" d="M80,77.7h31.2 M111.2,77.7L95.6,95.5L80,77.7l15.6-17.8L111.2,77.7z"/>
				</g>
			</g>
		</g>
	</g>
	<path class="st3" d="M0,0"/>
	<path class="st3" d="M0,0"/>
</g>
<g>
	<g>
		<g>
			<path class="st2" d="M642.5,217.3H770"/>
			<path class="st2" d="M642.5,178H770"/>
			<path class="st2" d="M642.5,138.6H770"/>
		</g>
	</g>
	<path class="st2" d="M0,0"/>
	<path class="st2" d="M0,0"/>
	<g>
		<defs>
			<rect id="SVGID_29_" x="642.5" y="100" width="127.5" height="123.8"/>
		</defs>
		<clipPath id="SVGID_30_">
			<use xlink:href="#SVGID_29_"  style="overflow:visible;"/>
		</clipPath>
		<g transform="translate(642.488, 100)" class="st29">
			<g>
				<g>
					<path class="st21" d="M16.3,61.4h31.2 M16.3,101.1h31.2V27.6H16.3V101.1z M31.9,101.1v10.3 M31.9,27.6V12.4 M24.1,111.4h15.6
						 M24.1,12.4h15.6"/>
					<path class="st22" d="M16.3,63.1h31.2 M47.5,63.1l-15.6,37.5L16.3,63.1l15.6-37.5L47.5,63.1z"/>
				</g>
				<g>
					<path class="st23" d="M80,63.1h31.2 M80,85.7h31.2V47.3H80V85.7z M95.6,85.7v6.1 M95.6,47.3v-8.6 M87.8,91.8h15.6 M87.8,38.6
						h15.6"/>
					<path class="st24" d="M80,64.3h31.2 M111.2,64.3L95.6,82.5L80,64.3l15.6-18.2L111.2,64.3z"/>
				</g>
			</g>
		</g>
	</g>
	<path class="st3" d="M0,0"/>
	<path class="st3" d="M0,0"/>
</g>
<rect x="82.8" y="26.8" class="st21" width="26.8" height="26.8"/>
<rect x="82.8" y="61.2" class="st23" width="26.8" height="26.8"/>
<text transform="matrix(1 0 0 1 115.7486 42.9705)" class="st30 st31">GPi</text>
<text transform="matrix(1 0 0 1 115.7488 77.3605)" class="st30 st31">STN</text>
<text transform="matrix(1 0 0 1 85.7928 807.4728)" class="st32 st31">Weight Change</text>
<text transform="matrix(1 0 0 1 226.415 807.4727)" class="st32 st31">UPDRS3 Change</text>
<text transform="matrix(1 0 0 1 367.037 807.4724)" class="st32 st31">UPDRS4 Change</text>
<text transform="matrix(1 0 0 1 507.6589 807.4733)" class="st32 st31">LEDD Change</text>
<text transform="matrix(1 0 0 1 648.2809 807.4727)" class="st32 st31">PDQ39 Change</text>
<text transform="matrix(1 0 0 1 118.7823 161.4714)" class="st33 st31">r </text>
<text transform="matrix(1 0 0 1 128.7823 161.4714)" class="st30 st31">= -0.06</text>
<text transform="matrix(1 0 0 1 118.7823 179.4714)" class="st32 st31">p = 0.85</text>
<text transform="matrix(1 0 0 1 118.7825 298.0174)" class="st33 st31">r </text>
<text transform="matrix(1 0 0 1 128.7825 298.0174)" class="st30 st31">= -0.36</text>
<text transform="matrix(1 0 0 1 118.7825 316.0174)" class="st32 st31">p = 0.31</text>
<text transform="matrix(1 0 0 1 118.7827 434.5639)" class="st33 st31">r </text>
<text transform="matrix(1 0 0 1 128.7827 434.5639)" class="st30 st31">= 0.16</text>
<text transform="matrix(1 0 0 1 118.7827 452.5639)" class="st32 st31">p = 0.63</text>
<text transform="matrix(1 0 0 1 118.7821 571.1099)" class="st33 st31">r </text>
<text transform="matrix(1 0 0 1 128.7821 571.1099)" class="st30 st31">= -0.35</text>
<text transform="matrix(1 0 0 1 118.7821 589.1099)" class="st32 st31">p = 0.28</text>
<text transform="matrix(1 0 0 1 251.1347 161.4713)" class="st33 st31">r </text>
<text transform="matrix(1 0 0 1 261.1347 161.4713)" class="st30 st31">= 0.34</text>
<text transform="matrix(1 0 0 1 251.1347 179.4713)" class="st32 st31">p = 0.22</text>
<text transform="matrix(1 0 0 1 251.1346 298.0178)" class="st33 st31">r </text>
<text transform="matrix(1 0 0 1 261.1346 298.0178)" class="st30 st31">= 0.25</text>
<text transform="matrix(1 0 0 1 251.1346 316.0178)" class="st32 st31">p = 0.33</text>
<text transform="matrix(1 0 0 1 251.1351 434.5638)" class="st33 st31">r </text>
<text transform="matrix(1 0 0 1 261.1351 434.5638)" class="st30 st31">= 0.26</text>
<text transform="matrix(1 0 0 1 251.1351 452.5638)" class="st32 st31">p = 0.35</text>
<text transform="matrix(1 0 0 1 393.4547 161.4719)" class="st33 st31">r </text>
<text transform="matrix(1 0 0 1 403.4547 161.4719)" class="st30 st31">= -0.22</text>
<text transform="matrix(1 0 0 1 393.4547 179.4719)" class="st32 st31">p = 0.46</text>
<text transform="matrix(1 0 0 1 393.4549 298.0181)" class="st33 st31">r </text>
<text transform="matrix(1 0 0 1 403.4549 298.0181)" class="st30 st31">= 0.41</text>
<text transform="matrix(1 0 0 1 393.4549 316.0181)" class="st32 st31">p = 0.14</text>
<text transform="matrix(0.9972 0 0 1 537.2581 161.4719)" class="st33 st31">r </text>
<text transform="matrix(0.9972 0 0 1 547.2298 161.4719)" class="st30 st31">= 0.24</text>
<text transform="matrix(0.9972 0 0 1 537.2581 179.4719)" class="st32 st31">p = 0.41</text>
<text transform="matrix(1 0 0 1 95.9442 688.9081)" class="st33 st31">t </text>
<text transform="matrix(1 0 0 1 105.6442 688.9081)" class="st30 st31">= 1.92</text>
<text transform="matrix(1 0 0 1 95.9442 706.9081)" class="st32 st31">p = 0.09</text>
<text transform="matrix(1 0 0 1 240.8427 598.0485)" class="st33 st31">t </text>
<text transform="matrix(1 0 0 1 250.5427 598.0485)" class="st30 st31">= 1.84</text>
<text transform="matrix(1 0 0 1 240.8427 616.0485)" class="st32 st31">p = 0.08</text>
<text transform="matrix(1 0 0 1 379.6667 424.5634)" class="st33 st31">t </text>
<text transform="matrix(1 0 0 1 389.3667 424.5634)" class="st30 st31">= -0.31</text>
<text transform="matrix(1 0 0 1 379.6667 442.5634)" class="st32 st31">p = 0.76</text>
<text transform="matrix(1 0 0 1 520.2887 325.3214)" class="st33 st31">t </text>
<text transform="matrix(1 0 0 1 529.9887 325.3214)" class="st30 st31">= 5.09</text>
<text transform="matrix(1 0 0 1 520.2887 343.3214)" class="st32 st31">p &lt;0.01</text>
<text transform="matrix(1 0 0 1 701.394 112.9097)" class="st33 st31">t </text>
<text transform="matrix(1 0 0 1 711.094 112.9097)" class="st30 st31">= 0.08</text>
<text transform="matrix(1 0 0 1 701.394 130.9097)" class="st32 st31">p = 0.94</text>
</svg>
