<?xml version="1.0" encoding="utf-8" standalone="no"?>
<!DOCTYPE svg PUBLIC "-//W3C//DTD SVG 1.1//EN"
  "http://www.w3.org/Graphics/SVG/1.1/DTD/svg11.dtd">
<!-- Created with matplotlib (https://matplotlib.org/) -->
<svg height="315.819687pt" version="1.1" viewBox="0 0 684.932215 315.819687" width="684.932215pt" xmlns="http://www.w3.org/2000/svg" xmlns:xlink="http://www.w3.org/1999/xlink">
 <defs>
  <style type="text/css">
*{stroke-linecap:butt;stroke-linejoin:round;}
  </style>
 </defs>
 <g id="figure_1">
  <g id="patch_1">
   <path d="M 0 315.819687 
L 684.932215 315.819687 
L 684.932215 0 
L 0 0 
z
" style="fill:#ffffff;"/>
  </g>
  <g id="axes_1">
   <g id="patch_2">
    <path d="M 7.2 279 
L 676.8 279 
L 676.8 7.2 
L 7.2 7.2 
z
" style="fill:#ffffff;"/>
   </g>
   <g id="PathCollection_1">
    <defs>
     <path d="M 0 1.5 
C 0.397805 1.5 0.77937 1.341951 1.06066 1.06066 
C 1.341951 0.77937 1.5 0.397805 1.5 0 
C 1.5 -0.397805 1.341951 -0.77937 1.06066 -1.06066 
C 0.77937 -1.341951 0.397805 -1.5 0 -1.5 
C -0.397805 -1.5 -0.77937 -1.341951 -1.06066 -1.06066 
C -1.341951 -0.77937 -1.5 -0.397805 -1.5 0 
C -1.5 0.397805 -1.341951 0.77937 -1.06066 1.06066 
C -0.77937 1.341951 -0.397805 1.5 0 1.5 
z
" id="C0_0_6564921bd7"/>
    </defs>
    <g clip-path="url(#p078237ddf8)">
     <use style="fill:#66c2a5;" x="249.986871" xlink:href="#C0_0_6564921bd7" y="117.958572"/>
    </g>
    <g clip-path="url(#p078237ddf8)">
     <use style="fill:#66c2a5;" x="644.871011" xlink:href="#C0_0_6564921bd7" y="126.104388"/>
    </g>
    <g clip-path="url(#p078237ddf8)">
     <use style="fill:#66c2a5;" x="131.255507" xlink:href="#C0_0_6564921bd7" y="121.453277"/>
    </g>
    <g clip-path="url(#p078237ddf8)">
     <use style="fill:#66c2a5;" x="349.680275" xlink:href="#C0_0_6564921bd7" y="116.537042"/>
    </g>
    <g clip-path="url(#p078237ddf8)">
     <use style="fill:#66c2a5;" x="201.470779" xlink:href="#C0_0_6564921bd7" y="125.151408"/>
    </g>
    <g clip-path="url(#p078237ddf8)">
     <use style="fill:#66c2a5;" x="267.591866" xlink:href="#C0_0_6564921bd7" y="122.289101"/>
    </g>
    <g clip-path="url(#p078237ddf8)">
     <use style="fill:#66c2a5;" x="417.643745" xlink:href="#C0_0_6564921bd7" y="115.807824"/>
    </g>
    <g clip-path="url(#p078237ddf8)">
     <use style="fill:#66c2a5;" x="156.434745" xlink:href="#C0_0_6564921bd7" y="121.950236"/>
    </g>
    <g clip-path="url(#p078237ddf8)">
     <use style="fill:#66c2a5;" x="251.624545" xlink:href="#C0_0_6564921bd7" y="117.294982"/>
    </g>
    <g clip-path="url(#p078237ddf8)">
     <use style="fill:#66c2a5;" x="257.356404" xlink:href="#C0_0_6564921bd7" y="112.599244"/>
    </g>
    <g clip-path="url(#p078237ddf8)">
     <use style="fill:#66c2a5;" x="222.96525" xlink:href="#C0_0_6564921bd7" y="110.121765"/>
    </g>
    <g clip-path="url(#p078237ddf8)">
     <use style="fill:#66c2a5;" x="361.143993" xlink:href="#C0_0_6564921bd7" y="110.670741"/>
    </g>
    <g clip-path="url(#p078237ddf8)">
     <use style="fill:#66c2a5;" x="300.550055" xlink:href="#C0_0_6564921bd7" y="114.827705"/>
    </g>
    <g clip-path="url(#p078237ddf8)">
     <use style="fill:#66c2a5;" x="104.643305" xlink:href="#C0_0_6564921bd7" y="126.855177"/>
    </g>
    <g clip-path="url(#p078237ddf8)">
     <use style="fill:#66c2a5;" x="240.774955" xlink:href="#C0_0_6564921bd7" y="122.840883"/>
    </g>
    <g clip-path="url(#p078237ddf8)">
     <use style="fill:#66c2a5;" x="434.839322" xlink:href="#C0_0_6564921bd7" y="109.818183"/>
    </g>
    <g clip-path="url(#p078237ddf8)">
     <use style="fill:#66c2a5;" x="270.662505" xlink:href="#C0_0_6564921bd7" y="126.806136"/>
    </g>
    <g clip-path="url(#p078237ddf8)">
     <use style="fill:#66c2a5;" x="325.729293" xlink:href="#C0_0_6564921bd7" y="126.831638"/>
    </g>
    <g clip-path="url(#p078237ddf8)">
     <use style="fill:#66c2a5;" x="39.136346" xlink:href="#C0_0_6564921bd7" y="114.999882"/>
    </g>
    <g clip-path="url(#p078237ddf8)">
     <use style="fill:#66c2a5;" x="267.387157" xlink:href="#C0_0_6564921bd7" y="117.728397"/>
    </g>
    <g clip-path="url(#p078237ddf8)">
     <use style="fill:#66c2a5;" x="235.657224" xlink:href="#C0_0_6564921bd7" y="110.078572"/>
    </g>
    <g clip-path="url(#p078237ddf8)">
     <use style="fill:#66c2a5;" x="194.715374" xlink:href="#C0_0_6564921bd7" y="122.408561"/>
    </g>
    <g clip-path="url(#p078237ddf8)">
     <use style="fill:#66c2a5;" x="246.916232" xlink:href="#C0_0_6564921bd7" y="108.943991"/>
    </g>
    <g clip-path="url(#p078237ddf8)">
     <use style="fill:#66c2a5;" x="334.122372" xlink:href="#C0_0_6564921bd7" y="127.167614"/>
    </g>
    <g clip-path="url(#p078237ddf8)">
     <use style="fill:#66c2a5;" x="226.240598" xlink:href="#C0_0_6564921bd7" y="116.613478"/>
    </g>
    <g clip-path="url(#p078237ddf8)">
     <use style="fill:#66c2a5;" x="206.997929" xlink:href="#C0_0_6564921bd7" y="114.494911"/>
    </g>
   </g>
   <g id="PathCollection_2">
    <defs>
     <path d="M 0 1.5 
C 0.397805 1.5 0.77937 1.341951 1.06066 1.06066 
C 1.341951 0.77937 1.5 0.397805 1.5 0 
C 1.5 -0.397805 1.341951 -0.77937 1.06066 -1.06066 
C 0.77937 -1.341951 0.397805 -1.5 0 -1.5 
C -0.397805 -1.5 -0.77937 -1.341951 -1.06066 -1.06066 
C -1.341951 -0.77937 -1.5 -0.397805 -1.5 0 
C -1.5 0.397805 -1.341951 0.77937 -1.06066 1.06066 
C -0.77937 1.341951 -0.397805 1.5 0 1.5 
z
" id="C1_0_ead0291918"/>
    </defs>
    <g clip-path="url(#p078237ddf8)">
     <use style="fill:#fc8d62;" x="243.845594" xlink:href="#C1_0_ead0291918" y="249.134571"/>
    </g>
    <g clip-path="url(#p078237ddf8)">
     <use style="fill:#fc8d62;" x="220.918158" xlink:href="#C1_0_ead0291918" y="243.304307"/>
    </g>
    <g clip-path="url(#p078237ddf8)">
     <use style="fill:#fc8d62;" x="80.078195" xlink:href="#C1_0_ead0291918" y="236.593759"/>
    </g>
    <g clip-path="url(#p078237ddf8)">
     <use style="fill:#fc8d62;" x="134.530855" xlink:href="#C1_0_ead0291918" y="253.052306"/>
    </g>
    <g clip-path="url(#p078237ddf8)">
     <use style="fill:#fc8d62;" x="170.150264" xlink:href="#C1_0_ead0291918" y="246.006033"/>
    </g>
    <g clip-path="url(#p078237ddf8)">
     <use style="fill:#fc8d62;" x="346.200218" xlink:href="#C1_0_ead0291918" y="230.788043"/>
    </g>
    <g clip-path="url(#p078237ddf8)">
     <use style="fill:#fc8d62;" x="344.562544" xlink:href="#C1_0_ead0291918" y="253.825369"/>
    </g>
    <g clip-path="url(#p078237ddf8)">
     <use style="fill:#fc8d62;" x="88.266565" xlink:href="#C1_0_ead0291918" y="237.031333"/>
    </g>
    <g clip-path="url(#p078237ddf8)">
     <use style="fill:#fc8d62;" x="203.517872" xlink:href="#C1_0_ead0291918" y="246.620037"/>
    </g>
    <g clip-path="url(#p078237ddf8)">
     <use style="fill:#fc8d62;" x="109.761036" xlink:href="#C1_0_ead0291918" y="239.450551"/>
    </g>
    <g clip-path="url(#p078237ddf8)">
     <use style="fill:#fc8d62;" x="209.659149" xlink:href="#C1_0_ead0291918" y="249.925462"/>
    </g>
    <g clip-path="url(#p078237ddf8)">
     <use style="fill:#fc8d62;" x="177.724506" xlink:href="#C1_0_ead0291918" y="236.036074"/>
    </g>
    <g clip-path="url(#p078237ddf8)">
     <use style="fill:#fc8d62;" x="63.701455" xlink:href="#C1_0_ead0291918" y="230.237276"/>
    </g>
    <g clip-path="url(#p078237ddf8)">
     <use style="fill:#fc8d62;" x="82.125288" xlink:href="#C1_0_ead0291918" y="242.123799"/>
    </g>
    <g clip-path="url(#p078237ddf8)">
     <use style="fill:#fc8d62;" x="39.136346" xlink:href="#C1_0_ead0291918" y="231.765468"/>
    </g>
    <g clip-path="url(#p078237ddf8)">
     <use style="fill:#fc8d62;" x="330.232896" xlink:href="#C1_0_ead0291918" y="234.485916"/>
    </g>
    <g clip-path="url(#p078237ddf8)">
     <use style="fill:#fc8d62;" x="346.200218" xlink:href="#C1_0_ead0291918" y="250.162416"/>
    </g>
    <g clip-path="url(#p078237ddf8)">
     <use style="fill:#fc8d62;" x="39.136346" xlink:href="#C1_0_ead0291918" y="251.233206"/>
    </g>
    <g clip-path="url(#p078237ddf8)">
     <use style="fill:#fc8d62;" x="152.954687" xlink:href="#C1_0_ead0291918" y="230.57303"/>
    </g>
    <g clip-path="url(#p078237ddf8)">
     <use style="fill:#fc8d62;" x="178.338634" xlink:href="#C1_0_ead0291918" y="237.734677"/>
    </g>
    <g clip-path="url(#p078237ddf8)">
     <use style="fill:#fc8d62;" x="153.773524" xlink:href="#C1_0_ead0291918" y="246.480555"/>
    </g>
    <g clip-path="url(#p078237ddf8)">
     <use style="fill:#fc8d62;" x="86.628891" xlink:href="#C1_0_ead0291918" y="246.023825"/>
    </g>
    <g clip-path="url(#p078237ddf8)">
     <use style="fill:#fc8d62;" x="396.763402" xlink:href="#C1_0_ead0291918" y="236.499425"/>
    </g>
    <g clip-path="url(#p078237ddf8)">
     <use style="fill:#fc8d62;" x="128.184868" xlink:href="#C1_0_ead0291918" y="248.436425"/>
    </g>
    <g clip-path="url(#p078237ddf8)">
     <use style="fill:#fc8d62;" x="206.997929" xlink:href="#C1_0_ead0291918" y="234.394858"/>
    </g>
   </g>
   <g id="matplotlib.axis_1">
    <g id="xtick_1">
     <g id="line2d_1">
      <path clip-path="url(#p078237ddf8)" d="M 39.136346 279 
L 39.136346 7.2 
" style="fill:none;stroke:#cccccc;stroke-linecap:round;"/>
     </g>
     <g id="text_1">
      <!-- 0 -->
      <defs>
       <path d="M 4.15625 35.296875 
Q 4.15625 48 6.765625 55.734375 
Q 9.375 63.484375 14.515625 67.671875 
Q 19.671875 71.875 27.484375 71.875 
Q 33.25 71.875 37.59375 69.546875 
Q 41.9375 67.234375 44.765625 62.859375 
Q 47.609375 58.5 49.21875 52.21875 
Q 50.828125 45.953125 50.828125 35.296875 
Q 50.828125 22.703125 48.234375 14.96875 
Q 45.65625 7.234375 40.5 3 
Q 35.359375 -1.21875 27.484375 -1.21875 
Q 17.140625 -1.21875 11.234375 6.203125 
Q 4.15625 15.140625 4.15625 35.296875 
z
M 13.1875 35.296875 
Q 13.1875 17.671875 17.3125 11.828125 
Q 21.4375 6 27.484375 6 
Q 33.546875 6 37.671875 11.859375 
Q 41.796875 17.71875 41.796875 35.296875 
Q 41.796875 52.984375 37.671875 58.78125 
Q 33.546875 64.59375 27.390625 64.59375 
Q 21.34375 64.59375 17.71875 59.46875 
Q 13.1875 52.9375 13.1875 35.296875 
z
" id="ArialMT-48"/>
      </defs>
      <g style="fill:#262626;" transform="translate(33.019314 304.247187)scale(0.22 -0.22)">
       <use xlink:href="#ArialMT-48"/>
      </g>
     </g>
    </g>
    <g id="xtick_2">
     <g id="line2d_2">
      <path clip-path="url(#p078237ddf8)" d="M 141.49097 279 
L 141.49097 7.2 
" style="fill:none;stroke:#cccccc;stroke-linecap:round;"/>
     </g>
     <g id="text_2">
      <!-- 500 -->
      <defs>
       <path d="M 4.15625 18.75 
L 13.375 19.53125 
Q 14.40625 12.796875 18.140625 9.390625 
Q 21.875 6 27.15625 6 
Q 33.5 6 37.890625 10.78125 
Q 42.28125 15.578125 42.28125 23.484375 
Q 42.28125 31 38.0625 35.34375 
Q 33.84375 39.703125 27 39.703125 
Q 22.75 39.703125 19.328125 37.765625 
Q 15.921875 35.84375 13.96875 32.765625 
L 5.71875 33.84375 
L 12.640625 70.609375 
L 48.25 70.609375 
L 48.25 62.203125 
L 19.671875 62.203125 
L 15.828125 42.96875 
Q 22.265625 47.46875 29.34375 47.46875 
Q 38.71875 47.46875 45.15625 40.96875 
Q 51.609375 34.46875 51.609375 24.265625 
Q 51.609375 14.546875 45.953125 7.46875 
Q 39.0625 -1.21875 27.15625 -1.21875 
Q 17.390625 -1.21875 11.203125 4.25 
Q 5.03125 9.71875 4.15625 18.75 
z
" id="ArialMT-53"/>
      </defs>
      <g style="fill:#262626;" transform="translate(123.139876 304.247187)scale(0.22 -0.22)">
       <use xlink:href="#ArialMT-53"/>
       <use x="55.615234" xlink:href="#ArialMT-48"/>
       <use x="111.230469" xlink:href="#ArialMT-48"/>
      </g>
     </g>
    </g>
    <g id="xtick_3">
     <g id="line2d_3">
      <path clip-path="url(#p078237ddf8)" d="M 243.845594 279 
L 243.845594 7.2 
" style="fill:none;stroke:#cccccc;stroke-linecap:round;"/>
     </g>
     <g id="text_3">
      <!-- 1000 -->
      <defs>
       <path d="M 37.25 0 
L 28.46875 0 
L 28.46875 56 
Q 25.296875 52.984375 20.140625 49.953125 
Q 14.984375 46.921875 10.890625 45.40625 
L 10.890625 53.90625 
Q 18.265625 57.375 23.78125 62.296875 
Q 29.296875 67.234375 31.59375 71.875 
L 37.25 71.875 
z
" id="ArialMT-49"/>
      </defs>
      <g style="fill:#262626;" transform="translate(219.377469 304.247187)scale(0.22 -0.22)">
       <use xlink:href="#ArialMT-49"/>
       <use x="55.615234" xlink:href="#ArialMT-48"/>
       <use x="111.230469" xlink:href="#ArialMT-48"/>
       <use x="166.845703" xlink:href="#ArialMT-48"/>
      </g>
     </g>
    </g>
    <g id="xtick_4">
     <g id="line2d_4">
      <path clip-path="url(#p078237ddf8)" d="M 346.200218 279 
L 346.200218 7.2 
" style="fill:none;stroke:#cccccc;stroke-linecap:round;"/>
     </g>
     <g id="text_4">
      <!-- 1500 -->
      <g style="fill:#262626;" transform="translate(321.732093 304.247187)scale(0.22 -0.22)">
       <use xlink:href="#ArialMT-49"/>
       <use x="55.615234" xlink:href="#ArialMT-53"/>
       <use x="111.230469" xlink:href="#ArialMT-48"/>
       <use x="166.845703" xlink:href="#ArialMT-48"/>
      </g>
     </g>
    </g>
    <g id="xtick_5">
     <g id="line2d_5">
      <path clip-path="url(#p078237ddf8)" d="M 448.554842 279 
L 448.554842 7.2 
" style="fill:none;stroke:#cccccc;stroke-linecap:round;"/>
     </g>
     <g id="text_5">
      <!-- 2000 -->
      <defs>
       <path d="M 50.34375 8.453125 
L 50.34375 0 
L 3.03125 0 
Q 2.9375 3.171875 4.046875 6.109375 
Q 5.859375 10.9375 9.828125 15.625 
Q 13.8125 20.3125 21.34375 26.46875 
Q 33.015625 36.03125 37.109375 41.625 
Q 41.21875 47.21875 41.21875 52.203125 
Q 41.21875 57.421875 37.46875 61 
Q 33.734375 64.59375 27.734375 64.59375 
Q 21.390625 64.59375 17.578125 60.78125 
Q 13.765625 56.984375 13.71875 50.25 
L 4.6875 51.171875 
Q 5.609375 61.28125 11.65625 66.578125 
Q 17.71875 71.875 27.9375 71.875 
Q 38.234375 71.875 44.234375 66.15625 
Q 50.25 60.453125 50.25 52 
Q 50.25 47.703125 48.484375 43.546875 
Q 46.734375 39.40625 42.65625 34.8125 
Q 38.578125 30.21875 29.109375 22.21875 
Q 21.1875 15.578125 18.9375 13.203125 
Q 16.703125 10.84375 15.234375 8.453125 
z
" id="ArialMT-50"/>
      </defs>
      <g style="fill:#262626;" transform="translate(424.086717 304.247187)scale(0.22 -0.22)">
       <use xlink:href="#ArialMT-50"/>
       <use x="55.615234" xlink:href="#ArialMT-48"/>
       <use x="111.230469" xlink:href="#ArialMT-48"/>
       <use x="166.845703" xlink:href="#ArialMT-48"/>
      </g>
     </g>
    </g>
    <g id="xtick_6">
     <g id="line2d_6">
      <path clip-path="url(#p078237ddf8)" d="M 550.909466 279 
L 550.909466 7.2 
" style="fill:none;stroke:#cccccc;stroke-linecap:round;"/>
     </g>
     <g id="text_6">
      <!-- 2500 -->
      <g style="fill:#262626;" transform="translate(526.441341 304.247187)scale(0.22 -0.22)">
       <use xlink:href="#ArialMT-50"/>
       <use x="55.615234" xlink:href="#ArialMT-53"/>
       <use x="111.230469" xlink:href="#ArialMT-48"/>
       <use x="166.845703" xlink:href="#ArialMT-48"/>
      </g>
     </g>
    </g>
    <g id="xtick_7">
     <g id="line2d_7">
      <path clip-path="url(#p078237ddf8)" d="M 653.26409 279 
L 653.26409 7.2 
" style="fill:none;stroke:#cccccc;stroke-linecap:round;"/>
     </g>
     <g id="text_7">
      <!-- 3000 -->
      <defs>
       <path d="M 4.203125 18.890625 
L 12.984375 20.0625 
Q 14.5 12.59375 18.140625 9.296875 
Q 21.78125 6 27 6 
Q 33.203125 6 37.46875 10.296875 
Q 41.75 14.59375 41.75 20.953125 
Q 41.75 27 37.796875 30.921875 
Q 33.84375 34.859375 27.734375 34.859375 
Q 25.25 34.859375 21.53125 33.890625 
L 22.515625 41.609375 
Q 23.390625 41.5 23.921875 41.5 
Q 29.546875 41.5 34.03125 44.421875 
Q 38.53125 47.359375 38.53125 53.46875 
Q 38.53125 58.296875 35.25 61.46875 
Q 31.984375 64.65625 26.8125 64.65625 
Q 21.6875 64.65625 18.265625 61.421875 
Q 14.84375 58.203125 13.875 51.765625 
L 5.078125 53.328125 
Q 6.6875 62.15625 12.390625 67.015625 
Q 18.109375 71.875 26.609375 71.875 
Q 32.46875 71.875 37.390625 69.359375 
Q 42.328125 66.84375 44.9375 62.5 
Q 47.5625 58.15625 47.5625 53.265625 
Q 47.5625 48.640625 45.0625 44.828125 
Q 42.578125 41.015625 37.703125 38.765625 
Q 44.046875 37.3125 47.5625 32.6875 
Q 51.078125 28.078125 51.078125 21.140625 
Q 51.078125 11.765625 44.234375 5.25 
Q 37.40625 -1.265625 26.953125 -1.265625 
Q 17.53125 -1.265625 11.296875 4.34375 
Q 5.078125 9.96875 4.203125 18.890625 
z
" id="ArialMT-51"/>
      </defs>
      <g style="fill:#262626;" transform="translate(628.795965 304.247187)scale(0.22 -0.22)">
       <use xlink:href="#ArialMT-51"/>
       <use x="55.615234" xlink:href="#ArialMT-48"/>
       <use x="111.230469" xlink:href="#ArialMT-48"/>
       <use x="166.845703" xlink:href="#ArialMT-48"/>
      </g>
     </g>
    </g>
   </g>
   <g id="matplotlib.axis_2"/>
   <g id="PolyCollection_1">
    <defs>
     <path d="M 39.136346 -245.660365 
L 39.136346 -250.264039 
L 45.254877 -250.21162 
L 51.373409 -249.962605 
L 57.491941 -249.629348 
L 63.610473 -249.35096 
L 69.729005 -249.256105 
L 75.847537 -249.429804 
L 81.966069 -249.894327 
L 88.084601 -250.608754 
L 94.203133 -251.485358 
L 100.321665 -252.415826 
L 106.440197 -253.298025 
L 112.558729 -254.055188 
L 118.677261 -254.643678 
L 124.795793 -255.050978 
L 130.914325 -255.289621 
L 137.032857 -255.393472 
L 143.151389 -255.419609 
L 149.269921 -255.453769 
L 155.388453 -255.612686 
L 161.506985 -256.035612 
L 167.625517 -256.861401 
L 173.744049 -258.195696 
L 179.862581 -260.08066 
L 185.981113 -262.481945 
L 192.099645 -265.300961 
L 198.218177 -268.40743 
L 204.336709 -271.675171 
L 210.455241 -275.001019 
L 216.573773 -278.295802 
L 222.692305 -281.452587 
L 228.810837 -284.311696 
L 234.929369 -286.646047 
L 241.047901 -288.182262 
L 247.166433 -288.656976 
L 253.284964 -287.891693 
L 259.403496 -285.860114 
L 265.522028 -282.722638 
L 271.64056 -278.813178 
L 277.759092 -274.579585 
L 283.877624 -270.49489 
L 289.996156 -266.965746 
L 296.114688 -264.263376 
L 302.23322 -262.492001 
L 308.351752 -261.595698 
L 314.470284 -261.393582 
L 320.588816 -261.62892 
L 326.707348 -262.019764 
L 332.82588 -262.303418 
L 338.944412 -262.271406 
L 345.062944 -261.793978 
L 351.181476 -260.833813 
L 357.300008 -259.448175 
L 363.41854 -257.778264 
L 369.537072 -256.024963 
L 375.655604 -254.412327 
L 381.774136 -253.143792 
L 387.892668 -252.359611 
L 394.0112 -252.105628 
L 400.129732 -252.321885 
L 406.248264 -252.855101 
L 412.366796 -253.492941 
L 418.485328 -254.012078 
L 424.60386 -254.22797 
L 430.722392 -254.033399 
L 436.840924 -253.415857 
L 442.959456 -252.450115 
L 449.077988 -251.269996 
L 455.19652 -250.029488 
L 461.315051 -248.865687 
L 467.433583 -247.873672 
L 473.552115 -247.097828 
L 479.670647 -246.537852 
L 485.789179 -246.163507 
L 491.907711 -245.931186 
L 498.026243 -245.797129 
L 504.144775 -245.72513 
L 510.263307 -245.689112 
L 516.381839 -245.672321 
L 522.500371 -245.665028 
L 528.618903 -245.662087 
L 534.737435 -245.661026 
L 540.855967 -245.660814 
L 546.974499 -245.661221 
L 553.093031 -245.662658 
L 559.211563 -245.666427 
L 565.330095 -245.675429 
L 571.448627 -245.695374 
L 577.567159 -245.736424 
L 583.685691 -245.814825 
L 589.804223 -245.953578 
L 595.922755 -246.180659 
L 602.041287 -246.523367 
L 608.159819 -246.998419 
L 614.278351 -247.599615 
L 620.396883 -248.287558 
L 626.515415 -248.98733 
L 632.633947 -249.598611 
L 638.752479 -250.018047 
L 644.871011 -250.167561 
L 644.871011 -245.660365 
L 644.871011 -245.660365 
L 638.752479 -245.660365 
L 632.633947 -245.660365 
L 626.515415 -245.660365 
L 620.396883 -245.660365 
L 614.278351 -245.660365 
L 608.159819 -245.660365 
L 602.041287 -245.660365 
L 595.922755 -245.660365 
L 589.804223 -245.660365 
L 583.685691 -245.660365 
L 577.567159 -245.660365 
L 571.448627 -245.660365 
L 565.330095 -245.660365 
L 559.211563 -245.660365 
L 553.093031 -245.660365 
L 546.974499 -245.660365 
L 540.855967 -245.660365 
L 534.737435 -245.660365 
L 528.618903 -245.660365 
L 522.500371 -245.660365 
L 516.381839 -245.660365 
L 510.263307 -245.660365 
L 504.144775 -245.660365 
L 498.026243 -245.660365 
L 491.907711 -245.660365 
L 485.789179 -245.660365 
L 479.670647 -245.660365 
L 473.552115 -245.660365 
L 467.433583 -245.660365 
L 461.315051 -245.660365 
L 455.19652 -245.660365 
L 449.077988 -245.660365 
L 442.959456 -245.660365 
L 436.840924 -245.660365 
L 430.722392 -245.660365 
L 424.60386 -245.660365 
L 418.485328 -245.660365 
L 412.366796 -245.660365 
L 406.248264 -245.660365 
L 400.129732 -245.660365 
L 394.0112 -245.660365 
L 387.892668 -245.660365 
L 381.774136 -245.660365 
L 375.655604 -245.660365 
L 369.537072 -245.660365 
L 363.41854 -245.660365 
L 357.300008 -245.660365 
L 351.181476 -245.660365 
L 345.062944 -245.660365 
L 338.944412 -245.660365 
L 332.82588 -245.660365 
L 326.707348 -245.660365 
L 320.588816 -245.660365 
L 314.470284 -245.660365 
L 308.351752 -245.660365 
L 302.23322 -245.660365 
L 296.114688 -245.660365 
L 289.996156 -245.660365 
L 283.877624 -245.660365 
L 277.759092 -245.660365 
L 271.64056 -245.660365 
L 265.522028 -245.660365 
L 259.403496 -245.660365 
L 253.284964 -245.660365 
L 247.166433 -245.660365 
L 241.047901 -245.660365 
L 234.929369 -245.660365 
L 228.810837 -245.660365 
L 222.692305 -245.660365 
L 216.573773 -245.660365 
L 210.455241 -245.660365 
L 204.336709 -245.660365 
L 198.218177 -245.660365 
L 192.099645 -245.660365 
L 185.981113 -245.660365 
L 179.862581 -245.660365 
L 173.744049 -245.660365 
L 167.625517 -245.660365 
L 161.506985 -245.660365 
L 155.388453 -245.660365 
L 149.269921 -245.660365 
L 143.151389 -245.660365 
L 137.032857 -245.660365 
L 130.914325 -245.660365 
L 124.795793 -245.660365 
L 118.677261 -245.660365 
L 112.558729 -245.660365 
L 106.440197 -245.660365 
L 100.321665 -245.660365 
L 94.203133 -245.660365 
L 88.084601 -245.660365 
L 81.966069 -245.660365 
L 75.847537 -245.660365 
L 69.729005 -245.660365 
L 63.610473 -245.660365 
L 57.491941 -245.660365 
L 51.373409 -245.660365 
L 45.254877 -245.660365 
L 39.136346 -245.660365 
z
" id="m8efaf0828d" style="stroke:#595959;stroke-opacity:0.65;"/>
    </defs>
    <g clip-path="url(#p078237ddf8)">
     <use style="fill:#72b6a1;fill-opacity:0.65;stroke:#595959;stroke-opacity:0.65;" x="0" xlink:href="#m8efaf0828d" y="315.819687"/>
    </g>
   </g>
   <g id="PolyCollection_2">
    <defs>
     <path d="M 39.136346 -122.812908 
L 39.136346 -138.195286 
L 42.74874 -139.497793 
L 46.361135 -140.761346 
L 49.973529 -142.012646 
L 53.585924 -143.277321 
L 57.198318 -144.569904 
L 60.810713 -145.88534 
L 64.423107 -147.194244 
L 68.035502 -148.443407 
L 71.647896 -149.561944 
L 75.260291 -150.472151 
L 78.872685 -151.103047 
L 82.48508 -151.403849 
L 86.097474 -151.354577 
L 89.709869 -150.97157 
L 93.322263 -150.30679 
L 96.934658 -149.441129 
L 100.547052 -148.473181 
L 104.159447 -147.505783 
L 107.771841 -146.632929 
L 111.384236 -145.92932 
L 114.99663 -145.444053 
L 118.609025 -145.198922 
L 122.221419 -145.190836 
L 125.833814 -145.397133 
L 129.446208 -145.782229 
L 133.058603 -146.304126 
L 136.670997 -146.919658 
L 140.283392 -147.587945 
L 143.895786 -148.272093 
L 147.508181 -148.939606 
L 151.120575 -149.562253 
L 154.73297 -150.116074 
L 158.345364 -150.581979 
L 161.957759 -150.947007 
L 165.570153 -151.205868 
L 169.182548 -151.362071 
L 172.794942 -151.427849 
L 176.407337 -151.42224 
L 180.019731 -151.367169 
L 183.632126 -151.282005 
L 187.24452 -151.177682 
L 190.856915 -151.051855 
L 194.469309 -150.88655 
L 198.081704 -150.649299 
L 201.694098 -150.297878 
L 205.306493 -149.787819 
L 208.918887 -149.081067 
L 212.531282 -148.153755 
L 216.143676 -147.001312 
L 219.756071 -145.639786 
L 223.368465 -144.103284 
L 226.98086 -142.43839 
L 230.593255 -140.697111 
L 234.205649 -138.930057 
L 237.818044 -137.181292 
L 241.430438 -135.485616 
L 245.042833 -133.86831 
L 248.655227 -132.346725 
L 252.267622 -130.932775 
L 255.880016 -129.635429 
L 259.492411 -128.462521 
L 263.104805 -127.421677 
L 266.7172 -126.520481 
L 270.329594 -125.766303 
L 273.941989 -125.166202 
L 277.554383 -124.727224 
L 281.166778 -124.457157 
L 284.779172 -124.365545 
L 288.391567 -124.464557 
L 292.003961 -124.769211 
L 295.616356 -125.296485 
L 299.22875 -126.063013 
L 302.841145 -127.081329 
L 306.453539 -128.354945 
L 310.065934 -129.872898 
L 313.678328 -131.604716 
L 317.290723 -133.496907 
L 320.903117 -135.472098 
L 324.515512 -137.431694 
L 328.127906 -139.262427 
L 331.740301 -140.846502 
L 335.352695 -142.074244 
L 338.96509 -142.857502 
L 342.577484 -143.141611 
L 346.189879 -142.913739 
L 349.802273 -142.205905 
L 353.414668 -141.091808 
L 357.027062 -139.677749 
L 360.639457 -138.089007 
L 364.251851 -136.453886 
L 367.864246 -134.888055 
L 371.47664 -133.481657 
L 375.089035 -132.291068 
L 378.701429 -131.336266 
L 382.313824 -130.603726 
L 385.926218 -130.053824 
L 389.538613 -129.63107 
L 393.151007 -129.275217 
L 396.763402 -128.931343 
L 396.763402 -122.812908 
L 396.763402 -122.812908 
L 393.151007 -122.812908 
L 389.538613 -122.812908 
L 385.926218 -122.812908 
L 382.313824 -122.812908 
L 378.701429 -122.812908 
L 375.089035 -122.812908 
L 371.47664 -122.812908 
L 367.864246 -122.812908 
L 364.251851 -122.812908 
L 360.639457 -122.812908 
L 357.027062 -122.812908 
L 353.414668 -122.812908 
L 349.802273 -122.812908 
L 346.189879 -122.812908 
L 342.577484 -122.812908 
L 338.96509 -122.812908 
L 335.352695 -122.812908 
L 331.740301 -122.812908 
L 328.127906 -122.812908 
L 324.515512 -122.812908 
L 320.903117 -122.812908 
L 317.290723 -122.812908 
L 313.678328 -122.812908 
L 310.065934 -122.812908 
L 306.453539 -122.812908 
L 302.841145 -122.812908 
L 299.22875 -122.812908 
L 295.616356 -122.812908 
L 292.003961 -122.812908 
L 288.391567 -122.812908 
L 284.779172 -122.812908 
L 281.166778 -122.812908 
L 277.554383 -122.812908 
L 273.941989 -122.812908 
L 270.329594 -122.812908 
L 266.7172 -122.812908 
L 263.104805 -122.812908 
L 259.492411 -122.812908 
L 255.880016 -122.812908 
L 252.267622 -122.812908 
L 248.655227 -122.812908 
L 245.042833 -122.812908 
L 241.430438 -122.812908 
L 237.818044 -122.812908 
L 234.205649 -122.812908 
L 230.593255 -122.812908 
L 226.98086 -122.812908 
L 223.368465 -122.812908 
L 219.756071 -122.812908 
L 216.143676 -122.812908 
L 212.531282 -122.812908 
L 208.918887 -122.812908 
L 205.306493 -122.812908 
L 201.694098 -122.812908 
L 198.081704 -122.812908 
L 194.469309 -122.812908 
L 190.856915 -122.812908 
L 187.24452 -122.812908 
L 183.632126 -122.812908 
L 180.019731 -122.812908 
L 176.407337 -122.812908 
L 172.794942 -122.812908 
L 169.182548 -122.812908 
L 165.570153 -122.812908 
L 161.957759 -122.812908 
L 158.345364 -122.812908 
L 154.73297 -122.812908 
L 151.120575 -122.812908 
L 147.508181 -122.812908 
L 143.895786 -122.812908 
L 140.283392 -122.812908 
L 136.670997 -122.812908 
L 133.058603 -122.812908 
L 129.446208 -122.812908 
L 125.833814 -122.812908 
L 122.221419 -122.812908 
L 118.609025 -122.812908 
L 114.99663 -122.812908 
L 111.384236 -122.812908 
L 107.771841 -122.812908 
L 104.159447 -122.812908 
L 100.547052 -122.812908 
L 96.934658 -122.812908 
L 93.322263 -122.812908 
L 89.709869 -122.812908 
L 86.097474 -122.812908 
L 82.48508 -122.812908 
L 78.872685 -122.812908 
L 75.260291 -122.812908 
L 71.647896 -122.812908 
L 68.035502 -122.812908 
L 64.423107 -122.812908 
L 60.810713 -122.812908 
L 57.198318 -122.812908 
L 53.585924 -122.812908 
L 49.973529 -122.812908 
L 46.361135 -122.812908 
L 42.74874 -122.812908 
L 39.136346 -122.812908 
z
" id="m96c944eb1c" style="stroke:#595959;stroke-opacity:0.65;"/>
    </defs>
    <g clip-path="url(#p078237ddf8)">
     <use style="fill:#e99675;fill-opacity:0.65;stroke:#595959;stroke-opacity:0.65;" x="0" xlink:href="#m96c944eb1c" y="315.819687"/>
    </g>
   </g>
   <g id="PathCollection_3">
    <defs>
     <path d="M 0 3.383948 
C 0.897434 3.383948 1.758231 3.027394 2.392813 2.392813 
C 3.027394 1.758231 3.383948 0.897434 3.383948 0 
C 3.383948 -0.897434 3.027394 -1.758231 2.392813 -2.392813 
C 1.758231 -3.027394 0.897434 -3.383948 0 -3.383948 
C -0.897434 -3.383948 -1.758231 -3.027394 -2.392813 -2.392813 
C -3.027394 -1.758231 -3.383948 -0.897434 -3.383948 0 
C -3.383948 0.897434 -3.027394 1.758231 -2.392813 2.392813 
C -1.758231 3.027394 -0.897434 3.383948 0 3.383948 
z
" id="C2_0_fbebfe58ab"/>
    </defs>
    <g clip-path="url(#p078237ddf8)">
     <use style="fill:#ff0000;stroke:#ff0000;stroke-width:2.025;" x="266.938371" xlink:href="#C2_0_fbebfe58ab" y="94.728814"/>
    </g>
    <g clip-path="url(#p078237ddf8)">
     <use style="fill:#ff0000;stroke:#ff0000;stroke-width:2.025;" x="181.335578" xlink:href="#C2_0_fbebfe58ab" y="217.576271"/>
    </g>
   </g>
   <g id="line2d_8">
    <path clip-path="url(#p078237ddf8)" d="M 104.643305 90.122034 
L 104.643305 99.335593 
" style="fill:none;stroke:#595959;stroke-linecap:round;stroke-width:1.5;"/>
   </g>
   <g id="line2d_9">
    <path clip-path="url(#p078237ddf8)" d="M 434.839322 90.122034 
L 434.839322 99.335593 
" style="fill:none;stroke:#595959;stroke-linecap:round;stroke-width:1.5;"/>
   </g>
   <g id="line2d_10">
    <defs>
     <path d="M -0 3.535534 
L 2.12132 0 
L -0 -3.535534 
L -2.12132 -0 
z
" id="mf658a85484" style="stroke:#595959;stroke-linejoin:miter;"/>
    </defs>
    <g clip-path="url(#p078237ddf8)">
     <use style="fill:#595959;stroke:#595959;stroke-linejoin:miter;" x="39.136346" xlink:href="#mf658a85484" y="94.728814"/>
     <use style="fill:#595959;stroke:#595959;stroke-linejoin:miter;" x="644.871011" xlink:href="#mf658a85484" y="94.728814"/>
    </g>
   </g>
   <g id="line2d_11">
    <path clip-path="url(#p078237ddf8)" d="M 39.136346 212.969492 
L 39.136346 222.183051 
" style="fill:none;stroke:#595959;stroke-linecap:round;stroke-width:1.5;"/>
   </g>
   <g id="line2d_12">
    <path clip-path="url(#p078237ddf8)" d="M 396.763402 212.969492 
L 396.763402 222.183051 
" style="fill:none;stroke:#595959;stroke-linecap:round;stroke-width:1.5;"/>
   </g>
   <g id="line2d_13"/>
   <g id="line2d_14">
    <path clip-path="url(#p078237ddf8)" d="M 266.938371 94.728814 
L 181.335578 217.576271 
" style="fill:none;stroke:#ff0000;stroke-linecap:round;stroke-width:2.7;"/>
   </g>
   <g id="line2d_15">
    <path clip-path="url(#p078237ddf8)" d="M 224.55903 94.728814 
L 318.731583 94.728814 
" style="fill:none;"/>
   </g>
   <g id="line2d_16">
    <path clip-path="url(#p078237ddf8)" d="M 224.55903 94.728814 
L 224.55903 94.728814 
" style="fill:none;"/>
   </g>
   <g id="line2d_17">
    <path clip-path="url(#p078237ddf8)" d="M 318.731583 94.728814 
L 318.731583 94.728814 
" style="fill:none;"/>
   </g>
   <g id="line2d_18">
    <path clip-path="url(#p078237ddf8)" d="M 142.693432 217.576271 
L 224.295246 217.576271 
" style="fill:none;"/>
   </g>
   <g id="line2d_19">
    <path clip-path="url(#p078237ddf8)" d="M 142.693432 217.576271 
L 142.693432 217.576271 
" style="fill:none;"/>
   </g>
   <g id="line2d_20">
    <path clip-path="url(#p078237ddf8)" d="M 224.295246 217.576271 
L 224.295246 217.576271 
" style="fill:none;"/>
   </g>
   <g id="line2d_21">
    <path clip-path="url(#p078237ddf8)" d="M 250.805708 85.515254 
L 250.805708 103.942373 
" style="fill:none;stroke:#595959;stroke-linecap:round;stroke-width:1.5;"/>
   </g>
   <g id="line2d_22">
    <path clip-path="url(#p078237ddf8)" d="M 170.150264 208.362712 
L 170.150264 226.789831 
" style="fill:none;stroke:#595959;stroke-linecap:round;stroke-width:1.5;"/>
   </g>
   <g id="patch_3">
    <path d="M 7.2 279 
L 7.2 7.2 
" style="fill:none;stroke:#cccccc;stroke-linecap:square;stroke-linejoin:miter;stroke-width:1.25;"/>
   </g>
   <g id="patch_4">
    <path d="M 676.8 279 
L 676.8 7.2 
" style="fill:none;stroke:#cccccc;stroke-linecap:square;stroke-linejoin:miter;stroke-width:1.25;"/>
   </g>
   <g id="patch_5">
    <path d="M 7.2 279 
L 676.8 279 
" style="fill:none;stroke:#cccccc;stroke-linecap:square;stroke-linejoin:miter;stroke-width:1.25;"/>
   </g>
   <g id="patch_6">
    <path d="M 7.2 7.2 
L 676.8 7.2 
" style="fill:none;stroke:#cccccc;stroke-linecap:square;stroke-linejoin:miter;stroke-width:1.25;"/>
   </g>
   <g id="line2d_23">
    <path clip-path="url(#p078237ddf8)" d="M 210.989759 94.728814 
L 104.643305 94.728814 
" style="fill:none;stroke:#595959;stroke-linecap:round;stroke-width:2;"/>
   </g>
   <g id="line2d_24">
    <path clip-path="url(#p078237ddf8)" d="M 319.434483 94.728814 
L 434.839322 94.728814 
" style="fill:none;stroke:#595959;stroke-linecap:round;stroke-width:2;"/>
   </g>
   <g id="line2d_25">
    <path clip-path="url(#p078237ddf8)" d="M 88.266565 217.576271 
L 39.136346 217.576271 
" style="fill:none;stroke:#595959;stroke-linecap:round;stroke-width:2;"/>
   </g>
   <g id="line2d_26">
    <path clip-path="url(#p078237ddf8)" d="M 220.918158 217.576271 
L 396.763402 217.576271 
" style="fill:none;stroke:#595959;stroke-linecap:round;stroke-width:2;"/>
   </g>
   <g id="patch_7">
    <path clip-path="url(#p078237ddf8)" d="M 210.989759 85.515254 
L 210.989759 103.942373 
L 319.434483 103.942373 
L 319.434483 85.515254 
L 210.989759 85.515254 
z
" style="fill:none;opacity:0.65;stroke:#595959;stroke-linejoin:miter;stroke-width:1.5;"/>
   </g>
   <g id="patch_8">
    <path clip-path="url(#p078237ddf8)" d="M 88.266565 208.362712 
L 88.266565 226.789831 
L 220.918158 226.789831 
L 220.918158 208.362712 
L 88.266565 208.362712 
z
" style="fill:none;opacity:0.65;stroke:#595959;stroke-linejoin:miter;stroke-width:1.5;"/>
   </g>
  </g>
 </g>
 <defs>
  <clipPath id="p078237ddf8">
   <rect height="271.8" width="669.6" x="7.2" y="7.2"/>
  </clipPath>
 </defs>
</svg>
