<?xml version="1.0" encoding="utf-8" standalone="no"?>
<!DOCTYPE svg PUBLIC "-//W3C//DTD SVG 1.1//EN"
  "http://www.w3.org/Graphics/SVG/1.1/DTD/svg11.dtd">
<!-- Created with matplotlib (https://matplotlib.org/) -->
<svg height="331.674375pt" version="1.1" viewBox="0 0 744.100679 331.674375" width="744.100679pt" xmlns="http://www.w3.org/2000/svg" xmlns:xlink="http://www.w3.org/1999/xlink">
 <defs>
  <style type="text/css">
*{stroke-linecap:butt;stroke-linejoin:round;}
  </style>
 </defs>
 <g id="figure_1">
  <g id="patch_1">
   <path d="M 0 331.674375 
L 744.100679 331.674375 
L 744.100679 0 
L 0 0 
z
" style="fill:#ffffff;"/>
  </g>
  <g id="axes_1">
   <g id="patch_2">
    <path d="M 61.942188 294.118125 
L 731.542188 294.118125 
L 731.542188 22.318125 
L 61.942188 22.318125 
z
" style="fill:#ffffff;"/>
   </g>
   <g id="PathCollection_1">
    <defs>
     <path d="M 0 1.5 
C 0.397805 1.5 0.77937 1.341951 1.06066 1.06066 
C 1.341951 0.77937 1.5 0.397805 1.5 0 
C 1.5 -0.397805 1.341951 -0.77937 1.06066 -1.06066 
C 0.77937 -1.341951 0.397805 -1.5 0 -1.5 
C -0.397805 -1.5 -0.77937 -1.341951 -1.06066 -1.06066 
C -1.341951 -0.77937 -1.5 -0.397805 -1.5 0 
C -1.5 0.397805 -1.341951 0.77937 -1.06066 1.06066 
C -0.77937 1.341951 -0.397805 1.5 0 1.5 
z
" id="C0_0_8a671bd39b"/>
    </defs>
    <g clip-path="url(#p8c264e7457)">
     <use style="fill:#66c2a5;" x="607.134055" xlink:href="#C0_0_8a671bd39b" y="139.119807"/>
    </g>
    <g clip-path="url(#p8c264e7457)">
     <use style="fill:#66c2a5;" x="496.159095" xlink:href="#C0_0_8a671bd39b" y="140.597108"/>
    </g>
    <g clip-path="url(#p8c264e7457)">
     <use style="fill:#66c2a5;" x="459.167442" xlink:href="#C0_0_8a671bd39b" y="143.306879"/>
    </g>
    <g clip-path="url(#p8c264e7457)">
     <use style="fill:#66c2a5;" x="357.440395" xlink:href="#C0_0_8a671bd39b" y="140.729446"/>
    </g>
    <g clip-path="url(#p8c264e7457)">
     <use style="fill:#66c2a5;" x="699.613189" xlink:href="#C0_0_8a671bd39b" y="131.17317"/>
    </g>
    <g clip-path="url(#p8c264e7457)">
     <use style="fill:#66c2a5;" x="338.944568" xlink:href="#C0_0_8a671bd39b" y="133.434241"/>
    </g>
    <g clip-path="url(#p8c264e7457)">
     <use style="fill:#66c2a5;" x="528.526792" xlink:href="#C0_0_8a671bd39b" y="122.821878"/>
    </g>
    <g clip-path="url(#p8c264e7457)">
     <use style="fill:#66c2a5;" x="440.671615" xlink:href="#C0_0_8a671bd39b" y="128.668217"/>
    </g>
    <g clip-path="url(#p8c264e7457)">
     <use style="fill:#66c2a5;" x="445.295572" xlink:href="#C0_0_8a671bd39b" y="137.989226"/>
    </g>
    <g clip-path="url(#p8c264e7457)">
     <use style="fill:#66c2a5;" x="449.919528" xlink:href="#C0_0_8a671bd39b" y="132.242552"/>
    </g>
    <g clip-path="url(#p8c264e7457)">
     <use style="fill:#66c2a5;" x="380.560178" xlink:href="#C0_0_8a671bd39b" y="145.295462"/>
    </g>
    <g clip-path="url(#p8c264e7457)">
     <use style="fill:#66c2a5;" x="463.791398" xlink:href="#C0_0_8a671bd39b" y="139.853381"/>
    </g>
    <g clip-path="url(#p8c264e7457)">
     <use style="fill:#66c2a5;" x="459.167442" xlink:href="#C0_0_8a671bd39b" y="129.539775"/>
    </g>
    <g clip-path="url(#p8c264e7457)">
     <use style="fill:#66c2a5;" x="348.192481" xlink:href="#C0_0_8a671bd39b" y="128.588806"/>
    </g>
    <g clip-path="url(#p8c264e7457)">
     <use style="fill:#66c2a5;" x="422.175788" xlink:href="#C0_0_8a671bd39b" y="133.723634"/>
    </g>
    <g clip-path="url(#p8c264e7457)">
     <use style="fill:#66c2a5;" x="459.167442" xlink:href="#C0_0_8a671bd39b" y="141.69143"/>
    </g>
    <g clip-path="url(#p8c264e7457)">
     <use style="fill:#66c2a5;" x="468.415355" xlink:href="#C0_0_8a671bd39b" y="145.498549"/>
    </g>
    <g clip-path="url(#p8c264e7457)">
     <use style="fill:#66c2a5;" x="301.952915" xlink:href="#C0_0_8a671bd39b" y="127.542534"/>
    </g>
    <g clip-path="url(#p8c264e7457)">
     <use style="fill:#66c2a5;" x="574.766359" xlink:href="#C0_0_8a671bd39b" y="133.583535"/>
    </g>
    <g clip-path="url(#p8c264e7457)">
     <use style="fill:#66c2a5;" x="468.415355" xlink:href="#C0_0_8a671bd39b" y="132.364808"/>
    </g>
    <g clip-path="url(#p8c264e7457)">
     <use style="fill:#66c2a5;" x="209.473781" xlink:href="#C0_0_8a671bd39b" y="137.138276"/>
    </g>
    <g clip-path="url(#p8c264e7457)">
     <use style="fill:#66c2a5;" x="264.961261" xlink:href="#C0_0_8a671bd39b" y="133.075721"/>
    </g>
    <g clip-path="url(#p8c264e7457)">
     <use style="fill:#66c2a5;" x="389.808092" xlink:href="#C0_0_8a671bd39b" y="140.104541"/>
    </g>
    <g clip-path="url(#p8c264e7457)">
     <use style="fill:#66c2a5;" x="385.184135" xlink:href="#C0_0_8a671bd39b" y="143.061781"/>
    </g>
    <g clip-path="url(#p8c264e7457)">
     <use style="fill:#66c2a5;" x="477.663268" xlink:href="#C0_0_8a671bd39b" y="139.91745"/>
    </g>
    <g clip-path="url(#p8c264e7457)">
     <use style="fill:#66c2a5;" x="375.936221" xlink:href="#C0_0_8a671bd39b" y="141.773115"/>
    </g>
   </g>
   <g id="PathCollection_2">
    <defs>
     <path d="M 0 1.5 
C 0.397805 1.5 0.77937 1.341951 1.06066 1.06066 
C 1.341951 0.77937 1.5 0.397805 1.5 0 
C 1.5 -0.397805 1.341951 -0.77937 1.06066 -1.06066 
C 0.77937 -1.341951 0.397805 -1.5 0 -1.5 
C -0.397805 -1.5 -0.77937 -1.341951 -1.06066 -1.06066 
C -1.341951 -0.77937 -1.5 -0.397805 -1.5 0 
C -1.5 0.397805 -1.341951 0.77937 -1.06066 1.06066 
C -0.77937 1.341951 -0.397805 1.5 0 1.5 
z
" id="C1_0_b9163a91d0"/>
    </defs>
    <g clip-path="url(#p8c264e7457)">
     <use style="fill:#fc8d62;" x="454.543485" xlink:href="#C1_0_b9163a91d0" y="258.089855"/>
    </g>
    <g clip-path="url(#p8c264e7457)">
     <use style="fill:#fc8d62;" x="417.551832" xlink:href="#C1_0_b9163a91d0" y="252.542837"/>
    </g>
    <g clip-path="url(#p8c264e7457)">
     <use style="fill:#fc8d62;" x="297.328958" xlink:href="#C1_0_b9163a91d0" y="253.543993"/>
    </g>
    <g clip-path="url(#p8c264e7457)">
     <use style="fill:#fc8d62;" x="473.039312" xlink:href="#C1_0_b9163a91d0" y="269.355116"/>
    </g>
    <g clip-path="url(#p8c264e7457)">
     <use style="fill:#fc8d62;" x="232.593564" xlink:href="#C1_0_b9163a91d0" y="266.958837"/>
    </g>
    <g clip-path="url(#p8c264e7457)">
     <use style="fill:#fc8d62;" x="449.919528" xlink:href="#C1_0_b9163a91d0" y="262.829284"/>
    </g>
    <g clip-path="url(#p8c264e7457)">
     <use style="fill:#fc8d62;" x="348.192481" xlink:href="#C1_0_b9163a91d0" y="258.239928"/>
    </g>
    <g clip-path="url(#p8c264e7457)">
     <use style="fill:#fc8d62;" x="190.977954" xlink:href="#C1_0_b9163a91d0" y="255.137258"/>
    </g>
    <g clip-path="url(#p8c264e7457)">
     <use style="fill:#fc8d62;" x="301.952915" xlink:href="#C1_0_b9163a91d0" y="266.72542"/>
    </g>
    <g clip-path="url(#p8c264e7457)">
     <use style="fill:#fc8d62;" x="375.936221" xlink:href="#C1_0_b9163a91d0" y="251.312712"/>
    </g>
    <g clip-path="url(#p8c264e7457)">
     <use style="fill:#fc8d62;" x="278.833131" xlink:href="#C1_0_b9163a91d0" y="255.90658"/>
    </g>
    <g clip-path="url(#p8c264e7457)">
     <use style="fill:#fc8d62;" x="112.370691" xlink:href="#C1_0_b9163a91d0" y="247.289143"/>
    </g>
    <g clip-path="url(#p8c264e7457)">
     <use style="fill:#fc8d62;" x="93.874864" xlink:href="#C1_0_b9163a91d0" y="255.57862"/>
    </g>
    <g clip-path="url(#p8c264e7457)">
     <use style="fill:#fc8d62;" x="348.192481" xlink:href="#C1_0_b9163a91d0" y="260.618296"/>
    </g>
    <g clip-path="url(#p8c264e7457)">
     <use style="fill:#fc8d62;" x="288.081045" xlink:href="#C1_0_b9163a91d0" y="264.022656"/>
    </g>
   </g>
   <g id="PolyCollection_1">
    <defs>
     <path d="M 209.473781 -246.396928 
L 209.473781 -251.191971 
L 214.424684 -251.172442 
L 219.375587 -250.981991 
L 224.32649 -250.703045 
L 229.277393 -250.436801 
L 234.228297 -250.276906 
L 239.1792 -250.285251 
L 244.130103 -250.477404 
L 249.081006 -250.822035 
L 254.031909 -251.25417 
L 258.982812 -251.697521 
L 263.933715 -252.088041 
L 268.884618 -252.390547 
L 273.835521 -252.603179 
L 278.786425 -252.749727 
L 283.737328 -252.865215 
L 288.688231 -252.982924 
L 293.639134 -253.129511 
L 298.590037 -253.32972 
L 303.54094 -253.616058 
L 308.491843 -254.035299 
L 313.442746 -254.644995 
L 318.393649 -255.498791 
L 323.344553 -256.62615 
L 328.295456 -258.016245 
L 333.246359 -259.614569 
L 338.197262 -261.334712 
L 343.148165 -263.079855 
L 348.099068 -264.763186 
L 353.049971 -266.316956 
L 358.000874 -267.686334 
L 362.951777 -268.813488 
L 367.902681 -269.62422 
L 372.853584 -270.029797 
L 377.804487 -269.949467 
L 382.75539 -269.34791 
L 387.706293 -268.272523 
L 392.657196 -266.873326 
L 397.608099 -265.394606 
L 402.559002 -264.138925 
L 407.509905 -263.414557 
L 412.460809 -263.481762 
L 417.411712 -264.510228 
L 422.362615 -266.552736 
L 427.313518 -269.533692 
L 432.264421 -273.249177 
L 437.215324 -277.377847 
L 442.166227 -281.505897 
L 447.11713 -285.170411 
L 452.068033 -287.921261 
L 457.018937 -289.393538 
L 461.96984 -289.374465 
L 466.920743 -287.8457 
L 471.871646 -284.986707 
L 476.822549 -281.136274 
L 481.773452 -276.7227 
L 486.724355 -272.182559 
L 491.675258 -267.88951 
L 496.626162 -264.108275 
L 501.577065 -260.978674 
L 506.527968 -258.525425 
L 511.478871 -256.68477 
L 516.429774 -255.338893 
L 521.380677 -254.351274 
L 526.33158 -253.597993 
L 531.282483 -252.990604 
L 536.233386 -252.486694 
L 541.18429 -252.086072 
L 546.135193 -251.814301 
L 551.086096 -251.699622 
L 556.036999 -251.751944 
L 560.987902 -251.95168 
L 565.938805 -252.251768 
L 570.889708 -252.590346 
L 575.840611 -252.907029 
L 580.791514 -253.154975 
L 585.742418 -253.304188 
L 590.693321 -253.33684 
L 595.644224 -253.239767 
L 600.595127 -253.000281 
L 605.54603 -252.608569 
L 610.496933 -252.06535 
L 615.447836 -251.389855 
L 620.398739 -250.622824 
L 625.349642 -249.821998 
L 630.300546 -249.051641 
L 635.251449 -248.370565 
L 640.202352 -247.8234 
L 645.153255 -247.437784 
L 650.104158 -247.226972 
L 655.055061 -247.194938 
L 660.005964 -247.340224 
L 664.956867 -247.655869 
L 669.90777 -248.124993 
L 674.858674 -248.714206 
L 679.809577 -249.368731 
L 684.76048 -250.013311 
L 689.711383 -250.561147 
L 694.662286 -250.929826 
L 699.613189 -251.059818 
L 699.613189 -246.396928 
L 699.613189 -246.396928 
L 694.662286 -246.396928 
L 689.711383 -246.396928 
L 684.76048 -246.396928 
L 679.809577 -246.396928 
L 674.858674 -246.396928 
L 669.90777 -246.396928 
L 664.956867 -246.396928 
L 660.005964 -246.396928 
L 655.055061 -246.396928 
L 650.104158 -246.396928 
L 645.153255 -246.396928 
L 640.202352 -246.396928 
L 635.251449 -246.396928 
L 630.300546 -246.396928 
L 625.349642 -246.396928 
L 620.398739 -246.396928 
L 615.447836 -246.396928 
L 610.496933 -246.396928 
L 605.54603 -246.396928 
L 600.595127 -246.396928 
L 595.644224 -246.396928 
L 590.693321 -246.396928 
L 585.742418 -246.396928 
L 580.791514 -246.396928 
L 575.840611 -246.396928 
L 570.889708 -246.396928 
L 565.938805 -246.396928 
L 560.987902 -246.396928 
L 556.036999 -246.396928 
L 551.086096 -246.396928 
L 546.135193 -246.396928 
L 541.18429 -246.396928 
L 536.233386 -246.396928 
L 531.282483 -246.396928 
L 526.33158 -246.396928 
L 521.380677 -246.396928 
L 516.429774 -246.396928 
L 511.478871 -246.396928 
L 506.527968 -246.396928 
L 501.577065 -246.396928 
L 496.626162 -246.396928 
L 491.675258 -246.396928 
L 486.724355 -246.396928 
L 481.773452 -246.396928 
L 476.822549 -246.396928 
L 471.871646 -246.396928 
L 466.920743 -246.396928 
L 461.96984 -246.396928 
L 457.018937 -246.396928 
L 452.068033 -246.396928 
L 447.11713 -246.396928 
L 442.166227 -246.396928 
L 437.215324 -246.396928 
L 432.264421 -246.396928 
L 427.313518 -246.396928 
L 422.362615 -246.396928 
L 417.411712 -246.396928 
L 412.460809 -246.396928 
L 407.509905 -246.396928 
L 402.559002 -246.396928 
L 397.608099 -246.396928 
L 392.657196 -246.396928 
L 387.706293 -246.396928 
L 382.75539 -246.396928 
L 377.804487 -246.396928 
L 372.853584 -246.396928 
L 367.902681 -246.396928 
L 362.951777 -246.396928 
L 358.000874 -246.396928 
L 353.049971 -246.396928 
L 348.099068 -246.396928 
L 343.148165 -246.396928 
L 338.197262 -246.396928 
L 333.246359 -246.396928 
L 328.295456 -246.396928 
L 323.344553 -246.396928 
L 318.393649 -246.396928 
L 313.442746 -246.396928 
L 308.491843 -246.396928 
L 303.54094 -246.396928 
L 298.590037 -246.396928 
L 293.639134 -246.396928 
L 288.688231 -246.396928 
L 283.737328 -246.396928 
L 278.786425 -246.396928 
L 273.835521 -246.396928 
L 268.884618 -246.396928 
L 263.933715 -246.396928 
L 258.982812 -246.396928 
L 254.031909 -246.396928 
L 249.081006 -246.396928 
L 244.130103 -246.396928 
L 239.1792 -246.396928 
L 234.228297 -246.396928 
L 229.277393 -246.396928 
L 224.32649 -246.396928 
L 219.375587 -246.396928 
L 214.424684 -246.396928 
L 209.473781 -246.396928 
z
" id="m7f9db80ab3" style="stroke:#595959;stroke-opacity:0.65;"/>
    </defs>
    <g clip-path="url(#p8c264e7457)">
     <use style="fill:#72b6a1;fill-opacity:0.65;stroke:#595959;stroke-opacity:0.65;" x="0" xlink:href="#m7f9db80ab3" y="331.674375"/>
    </g>
   </g>
   <g id="PolyCollection_2">
    <defs>
     <path d="M 93.874864 -123.54947 
L 93.874864 -135.938893 
L 97.704808 -136.484351 
L 101.534752 -136.754886 
L 105.364696 -136.733925 
L 109.19464 -136.42436 
L 113.024584 -135.848583 
L 116.854527 -135.046604 
L 120.684471 -134.072555 
L 124.514415 -132.990032 
L 128.344359 -131.866891 
L 132.174303 -130.770082 
L 136.004247 -129.761062 
L 139.834191 -128.892097 
L 143.664135 -128.203654 
L 147.494079 -127.722833 
L 151.324023 -127.462747 
L 155.153967 -127.422657 
L 158.983911 -127.588775 
L 162.813854 -127.935665 
L 166.643798 -128.42829 
L 170.473742 -129.024733 
L 174.303686 -129.67958 
L 178.13363 -130.347779 
L 181.963574 -130.988636 
L 185.793518 -131.569424 
L 189.623462 -132.068031 
L 193.453406 -132.474143 
L 197.28335 -132.78873 
L 201.113294 -133.0219 
L 204.943238 -133.189625 
L 208.773181 -133.310105 
L 212.603125 -133.400678 
L 216.433069 -133.476053 
L 220.263013 -133.548344 
L 224.092957 -133.628863 
L 227.922901 -133.731129 
L 231.752845 -133.874147 
L 235.582789 -134.084815 
L 239.412733 -134.398427 
L 243.242677 -134.856589 
L 247.072621 -135.502442 
L 250.902565 -136.373711 
L 254.732508 -137.494639 
L 258.562452 -138.868282 
L 262.392396 -140.470677 
L 266.22234 -142.248246 
L 270.052284 -144.11934 
L 273.882228 -145.980145 
L 277.712172 -147.714521 
L 281.542116 -149.206609 
L 285.37206 -150.354555 
L 289.202004 -151.083376 
L 293.031948 -151.355043 
L 296.861892 -151.174136 
L 300.691836 -150.588041 
L 304.521779 -149.681468 
L 308.351723 -148.5659 
L 312.181667 -147.365461 
L 316.011611 -146.201206 
L 319.841555 -145.176204 
L 323.671499 -144.363577 
L 327.501443 -143.799237 
L 331.331387 -143.48021 
L 335.161331 -143.368526 
L 338.991275 -143.399725 
L 342.821219 -143.494338 
L 346.651163 -143.570343 
L 350.481106 -143.554647 
L 354.31105 -143.392009 
L 358.140994 -143.050482 
L 361.970938 -142.523142 
L 365.800882 -141.826473 
L 369.630826 -140.996253 
L 373.46077 -140.081906 
L 377.290714 -139.140302 
L 381.120658 -138.229798 
L 384.950602 -137.405068 
L 388.780546 -136.713092 
L 392.61049 -136.190477 
L 396.440433 -135.86215 
L 400.270377 -135.741337 
L 404.100321 -135.830582 
L 407.930265 -136.123432 
L 411.760209 -136.606289 
L 415.590153 -137.259929 
L 419.420097 -138.060281 
L 423.250041 -138.978317 
L 427.079985 -139.979229 
L 430.909929 -141.021351 
L 434.739873 -142.055526 
L 438.569817 -143.025582 
L 442.39976 -143.870417 
L 446.229704 -144.527778 
L 450.059648 -144.939419 
L 453.889592 -145.056905 
L 457.719536 -144.847109 
L 461.54948 -144.296445 
L 465.379424 -143.413062 
L 469.209368 -142.226623 
L 473.039312 -140.785676 
L 473.039312 -123.54947 
L 473.039312 -123.54947 
L 469.209368 -123.54947 
L 465.379424 -123.54947 
L 461.54948 -123.54947 
L 457.719536 -123.54947 
L 453.889592 -123.54947 
L 450.059648 -123.54947 
L 446.229704 -123.54947 
L 442.39976 -123.54947 
L 438.569817 -123.54947 
L 434.739873 -123.54947 
L 430.909929 -123.54947 
L 427.079985 -123.54947 
L 423.250041 -123.54947 
L 419.420097 -123.54947 
L 415.590153 -123.54947 
L 411.760209 -123.54947 
L 407.930265 -123.54947 
L 404.100321 -123.54947 
L 400.270377 -123.54947 
L 396.440433 -123.54947 
L 392.61049 -123.54947 
L 388.780546 -123.54947 
L 384.950602 -123.54947 
L 381.120658 -123.54947 
L 377.290714 -123.54947 
L 373.46077 -123.54947 
L 369.630826 -123.54947 
L 365.800882 -123.54947 
L 361.970938 -123.54947 
L 358.140994 -123.54947 
L 354.31105 -123.54947 
L 350.481106 -123.54947 
L 346.651163 -123.54947 
L 342.821219 -123.54947 
L 338.991275 -123.54947 
L 335.161331 -123.54947 
L 331.331387 -123.54947 
L 327.501443 -123.54947 
L 323.671499 -123.54947 
L 319.841555 -123.54947 
L 316.011611 -123.54947 
L 312.181667 -123.54947 
L 308.351723 -123.54947 
L 304.521779 -123.54947 
L 300.691836 -123.54947 
L 296.861892 -123.54947 
L 293.031948 -123.54947 
L 289.202004 -123.54947 
L 285.37206 -123.54947 
L 281.542116 -123.54947 
L 277.712172 -123.54947 
L 273.882228 -123.54947 
L 270.052284 -123.54947 
L 266.22234 -123.54947 
L 262.392396 -123.54947 
L 258.562452 -123.54947 
L 254.732508 -123.54947 
L 250.902565 -123.54947 
L 247.072621 -123.54947 
L 243.242677 -123.54947 
L 239.412733 -123.54947 
L 235.582789 -123.54947 
L 231.752845 -123.54947 
L 227.922901 -123.54947 
L 224.092957 -123.54947 
L 220.263013 -123.54947 
L 216.433069 -123.54947 
L 212.603125 -123.54947 
L 208.773181 -123.54947 
L 204.943238 -123.54947 
L 201.113294 -123.54947 
L 197.28335 -123.54947 
L 193.453406 -123.54947 
L 189.623462 -123.54947 
L 185.793518 -123.54947 
L 181.963574 -123.54947 
L 178.13363 -123.54947 
L 174.303686 -123.54947 
L 170.473742 -123.54947 
L 166.643798 -123.54947 
L 162.813854 -123.54947 
L 158.983911 -123.54947 
L 155.153967 -123.54947 
L 151.324023 -123.54947 
L 147.494079 -123.54947 
L 143.664135 -123.54947 
L 139.834191 -123.54947 
L 136.004247 -123.54947 
L 132.174303 -123.54947 
L 128.344359 -123.54947 
L 124.514415 -123.54947 
L 120.684471 -123.54947 
L 116.854527 -123.54947 
L 113.024584 -123.54947 
L 109.19464 -123.54947 
L 105.364696 -123.54947 
L 101.534752 -123.54947 
L 97.704808 -123.54947 
L 93.874864 -123.54947 
z
" id="m3aa42e52b9" style="stroke:#595959;stroke-opacity:0.65;"/>
    </defs>
    <g clip-path="url(#p8c264e7457)">
     <use style="fill:#e99675;fill-opacity:0.65;stroke:#595959;stroke-opacity:0.65;" x="0" xlink:href="#m3aa42e52b9" y="331.674375"/>
    </g>
   </g>
   <g id="PathCollection_3">
    <defs>
     <path d="M 0 3.383948 
C 0.897434 3.383948 1.758231 3.027394 2.392813 2.392813 
C 3.027394 1.758231 3.383948 0.897434 3.383948 0 
C 3.383948 -0.897434 3.027394 -1.758231 2.392813 -2.392813 
C 1.758231 -3.027394 0.897434 -3.383948 0 -3.383948 
C -0.897434 -3.383948 -1.758231 -3.027394 -2.392813 -2.392813 
C -3.027394 -1.758231 -3.383948 -0.897434 -3.383948 0 
C -3.383948 0.897434 -3.027394 1.758231 -2.392813 2.392813 
C -1.758231 3.027394 -0.897434 3.383948 0 3.383948 
z
" id="C2_0_876c76ef45"/>
    </defs>
    <g clip-path="url(#p8c264e7457)">
     <use style="fill:#ff0000;stroke:#ff0000;stroke-width:2.025;" x="433.557835" xlink:href="#C2_0_876c76ef45" y="109.846939"/>
    </g>
    <g clip-path="url(#p8c264e7457)">
     <use style="fill:#ff0000;stroke:#ff0000;stroke-width:2.025;" x="310.892564" xlink:href="#C2_0_876c76ef45" y="232.694396"/>
    </g>
   </g>
   <g id="matplotlib.axis_1">
    <g id="xtick_1">
     <g id="line2d_1">
      <defs>
       <path d="M 0 0 
L 0 3.5 
" id="m164366117d" style="stroke:#000000;stroke-width:0.8;"/>
      </defs>
      <g>
       <use style="stroke:#000000;stroke-width:0.8;" x="80.002994" xlink:href="#m164366117d" y="294.118125"/>
      </g>
     </g>
     <g id="text_1">
      <!-- 0 -->
      <defs>
       <path d="M 31.78125 66.40625 
Q 24.171875 66.40625 20.328125 58.90625 
Q 16.5 51.421875 16.5 36.375 
Q 16.5 21.390625 20.328125 13.890625 
Q 24.171875 6.390625 31.78125 6.390625 
Q 39.453125 6.390625 43.28125 13.890625 
Q 47.125 21.390625 47.125 36.375 
Q 47.125 51.421875 43.28125 58.90625 
Q 39.453125 66.40625 31.78125 66.40625 
z
M 31.78125 74.21875 
Q 44.046875 74.21875 50.515625 64.515625 
Q 56.984375 54.828125 56.984375 36.375 
Q 56.984375 17.96875 50.515625 8.265625 
Q 44.046875 -1.421875 31.78125 -1.421875 
Q 19.53125 -1.421875 13.0625 8.265625 
Q 6.59375 17.96875 6.59375 36.375 
Q 6.59375 54.828125 13.0625 64.515625 
Q 19.53125 74.21875 31.78125 74.21875 
z
" id="DejaVuSans-48"/>
      </defs>
      <g transform="translate(76.821744 308.716563)scale(0.1 -0.1)">
       <use xlink:href="#DejaVuSans-48"/>
      </g>
     </g>
    </g>
    <g id="xtick_2">
     <g id="line2d_2">
      <g>
       <use style="stroke:#000000;stroke-width:0.8;" x="172.482128" xlink:href="#m164366117d" y="294.118125"/>
      </g>
     </g>
     <g id="text_2">
      <!-- 20 -->
      <defs>
       <path d="M 19.1875 8.296875 
L 53.609375 8.296875 
L 53.609375 0 
L 7.328125 0 
L 7.328125 8.296875 
Q 12.9375 14.109375 22.625 23.890625 
Q 32.328125 33.6875 34.8125 36.53125 
Q 39.546875 41.84375 41.421875 45.53125 
Q 43.3125 49.21875 43.3125 52.78125 
Q 43.3125 58.59375 39.234375 62.25 
Q 35.15625 65.921875 28.609375 65.921875 
Q 23.96875 65.921875 18.8125 64.3125 
Q 13.671875 62.703125 7.8125 59.421875 
L 7.8125 69.390625 
Q 13.765625 71.78125 18.9375 73 
Q 24.125 74.21875 28.421875 74.21875 
Q 39.75 74.21875 46.484375 68.546875 
Q 53.21875 62.890625 53.21875 53.421875 
Q 53.21875 48.921875 51.53125 44.890625 
Q 49.859375 40.875 45.40625 35.40625 
Q 44.1875 33.984375 37.640625 27.21875 
Q 31.109375 20.453125 19.1875 8.296875 
z
" id="DejaVuSans-50"/>
      </defs>
      <g transform="translate(166.119628 308.716563)scale(0.1 -0.1)">
       <use xlink:href="#DejaVuSans-50"/>
       <use x="63.623047" xlink:href="#DejaVuSans-48"/>
      </g>
     </g>
    </g>
    <g id="xtick_3">
     <g id="line2d_3">
      <g>
       <use style="stroke:#000000;stroke-width:0.8;" x="264.961261" xlink:href="#m164366117d" y="294.118125"/>
      </g>
     </g>
     <g id="text_3">
      <!-- 40 -->
      <defs>
       <path d="M 37.796875 64.3125 
L 12.890625 25.390625 
L 37.796875 25.390625 
z
M 35.203125 72.90625 
L 47.609375 72.90625 
L 47.609375 25.390625 
L 58.015625 25.390625 
L 58.015625 17.1875 
L 47.609375 17.1875 
L 47.609375 0 
L 37.796875 0 
L 37.796875 17.1875 
L 4.890625 17.1875 
L 4.890625 26.703125 
z
" id="DejaVuSans-52"/>
      </defs>
      <g transform="translate(258.598761 308.716563)scale(0.1 -0.1)">
       <use xlink:href="#DejaVuSans-52"/>
       <use x="63.623047" xlink:href="#DejaVuSans-48"/>
      </g>
     </g>
    </g>
    <g id="xtick_4">
     <g id="line2d_4">
      <g>
       <use style="stroke:#000000;stroke-width:0.8;" x="357.440395" xlink:href="#m164366117d" y="294.118125"/>
      </g>
     </g>
     <g id="text_4">
      <!-- 60 -->
      <defs>
       <path d="M 33.015625 40.375 
Q 26.375 40.375 22.484375 35.828125 
Q 18.609375 31.296875 18.609375 23.390625 
Q 18.609375 15.53125 22.484375 10.953125 
Q 26.375 6.390625 33.015625 6.390625 
Q 39.65625 6.390625 43.53125 10.953125 
Q 47.40625 15.53125 47.40625 23.390625 
Q 47.40625 31.296875 43.53125 35.828125 
Q 39.65625 40.375 33.015625 40.375 
z
M 52.59375 71.296875 
L 52.59375 62.3125 
Q 48.875 64.0625 45.09375 64.984375 
Q 41.3125 65.921875 37.59375 65.921875 
Q 27.828125 65.921875 22.671875 59.328125 
Q 17.53125 52.734375 16.796875 39.40625 
Q 19.671875 43.65625 24.015625 45.921875 
Q 28.375 48.1875 33.59375 48.1875 
Q 44.578125 48.1875 50.953125 41.515625 
Q 57.328125 34.859375 57.328125 23.390625 
Q 57.328125 12.15625 50.6875 5.359375 
Q 44.046875 -1.421875 33.015625 -1.421875 
Q 20.359375 -1.421875 13.671875 8.265625 
Q 6.984375 17.96875 6.984375 36.375 
Q 6.984375 53.65625 15.1875 63.9375 
Q 23.390625 74.21875 37.203125 74.21875 
Q 40.921875 74.21875 44.703125 73.484375 
Q 48.484375 72.75 52.59375 71.296875 
z
" id="DejaVuSans-54"/>
      </defs>
      <g transform="translate(351.077895 308.716563)scale(0.1 -0.1)">
       <use xlink:href="#DejaVuSans-54"/>
       <use x="63.623047" xlink:href="#DejaVuSans-48"/>
      </g>
     </g>
    </g>
    <g id="xtick_5">
     <g id="line2d_5">
      <g>
       <use style="stroke:#000000;stroke-width:0.8;" x="449.919528" xlink:href="#m164366117d" y="294.118125"/>
      </g>
     </g>
     <g id="text_5">
      <!-- 80 -->
      <defs>
       <path d="M 31.78125 34.625 
Q 24.75 34.625 20.71875 30.859375 
Q 16.703125 27.09375 16.703125 20.515625 
Q 16.703125 13.921875 20.71875 10.15625 
Q 24.75 6.390625 31.78125 6.390625 
Q 38.8125 6.390625 42.859375 10.171875 
Q 46.921875 13.96875 46.921875 20.515625 
Q 46.921875 27.09375 42.890625 30.859375 
Q 38.875 34.625 31.78125 34.625 
z
M 21.921875 38.8125 
Q 15.578125 40.375 12.03125 44.71875 
Q 8.5 49.078125 8.5 55.328125 
Q 8.5 64.0625 14.71875 69.140625 
Q 20.953125 74.21875 31.78125 74.21875 
Q 42.671875 74.21875 48.875 69.140625 
Q 55.078125 64.0625 55.078125 55.328125 
Q 55.078125 49.078125 51.53125 44.71875 
Q 48 40.375 41.703125 38.8125 
Q 48.828125 37.15625 52.796875 32.3125 
Q 56.78125 27.484375 56.78125 20.515625 
Q 56.78125 9.90625 50.3125 4.234375 
Q 43.84375 -1.421875 31.78125 -1.421875 
Q 19.734375 -1.421875 13.25 4.234375 
Q 6.78125 9.90625 6.78125 20.515625 
Q 6.78125 27.484375 10.78125 32.3125 
Q 14.796875 37.15625 21.921875 38.8125 
z
M 18.3125 54.390625 
Q 18.3125 48.734375 21.84375 45.5625 
Q 25.390625 42.390625 31.78125 42.390625 
Q 38.140625 42.390625 41.71875 45.5625 
Q 45.3125 48.734375 45.3125 54.390625 
Q 45.3125 60.0625 41.71875 63.234375 
Q 38.140625 66.40625 31.78125 66.40625 
Q 25.390625 66.40625 21.84375 63.234375 
Q 18.3125 60.0625 18.3125 54.390625 
z
" id="DejaVuSans-56"/>
      </defs>
      <g transform="translate(443.557028 308.716563)scale(0.1 -0.1)">
       <use xlink:href="#DejaVuSans-56"/>
       <use x="63.623047" xlink:href="#DejaVuSans-48"/>
      </g>
     </g>
    </g>
    <g id="xtick_6">
     <g id="line2d_6">
      <g>
       <use style="stroke:#000000;stroke-width:0.8;" x="542.398662" xlink:href="#m164366117d" y="294.118125"/>
      </g>
     </g>
     <g id="text_6">
      <!-- 100 -->
      <defs>
       <path d="M 12.40625 8.296875 
L 28.515625 8.296875 
L 28.515625 63.921875 
L 10.984375 60.40625 
L 10.984375 69.390625 
L 28.421875 72.90625 
L 38.28125 72.90625 
L 38.28125 8.296875 
L 54.390625 8.296875 
L 54.390625 0 
L 12.40625 0 
z
" id="DejaVuSans-49"/>
      </defs>
      <g transform="translate(532.854912 308.716563)scale(0.1 -0.1)">
       <use xlink:href="#DejaVuSans-49"/>
       <use x="63.623047" xlink:href="#DejaVuSans-48"/>
       <use x="127.246094" xlink:href="#DejaVuSans-48"/>
      </g>
     </g>
    </g>
    <g id="xtick_7">
     <g id="line2d_7">
      <g>
       <use style="stroke:#000000;stroke-width:0.8;" x="634.877796" xlink:href="#m164366117d" y="294.118125"/>
      </g>
     </g>
     <g id="text_7">
      <!-- 120 -->
      <g transform="translate(625.334046 308.716563)scale(0.1 -0.1)">
       <use xlink:href="#DejaVuSans-49"/>
       <use x="63.623047" xlink:href="#DejaVuSans-50"/>
       <use x="127.246094" xlink:href="#DejaVuSans-48"/>
      </g>
     </g>
    </g>
    <g id="xtick_8">
     <g id="line2d_8">
      <g>
       <use style="stroke:#000000;stroke-width:0.8;" x="727.356929" xlink:href="#m164366117d" y="294.118125"/>
      </g>
     </g>
     <g id="text_8">
      <!-- 140 -->
      <g transform="translate(717.813179 308.716563)scale(0.1 -0.1)">
       <use xlink:href="#DejaVuSans-49"/>
       <use x="63.623047" xlink:href="#DejaVuSans-52"/>
       <use x="127.246094" xlink:href="#DejaVuSans-48"/>
      </g>
     </g>
    </g>
    <g id="text_9">
     <!-- PDQ39 -->
     <defs>
      <path d="M 19.671875 64.796875 
L 19.671875 37.40625 
L 32.078125 37.40625 
Q 38.96875 37.40625 42.71875 40.96875 
Q 46.484375 44.53125 46.484375 51.125 
Q 46.484375 57.671875 42.71875 61.234375 
Q 38.96875 64.796875 32.078125 64.796875 
z
M 9.8125 72.90625 
L 32.078125 72.90625 
Q 44.34375 72.90625 50.609375 67.359375 
Q 56.890625 61.8125 56.890625 51.125 
Q 56.890625 40.328125 50.609375 34.8125 
Q 44.34375 29.296875 32.078125 29.296875 
L 19.671875 29.296875 
L 19.671875 0 
L 9.8125 0 
z
" id="DejaVuSans-80"/>
      <path d="M 19.671875 64.796875 
L 19.671875 8.109375 
L 31.59375 8.109375 
Q 46.6875 8.109375 53.6875 14.9375 
Q 60.6875 21.78125 60.6875 36.53125 
Q 60.6875 51.171875 53.6875 57.984375 
Q 46.6875 64.796875 31.59375 64.796875 
z
M 9.8125 72.90625 
L 30.078125 72.90625 
Q 51.265625 72.90625 61.171875 64.09375 
Q 71.09375 55.28125 71.09375 36.53125 
Q 71.09375 17.671875 61.125 8.828125 
Q 51.171875 0 30.078125 0 
L 9.8125 0 
z
" id="DejaVuSans-68"/>
      <path d="M 39.40625 66.21875 
Q 28.65625 66.21875 22.328125 58.203125 
Q 16.015625 50.203125 16.015625 36.375 
Q 16.015625 22.609375 22.328125 14.59375 
Q 28.65625 6.59375 39.40625 6.59375 
Q 50.140625 6.59375 56.421875 14.59375 
Q 62.703125 22.609375 62.703125 36.375 
Q 62.703125 50.203125 56.421875 58.203125 
Q 50.140625 66.21875 39.40625 66.21875 
z
M 53.21875 1.3125 
L 66.21875 -12.890625 
L 54.296875 -12.890625 
L 43.5 -1.21875 
Q 41.890625 -1.3125 41.03125 -1.359375 
Q 40.1875 -1.421875 39.40625 -1.421875 
Q 24.03125 -1.421875 14.8125 8.859375 
Q 5.609375 19.140625 5.609375 36.375 
Q 5.609375 53.65625 14.8125 63.9375 
Q 24.03125 74.21875 39.40625 74.21875 
Q 54.734375 74.21875 63.90625 63.9375 
Q 73.09375 53.65625 73.09375 36.375 
Q 73.09375 23.6875 67.984375 14.640625 
Q 62.890625 5.609375 53.21875 1.3125 
z
" id="DejaVuSans-81"/>
      <path d="M 40.578125 39.3125 
Q 47.65625 37.796875 51.625 33 
Q 55.609375 28.21875 55.609375 21.1875 
Q 55.609375 10.40625 48.1875 4.484375 
Q 40.765625 -1.421875 27.09375 -1.421875 
Q 22.515625 -1.421875 17.65625 -0.515625 
Q 12.796875 0.390625 7.625 2.203125 
L 7.625 11.71875 
Q 11.71875 9.328125 16.59375 8.109375 
Q 21.484375 6.890625 26.8125 6.890625 
Q 36.078125 6.890625 40.9375 10.546875 
Q 45.796875 14.203125 45.796875 21.1875 
Q 45.796875 27.640625 41.28125 31.265625 
Q 36.765625 34.90625 28.71875 34.90625 
L 20.21875 34.90625 
L 20.21875 43.015625 
L 29.109375 43.015625 
Q 36.375 43.015625 40.234375 45.921875 
Q 44.09375 48.828125 44.09375 54.296875 
Q 44.09375 59.90625 40.109375 62.90625 
Q 36.140625 65.921875 28.71875 65.921875 
Q 24.65625 65.921875 20.015625 65.03125 
Q 15.375 64.15625 9.8125 62.3125 
L 9.8125 71.09375 
Q 15.4375 72.65625 20.34375 73.4375 
Q 25.25 74.21875 29.59375 74.21875 
Q 40.828125 74.21875 47.359375 69.109375 
Q 53.90625 64.015625 53.90625 55.328125 
Q 53.90625 49.265625 50.4375 45.09375 
Q 46.96875 40.921875 40.578125 39.3125 
z
" id="DejaVuSans-51"/>
      <path d="M 10.984375 1.515625 
L 10.984375 10.5 
Q 14.703125 8.734375 18.5 7.8125 
Q 22.3125 6.890625 25.984375 6.890625 
Q 35.75 6.890625 40.890625 13.453125 
Q 46.046875 20.015625 46.78125 33.40625 
Q 43.953125 29.203125 39.59375 26.953125 
Q 35.25 24.703125 29.984375 24.703125 
Q 19.046875 24.703125 12.671875 31.3125 
Q 6.296875 37.9375 6.296875 49.421875 
Q 6.296875 60.640625 12.9375 67.421875 
Q 19.578125 74.21875 30.609375 74.21875 
Q 43.265625 74.21875 49.921875 64.515625 
Q 56.59375 54.828125 56.59375 36.375 
Q 56.59375 19.140625 48.40625 8.859375 
Q 40.234375 -1.421875 26.421875 -1.421875 
Q 22.703125 -1.421875 18.890625 -0.6875 
Q 15.09375 0.046875 10.984375 1.515625 
z
M 30.609375 32.421875 
Q 37.25 32.421875 41.125 36.953125 
Q 45.015625 41.5 45.015625 49.421875 
Q 45.015625 57.28125 41.125 61.84375 
Q 37.25 66.40625 30.609375 66.40625 
Q 23.96875 66.40625 20.09375 61.84375 
Q 16.21875 57.28125 16.21875 49.421875 
Q 16.21875 41.5 20.09375 36.953125 
Q 23.96875 32.421875 30.609375 32.421875 
z
" id="DejaVuSans-57"/>
     </defs>
     <g transform="translate(379.578906 322.394687)scale(0.1 -0.1)">
      <use xlink:href="#DejaVuSans-80"/>
      <use x="60.302734" xlink:href="#DejaVuSans-68"/>
      <use x="137.304688" xlink:href="#DejaVuSans-81"/>
      <use x="216.015625" xlink:href="#DejaVuSans-51"/>
      <use x="279.638672" xlink:href="#DejaVuSans-57"/>
     </g>
    </g>
   </g>
   <g id="matplotlib.axis_2">
    <g id="ytick_1">
     <g id="line2d_9">
      <defs>
       <path d="M 0 0 
L -3.5 0 
" id="m8d10f96982" style="stroke:#000000;stroke-width:0.8;"/>
      </defs>
      <g>
       <use style="stroke:#000000;stroke-width:0.8;" x="61.942188" xlink:href="#m8d10f96982" y="109.846939"/>
      </g>
     </g>
     <g id="text_10">
      <!-- preop -->
      <defs>
       <path d="M 18.109375 8.203125 
L 18.109375 -20.796875 
L 9.078125 -20.796875 
L 9.078125 54.6875 
L 18.109375 54.6875 
L 18.109375 46.390625 
Q 20.953125 51.265625 25.265625 53.625 
Q 29.59375 56 35.59375 56 
Q 45.5625 56 51.78125 48.09375 
Q 58.015625 40.1875 58.015625 27.296875 
Q 58.015625 14.40625 51.78125 6.484375 
Q 45.5625 -1.421875 35.59375 -1.421875 
Q 29.59375 -1.421875 25.265625 0.953125 
Q 20.953125 3.328125 18.109375 8.203125 
z
M 48.6875 27.296875 
Q 48.6875 37.203125 44.609375 42.84375 
Q 40.53125 48.484375 33.40625 48.484375 
Q 26.265625 48.484375 22.1875 42.84375 
Q 18.109375 37.203125 18.109375 27.296875 
Q 18.109375 17.390625 22.1875 11.75 
Q 26.265625 6.109375 33.40625 6.109375 
Q 40.53125 6.109375 44.609375 11.75 
Q 48.6875 17.390625 48.6875 27.296875 
z
" id="DejaVuSans-112"/>
       <path d="M 41.109375 46.296875 
Q 39.59375 47.171875 37.8125 47.578125 
Q 36.03125 48 33.890625 48 
Q 26.265625 48 22.1875 43.046875 
Q 18.109375 38.09375 18.109375 28.8125 
L 18.109375 0 
L 9.078125 0 
L 9.078125 54.6875 
L 18.109375 54.6875 
L 18.109375 46.1875 
Q 20.953125 51.171875 25.484375 53.578125 
Q 30.03125 56 36.53125 56 
Q 37.453125 56 38.578125 55.875 
Q 39.703125 55.765625 41.0625 55.515625 
z
" id="DejaVuSans-114"/>
       <path d="M 56.203125 29.59375 
L 56.203125 25.203125 
L 14.890625 25.203125 
Q 15.484375 15.921875 20.484375 11.0625 
Q 25.484375 6.203125 34.421875 6.203125 
Q 39.59375 6.203125 44.453125 7.46875 
Q 49.3125 8.734375 54.109375 11.28125 
L 54.109375 2.78125 
Q 49.265625 0.734375 44.1875 -0.34375 
Q 39.109375 -1.421875 33.890625 -1.421875 
Q 20.796875 -1.421875 13.15625 6.1875 
Q 5.515625 13.8125 5.515625 26.8125 
Q 5.515625 40.234375 12.765625 48.109375 
Q 20.015625 56 32.328125 56 
Q 43.359375 56 49.78125 48.890625 
Q 56.203125 41.796875 56.203125 29.59375 
z
M 47.21875 32.234375 
Q 47.125 39.59375 43.09375 43.984375 
Q 39.0625 48.390625 32.421875 48.390625 
Q 24.90625 48.390625 20.390625 44.140625 
Q 15.875 39.890625 15.1875 32.171875 
z
" id="DejaVuSans-101"/>
       <path d="M 30.609375 48.390625 
Q 23.390625 48.390625 19.1875 42.75 
Q 14.984375 37.109375 14.984375 27.296875 
Q 14.984375 17.484375 19.15625 11.84375 
Q 23.34375 6.203125 30.609375 6.203125 
Q 37.796875 6.203125 41.984375 11.859375 
Q 46.1875 17.53125 46.1875 27.296875 
Q 46.1875 37.015625 41.984375 42.703125 
Q 37.796875 48.390625 30.609375 48.390625 
z
M 30.609375 56 
Q 42.328125 56 49.015625 48.375 
Q 55.71875 40.765625 55.71875 27.296875 
Q 55.71875 13.875 49.015625 6.21875 
Q 42.328125 -1.421875 30.609375 -1.421875 
Q 18.84375 -1.421875 12.171875 6.21875 
Q 5.515625 13.875 5.515625 27.296875 
Q 5.515625 40.765625 12.171875 48.375 
Q 18.84375 56 30.609375 56 
z
" id="DejaVuSans-111"/>
      </defs>
      <g transform="translate(25.865625 113.646157)scale(0.1 -0.1)">
       <use xlink:href="#DejaVuSans-112"/>
       <use x="63.476562" xlink:href="#DejaVuSans-114"/>
       <use x="104.558594" xlink:href="#DejaVuSans-101"/>
       <use x="166.082031" xlink:href="#DejaVuSans-111"/>
       <use x="227.263672" xlink:href="#DejaVuSans-112"/>
      </g>
     </g>
    </g>
    <g id="ytick_2">
     <g id="line2d_10">
      <g>
       <use style="stroke:#000000;stroke-width:0.8;" x="61.942188" xlink:href="#m8d10f96982" y="232.694396"/>
      </g>
     </g>
     <g id="text_11">
      <!-- postop -->
      <defs>
       <path d="M 44.28125 53.078125 
L 44.28125 44.578125 
Q 40.484375 46.53125 36.375 47.5 
Q 32.28125 48.484375 27.875 48.484375 
Q 21.1875 48.484375 17.84375 46.4375 
Q 14.5 44.390625 14.5 40.28125 
Q 14.5 37.15625 16.890625 35.375 
Q 19.28125 33.59375 26.515625 31.984375 
L 29.59375 31.296875 
Q 39.15625 29.25 43.1875 25.515625 
Q 47.21875 21.78125 47.21875 15.09375 
Q 47.21875 7.46875 41.1875 3.015625 
Q 35.15625 -1.421875 24.609375 -1.421875 
Q 20.21875 -1.421875 15.453125 -0.5625 
Q 10.6875 0.296875 5.421875 2 
L 5.421875 11.28125 
Q 10.40625 8.6875 15.234375 7.390625 
Q 20.0625 6.109375 24.8125 6.109375 
Q 31.15625 6.109375 34.5625 8.28125 
Q 37.984375 10.453125 37.984375 14.40625 
Q 37.984375 18.0625 35.515625 20.015625 
Q 33.0625 21.96875 24.703125 23.78125 
L 21.578125 24.515625 
Q 13.234375 26.265625 9.515625 29.90625 
Q 5.8125 33.546875 5.8125 39.890625 
Q 5.8125 47.609375 11.28125 51.796875 
Q 16.75 56 26.8125 56 
Q 31.78125 56 36.171875 55.265625 
Q 40.578125 54.546875 44.28125 53.078125 
z
" id="DejaVuSans-115"/>
       <path d="M 18.3125 70.21875 
L 18.3125 54.6875 
L 36.8125 54.6875 
L 36.8125 47.703125 
L 18.3125 47.703125 
L 18.3125 18.015625 
Q 18.3125 11.328125 20.140625 9.421875 
Q 21.96875 7.515625 27.59375 7.515625 
L 36.8125 7.515625 
L 36.8125 0 
L 27.59375 0 
Q 17.1875 0 13.234375 3.875 
Q 9.28125 7.765625 9.28125 18.015625 
L 9.28125 47.703125 
L 2.6875 47.703125 
L 2.6875 54.6875 
L 9.28125 54.6875 
L 9.28125 70.21875 
z
" id="DejaVuSans-116"/>
      </defs>
      <g transform="translate(20.878125 236.493615)scale(0.1 -0.1)">
       <use xlink:href="#DejaVuSans-112"/>
       <use x="63.476562" xlink:href="#DejaVuSans-111"/>
       <use x="124.658203" xlink:href="#DejaVuSans-115"/>
       <use x="176.757812" xlink:href="#DejaVuSans-116"/>
       <use x="215.966797" xlink:href="#DejaVuSans-111"/>
       <use x="277.148438" xlink:href="#DejaVuSans-112"/>
      </g>
     </g>
    </g>
    <g id="text_12">
     <!-- timepoint -->
     <defs>
      <path d="M 9.421875 54.6875 
L 18.40625 54.6875 
L 18.40625 0 
L 9.421875 0 
z
M 9.421875 75.984375 
L 18.40625 75.984375 
L 18.40625 64.59375 
L 9.421875 64.59375 
z
" id="DejaVuSans-105"/>
      <path d="M 52 44.1875 
Q 55.375 50.25 60.0625 53.125 
Q 64.75 56 71.09375 56 
Q 79.640625 56 84.28125 50.015625 
Q 88.921875 44.046875 88.921875 33.015625 
L 88.921875 0 
L 79.890625 0 
L 79.890625 32.71875 
Q 79.890625 40.578125 77.09375 44.375 
Q 74.3125 48.1875 68.609375 48.1875 
Q 61.625 48.1875 57.5625 43.546875 
Q 53.515625 38.921875 53.515625 30.90625 
L 53.515625 0 
L 44.484375 0 
L 44.484375 32.71875 
Q 44.484375 40.625 41.703125 44.40625 
Q 38.921875 48.1875 33.109375 48.1875 
Q 26.21875 48.1875 22.15625 43.53125 
Q 18.109375 38.875 18.109375 30.90625 
L 18.109375 0 
L 9.078125 0 
L 9.078125 54.6875 
L 18.109375 54.6875 
L 18.109375 46.1875 
Q 21.1875 51.21875 25.484375 53.609375 
Q 29.78125 56 35.6875 56 
Q 41.65625 56 45.828125 52.96875 
Q 50 49.953125 52 44.1875 
z
" id="DejaVuSans-109"/>
      <path d="M 54.890625 33.015625 
L 54.890625 0 
L 45.90625 0 
L 45.90625 32.71875 
Q 45.90625 40.484375 42.875 44.328125 
Q 39.84375 48.1875 33.796875 48.1875 
Q 26.515625 48.1875 22.3125 43.546875 
Q 18.109375 38.921875 18.109375 30.90625 
L 18.109375 0 
L 9.078125 0 
L 9.078125 54.6875 
L 18.109375 54.6875 
L 18.109375 46.1875 
Q 21.34375 51.125 25.703125 53.5625 
Q 30.078125 56 35.796875 56 
Q 45.21875 56 50.046875 50.171875 
Q 54.890625 44.34375 54.890625 33.015625 
z
" id="DejaVuSans-110"/>
     </defs>
     <g transform="translate(14.798438 182.265781)rotate(-90)scale(0.1 -0.1)">
      <use xlink:href="#DejaVuSans-116"/>
      <use x="39.208984" xlink:href="#DejaVuSans-105"/>
      <use x="66.992188" xlink:href="#DejaVuSans-109"/>
      <use x="164.404297" xlink:href="#DejaVuSans-101"/>
      <use x="225.927734" xlink:href="#DejaVuSans-112"/>
      <use x="289.404297" xlink:href="#DejaVuSans-111"/>
      <use x="350.585938" xlink:href="#DejaVuSans-105"/>
      <use x="378.369141" xlink:href="#DejaVuSans-110"/>
      <use x="441.748047" xlink:href="#DejaVuSans-116"/>
     </g>
    </g>
   </g>
   <g id="line2d_11">
    <path clip-path="url(#p8c264e7457)" d="M 264.961261 105.240159 
L 264.961261 114.453718 
" style="fill:none;stroke:#595959;stroke-linecap:square;stroke-width:1.5;"/>
   </g>
   <g id="line2d_12">
    <path clip-path="url(#p8c264e7457)" d="M 574.766359 105.240159 
L 574.766359 114.453718 
" style="fill:none;stroke:#595959;stroke-linecap:square;stroke-width:1.5;"/>
   </g>
   <g id="line2d_13">
    <defs>
     <path d="M -0 3.535534 
L 2.12132 0 
L -0 -3.535534 
L -2.12132 -0 
z
" id="m0c2e0e829c" style="stroke:#595959;stroke-linejoin:miter;"/>
    </defs>
    <g clip-path="url(#p8c264e7457)">
     <use style="fill:#595959;stroke:#595959;stroke-linejoin:miter;" x="209.473781" xlink:href="#m0c2e0e829c" y="109.846939"/>
     <use style="fill:#595959;stroke:#595959;stroke-linejoin:miter;" x="607.134055" xlink:href="#m0c2e0e829c" y="109.846939"/>
     <use style="fill:#595959;stroke:#595959;stroke-linejoin:miter;" x="699.613189" xlink:href="#m0c2e0e829c" y="109.846939"/>
    </g>
   </g>
   <g id="line2d_14">
    <path clip-path="url(#p8c264e7457)" d="M 93.874864 228.087617 
L 93.874864 237.301176 
" style="fill:none;stroke:#595959;stroke-linecap:square;stroke-width:1.5;"/>
   </g>
   <g id="line2d_15">
    <path clip-path="url(#p8c264e7457)" d="M 473.039312 228.087617 
L 473.039312 237.301176 
" style="fill:none;stroke:#595959;stroke-linecap:square;stroke-width:1.5;"/>
   </g>
   <g id="line2d_16"/>
   <g id="line2d_17">
    <path clip-path="url(#p8c264e7457)" d="M 433.557835 109.846939 
L 310.892564 232.694396 
" style="fill:none;stroke:#ff0000;stroke-linecap:square;stroke-width:2.7;"/>
   </g>
   <g id="line2d_18">
    <path clip-path="url(#p8c264e7457)" d="M 396.730688 109.846939 
L 470.024848 109.846939 
" style="fill:none;"/>
   </g>
   <g id="line2d_19">
    <path clip-path="url(#p8c264e7457)" d="M 396.730688 109.846939 
L 396.730688 109.846939 
" style="fill:none;"/>
   </g>
   <g id="line2d_20">
    <path clip-path="url(#p8c264e7457)" d="M 470.024848 109.846939 
L 470.024848 109.846939 
" style="fill:none;"/>
   </g>
   <g id="line2d_21">
    <path clip-path="url(#p8c264e7457)" d="M 253.239531 232.694396 
L 363.305113 232.694396 
" style="fill:none;"/>
   </g>
   <g id="line2d_22">
    <path clip-path="url(#p8c264e7457)" d="M 253.239531 232.694396 
L 253.239531 232.694396 
" style="fill:none;"/>
   </g>
   <g id="line2d_23">
    <path clip-path="url(#p8c264e7457)" d="M 363.305113 232.694396 
L 363.305113 232.694396 
" style="fill:none;"/>
   </g>
   <g id="line2d_24">
    <path clip-path="url(#p8c264e7457)" d="M 447.60755 100.633379 
L 447.60755 119.060498 
" style="fill:none;stroke:#595959;stroke-linecap:square;stroke-width:1.5;"/>
   </g>
   <g id="line2d_25">
    <path clip-path="url(#p8c264e7457)" d="M 301.952915 223.480837 
L 301.952915 241.907956 
" style="fill:none;stroke:#595959;stroke-linecap:square;stroke-width:1.5;"/>
   </g>
   <g id="patch_3">
    <path d="M 61.942188 294.118125 
L 61.942188 22.318125 
" style="fill:none;stroke:#000000;stroke-linecap:square;stroke-linejoin:miter;stroke-width:0.8;"/>
   </g>
   <g id="patch_4">
    <path d="M 731.542188 294.118125 
L 731.542188 22.318125 
" style="fill:none;stroke:#000000;stroke-linecap:square;stroke-linejoin:miter;stroke-width:0.8;"/>
   </g>
   <g id="patch_5">
    <path d="M 61.942188 294.118125 
L 731.542188 294.118125 
" style="fill:none;stroke:#000000;stroke-linecap:square;stroke-linejoin:miter;stroke-width:0.8;"/>
   </g>
   <g id="patch_6">
    <path d="M 61.942188 22.318125 
L 731.542188 22.318125 
" style="fill:none;stroke:#000000;stroke-linecap:square;stroke-linejoin:miter;stroke-width:0.8;"/>
   </g>
   <g id="text_13">
    <!-- PDQ39 pre &amp; post-op -->
    <defs>
     <path id="DejaVuSans-32"/>
     <path d="M 24.3125 39.203125 
Q 19.875 35.25 17.796875 31.3125 
Q 15.71875 27.390625 15.71875 23.09375 
Q 15.71875 15.96875 20.890625 11.234375 
Q 26.078125 6.5 33.890625 6.5 
Q 38.53125 6.5 42.578125 8.03125 
Q 46.625 9.578125 50.203125 12.703125 
z
M 31.203125 44.671875 
L 56 19.28125 
Q 58.890625 23.640625 60.5 28.59375 
Q 62.109375 33.546875 62.40625 39.109375 
L 71.484375 39.109375 
Q 70.90625 32.671875 68.359375 26.359375 
Q 65.828125 20.0625 61.28125 13.921875 
L 74.90625 0 
L 62.59375 0 
L 55.609375 7.171875 
Q 50.53125 2.828125 44.96875 0.703125 
Q 39.40625 -1.421875 33.015625 -1.421875 
Q 21.234375 -1.421875 13.765625 5.296875 
Q 6.296875 12.015625 6.296875 22.515625 
Q 6.296875 28.765625 9.5625 34.25 
Q 12.84375 39.75 19.390625 44.578125 
Q 17.046875 47.65625 15.8125 50.703125 
Q 14.59375 53.765625 14.59375 56.6875 
Q 14.59375 64.59375 20.015625 69.40625 
Q 25.4375 74.21875 34.421875 74.21875 
Q 38.484375 74.21875 42.5 73.34375 
Q 46.53125 72.46875 50.6875 70.703125 
L 50.6875 61.8125 
Q 46.4375 64.109375 42.578125 65.296875 
Q 38.71875 66.5 35.40625 66.5 
Q 30.28125 66.5 27.078125 63.78125 
Q 23.875 61.078125 23.875 56.78125 
Q 23.875 54.296875 25.3125 51.78125 
Q 26.765625 49.265625 31.203125 44.671875 
z
" id="DejaVuSans-38"/>
     <path d="M 4.890625 31.390625 
L 31.203125 31.390625 
L 31.203125 23.390625 
L 4.890625 23.390625 
z
" id="DejaVuSans-45"/>
    </defs>
    <g transform="translate(333.176875 16.318125)scale(0.12 -0.12)">
     <use xlink:href="#DejaVuSans-80"/>
     <use x="60.302734" xlink:href="#DejaVuSans-68"/>
     <use x="137.304688" xlink:href="#DejaVuSans-81"/>
     <use x="216.015625" xlink:href="#DejaVuSans-51"/>
     <use x="279.638672" xlink:href="#DejaVuSans-57"/>
     <use x="343.261719" xlink:href="#DejaVuSans-32"/>
     <use x="375.048828" xlink:href="#DejaVuSans-112"/>
     <use x="438.525391" xlink:href="#DejaVuSans-114"/>
     <use x="479.607422" xlink:href="#DejaVuSans-101"/>
     <use x="541.130859" xlink:href="#DejaVuSans-32"/>
     <use x="572.917969" xlink:href="#DejaVuSans-38"/>
     <use x="650.896484" xlink:href="#DejaVuSans-32"/>
     <use x="682.683594" xlink:href="#DejaVuSans-112"/>
     <use x="746.160156" xlink:href="#DejaVuSans-111"/>
     <use x="807.341797" xlink:href="#DejaVuSans-115"/>
     <use x="859.441406" xlink:href="#DejaVuSans-116"/>
     <use x="898.650391" xlink:href="#DejaVuSans-45"/>
     <use x="934.75" xlink:href="#DejaVuSans-111"/>
     <use x="995.931641" xlink:href="#DejaVuSans-112"/>
    </g>
   </g>
   <g id="line2d_26">
    <path clip-path="url(#p8c264e7457)" d="M 377.092211 109.846939 
L 264.961261 109.846939 
" style="fill:none;stroke:#595959;stroke-linecap:square;stroke-width:2;"/>
   </g>
   <g id="line2d_27">
    <path clip-path="url(#p8c264e7457)" d="M 468.415355 109.846939 
L 574.766359 109.846939 
" style="fill:none;stroke:#595959;stroke-linecap:square;stroke-width:2;"/>
   </g>
   <g id="line2d_28">
    <path clip-path="url(#p8c264e7457)" d="M 255.713348 232.694396 
L 93.874864 232.694396 
" style="fill:none;stroke:#595959;stroke-linecap:square;stroke-width:2;"/>
   </g>
   <g id="line2d_29">
    <path clip-path="url(#p8c264e7457)" d="M 396.744027 232.694396 
L 473.039312 232.694396 
" style="fill:none;stroke:#595959;stroke-linecap:square;stroke-width:2;"/>
   </g>
   <g id="patch_7">
    <path clip-path="url(#p8c264e7457)" d="M 377.092211 100.633379 
L 377.092211 119.060498 
L 468.415355 119.060498 
L 468.415355 100.633379 
L 377.092211 100.633379 
z
" style="fill:none;opacity:0.65;stroke:#595959;stroke-linejoin:miter;stroke-width:1.5;"/>
   </g>
   <g id="patch_8">
    <path clip-path="url(#p8c264e7457)" d="M 255.713348 223.480837 
L 255.713348 241.907956 
L 396.744027 241.907956 
L 396.744027 223.480837 
L 255.713348 223.480837 
z
" style="fill:none;opacity:0.65;stroke:#595959;stroke-linejoin:miter;stroke-width:1.5;"/>
   </g>
  </g>
 </g>
 <defs>
  <clipPath id="p8c264e7457">
   <rect height="271.8" width="669.6" x="61.942188" y="22.318125"/>
  </clipPath>
 </defs>
</svg>
