<?xml version="1.0" encoding="utf-8" standalone="no"?>
<!DOCTYPE svg PUBLIC "-//W3C//DTD SVG 1.1//EN"
  "http://www.w3.org/Graphics/SVG/1.1/DTD/svg11.dtd">
<!-- Created with matplotlib (https://matplotlib.org/) -->
<svg height="315.819687pt" version="1.1" viewBox="0 0 684 315.819687" width="684pt" xmlns="http://www.w3.org/2000/svg" xmlns:xlink="http://www.w3.org/1999/xlink">
 <defs>
  <style type="text/css">
*{stroke-linecap:butt;stroke-linejoin:round;}
  </style>
 </defs>
 <g id="figure_1">
  <g id="patch_1">
   <path d="M 0 315.819687 
L 684 315.819687 
L 684 0 
L 0 0 
z
" style="fill:#ffffff;"/>
  </g>
  <g id="axes_1">
   <g id="patch_2">
    <path d="M 7.2 279 
L 676.8 279 
L 676.8 7.2 
L 7.2 7.2 
z
" style="fill:#ffffff;"/>
   </g>
   <g id="PathCollection_1">
    <defs>
     <path d="M 0 1.5 
C 0.397805 1.5 0.77937 1.341951 1.06066 1.06066 
C 1.341951 0.77937 1.5 0.397805 1.5 0 
C 1.5 -0.397805 1.341951 -0.77937 1.06066 -1.06066 
C 0.77937 -1.341951 0.397805 -1.5 0 -1.5 
C -0.397805 -1.5 -0.77937 -1.341951 -1.06066 -1.06066 
C -1.341951 -0.77937 -1.5 -0.397805 -1.5 0 
C -1.5 0.397805 -1.341951 0.77937 -1.06066 1.06066 
C -0.77937 1.341951 -0.397805 1.5 0 1.5 
z
" id="C0_0_102aeed54a"/>
    </defs>
    <g clip-path="url(#pba86e3217c)">
     <use style="fill:#66c2a5;" x="644.871011" xlink:href="#C0_0_102aeed54a" y="113.551442"/>
    </g>
    <g clip-path="url(#pba86e3217c)">
     <use style="fill:#66c2a5;" x="379.862095" xlink:href="#C0_0_102aeed54a" y="108.532495"/>
    </g>
    <g clip-path="url(#pba86e3217c)">
     <use style="fill:#66c2a5;" x="114.853179" xlink:href="#C0_0_102aeed54a" y="122.695629"/>
    </g>
    <g clip-path="url(#pba86e3217c)">
     <use style="fill:#66c2a5;" x="342.003678" xlink:href="#C0_0_102aeed54a" y="125.471503"/>
    </g>
    <g clip-path="url(#pba86e3217c)">
     <use style="fill:#66c2a5;" x="39.136346" xlink:href="#C0_0_102aeed54a" y="122.880339"/>
    </g>
    <g clip-path="url(#pba86e3217c)">
     <use style="fill:#66c2a5;" x="304.145261" xlink:href="#C0_0_102aeed54a" y="125.326188"/>
    </g>
    <g clip-path="url(#pba86e3217c)">
     <use style="fill:#66c2a5;" x="531.295761" xlink:href="#C0_0_102aeed54a" y="130.968956"/>
    </g>
    <g clip-path="url(#pba86e3217c)">
     <use style="fill:#66c2a5;" x="607.012594" xlink:href="#C0_0_102aeed54a" y="125.976592"/>
    </g>
    <g clip-path="url(#pba86e3217c)">
     <use style="fill:#66c2a5;" x="455.578928" xlink:href="#C0_0_102aeed54a" y="117.064672"/>
    </g>
    <g clip-path="url(#pba86e3217c)">
     <use style="fill:#66c2a5;" x="493.437344" xlink:href="#C0_0_102aeed54a" y="110.342331"/>
    </g>
    <g clip-path="url(#pba86e3217c)">
     <use style="fill:#66c2a5;" x="342.003678" xlink:href="#C0_0_102aeed54a" y="126.085535"/>
    </g>
    <g clip-path="url(#pba86e3217c)">
     <use style="fill:#66c2a5;" x="455.578928" xlink:href="#C0_0_102aeed54a" y="125.409265"/>
    </g>
    <g clip-path="url(#pba86e3217c)">
     <use style="fill:#66c2a5;" x="417.720511" xlink:href="#C0_0_102aeed54a" y="115.88641"/>
    </g>
    <g clip-path="url(#pba86e3217c)">
     <use style="fill:#66c2a5;" x="114.853179" xlink:href="#C0_0_102aeed54a" y="110.9685"/>
    </g>
    <g clip-path="url(#pba86e3217c)">
     <use style="fill:#66c2a5;" x="455.578928" xlink:href="#C0_0_102aeed54a" y="129.251318"/>
    </g>
    <g clip-path="url(#pba86e3217c)">
     <use style="fill:#66c2a5;" x="304.145261" xlink:href="#C0_0_102aeed54a" y="126.56848"/>
    </g>
    <g clip-path="url(#pba86e3217c)">
     <use style="fill:#66c2a5;" x="607.012594" xlink:href="#C0_0_102aeed54a" y="129.02499"/>
    </g>
    <g clip-path="url(#pba86e3217c)">
     <use style="fill:#66c2a5;" x="379.862095" xlink:href="#C0_0_102aeed54a" y="123.353852"/>
    </g>
    <g clip-path="url(#pba86e3217c)">
     <use style="fill:#66c2a5;" x="190.570012" xlink:href="#C0_0_102aeed54a" y="120.889171"/>
    </g>
    <g clip-path="url(#pba86e3217c)">
     <use style="fill:#66c2a5;" x="266.286845" xlink:href="#C0_0_102aeed54a" y="107.350287"/>
    </g>
    <g clip-path="url(#pba86e3217c)">
     <use style="fill:#66c2a5;" x="228.428428" xlink:href="#C0_0_102aeed54a" y="122.139978"/>
    </g>
    <g clip-path="url(#pba86e3217c)">
     <use style="fill:#66c2a5;" x="342.003678" xlink:href="#C0_0_102aeed54a" y="111.179877"/>
    </g>
    <g clip-path="url(#pba86e3217c)">
     <use style="fill:#66c2a5;" x="455.578928" xlink:href="#C0_0_102aeed54a" y="124.810216"/>
    </g>
    <g clip-path="url(#pba86e3217c)">
     <use style="fill:#66c2a5;" x="493.437344" xlink:href="#C0_0_102aeed54a" y="123.124817"/>
    </g>
    <g clip-path="url(#pba86e3217c)">
     <use style="fill:#66c2a5;" x="114.853179" xlink:href="#C0_0_102aeed54a" y="116.806589"/>
    </g>
   </g>
   <g id="PathCollection_2">
    <defs>
     <path d="M 0 1.5 
C 0.397805 1.5 0.77937 1.341951 1.06066 1.06066 
C 1.341951 0.77937 1.5 0.397805 1.5 0 
C 1.5 -0.397805 1.341951 -0.77937 1.06066 -1.06066 
C 0.77937 -1.341951 0.397805 -1.5 0 -1.5 
C -0.397805 -1.5 -0.77937 -1.341951 -1.06066 -1.06066 
C -1.341951 -0.77937 -1.5 -0.397805 -1.5 0 
C -1.5 0.397805 -1.341951 0.77937 -1.06066 1.06066 
C -0.77937 1.341951 -0.397805 1.5 0 1.5 
z
" id="C1_0_2bab05342e"/>
    </defs>
    <g clip-path="url(#pba86e3217c)">
     <use style="fill:#fc8d62;" x="114.853179" xlink:href="#C1_0_2bab05342e" y="248.515134"/>
    </g>
    <g clip-path="url(#pba86e3217c)">
     <use style="fill:#fc8d62;" x="39.136346" xlink:href="#C1_0_2bab05342e" y="245.714733"/>
    </g>
    <g clip-path="url(#pba86e3217c)">
     <use style="fill:#fc8d62;" x="114.853179" xlink:href="#C1_0_2bab05342e" y="239.608749"/>
    </g>
    <g clip-path="url(#pba86e3217c)">
     <use style="fill:#fc8d62;" x="76.994762" xlink:href="#C1_0_2bab05342e" y="254.276842"/>
    </g>
    <g clip-path="url(#pba86e3217c)">
     <use style="fill:#fc8d62;" x="39.136346" xlink:href="#C1_0_2bab05342e" y="250.347089"/>
    </g>
    <g clip-path="url(#pba86e3217c)">
     <use style="fill:#fc8d62;" x="190.570012" xlink:href="#C1_0_2bab05342e" y="252.837046"/>
    </g>
    <g clip-path="url(#pba86e3217c)">
     <use style="fill:#fc8d62;" x="190.570012" xlink:href="#C1_0_2bab05342e" y="238.195916"/>
    </g>
    <g clip-path="url(#pba86e3217c)">
     <use style="fill:#fc8d62;" x="190.570012" xlink:href="#C1_0_2bab05342e" y="248.4251"/>
    </g>
    <g clip-path="url(#pba86e3217c)">
     <use style="fill:#fc8d62;" x="39.136346" xlink:href="#C1_0_2bab05342e" y="233.530294"/>
    </g>
    <g clip-path="url(#pba86e3217c)">
     <use style="fill:#fc8d62;" x="76.994762" xlink:href="#C1_0_2bab05342e" y="251.395714"/>
    </g>
    <g clip-path="url(#pba86e3217c)">
     <use style="fill:#fc8d62;" x="76.994762" xlink:href="#C1_0_2bab05342e" y="233.820722"/>
    </g>
    <g clip-path="url(#pba86e3217c)">
     <use style="fill:#fc8d62;" x="76.994762" xlink:href="#C1_0_2bab05342e" y="239.107877"/>
    </g>
    <g clip-path="url(#pba86e3217c)">
     <use style="fill:#fc8d62;" x="76.994762" xlink:href="#C1_0_2bab05342e" y="244.841957"/>
    </g>
    <g clip-path="url(#pba86e3217c)">
     <use style="fill:#fc8d62;" x="76.994762" xlink:href="#C1_0_2bab05342e" y="232.303057"/>
    </g>
    <g clip-path="url(#pba86e3217c)">
     <use style="fill:#fc8d62;" x="152.711595" xlink:href="#C1_0_2bab05342e" y="237.876358"/>
    </g>
    <g clip-path="url(#pba86e3217c)">
     <use style="fill:#fc8d62;" x="152.711595" xlink:href="#C1_0_2bab05342e" y="230.081856"/>
    </g>
   </g>
   <g id="matplotlib.axis_1">
    <g id="xtick_1">
     <g id="line2d_1">
      <path clip-path="url(#pba86e3217c)" d="M 39.136346 279 
L 39.136346 7.2 
" style="fill:none;stroke:#cccccc;stroke-linecap:round;"/>
     </g>
     <g id="text_1">
      <!-- 0 -->
      <defs>
       <path d="M 4.15625 35.296875 
Q 4.15625 48 6.765625 55.734375 
Q 9.375 63.484375 14.515625 67.671875 
Q 19.671875 71.875 27.484375 71.875 
Q 33.25 71.875 37.59375 69.546875 
Q 41.9375 67.234375 44.765625 62.859375 
Q 47.609375 58.5 49.21875 52.21875 
Q 50.828125 45.953125 50.828125 35.296875 
Q 50.828125 22.703125 48.234375 14.96875 
Q 45.65625 7.234375 40.5 3 
Q 35.359375 -1.21875 27.484375 -1.21875 
Q 17.140625 -1.21875 11.234375 6.203125 
Q 4.15625 15.140625 4.15625 35.296875 
z
M 13.1875 35.296875 
Q 13.1875 17.671875 17.3125 11.828125 
Q 21.4375 6 27.484375 6 
Q 33.546875 6 37.671875 11.859375 
Q 41.796875 17.71875 41.796875 35.296875 
Q 41.796875 52.984375 37.671875 58.78125 
Q 33.546875 64.59375 27.390625 64.59375 
Q 21.34375 64.59375 17.71875 59.46875 
Q 13.1875 52.9375 13.1875 35.296875 
z
" id="ArialMT-48"/>
      </defs>
      <g style="fill:#262626;" transform="translate(33.019314 304.247187)scale(0.22 -0.22)">
       <use xlink:href="#ArialMT-48"/>
      </g>
     </g>
    </g>
    <g id="xtick_2">
     <g id="line2d_2">
      <path clip-path="url(#pba86e3217c)" d="M 114.853179 279 
L 114.853179 7.2 
" style="fill:none;stroke:#cccccc;stroke-linecap:round;"/>
     </g>
     <g id="text_2">
      <!-- 2 -->
      <defs>
       <path d="M 50.34375 8.453125 
L 50.34375 0 
L 3.03125 0 
Q 2.9375 3.171875 4.046875 6.109375 
Q 5.859375 10.9375 9.828125 15.625 
Q 13.8125 20.3125 21.34375 26.46875 
Q 33.015625 36.03125 37.109375 41.625 
Q 41.21875 47.21875 41.21875 52.203125 
Q 41.21875 57.421875 37.46875 61 
Q 33.734375 64.59375 27.734375 64.59375 
Q 21.390625 64.59375 17.578125 60.78125 
Q 13.765625 56.984375 13.71875 50.25 
L 4.6875 51.171875 
Q 5.609375 61.28125 11.65625 66.578125 
Q 17.71875 71.875 27.9375 71.875 
Q 38.234375 71.875 44.234375 66.15625 
Q 50.25 60.453125 50.25 52 
Q 50.25 47.703125 48.484375 43.546875 
Q 46.734375 39.40625 42.65625 34.8125 
Q 38.578125 30.21875 29.109375 22.21875 
Q 21.1875 15.578125 18.9375 13.203125 
Q 16.703125 10.84375 15.234375 8.453125 
z
" id="ArialMT-50"/>
      </defs>
      <g style="fill:#262626;" transform="translate(108.736147 304.247187)scale(0.22 -0.22)">
       <use xlink:href="#ArialMT-50"/>
      </g>
     </g>
    </g>
    <g id="xtick_3">
     <g id="line2d_3">
      <path clip-path="url(#pba86e3217c)" d="M 190.570012 279 
L 190.570012 7.2 
" style="fill:none;stroke:#cccccc;stroke-linecap:round;"/>
     </g>
     <g id="text_3">
      <!-- 4 -->
      <defs>
       <path d="M 32.328125 0 
L 32.328125 17.140625 
L 1.265625 17.140625 
L 1.265625 25.203125 
L 33.9375 71.578125 
L 41.109375 71.578125 
L 41.109375 25.203125 
L 50.78125 25.203125 
L 50.78125 17.140625 
L 41.109375 17.140625 
L 41.109375 0 
z
M 32.328125 25.203125 
L 32.328125 57.46875 
L 9.90625 25.203125 
z
" id="ArialMT-52"/>
      </defs>
      <g style="fill:#262626;" transform="translate(184.452981 304.247187)scale(0.22 -0.22)">
       <use xlink:href="#ArialMT-52"/>
      </g>
     </g>
    </g>
    <g id="xtick_4">
     <g id="line2d_4">
      <path clip-path="url(#pba86e3217c)" d="M 266.286845 279 
L 266.286845 7.2 
" style="fill:none;stroke:#cccccc;stroke-linecap:round;"/>
     </g>
     <g id="text_4">
      <!-- 6 -->
      <defs>
       <path d="M 49.75 54.046875 
L 41.015625 53.375 
Q 39.84375 58.546875 37.703125 60.890625 
Q 34.125 64.65625 28.90625 64.65625 
Q 24.703125 64.65625 21.53125 62.3125 
Q 17.390625 59.28125 14.984375 53.46875 
Q 12.59375 47.65625 12.5 36.921875 
Q 15.671875 41.75 20.265625 44.09375 
Q 24.859375 46.4375 29.890625 46.4375 
Q 38.671875 46.4375 44.84375 39.96875 
Q 51.03125 33.5 51.03125 23.25 
Q 51.03125 16.5 48.125 10.71875 
Q 45.21875 4.9375 40.140625 1.859375 
Q 35.0625 -1.21875 28.609375 -1.21875 
Q 17.625 -1.21875 10.6875 6.859375 
Q 3.765625 14.9375 3.765625 33.5 
Q 3.765625 54.25 11.421875 63.671875 
Q 18.109375 71.875 29.4375 71.875 
Q 37.890625 71.875 43.28125 67.140625 
Q 48.6875 62.40625 49.75 54.046875 
z
M 13.875 23.1875 
Q 13.875 18.65625 15.796875 14.5 
Q 17.71875 10.359375 21.1875 8.171875 
Q 24.65625 6 28.46875 6 
Q 34.03125 6 38.03125 10.484375 
Q 42.046875 14.984375 42.046875 22.703125 
Q 42.046875 30.125 38.078125 34.390625 
Q 34.125 38.671875 28.125 38.671875 
Q 22.171875 38.671875 18.015625 34.390625 
Q 13.875 30.125 13.875 23.1875 
z
" id="ArialMT-54"/>
      </defs>
      <g style="fill:#262626;" transform="translate(260.169814 304.247187)scale(0.22 -0.22)">
       <use xlink:href="#ArialMT-54"/>
      </g>
     </g>
    </g>
    <g id="xtick_5">
     <g id="line2d_5">
      <path clip-path="url(#pba86e3217c)" d="M 342.003678 279 
L 342.003678 7.2 
" style="fill:none;stroke:#cccccc;stroke-linecap:round;"/>
     </g>
     <g id="text_5">
      <!-- 8 -->
      <defs>
       <path d="M 17.671875 38.8125 
Q 12.203125 40.828125 9.5625 44.53125 
Q 6.9375 48.25 6.9375 53.421875 
Q 6.9375 61.234375 12.546875 66.546875 
Q 18.171875 71.875 27.484375 71.875 
Q 36.859375 71.875 42.578125 66.421875 
Q 48.296875 60.984375 48.296875 53.171875 
Q 48.296875 48.1875 45.671875 44.5 
Q 43.0625 40.828125 37.75 38.8125 
Q 44.34375 36.671875 47.78125 31.875 
Q 51.21875 27.09375 51.21875 20.453125 
Q 51.21875 11.28125 44.71875 5.03125 
Q 38.234375 -1.21875 27.640625 -1.21875 
Q 17.046875 -1.21875 10.546875 5.046875 
Q 4.046875 11.328125 4.046875 20.703125 
Q 4.046875 27.6875 7.59375 32.390625 
Q 11.140625 37.109375 17.671875 38.8125 
z
M 15.921875 53.71875 
Q 15.921875 48.640625 19.1875 45.40625 
Q 22.46875 42.1875 27.6875 42.1875 
Q 32.765625 42.1875 36.015625 45.375 
Q 39.265625 48.578125 39.265625 53.21875 
Q 39.265625 58.0625 35.90625 61.359375 
Q 32.5625 64.65625 27.59375 64.65625 
Q 22.5625 64.65625 19.234375 61.421875 
Q 15.921875 58.203125 15.921875 53.71875 
z
M 13.09375 20.65625 
Q 13.09375 16.890625 14.875 13.375 
Q 16.65625 9.859375 20.171875 7.921875 
Q 23.6875 6 27.734375 6 
Q 34.03125 6 38.125 10.046875 
Q 42.234375 14.109375 42.234375 20.359375 
Q 42.234375 26.703125 38.015625 30.859375 
Q 33.796875 35.015625 27.4375 35.015625 
Q 21.234375 35.015625 17.15625 30.90625 
Q 13.09375 26.8125 13.09375 20.65625 
z
" id="ArialMT-56"/>
      </defs>
      <g style="fill:#262626;" transform="translate(335.886647 304.247187)scale(0.22 -0.22)">
       <use xlink:href="#ArialMT-56"/>
      </g>
     </g>
    </g>
    <g id="xtick_6">
     <g id="line2d_6">
      <path clip-path="url(#pba86e3217c)" d="M 417.720511 279 
L 417.720511 7.2 
" style="fill:none;stroke:#cccccc;stroke-linecap:round;"/>
     </g>
     <g id="text_6">
      <!-- 10 -->
      <defs>
       <path d="M 37.25 0 
L 28.46875 0 
L 28.46875 56 
Q 25.296875 52.984375 20.140625 49.953125 
Q 14.984375 46.921875 10.890625 45.40625 
L 10.890625 53.90625 
Q 18.265625 57.375 23.78125 62.296875 
Q 29.296875 67.234375 31.59375 71.875 
L 37.25 71.875 
z
" id="ArialMT-49"/>
      </defs>
      <g style="fill:#262626;" transform="translate(405.486449 304.247187)scale(0.22 -0.22)">
       <use xlink:href="#ArialMT-49"/>
       <use x="55.615234" xlink:href="#ArialMT-48"/>
      </g>
     </g>
    </g>
    <g id="xtick_7">
     <g id="line2d_7">
      <path clip-path="url(#pba86e3217c)" d="M 493.437344 279 
L 493.437344 7.2 
" style="fill:none;stroke:#cccccc;stroke-linecap:round;"/>
     </g>
     <g id="text_7">
      <!-- 12 -->
      <g style="fill:#262626;" transform="translate(481.203282 304.247187)scale(0.22 -0.22)">
       <use xlink:href="#ArialMT-49"/>
       <use x="55.615234" xlink:href="#ArialMT-50"/>
      </g>
     </g>
    </g>
    <g id="xtick_8">
     <g id="line2d_8">
      <path clip-path="url(#pba86e3217c)" d="M 569.154177 279 
L 569.154177 7.2 
" style="fill:none;stroke:#cccccc;stroke-linecap:round;"/>
     </g>
     <g id="text_8">
      <!-- 14 -->
      <g style="fill:#262626;" transform="translate(556.920115 304.247187)scale(0.22 -0.22)">
       <use xlink:href="#ArialMT-49"/>
       <use x="55.615234" xlink:href="#ArialMT-52"/>
      </g>
     </g>
    </g>
    <g id="xtick_9">
     <g id="line2d_9">
      <path clip-path="url(#pba86e3217c)" d="M 644.871011 279 
L 644.871011 7.2 
" style="fill:none;stroke:#cccccc;stroke-linecap:round;"/>
     </g>
     <g id="text_9">
      <!-- 16 -->
      <g style="fill:#262626;" transform="translate(632.636948 304.247187)scale(0.22 -0.22)">
       <use xlink:href="#ArialMT-49"/>
       <use x="55.615234" xlink:href="#ArialMT-54"/>
      </g>
     </g>
    </g>
   </g>
   <g id="matplotlib.axis_2"/>
   <g id="PolyCollection_1">
    <defs>
     <path d="M 39.136346 -245.660365 
L 39.136346 -247.497117 
L 45.254877 -247.635866 
L 51.373409 -247.783735 
L 57.491941 -247.955961 
L 63.610473 -248.166754 
L 69.729005 -248.425278 
L 75.847537 -248.732024 
L 81.966069 -249.076518 
L 88.084601 -249.437155 
L 94.203133 -249.783493 
L 100.321665 -250.080777 
L 106.440197 -250.29589 
L 112.558729 -250.403484 
L 118.677261 -250.390954 
L 124.795793 -250.261094 
L 130.914325 -250.03185 
L 137.032857 -249.733215 
L 143.151389 -249.402029 
L 149.269921 -249.075852 
L 155.388453 -248.787232 
L 161.506985 -248.559491 
L 167.625517 -248.404656 
L 173.744049 -248.323666 
L 179.862581 -248.308422 
L 185.981113 -248.344982 
L 192.099645 -248.417057 
L 198.218177 -248.509117 
L 204.336709 -248.60866 
L 210.455241 -248.707459 
L 216.573773 -248.801888 
L 222.692305 -248.89254 
L 228.810837 -248.983414 
L 234.929369 -249.080896 
L 241.047901 -249.1927 
L 247.166433 -249.326841 
L 253.284964 -249.490685 
L 259.403496 -249.690114 
L 265.522028 -249.928809 
L 271.64056 -250.207722 
L 277.759092 -250.524753 
L 283.877624 -250.87466 
L 289.996156 -251.249194 
L 296.114688 -251.637414 
L 302.23322 -252.026177 
L 308.351752 -252.400749 
L 314.470284 -252.745583 
L 320.588816 -253.04525 
L 326.707348 -253.285559 
L 332.82588 -253.454789 
L 338.944412 -253.544943 
L 345.062944 -253.552844 
L 351.181476 -253.480915 
L 357.300008 -253.337518 
L 363.41854 -253.136801 
L 369.537072 -252.898087 
L 375.655604 -252.644836 
L 381.774136 -252.403207 
L 387.892668 -252.200213 
L 394.0112 -252.06143 
L 400.129732 -252.008327 
L 406.248264 -252.055385 
L 412.366796 -252.207427 
L 418.485328 -252.457666 
L 424.60386 -252.78708 
L 430.722392 -253.165519 
L 436.840924 -253.554681 
L 442.959456 -253.912615 
L 449.077988 -254.199037 
L 455.19652 -254.380493 
L 461.315051 -254.434355 
L 467.433583 -254.350947 
L 473.552115 -254.133509 
L 479.670647 -253.796228 
L 485.789179 -253.36096 
L 491.907711 -252.853493 
L 498.026243 -252.300155 
L 504.144775 -251.725341 
L 510.263307 -251.150233 
L 516.381839 -250.592635 
L 522.500371 -250.067618 
L 528.618903 -249.588512 
L 534.737435 -249.167779 
L 540.855967 -248.817364 
L 546.974499 -248.548299 
L 553.093031 -248.369538 
L 559.211563 -248.286239 
L 565.330095 -248.297904 
L 571.448627 -248.396912 
L 577.567159 -248.567922 
L 583.685691 -248.788503 
L 589.804223 -249.031038 
L 595.922755 -249.265649 
L 602.041287 -249.463629 
L 608.159819 -249.60072 
L 614.278351 -249.659641 
L 620.396883 -249.631468 
L 626.515415 -249.515735 
L 632.633947 -249.319441 
L 638.752479 -249.055309 
L 644.871011 -248.739735 
L 644.871011 -245.660365 
L 644.871011 -245.660365 
L 638.752479 -245.660365 
L 632.633947 -245.660365 
L 626.515415 -245.660365 
L 620.396883 -245.660365 
L 614.278351 -245.660365 
L 608.159819 -245.660365 
L 602.041287 -245.660365 
L 595.922755 -245.660365 
L 589.804223 -245.660365 
L 583.685691 -245.660365 
L 577.567159 -245.660365 
L 571.448627 -245.660365 
L 565.330095 -245.660365 
L 559.211563 -245.660365 
L 553.093031 -245.660365 
L 546.974499 -245.660365 
L 540.855967 -245.660365 
L 534.737435 -245.660365 
L 528.618903 -245.660365 
L 522.500371 -245.660365 
L 516.381839 -245.660365 
L 510.263307 -245.660365 
L 504.144775 -245.660365 
L 498.026243 -245.660365 
L 491.907711 -245.660365 
L 485.789179 -245.660365 
L 479.670647 -245.660365 
L 473.552115 -245.660365 
L 467.433583 -245.660365 
L 461.315051 -245.660365 
L 455.19652 -245.660365 
L 449.077988 -245.660365 
L 442.959456 -245.660365 
L 436.840924 -245.660365 
L 430.722392 -245.660365 
L 424.60386 -245.660365 
L 418.485328 -245.660365 
L 412.366796 -245.660365 
L 406.248264 -245.660365 
L 400.129732 -245.660365 
L 394.0112 -245.660365 
L 387.892668 -245.660365 
L 381.774136 -245.660365 
L 375.655604 -245.660365 
L 369.537072 -245.660365 
L 363.41854 -245.660365 
L 357.300008 -245.660365 
L 351.181476 -245.660365 
L 345.062944 -245.660365 
L 338.944412 -245.660365 
L 332.82588 -245.660365 
L 326.707348 -245.660365 
L 320.588816 -245.660365 
L 314.470284 -245.660365 
L 308.351752 -245.660365 
L 302.23322 -245.660365 
L 296.114688 -245.660365 
L 289.996156 -245.660365 
L 283.877624 -245.660365 
L 277.759092 -245.660365 
L 271.64056 -245.660365 
L 265.522028 -245.660365 
L 259.403496 -245.660365 
L 253.284964 -245.660365 
L 247.166433 -245.660365 
L 241.047901 -245.660365 
L 234.929369 -245.660365 
L 228.810837 -245.660365 
L 222.692305 -245.660365 
L 216.573773 -245.660365 
L 210.455241 -245.660365 
L 204.336709 -245.660365 
L 198.218177 -245.660365 
L 192.099645 -245.660365 
L 185.981113 -245.660365 
L 179.862581 -245.660365 
L 173.744049 -245.660365 
L 167.625517 -245.660365 
L 161.506985 -245.660365 
L 155.388453 -245.660365 
L 149.269921 -245.660365 
L 143.151389 -245.660365 
L 137.032857 -245.660365 
L 130.914325 -245.660365 
L 124.795793 -245.660365 
L 118.677261 -245.660365 
L 112.558729 -245.660365 
L 106.440197 -245.660365 
L 100.321665 -245.660365 
L 94.203133 -245.660365 
L 88.084601 -245.660365 
L 81.966069 -245.660365 
L 75.847537 -245.660365 
L 69.729005 -245.660365 
L 63.610473 -245.660365 
L 57.491941 -245.660365 
L 51.373409 -245.660365 
L 45.254877 -245.660365 
L 39.136346 -245.660365 
z
" id="m1fe09d8262" style="stroke:#595959;stroke-opacity:0.65;"/>
    </defs>
    <g clip-path="url(#pba86e3217c)">
     <use style="fill:#72b6a1;fill-opacity:0.65;stroke:#595959;stroke-opacity:0.65;" x="0" xlink:href="#m1fe09d8262" y="315.819687"/>
    </g>
   </g>
   <g id="PolyCollection_2">
    <defs>
     <path d="M 39.136346 -122.812908 
L 39.136346 -144.384359 
L 40.665979 -144.235703 
L 42.195611 -143.710599 
L 43.725244 -142.859381 
L 45.254877 -141.757108 
L 46.78451 -140.499021 
L 48.314143 -139.194632 
L 49.843776 -137.960987 
L 51.373409 -136.915668 
L 52.903042 -136.169953 
L 54.432675 -135.822407 
L 55.962308 -135.953037 
L 57.491941 -136.618089 
L 59.021574 -137.845543 
L 60.551207 -139.631463 
L 62.08084 -141.937508 
L 63.610473 -144.690015 
L 65.140106 -147.781168 
L 66.669739 -151.072707 
L 68.199372 -154.402467 
L 69.729005 -157.593695 
L 71.258638 -160.466708 
L 72.788271 -162.852009 
L 74.317904 -164.603624 
L 75.847537 -165.61121 
L 77.37717 -165.809518 
L 78.906803 -165.184017 
L 80.436436 -163.771954 
L 81.966069 -161.6587 
L 83.495702 -158.969865 
L 85.025335 -155.860154 
L 86.554968 -152.500357 
L 88.084601 -149.063951 
L 89.614234 -145.714714 
L 91.143867 -142.596466 
L 92.6735 -139.825613 
L 94.203133 -137.486733 
L 95.732766 -135.631034 
L 97.262399 -134.277244 
L 98.792032 -133.414322 
L 100.321665 -133.005403 
L 101.851298 -132.992458 
L 103.380931 -133.301325 
L 104.910564 -133.84689 
L 106.440197 -134.538328 
L 107.96983 -135.284316 
L 109.499463 -135.998152 
L 111.029096 -136.602583 
L 112.558729 -137.034125 
L 114.088362 -137.246554 
L 115.617995 -137.213263 
L 117.147628 -136.928251 
L 118.677261 -136.405611 
L 120.206894 -135.677552 
L 121.736527 -134.791169 
L 123.26616 -133.804291 
L 124.795793 -132.78083 
L 126.325426 -131.786075 
L 127.855059 -130.882296 
L 129.384692 -130.124952 
L 130.914325 -129.559654 
L 132.443958 -129.219911 
L 133.973591 -129.125638 
L 135.503224 -129.282322 
L 137.032857 -129.680804 
L 138.56249 -130.297639 
L 140.092123 -131.096073 
L 141.621756 -132.027705 
L 143.151389 -133.03491 
L 144.681022 -134.054028 
L 146.210655 -135.019271 
L 147.740288 -135.867137 
L 149.269921 -136.541011 
L 150.799554 -136.995559 
L 152.329187 -137.200457 
L 153.85882 -137.143042 
L 155.388453 -136.829584 
L 156.918086 -136.285027 
L 158.447719 -135.551242 
L 159.977352 -134.683993 
L 161.506985 -133.748975 
L 163.036618 -132.817314 
L 164.566251 -131.960947 
L 166.095884 -131.248214 
L 167.625517 -130.73988 
L 169.15515 -130.485735 
L 170.684783 -130.521783 
L 172.214416 -130.868013 
L 173.744049 -131.526779 
L 175.273682 -132.481815 
L 176.803315 -133.698037 
L 178.332948 -135.122306 
L 179.862581 -136.685355 
L 181.392214 -138.305008 
L 182.921847 -139.89073 
L 184.45148 -141.349314 
L 185.981113 -142.591346 
L 187.510746 -143.537868 
L 189.040379 -144.126567 
L 190.570012 -144.316753 
L 190.570012 -122.812908 
L 190.570012 -122.812908 
L 189.040379 -122.812908 
L 187.510746 -122.812908 
L 185.981113 -122.812908 
L 184.45148 -122.812908 
L 182.921847 -122.812908 
L 181.392214 -122.812908 
L 179.862581 -122.812908 
L 178.332948 -122.812908 
L 176.803315 -122.812908 
L 175.273682 -122.812908 
L 173.744049 -122.812908 
L 172.214416 -122.812908 
L 170.684783 -122.812908 
L 169.15515 -122.812908 
L 167.625517 -122.812908 
L 166.095884 -122.812908 
L 164.566251 -122.812908 
L 163.036618 -122.812908 
L 161.506985 -122.812908 
L 159.977352 -122.812908 
L 158.447719 -122.812908 
L 156.918086 -122.812908 
L 155.388453 -122.812908 
L 153.85882 -122.812908 
L 152.329187 -122.812908 
L 150.799554 -122.812908 
L 149.269921 -122.812908 
L 147.740288 -122.812908 
L 146.210655 -122.812908 
L 144.681022 -122.812908 
L 143.151389 -122.812908 
L 141.621756 -122.812908 
L 140.092123 -122.812908 
L 138.56249 -122.812908 
L 137.032857 -122.812908 
L 135.503224 -122.812908 
L 133.973591 -122.812908 
L 132.443958 -122.812908 
L 130.914325 -122.812908 
L 129.384692 -122.812908 
L 127.855059 -122.812908 
L 126.325426 -122.812908 
L 124.795793 -122.812908 
L 123.26616 -122.812908 
L 121.736527 -122.812908 
L 120.206894 -122.812908 
L 118.677261 -122.812908 
L 117.147628 -122.812908 
L 115.617995 -122.812908 
L 114.088362 -122.812908 
L 112.558729 -122.812908 
L 111.029096 -122.812908 
L 109.499463 -122.812908 
L 107.96983 -122.812908 
L 106.440197 -122.812908 
L 104.910564 -122.812908 
L 103.380931 -122.812908 
L 101.851298 -122.812908 
L 100.321665 -122.812908 
L 98.792032 -122.812908 
L 97.262399 -122.812908 
L 95.732766 -122.812908 
L 94.203133 -122.812908 
L 92.6735 -122.812908 
L 91.143867 -122.812908 
L 89.614234 -122.812908 
L 88.084601 -122.812908 
L 86.554968 -122.812908 
L 85.025335 -122.812908 
L 83.495702 -122.812908 
L 81.966069 -122.812908 
L 80.436436 -122.812908 
L 78.906803 -122.812908 
L 77.37717 -122.812908 
L 75.847537 -122.812908 
L 74.317904 -122.812908 
L 72.788271 -122.812908 
L 71.258638 -122.812908 
L 69.729005 -122.812908 
L 68.199372 -122.812908 
L 66.669739 -122.812908 
L 65.140106 -122.812908 
L 63.610473 -122.812908 
L 62.08084 -122.812908 
L 60.551207 -122.812908 
L 59.021574 -122.812908 
L 57.491941 -122.812908 
L 55.962308 -122.812908 
L 54.432675 -122.812908 
L 52.903042 -122.812908 
L 51.373409 -122.812908 
L 49.843776 -122.812908 
L 48.314143 -122.812908 
L 46.78451 -122.812908 
L 45.254877 -122.812908 
L 43.725244 -122.812908 
L 42.195611 -122.812908 
L 40.665979 -122.812908 
L 39.136346 -122.812908 
z
" id="m585a8e5af0" style="stroke:#595959;stroke-opacity:0.65;"/>
    </defs>
    <g clip-path="url(#pba86e3217c)">
     <use style="fill:#e99675;fill-opacity:0.65;stroke:#595959;stroke-opacity:0.65;" x="0" xlink:href="#m585a8e5af0" y="315.819687"/>
    </g>
   </g>
   <g id="PathCollection_3">
    <defs>
     <path d="M 0 3.383948 
C 0.897434 3.383948 1.758231 3.027394 2.392813 2.392813 
C 3.027394 1.758231 3.383948 0.897434 3.383948 0 
C 3.383948 -0.897434 3.027394 -1.758231 2.392813 -2.392813 
C 1.758231 -3.027394 0.897434 -3.383948 0 -3.383948 
C -0.897434 -3.383948 -1.758231 -3.027394 -2.392813 -2.392813 
C -3.027394 -1.758231 -3.383948 -0.897434 -3.383948 0 
C -3.383948 0.897434 -3.027394 1.758231 -2.392813 2.392813 
C -1.758231 3.027394 -0.897434 3.383948 0 3.383948 
z
" id="C2_0_4ea96d3e39"/>
    </defs>
    <g clip-path="url(#pba86e3217c)">
     <use style="fill:#ff0000;stroke:#ff0000;stroke-width:2.025;" x="363.204391" xlink:href="#C2_0_4ea96d3e39" y="94.728814"/>
    </g>
    <g clip-path="url(#pba86e3217c)">
     <use style="fill:#ff0000;stroke:#ff0000;stroke-width:2.025;" x="105.388575" xlink:href="#C2_0_4ea96d3e39" y="217.576271"/>
    </g>
   </g>
   <g id="line2d_10">
    <path clip-path="url(#pba86e3217c)" d="M 39.136346 90.122034 
L 39.136346 99.335593 
" style="fill:none;stroke:#595959;stroke-linecap:round;stroke-width:1.5;"/>
   </g>
   <g id="line2d_11">
    <path clip-path="url(#pba86e3217c)" d="M 644.871011 90.122034 
L 644.871011 99.335593 
" style="fill:none;stroke:#595959;stroke-linecap:round;stroke-width:1.5;"/>
   </g>
   <g id="line2d_12"/>
   <g id="line2d_13">
    <path clip-path="url(#pba86e3217c)" d="M 39.136346 212.969492 
L 39.136346 222.183051 
" style="fill:none;stroke:#595959;stroke-linecap:round;stroke-width:1.5;"/>
   </g>
   <g id="line2d_14">
    <path clip-path="url(#pba86e3217c)" d="M 190.570012 212.969492 
L 190.570012 222.183051 
" style="fill:none;stroke:#595959;stroke-linecap:round;stroke-width:1.5;"/>
   </g>
   <g id="line2d_15"/>
   <g id="line2d_16">
    <path clip-path="url(#pba86e3217c)" d="M 363.204391 94.728814 
L 105.388575 217.576271 
" style="fill:none;stroke:#ff0000;stroke-linecap:round;stroke-width:2.7;"/>
   </g>
   <g id="line2d_17">
    <path clip-path="url(#pba86e3217c)" d="M 296.53572 94.728814 
L 426.806531 94.728814 
" style="fill:none;"/>
   </g>
   <g id="line2d_18">
    <path clip-path="url(#pba86e3217c)" d="M 296.53572 94.728814 
L 296.53572 94.728814 
" style="fill:none;"/>
   </g>
   <g id="line2d_19">
    <path clip-path="url(#pba86e3217c)" d="M 426.806531 94.728814 
L 426.806531 94.728814 
" style="fill:none;"/>
   </g>
   <g id="line2d_20">
    <path clip-path="url(#pba86e3217c)" d="M 79.360913 217.576271 
L 133.782387 217.576271 
" style="fill:none;"/>
   </g>
   <g id="line2d_21">
    <path clip-path="url(#pba86e3217c)" d="M 79.360913 217.576271 
L 79.360913 217.576271 
" style="fill:none;"/>
   </g>
   <g id="line2d_22">
    <path clip-path="url(#pba86e3217c)" d="M 133.782387 217.576271 
L 133.782387 217.576271 
" style="fill:none;"/>
   </g>
   <g id="line2d_23">
    <path clip-path="url(#pba86e3217c)" d="M 379.862095 85.515254 
L 379.862095 103.942373 
" style="fill:none;stroke:#595959;stroke-linecap:round;stroke-width:1.5;"/>
   </g>
   <g id="line2d_24">
    <path clip-path="url(#pba86e3217c)" d="M 76.994762 208.362712 
L 76.994762 226.789831 
" style="fill:none;stroke:#595959;stroke-linecap:round;stroke-width:1.5;"/>
   </g>
   <g id="patch_3">
    <path d="M 7.2 279 
L 7.2 7.2 
" style="fill:none;stroke:#cccccc;stroke-linecap:square;stroke-linejoin:miter;stroke-width:1.25;"/>
   </g>
   <g id="patch_4">
    <path d="M 676.8 279 
L 676.8 7.2 
" style="fill:none;stroke:#cccccc;stroke-linecap:square;stroke-linejoin:miter;stroke-width:1.25;"/>
   </g>
   <g id="patch_5">
    <path d="M 7.2 279 
L 676.8 279 
" style="fill:none;stroke:#cccccc;stroke-linecap:square;stroke-linejoin:miter;stroke-width:1.25;"/>
   </g>
   <g id="patch_6">
    <path d="M 7.2 7.2 
L 676.8 7.2 
" style="fill:none;stroke:#cccccc;stroke-linecap:square;stroke-linejoin:miter;stroke-width:1.25;"/>
   </g>
   <g id="line2d_25">
    <path clip-path="url(#pba86e3217c)" d="M 266.286845 94.728814 
L 39.136346 94.728814 
" style="fill:none;stroke:#595959;stroke-linecap:round;stroke-width:2;"/>
   </g>
   <g id="line2d_26">
    <path clip-path="url(#pba86e3217c)" d="M 455.578928 94.728814 
L 644.871011 94.728814 
" style="fill:none;stroke:#595959;stroke-linecap:round;stroke-width:2;"/>
   </g>
   <g id="line2d_27">
    <path clip-path="url(#pba86e3217c)" d="M 76.994762 217.576271 
L 39.136346 217.576271 
" style="fill:none;stroke:#595959;stroke-linecap:round;stroke-width:2;"/>
   </g>
   <g id="line2d_28">
    <path clip-path="url(#pba86e3217c)" d="M 152.711595 217.576271 
L 190.570012 217.576271 
" style="fill:none;stroke:#595959;stroke-linecap:round;stroke-width:2;"/>
   </g>
   <g id="patch_7">
    <path clip-path="url(#pba86e3217c)" d="M 266.286845 85.515254 
L 266.286845 103.942373 
L 455.578928 103.942373 
L 455.578928 85.515254 
L 266.286845 85.515254 
z
" style="fill:none;opacity:0.65;stroke:#595959;stroke-linejoin:miter;stroke-width:1.5;"/>
   </g>
   <g id="patch_8">
    <path clip-path="url(#pba86e3217c)" d="M 76.994762 208.362712 
L 76.994762 226.789831 
L 152.711595 226.789831 
L 152.711595 208.362712 
L 76.994762 208.362712 
z
" style="fill:none;opacity:0.65;stroke:#595959;stroke-linejoin:miter;stroke-width:1.5;"/>
   </g>
  </g>
 </g>
 <defs>
  <clipPath id="pba86e3217c">
   <rect height="271.8" width="669.6" x="7.2" y="7.2"/>
  </clipPath>
 </defs>
</svg>
