<?xml version="1.0" encoding="utf-8" standalone="no"?>
<!DOCTYPE svg PUBLIC "-//W3C//DTD SVG 1.1//EN"
  "http://www.w3.org/Graphics/SVG/1.1/DTD/svg11.dtd">
<!-- Created with matplotlib (https://matplotlib.org/) -->
<svg height="315.819687pt" version="1.1" viewBox="0 0 684 315.819687" width="684pt" xmlns="http://www.w3.org/2000/svg" xmlns:xlink="http://www.w3.org/1999/xlink">
 <defs>
  <style type="text/css">
*{stroke-linecap:butt;stroke-linejoin:round;}
  </style>
 </defs>
 <g id="figure_1">
  <g id="patch_1">
   <path d="M 0 315.819687 
L 684 315.819687 
L 684 0 
L 0 0 
z
" style="fill:#ffffff;"/>
  </g>
  <g id="axes_1">
   <g id="patch_2">
    <path d="M 7.2 279 
L 676.8 279 
L 676.8 7.2 
L 7.2 7.2 
z
" style="fill:#ffffff;"/>
   </g>
   <g id="PathCollection_1">
    <defs>
     <path d="M 0 1.5 
C 0.397805 1.5 0.77937 1.341951 1.06066 1.06066 
C 1.341951 0.77937 1.5 0.397805 1.5 0 
C 1.5 -0.397805 1.341951 -0.77937 1.06066 -1.06066 
C 0.77937 -1.341951 0.397805 -1.5 0 -1.5 
C -0.397805 -1.5 -0.77937 -1.341951 -1.06066 -1.06066 
C -1.341951 -0.77937 -1.5 -0.397805 -1.5 0 
C -1.5 0.397805 -1.341951 0.77937 -1.06066 1.06066 
C -0.77937 1.341951 -0.397805 1.5 0 1.5 
z
" id="C0_0_0db9637f3b"/>
    </defs>
    <g clip-path="url(#pa389c055d8)">
     <use style="fill:#66c2a5;" x="412.533014" xlink:href="#C0_0_0db9637f3b" y="114.023135"/>
    </g>
    <g clip-path="url(#pa389c055d8)">
     <use style="fill:#66c2a5;" x="254.875094" xlink:href="#C0_0_0db9637f3b" y="116.248499"/>
    </g>
    <g clip-path="url(#pa389c055d8)">
     <use style="fill:#66c2a5;" x="387.639658" xlink:href="#C0_0_0db9637f3b" y="110.412482"/>
    </g>
    <g clip-path="url(#pa389c055d8)">
     <use style="fill:#66c2a5;" x="329.555161" xlink:href="#C0_0_0db9637f3b" y="112.931036"/>
    </g>
    <g clip-path="url(#pa389c055d8)">
     <use style="fill:#66c2a5;" x="354.448517" xlink:href="#C0_0_0db9637f3b" y="107.435175"/>
    </g>
    <g clip-path="url(#pa389c055d8)">
     <use style="fill:#66c2a5;" x="346.150732" xlink:href="#C0_0_0db9637f3b" y="113.790169"/>
    </g>
    <g clip-path="url(#pa389c055d8)">
     <use style="fill:#66c2a5;" x="470.617511" xlink:href="#C0_0_0db9637f3b" y="116.824674"/>
    </g>
    <g clip-path="url(#pa389c055d8)">
     <use style="fill:#66c2a5;" x="387.639658" xlink:href="#C0_0_0db9637f3b" y="118.851195"/>
    </g>
    <g clip-path="url(#pa389c055d8)">
     <use style="fill:#66c2a5;" x="354.448517" xlink:href="#C0_0_0db9637f3b" y="119.351009"/>
    </g>
    <g clip-path="url(#pa389c055d8)">
     <use style="fill:#66c2a5;" x="395.937443" xlink:href="#C0_0_0db9637f3b" y="112.927786"/>
    </g>
    <g clip-path="url(#pa389c055d8)">
     <use style="fill:#66c2a5;" x="387.639658" xlink:href="#C0_0_0db9637f3b" y="127.504956"/>
    </g>
    <g clip-path="url(#pa389c055d8)">
     <use style="fill:#66c2a5;" x="478.915296" xlink:href="#C0_0_0db9637f3b" y="129.43175"/>
    </g>
    <g clip-path="url(#pa389c055d8)">
     <use style="fill:#66c2a5;" x="553.595364" xlink:href="#C0_0_0db9637f3b" y="128.91598"/>
    </g>
    <g clip-path="url(#pa389c055d8)">
     <use style="fill:#66c2a5;" x="346.150732" xlink:href="#C0_0_0db9637f3b" y="109.906399"/>
    </g>
    <g clip-path="url(#pa389c055d8)">
     <use style="fill:#66c2a5;" x="420.830799" xlink:href="#C0_0_0db9637f3b" y="113.092535"/>
    </g>
    <g clip-path="url(#pa389c055d8)">
     <use style="fill:#66c2a5;" x="412.533014" xlink:href="#C0_0_0db9637f3b" y="121.627735"/>
    </g>
    <g clip-path="url(#pa389c055d8)">
     <use style="fill:#66c2a5;" x="371.044088" xlink:href="#C0_0_0db9637f3b" y="127.659857"/>
    </g>
    <g clip-path="url(#pa389c055d8)">
     <use style="fill:#66c2a5;" x="346.150732" xlink:href="#C0_0_0db9637f3b" y="129.947142"/>
    </g>
    <g clip-path="url(#pa389c055d8)">
     <use style="fill:#66c2a5;" x="644.871002" xlink:href="#C0_0_0db9637f3b" y="113.709217"/>
    </g>
    <g clip-path="url(#pa389c055d8)">
     <use style="fill:#66c2a5;" x="337.852946" xlink:href="#C0_0_0db9637f3b" y="126.156445"/>
    </g>
    <g clip-path="url(#pa389c055d8)">
     <use style="fill:#66c2a5;" x="395.937443" xlink:href="#C0_0_0db9637f3b" y="117.535944"/>
    </g>
    <g clip-path="url(#pa389c055d8)">
     <use style="fill:#66c2a5;" x="379.341873" xlink:href="#C0_0_0db9637f3b" y="125.416537"/>
    </g>
    <g clip-path="url(#pa389c055d8)">
     <use style="fill:#66c2a5;" x="404.235229" xlink:href="#C0_0_0db9637f3b" y="116.818657"/>
    </g>
    <g clip-path="url(#pa389c055d8)">
     <use style="fill:#66c2a5;" x="362.746302" xlink:href="#C0_0_0db9637f3b" y="118.658508"/>
    </g>
    <g clip-path="url(#pa389c055d8)">
     <use style="fill:#66c2a5;" x="462.319726" xlink:href="#C0_0_0db9637f3b" y="125.53226"/>
    </g>
    <g clip-path="url(#pa389c055d8)">
     <use style="fill:#66c2a5;" x="304.661805" xlink:href="#C0_0_0db9637f3b" y="116.039441"/>
    </g>
   </g>
   <g id="PathCollection_2">
    <defs>
     <path d="M 0 1.5 
C 0.397805 1.5 0.77937 1.341951 1.06066 1.06066 
C 1.341951 0.77937 1.5 0.397805 1.5 0 
C 1.5 -0.397805 1.341951 -0.77937 1.06066 -1.06066 
C 0.77937 -1.341951 0.397805 -1.5 0 -1.5 
C -0.397805 -1.5 -0.77937 -1.341951 -1.06066 -1.06066 
C -1.341951 -0.77937 -1.5 -0.397805 -1.5 0 
C -1.5 0.397805 -1.341951 0.77937 -1.06066 1.06066 
C -0.77937 1.341951 -0.397805 1.5 0 1.5 
z
" id="C1_0_a3a26833be"/>
    </defs>
    <g clip-path="url(#pa389c055d8)">
     <use style="fill:#fc8d62;" x="263.172879" xlink:href="#C1_0_a3a26833be" y="250.752726"/>
    </g>
    <g clip-path="url(#pa389c055d8)">
     <use style="fill:#fc8d62;" x="279.768449" xlink:href="#C1_0_a3a26833be" y="250.257607"/>
    </g>
    <g clip-path="url(#pa389c055d8)">
     <use style="fill:#fc8d62;" x="246.577308" xlink:href="#C1_0_a3a26833be" y="234.331504"/>
    </g>
    <g clip-path="url(#pa389c055d8)">
     <use style="fill:#fc8d62;" x="271.470664" xlink:href="#C1_0_a3a26833be" y="250.740526"/>
    </g>
    <g clip-path="url(#pa389c055d8)">
     <use style="fill:#fc8d62;" x="39.132676" xlink:href="#C1_0_a3a26833be" y="244.66103"/>
    </g>
    <g clip-path="url(#pa389c055d8)">
     <use style="fill:#fc8d62;" x="271.470664" xlink:href="#C1_0_a3a26833be" y="251.656114"/>
    </g>
    <g clip-path="url(#pa389c055d8)">
     <use style="fill:#fc8d62;" x="171.897241" xlink:href="#C1_0_a3a26833be" y="247.060997"/>
    </g>
    <g clip-path="url(#pa389c055d8)">
     <use style="fill:#fc8d62;" x="279.768449" xlink:href="#C1_0_a3a26833be" y="251.114467"/>
    </g>
    <g clip-path="url(#pa389c055d8)">
     <use style="fill:#fc8d62;" x="105.514959" xlink:href="#C1_0_a3a26833be" y="245.319157"/>
    </g>
    <g clip-path="url(#pa389c055d8)">
     <use style="fill:#fc8d62;" x="80.621603" xlink:href="#C1_0_a3a26833be" y="253.234965"/>
    </g>
    <g clip-path="url(#pa389c055d8)">
     <use style="fill:#fc8d62;" x="196.790597" xlink:href="#C1_0_a3a26833be" y="242.48632"/>
    </g>
    <g clip-path="url(#pa389c055d8)">
     <use style="fill:#fc8d62;" x="263.172879" xlink:href="#C1_0_a3a26833be" y="231.008671"/>
    </g>
    <g clip-path="url(#pa389c055d8)">
     <use style="fill:#fc8d62;" x="246.577308" xlink:href="#C1_0_a3a26833be" y="234.631351"/>
    </g>
    <g clip-path="url(#pa389c055d8)">
     <use style="fill:#fc8d62;" x="188.492811" xlink:href="#C1_0_a3a26833be" y="240.511325"/>
    </g>
    <g clip-path="url(#pa389c055d8)">
     <use style="fill:#fc8d62;" x="312.959591" xlink:href="#C1_0_a3a26833be" y="232.131603"/>
    </g>
    <g clip-path="url(#pa389c055d8)">
     <use style="fill:#fc8d62;" x="362.746302" xlink:href="#C1_0_a3a26833be" y="238.113496"/>
    </g>
    <g clip-path="url(#pa389c055d8)">
     <use style="fill:#fc8d62;" x="221.683953" xlink:href="#C1_0_a3a26833be" y="244.35657"/>
    </g>
    <g clip-path="url(#pa389c055d8)">
     <use style="fill:#fc8d62;" x="88.919388" xlink:href="#C1_0_a3a26833be" y="231.219486"/>
    </g>
   </g>
   <g id="matplotlib.axis_1">
    <g id="xtick_1">
     <g id="line2d_1">
      <path clip-path="url(#pa389c055d8)" d="M 80.621603 279 
L 80.621603 7.2 
" style="fill:none;stroke:#cccccc;stroke-linecap:round;"/>
     </g>
     <g id="text_1">
      <!-- 10 -->
      <defs>
       <path d="M 37.25 0 
L 28.46875 0 
L 28.46875 56 
Q 25.296875 52.984375 20.140625 49.953125 
Q 14.984375 46.921875 10.890625 45.40625 
L 10.890625 53.90625 
Q 18.265625 57.375 23.78125 62.296875 
Q 29.296875 67.234375 31.59375 71.875 
L 37.25 71.875 
z
" id="ArialMT-49"/>
       <path d="M 4.15625 35.296875 
Q 4.15625 48 6.765625 55.734375 
Q 9.375 63.484375 14.515625 67.671875 
Q 19.671875 71.875 27.484375 71.875 
Q 33.25 71.875 37.59375 69.546875 
Q 41.9375 67.234375 44.765625 62.859375 
Q 47.609375 58.5 49.21875 52.21875 
Q 50.828125 45.953125 50.828125 35.296875 
Q 50.828125 22.703125 48.234375 14.96875 
Q 45.65625 7.234375 40.5 3 
Q 35.359375 -1.21875 27.484375 -1.21875 
Q 17.140625 -1.21875 11.234375 6.203125 
Q 4.15625 15.140625 4.15625 35.296875 
z
M 13.1875 35.296875 
Q 13.1875 17.671875 17.3125 11.828125 
Q 21.4375 6 27.484375 6 
Q 33.546875 6 37.671875 11.859375 
Q 41.796875 17.71875 41.796875 35.296875 
Q 41.796875 52.984375 37.671875 58.78125 
Q 33.546875 64.59375 27.390625 64.59375 
Q 21.34375 64.59375 17.71875 59.46875 
Q 13.1875 52.9375 13.1875 35.296875 
z
" id="ArialMT-48"/>
      </defs>
      <g style="fill:#262626;" transform="translate(68.38754 304.247187)scale(0.22 -0.22)">
       <use xlink:href="#ArialMT-49"/>
       <use x="55.615234" xlink:href="#ArialMT-48"/>
      </g>
     </g>
    </g>
    <g id="xtick_2">
     <g id="line2d_2">
      <path clip-path="url(#pa389c055d8)" d="M 163.599456 279 
L 163.599456 7.2 
" style="fill:none;stroke:#cccccc;stroke-linecap:round;"/>
     </g>
     <g id="text_2">
      <!-- 20 -->
      <defs>
       <path d="M 50.34375 8.453125 
L 50.34375 0 
L 3.03125 0 
Q 2.9375 3.171875 4.046875 6.109375 
Q 5.859375 10.9375 9.828125 15.625 
Q 13.8125 20.3125 21.34375 26.46875 
Q 33.015625 36.03125 37.109375 41.625 
Q 41.21875 47.21875 41.21875 52.203125 
Q 41.21875 57.421875 37.46875 61 
Q 33.734375 64.59375 27.734375 64.59375 
Q 21.390625 64.59375 17.578125 60.78125 
Q 13.765625 56.984375 13.71875 50.25 
L 4.6875 51.171875 
Q 5.609375 61.28125 11.65625 66.578125 
Q 17.71875 71.875 27.9375 71.875 
Q 38.234375 71.875 44.234375 66.15625 
Q 50.25 60.453125 50.25 52 
Q 50.25 47.703125 48.484375 43.546875 
Q 46.734375 39.40625 42.65625 34.8125 
Q 38.578125 30.21875 29.109375 22.21875 
Q 21.1875 15.578125 18.9375 13.203125 
Q 16.703125 10.84375 15.234375 8.453125 
z
" id="ArialMT-50"/>
      </defs>
      <g style="fill:#262626;" transform="translate(151.365393 304.247187)scale(0.22 -0.22)">
       <use xlink:href="#ArialMT-50"/>
       <use x="55.615234" xlink:href="#ArialMT-48"/>
      </g>
     </g>
    </g>
    <g id="xtick_3">
     <g id="line2d_3">
      <path clip-path="url(#pa389c055d8)" d="M 246.577308 279 
L 246.577308 7.2 
" style="fill:none;stroke:#cccccc;stroke-linecap:round;"/>
     </g>
     <g id="text_3">
      <!-- 30 -->
      <defs>
       <path d="M 4.203125 18.890625 
L 12.984375 20.0625 
Q 14.5 12.59375 18.140625 9.296875 
Q 21.78125 6 27 6 
Q 33.203125 6 37.46875 10.296875 
Q 41.75 14.59375 41.75 20.953125 
Q 41.75 27 37.796875 30.921875 
Q 33.84375 34.859375 27.734375 34.859375 
Q 25.25 34.859375 21.53125 33.890625 
L 22.515625 41.609375 
Q 23.390625 41.5 23.921875 41.5 
Q 29.546875 41.5 34.03125 44.421875 
Q 38.53125 47.359375 38.53125 53.46875 
Q 38.53125 58.296875 35.25 61.46875 
Q 31.984375 64.65625 26.8125 64.65625 
Q 21.6875 64.65625 18.265625 61.421875 
Q 14.84375 58.203125 13.875 51.765625 
L 5.078125 53.328125 
Q 6.6875 62.15625 12.390625 67.015625 
Q 18.109375 71.875 26.609375 71.875 
Q 32.46875 71.875 37.390625 69.359375 
Q 42.328125 66.84375 44.9375 62.5 
Q 47.5625 58.15625 47.5625 53.265625 
Q 47.5625 48.640625 45.0625 44.828125 
Q 42.578125 41.015625 37.703125 38.765625 
Q 44.046875 37.3125 47.5625 32.6875 
Q 51.078125 28.078125 51.078125 21.140625 
Q 51.078125 11.765625 44.234375 5.25 
Q 37.40625 -1.265625 26.953125 -1.265625 
Q 17.53125 -1.265625 11.296875 4.34375 
Q 5.078125 9.96875 4.203125 18.890625 
z
" id="ArialMT-51"/>
      </defs>
      <g style="fill:#262626;" transform="translate(234.343246 304.247187)scale(0.22 -0.22)">
       <use xlink:href="#ArialMT-51"/>
       <use x="55.615234" xlink:href="#ArialMT-48"/>
      </g>
     </g>
    </g>
    <g id="xtick_4">
     <g id="line2d_4">
      <path clip-path="url(#pa389c055d8)" d="M 329.555161 279 
L 329.555161 7.2 
" style="fill:none;stroke:#cccccc;stroke-linecap:round;"/>
     </g>
     <g id="text_4">
      <!-- 40 -->
      <defs>
       <path d="M 32.328125 0 
L 32.328125 17.140625 
L 1.265625 17.140625 
L 1.265625 25.203125 
L 33.9375 71.578125 
L 41.109375 71.578125 
L 41.109375 25.203125 
L 50.78125 25.203125 
L 50.78125 17.140625 
L 41.109375 17.140625 
L 41.109375 0 
z
M 32.328125 25.203125 
L 32.328125 57.46875 
L 9.90625 25.203125 
z
" id="ArialMT-52"/>
      </defs>
      <g style="fill:#262626;" transform="translate(317.321099 304.247187)scale(0.22 -0.22)">
       <use xlink:href="#ArialMT-52"/>
       <use x="55.615234" xlink:href="#ArialMT-48"/>
      </g>
     </g>
    </g>
    <g id="xtick_5">
     <g id="line2d_5">
      <path clip-path="url(#pa389c055d8)" d="M 412.533014 279 
L 412.533014 7.2 
" style="fill:none;stroke:#cccccc;stroke-linecap:round;"/>
     </g>
     <g id="text_5">
      <!-- 50 -->
      <defs>
       <path d="M 4.15625 18.75 
L 13.375 19.53125 
Q 14.40625 12.796875 18.140625 9.390625 
Q 21.875 6 27.15625 6 
Q 33.5 6 37.890625 10.78125 
Q 42.28125 15.578125 42.28125 23.484375 
Q 42.28125 31 38.0625 35.34375 
Q 33.84375 39.703125 27 39.703125 
Q 22.75 39.703125 19.328125 37.765625 
Q 15.921875 35.84375 13.96875 32.765625 
L 5.71875 33.84375 
L 12.640625 70.609375 
L 48.25 70.609375 
L 48.25 62.203125 
L 19.671875 62.203125 
L 15.828125 42.96875 
Q 22.265625 47.46875 29.34375 47.46875 
Q 38.71875 47.46875 45.15625 40.96875 
Q 51.609375 34.46875 51.609375 24.265625 
Q 51.609375 14.546875 45.953125 7.46875 
Q 39.0625 -1.21875 27.15625 -1.21875 
Q 17.390625 -1.21875 11.203125 4.25 
Q 5.03125 9.71875 4.15625 18.75 
z
" id="ArialMT-53"/>
      </defs>
      <g style="fill:#262626;" transform="translate(400.298951 304.247187)scale(0.22 -0.22)">
       <use xlink:href="#ArialMT-53"/>
       <use x="55.615234" xlink:href="#ArialMT-48"/>
      </g>
     </g>
    </g>
    <g id="xtick_6">
     <g id="line2d_6">
      <path clip-path="url(#pa389c055d8)" d="M 495.510867 279 
L 495.510867 7.2 
" style="fill:none;stroke:#cccccc;stroke-linecap:round;"/>
     </g>
     <g id="text_6">
      <!-- 60 -->
      <defs>
       <path d="M 49.75 54.046875 
L 41.015625 53.375 
Q 39.84375 58.546875 37.703125 60.890625 
Q 34.125 64.65625 28.90625 64.65625 
Q 24.703125 64.65625 21.53125 62.3125 
Q 17.390625 59.28125 14.984375 53.46875 
Q 12.59375 47.65625 12.5 36.921875 
Q 15.671875 41.75 20.265625 44.09375 
Q 24.859375 46.4375 29.890625 46.4375 
Q 38.671875 46.4375 44.84375 39.96875 
Q 51.03125 33.5 51.03125 23.25 
Q 51.03125 16.5 48.125 10.71875 
Q 45.21875 4.9375 40.140625 1.859375 
Q 35.0625 -1.21875 28.609375 -1.21875 
Q 17.625 -1.21875 10.6875 6.859375 
Q 3.765625 14.9375 3.765625 33.5 
Q 3.765625 54.25 11.421875 63.671875 
Q 18.109375 71.875 29.4375 71.875 
Q 37.890625 71.875 43.28125 67.140625 
Q 48.6875 62.40625 49.75 54.046875 
z
M 13.875 23.1875 
Q 13.875 18.65625 15.796875 14.5 
Q 17.71875 10.359375 21.1875 8.171875 
Q 24.65625 6 28.46875 6 
Q 34.03125 6 38.03125 10.484375 
Q 42.046875 14.984375 42.046875 22.703125 
Q 42.046875 30.125 38.078125 34.390625 
Q 34.125 38.671875 28.125 38.671875 
Q 22.171875 38.671875 18.015625 34.390625 
Q 13.875 30.125 13.875 23.1875 
z
" id="ArialMT-54"/>
      </defs>
      <g style="fill:#262626;" transform="translate(483.276804 304.247187)scale(0.22 -0.22)">
       <use xlink:href="#ArialMT-54"/>
       <use x="55.615234" xlink:href="#ArialMT-48"/>
      </g>
     </g>
    </g>
    <g id="xtick_7">
     <g id="line2d_7">
      <path clip-path="url(#pa389c055d8)" d="M 578.488719 279 
L 578.488719 7.2 
" style="fill:none;stroke:#cccccc;stroke-linecap:round;"/>
     </g>
     <g id="text_7">
      <!-- 70 -->
      <defs>
       <path d="M 4.734375 62.203125 
L 4.734375 70.65625 
L 51.078125 70.65625 
L 51.078125 63.8125 
Q 44.234375 56.546875 37.515625 44.484375 
Q 30.8125 32.421875 27.15625 19.671875 
Q 24.515625 10.6875 23.78125 0 
L 14.75 0 
Q 14.890625 8.453125 18.0625 20.40625 
Q 21.234375 32.375 27.171875 43.484375 
Q 33.109375 54.59375 39.796875 62.203125 
z
" id="ArialMT-55"/>
      </defs>
      <g style="fill:#262626;" transform="translate(566.254657 304.247187)scale(0.22 -0.22)">
       <use xlink:href="#ArialMT-55"/>
       <use x="55.615234" xlink:href="#ArialMT-48"/>
      </g>
     </g>
    </g>
    <g id="xtick_8">
     <g id="line2d_8">
      <path clip-path="url(#pa389c055d8)" d="M 661.466572 279 
L 661.466572 7.2 
" style="fill:none;stroke:#cccccc;stroke-linecap:round;"/>
     </g>
     <g id="text_8">
      <!-- 80 -->
      <defs>
       <path d="M 17.671875 38.8125 
Q 12.203125 40.828125 9.5625 44.53125 
Q 6.9375 48.25 6.9375 53.421875 
Q 6.9375 61.234375 12.546875 66.546875 
Q 18.171875 71.875 27.484375 71.875 
Q 36.859375 71.875 42.578125 66.421875 
Q 48.296875 60.984375 48.296875 53.171875 
Q 48.296875 48.1875 45.671875 44.5 
Q 43.0625 40.828125 37.75 38.8125 
Q 44.34375 36.671875 47.78125 31.875 
Q 51.21875 27.09375 51.21875 20.453125 
Q 51.21875 11.28125 44.71875 5.03125 
Q 38.234375 -1.21875 27.640625 -1.21875 
Q 17.046875 -1.21875 10.546875 5.046875 
Q 4.046875 11.328125 4.046875 20.703125 
Q 4.046875 27.6875 7.59375 32.390625 
Q 11.140625 37.109375 17.671875 38.8125 
z
M 15.921875 53.71875 
Q 15.921875 48.640625 19.1875 45.40625 
Q 22.46875 42.1875 27.6875 42.1875 
Q 32.765625 42.1875 36.015625 45.375 
Q 39.265625 48.578125 39.265625 53.21875 
Q 39.265625 58.0625 35.90625 61.359375 
Q 32.5625 64.65625 27.59375 64.65625 
Q 22.5625 64.65625 19.234375 61.421875 
Q 15.921875 58.203125 15.921875 53.71875 
z
M 13.09375 20.65625 
Q 13.09375 16.890625 14.875 13.375 
Q 16.65625 9.859375 20.171875 7.921875 
Q 23.6875 6 27.734375 6 
Q 34.03125 6 38.125 10.046875 
Q 42.234375 14.109375 42.234375 20.359375 
Q 42.234375 26.703125 38.015625 30.859375 
Q 33.796875 35.015625 27.4375 35.015625 
Q 21.234375 35.015625 17.15625 30.90625 
Q 13.09375 26.8125 13.09375 20.65625 
z
" id="ArialMT-56"/>
      </defs>
      <g style="fill:#262626;" transform="translate(649.23251 304.247187)scale(0.22 -0.22)">
       <use xlink:href="#ArialMT-56"/>
       <use x="55.615234" xlink:href="#ArialMT-48"/>
      </g>
     </g>
    </g>
   </g>
   <g id="matplotlib.axis_2"/>
   <g id="PolyCollection_1">
    <defs>
     <path d="M 254.875094 -245.660365 
L 254.875094 -250.830249 
L 258.814446 -250.709778 
L 262.753799 -250.335015 
L 266.693151 -249.806712 
L 270.632504 -249.259146 
L 274.571857 -248.82938 
L 278.511209 -248.627821 
L 282.450562 -248.71756 
L 286.389914 -249.10684 
L 290.329267 -249.756035 
L 294.26862 -250.598113 
L 298.207972 -251.568653 
L 302.147325 -252.637989 
L 306.086678 -253.835048 
L 310.02603 -255.252382 
L 313.965383 -257.026377 
L 317.904735 -259.294849 
L 321.844088 -262.142997 
L 325.783441 -265.554323 
L 329.722793 -269.383311 
L 333.662146 -273.361559 
L 337.601498 -277.140284 
L 341.540851 -280.361857 
L 345.480204 -282.743554 
L 349.419556 -284.150671 
L 353.358909 -284.636149 
L 357.298261 -284.431602 
L 361.237614 -283.888597 
L 365.176967 -283.385126 
L 369.116319 -283.224308 
L 373.055672 -283.555746 
L 376.995024 -284.342935 
L 380.934377 -285.384784 
L 384.87373 -286.381072 
L 388.813082 -287.017285 
L 392.752435 -287.039619 
L 396.691787 -286.298128 
L 400.63114 -284.751778 
L 404.570493 -282.445862 
L 408.509845 -279.481424 
L 412.449198 -275.994057 
L 416.38855 -272.148251 
L 420.327903 -268.141071 
L 424.267256 -264.202646 
L 428.206608 -260.583554 
L 432.145961 -257.527493 
L 436.085314 -255.235785 
L 440.024666 -253.833753 
L 443.964019 -253.347443 
L 447.903371 -253.695094 
L 451.842724 -254.694293 
L 455.782077 -256.083998 
L 459.721429 -257.55959 
L 463.660782 -258.817351 
L 467.600134 -259.601851 
L 471.539487 -259.746985 
L 475.47884 -259.200837 
L 479.418192 -258.02751 
L 483.357545 -256.384984 
L 487.296897 -254.485072 
L 491.23625 -252.546656 
L 495.175603 -250.754796 
L 499.114955 -249.23531 
L 503.054308 -248.048636 
L 506.99366 -247.200475 
L 510.933013 -246.662344 
L 514.872366 -246.393724 
L 518.811718 -246.358788 
L 522.751071 -246.533576 
L 526.690423 -246.902767 
L 530.629776 -247.448401 
L 534.569129 -248.135502 
L 538.508481 -248.901192 
L 542.447834 -249.653516 
L 546.387186 -250.283226 
L 550.326539 -250.686594 
L 554.265892 -250.791939 
L 558.205244 -250.579834 
L 562.144597 -250.088696 
L 566.083949 -249.403327 
L 570.023302 -248.63099 
L 573.962655 -247.874244 
L 577.902007 -247.209918 
L 581.84136 -246.679702 
L 585.780713 -246.292524 
L 589.720065 -246.034792 
L 593.659418 -245.883291 
L 597.59877 -245.816551 
L 601.538123 -245.822597 
L 605.477476 -245.902589 
L 609.416828 -246.070488 
L 613.356181 -246.348719 
L 617.295533 -246.759744 
L 621.234886 -247.31422 
L 625.174239 -247.998217 
L 629.113591 -248.763939 
L 633.052944 -249.529164 
L 636.992296 -250.188776 
L 640.931649 -250.63737 
L 644.871002 -250.796568 
L 644.871002 -245.660365 
L 644.871002 -245.660365 
L 640.931649 -245.660365 
L 636.992296 -245.660365 
L 633.052944 -245.660365 
L 629.113591 -245.660365 
L 625.174239 -245.660365 
L 621.234886 -245.660365 
L 617.295533 -245.660365 
L 613.356181 -245.660365 
L 609.416828 -245.660365 
L 605.477476 -245.660365 
L 601.538123 -245.660365 
L 597.59877 -245.660365 
L 593.659418 -245.660365 
L 589.720065 -245.660365 
L 585.780713 -245.660365 
L 581.84136 -245.660365 
L 577.902007 -245.660365 
L 573.962655 -245.660365 
L 570.023302 -245.660365 
L 566.083949 -245.660365 
L 562.144597 -245.660365 
L 558.205244 -245.660365 
L 554.265892 -245.660365 
L 550.326539 -245.660365 
L 546.387186 -245.660365 
L 542.447834 -245.660365 
L 538.508481 -245.660365 
L 534.569129 -245.660365 
L 530.629776 -245.660365 
L 526.690423 -245.660365 
L 522.751071 -245.660365 
L 518.811718 -245.660365 
L 514.872366 -245.660365 
L 510.933013 -245.660365 
L 506.99366 -245.660365 
L 503.054308 -245.660365 
L 499.114955 -245.660365 
L 495.175603 -245.660365 
L 491.23625 -245.660365 
L 487.296897 -245.660365 
L 483.357545 -245.660365 
L 479.418192 -245.660365 
L 475.47884 -245.660365 
L 471.539487 -245.660365 
L 467.600134 -245.660365 
L 463.660782 -245.660365 
L 459.721429 -245.660365 
L 455.782077 -245.660365 
L 451.842724 -245.660365 
L 447.903371 -245.660365 
L 443.964019 -245.660365 
L 440.024666 -245.660365 
L 436.085314 -245.660365 
L 432.145961 -245.660365 
L 428.206608 -245.660365 
L 424.267256 -245.660365 
L 420.327903 -245.660365 
L 416.38855 -245.660365 
L 412.449198 -245.660365 
L 408.509845 -245.660365 
L 404.570493 -245.660365 
L 400.63114 -245.660365 
L 396.691787 -245.660365 
L 392.752435 -245.660365 
L 388.813082 -245.660365 
L 384.87373 -245.660365 
L 380.934377 -245.660365 
L 376.995024 -245.660365 
L 373.055672 -245.660365 
L 369.116319 -245.660365 
L 365.176967 -245.660365 
L 361.237614 -245.660365 
L 357.298261 -245.660365 
L 353.358909 -245.660365 
L 349.419556 -245.660365 
L 345.480204 -245.660365 
L 341.540851 -245.660365 
L 337.601498 -245.660365 
L 333.662146 -245.660365 
L 329.722793 -245.660365 
L 325.783441 -245.660365 
L 321.844088 -245.660365 
L 317.904735 -245.660365 
L 313.965383 -245.660365 
L 310.02603 -245.660365 
L 306.086678 -245.660365 
L 302.147325 -245.660365 
L 298.207972 -245.660365 
L 294.26862 -245.660365 
L 290.329267 -245.660365 
L 286.389914 -245.660365 
L 282.450562 -245.660365 
L 278.511209 -245.660365 
L 274.571857 -245.660365 
L 270.632504 -245.660365 
L 266.693151 -245.660365 
L 262.753799 -245.660365 
L 258.814446 -245.660365 
L 254.875094 -245.660365 
z
" id="mec5cf13277" style="stroke:#595959;stroke-opacity:0.65;"/>
    </defs>
    <g clip-path="url(#pa389c055d8)">
     <use style="fill:#72b6a1;fill-opacity:0.65;stroke:#595959;stroke-opacity:0.65;" x="0" xlink:href="#mec5cf13277" y="315.819687"/>
    </g>
   </g>
   <g id="PolyCollection_2">
    <defs>
     <path d="M 39.132676 -122.812908 
L 39.132676 -129.953995 
L 42.401501 -130.145639 
L 45.670325 -130.251081 
L 48.93915 -130.33249 
L 52.207974 -130.464477 
L 55.476799 -130.721755 
L 58.745624 -131.165754 
L 62.014448 -131.8327 
L 65.283273 -132.72548 
L 68.552097 -133.810857 
L 71.820922 -135.022588 
L 75.089746 -136.2698 
L 78.358571 -137.449026 
L 81.627395 -138.457646 
L 84.89622 -139.206389 
L 88.165044 -139.628964 
L 91.433869 -139.687677 
L 94.702693 -139.37481 
L 97.971518 -138.710386 
L 101.240342 -137.737419 
L 104.509167 -136.515892 
L 107.777991 -135.11647 
L 111.046816 -133.614643 
L 114.31564 -132.085619 
L 117.584465 -130.600118 
L 120.853289 -129.221128 
L 124.122114 -128.001728 
L 127.390938 -126.984061 
L 130.659763 -126.199412 
L 133.928587 -125.669195 
L 137.197412 -125.406412 
L 140.466236 -125.417058 
L 143.735061 -125.700966 
L 147.003885 -126.251802 
L 150.27271 -127.056242 
L 153.541534 -128.092649 
L 156.810359 -129.329789 
L 160.079183 -130.726134 
L 163.348008 -132.230173 
L 166.616832 -133.781931 
L 169.885657 -135.315653 
L 173.154481 -136.763511 
L 176.423306 -138.060083 
L 179.69213 -139.147354 
L 182.960955 -139.979921 
L 186.229779 -140.52991 
L 189.498604 -140.790964 
L 192.767428 -140.780501 
L 196.036253 -140.539584 
L 199.305077 -140.130042 
L 202.573902 -139.6291 
L 205.842726 -139.122349 
L 209.111551 -138.696298 
L 212.380375 -138.43179 
L 215.6492 -138.399169 
L 218.918024 -138.655471 
L 222.186849 -139.243262 
L 225.455673 -140.190331 
L 228.724498 -141.509429 
L 231.993322 -143.197458 
L 235.262147 -145.233965 
L 238.530971 -147.579129 
L 241.799796 -150.171697 
L 245.06862 -152.927403 
L 248.337445 -155.738532 
L 251.606269 -158.475388 
L 254.875094 -160.990538 
L 258.143918 -163.12664 
L 261.412743 -164.728253 
L 264.681567 -165.65715 
L 267.950392 -165.809518 
L 271.219216 -165.132267 
L 274.488041 -163.635031 
L 277.756865 -161.3946 
L 281.02569 -158.549689 
L 284.294514 -155.285889 
L 287.563339 -151.812853 
L 290.832163 -148.337697 
L 294.100988 -145.03958 
L 297.369812 -142.05026 
L 300.638637 -139.444051 
L 303.907461 -137.238477 
L 307.176286 -135.404524 
L 310.44511 -133.883455 
L 313.713935 -132.606003 
L 316.982759 -131.509755 
L 320.251584 -130.55141 
L 323.520408 -129.712159 
L 326.789233 -128.99611 
L 330.058057 -128.423152 
L 333.326882 -128.018558 
L 336.595706 -127.801944 
L 339.864531 -127.777959 
L 343.133355 -127.930468 
L 346.40218 -128.221188 
L 349.671004 -128.592874 
L 352.939829 -128.976363 
L 356.208653 -129.300113 
L 359.477478 -129.500442 
L 362.746302 -129.530571 
L 362.746302 -122.812908 
L 362.746302 -122.812908 
L 359.477478 -122.812908 
L 356.208653 -122.812908 
L 352.939829 -122.812908 
L 349.671004 -122.812908 
L 346.40218 -122.812908 
L 343.133355 -122.812908 
L 339.864531 -122.812908 
L 336.595706 -122.812908 
L 333.326882 -122.812908 
L 330.058057 -122.812908 
L 326.789233 -122.812908 
L 323.520408 -122.812908 
L 320.251584 -122.812908 
L 316.982759 -122.812908 
L 313.713935 -122.812908 
L 310.44511 -122.812908 
L 307.176286 -122.812908 
L 303.907461 -122.812908 
L 300.638637 -122.812908 
L 297.369812 -122.812908 
L 294.100988 -122.812908 
L 290.832163 -122.812908 
L 287.563339 -122.812908 
L 284.294514 -122.812908 
L 281.02569 -122.812908 
L 277.756865 -122.812908 
L 274.488041 -122.812908 
L 271.219216 -122.812908 
L 267.950392 -122.812908 
L 264.681567 -122.812908 
L 261.412743 -122.812908 
L 258.143918 -122.812908 
L 254.875094 -122.812908 
L 251.606269 -122.812908 
L 248.337445 -122.812908 
L 245.06862 -122.812908 
L 241.799796 -122.812908 
L 238.530971 -122.812908 
L 235.262147 -122.812908 
L 231.993322 -122.812908 
L 228.724498 -122.812908 
L 225.455673 -122.812908 
L 222.186849 -122.812908 
L 218.918024 -122.812908 
L 215.6492 -122.812908 
L 212.380375 -122.812908 
L 209.111551 -122.812908 
L 205.842726 -122.812908 
L 202.573902 -122.812908 
L 199.305077 -122.812908 
L 196.036253 -122.812908 
L 192.767428 -122.812908 
L 189.498604 -122.812908 
L 186.229779 -122.812908 
L 182.960955 -122.812908 
L 179.69213 -122.812908 
L 176.423306 -122.812908 
L 173.154481 -122.812908 
L 169.885657 -122.812908 
L 166.616832 -122.812908 
L 163.348008 -122.812908 
L 160.079183 -122.812908 
L 156.810359 -122.812908 
L 153.541534 -122.812908 
L 150.27271 -122.812908 
L 147.003885 -122.812908 
L 143.735061 -122.812908 
L 140.466236 -122.812908 
L 137.197412 -122.812908 
L 133.928587 -122.812908 
L 130.659763 -122.812908 
L 127.390938 -122.812908 
L 124.122114 -122.812908 
L 120.853289 -122.812908 
L 117.584465 -122.812908 
L 114.31564 -122.812908 
L 111.046816 -122.812908 
L 107.777991 -122.812908 
L 104.509167 -122.812908 
L 101.240342 -122.812908 
L 97.971518 -122.812908 
L 94.702693 -122.812908 
L 91.433869 -122.812908 
L 88.165044 -122.812908 
L 84.89622 -122.812908 
L 81.627395 -122.812908 
L 78.358571 -122.812908 
L 75.089746 -122.812908 
L 71.820922 -122.812908 
L 68.552097 -122.812908 
L 65.283273 -122.812908 
L 62.014448 -122.812908 
L 58.745624 -122.812908 
L 55.476799 -122.812908 
L 52.207974 -122.812908 
L 48.93915 -122.812908 
L 45.670325 -122.812908 
L 42.401501 -122.812908 
L 39.132676 -122.812908 
z
" id="m55701732ed" style="stroke:#595959;stroke-opacity:0.65;"/>
    </defs>
    <g clip-path="url(#pa389c055d8)">
     <use style="fill:#e99675;fill-opacity:0.65;stroke:#595959;stroke-opacity:0.65;" x="0" xlink:href="#m55701732ed" y="315.819687"/>
    </g>
   </g>
   <g id="PathCollection_3">
    <defs>
     <path d="M 0 3.383948 
C 0.897434 3.383948 1.758231 3.027394 2.392813 2.392813 
C 3.027394 1.758231 3.383948 0.897434 3.383948 0 
C 3.383948 -0.897434 3.027394 -1.758231 2.392813 -2.392813 
C 1.758231 -3.027394 0.897434 -3.383948 0 -3.383948 
C -0.897434 -3.383948 -1.758231 -3.027394 -2.392813 -2.392813 
C -3.027394 -1.758231 -3.383948 -0.897434 -3.383948 0 
C -3.383948 0.897434 -3.027394 1.758231 -2.392813 2.392813 
C -1.758231 3.027394 -0.897434 3.383948 0 3.383948 
z
" id="C2_0_e9309801bc"/>
    </defs>
    <g clip-path="url(#pa389c055d8)">
     <use style="fill:#ff0000;stroke:#ff0000;stroke-width:2.025;" x="396.256589" xlink:href="#C2_0_e9309801bc" y="94.728814"/>
    </g>
    <g clip-path="url(#pa389c055d8)">
     <use style="fill:#ff0000;stroke:#ff0000;stroke-width:2.025;" x="216.152096" xlink:href="#C2_0_e9309801bc" y="217.576271"/>
    </g>
   </g>
   <g id="line2d_9">
    <path clip-path="url(#pa389c055d8)" d="M 254.875094 90.122034 
L 254.875094 99.335593 
" style="fill:none;stroke:#595959;stroke-linecap:round;stroke-width:1.5;"/>
   </g>
   <g id="line2d_10">
    <path clip-path="url(#pa389c055d8)" d="M 478.915296 90.122034 
L 478.915296 99.335593 
" style="fill:none;stroke:#595959;stroke-linecap:round;stroke-width:1.5;"/>
   </g>
   <g id="line2d_11">
    <defs>
     <path d="M -0 3.535534 
L 2.12132 0 
L -0 -3.535534 
L -2.12132 -0 
z
" id="mece98d8653" style="stroke:#595959;stroke-linejoin:miter;"/>
    </defs>
    <g clip-path="url(#pa389c055d8)">
     <use style="fill:#595959;stroke:#595959;stroke-linejoin:miter;" x="553.595364" xlink:href="#mece98d8653" y="94.728814"/>
     <use style="fill:#595959;stroke:#595959;stroke-linejoin:miter;" x="644.871002" xlink:href="#mece98d8653" y="94.728814"/>
    </g>
   </g>
   <g id="line2d_12">
    <path clip-path="url(#pa389c055d8)" d="M 39.132676 212.969492 
L 39.132676 222.183051 
" style="fill:none;stroke:#595959;stroke-linecap:round;stroke-width:1.5;"/>
   </g>
   <g id="line2d_13">
    <path clip-path="url(#pa389c055d8)" d="M 362.746302 212.969492 
L 362.746302 222.183051 
" style="fill:none;stroke:#595959;stroke-linecap:round;stroke-width:1.5;"/>
   </g>
   <g id="line2d_14"/>
   <g id="line2d_15">
    <path clip-path="url(#pa389c055d8)" d="M 396.256589 94.728814 
L 216.152096 217.576271 
" style="fill:none;stroke:#ff0000;stroke-linecap:round;stroke-width:2.7;"/>
   </g>
   <g id="line2d_16">
    <path clip-path="url(#pa389c055d8)" d="M 367.844653 94.728814 
L 427.852002 94.728814 
" style="fill:none;"/>
   </g>
   <g id="line2d_17">
    <path clip-path="url(#pa389c055d8)" d="M 367.844653 94.728814 
L 367.844653 94.728814 
" style="fill:none;"/>
   </g>
   <g id="line2d_18">
    <path clip-path="url(#pa389c055d8)" d="M 427.852002 94.728814 
L 427.852002 94.728814 
" style="fill:none;"/>
   </g>
   <g id="line2d_19">
    <path clip-path="url(#pa389c055d8)" d="M 175.112633 217.576271 
L 256.269583 217.576271 
" style="fill:none;"/>
   </g>
   <g id="line2d_20">
    <path clip-path="url(#pa389c055d8)" d="M 175.112633 217.576271 
L 175.112633 217.576271 
" style="fill:none;"/>
   </g>
   <g id="line2d_21">
    <path clip-path="url(#pa389c055d8)" d="M 256.269583 217.576271 
L 256.269583 217.576271 
" style="fill:none;"/>
   </g>
   <g id="line2d_22">
    <path clip-path="url(#pa389c055d8)" d="M 387.639658 85.515254 
L 387.639658 103.942373 
" style="fill:none;stroke:#595959;stroke-linecap:round;stroke-width:1.5;"/>
   </g>
   <g id="line2d_23">
    <path clip-path="url(#pa389c055d8)" d="M 246.577308 208.362712 
L 246.577308 226.789831 
" style="fill:none;stroke:#595959;stroke-linecap:round;stroke-width:1.5;"/>
   </g>
   <g id="patch_3">
    <path d="M 7.2 279 
L 7.2 7.2 
" style="fill:none;stroke:#cccccc;stroke-linecap:square;stroke-linejoin:miter;stroke-width:1.25;"/>
   </g>
   <g id="patch_4">
    <path d="M 676.8 279 
L 676.8 7.2 
" style="fill:none;stroke:#cccccc;stroke-linecap:square;stroke-linejoin:miter;stroke-width:1.25;"/>
   </g>
   <g id="patch_5">
    <path d="M 7.2 279 
L 676.8 279 
" style="fill:none;stroke:#cccccc;stroke-linecap:square;stroke-linejoin:miter;stroke-width:1.25;"/>
   </g>
   <g id="patch_6">
    <path d="M 7.2 7.2 
L 676.8 7.2 
" style="fill:none;stroke:#cccccc;stroke-linecap:square;stroke-linejoin:miter;stroke-width:1.25;"/>
   </g>
   <g id="line2d_24">
    <path clip-path="url(#pa389c055d8)" d="M 348.225178 94.728814 
L 254.875094 94.728814 
" style="fill:none;stroke:#595959;stroke-linecap:round;stroke-width:2;"/>
   </g>
   <g id="line2d_25">
    <path clip-path="url(#pa389c055d8)" d="M 412.533014 94.728814 
L 478.915296 94.728814 
" style="fill:none;stroke:#595959;stroke-linecap:round;stroke-width:2;"/>
   </g>
   <g id="line2d_26">
    <path clip-path="url(#pa389c055d8)" d="M 176.046134 217.576271 
L 39.132676 217.576271 
" style="fill:none;stroke:#595959;stroke-linecap:round;stroke-width:2;"/>
   </g>
   <g id="line2d_27">
    <path clip-path="url(#pa389c055d8)" d="M 271.470664 217.576271 
L 362.746302 217.576271 
" style="fill:none;stroke:#595959;stroke-linecap:round;stroke-width:2;"/>
   </g>
   <g id="patch_7">
    <path clip-path="url(#pa389c055d8)" d="M 348.225178 85.515254 
L 348.225178 103.942373 
L 412.533014 103.942373 
L 412.533014 85.515254 
L 348.225178 85.515254 
z
" style="fill:none;opacity:0.65;stroke:#595959;stroke-linejoin:miter;stroke-width:1.5;"/>
   </g>
   <g id="patch_8">
    <path clip-path="url(#pa389c055d8)" d="M 176.046134 208.362712 
L 176.046134 226.789831 
L 271.470664 226.789831 
L 271.470664 208.362712 
L 176.046134 208.362712 
z
" style="fill:none;opacity:0.65;stroke:#595959;stroke-linejoin:miter;stroke-width:1.5;"/>
   </g>
  </g>
 </g>
 <defs>
  <clipPath id="pa389c055d8">
   <rect height="271.8" width="669.6" x="7.2" y="7.2"/>
  </clipPath>
 </defs>
</svg>
