<?xml version="1.0" encoding="utf-8" standalone="no"?>
<!DOCTYPE svg PUBLIC "-//W3C//DTD SVG 1.1//EN"
  "http://www.w3.org/Graphics/SVG/1.1/DTD/svg11.dtd">
<!-- Created with matplotlib (https://matplotlib.org/) -->
<svg height="315.819687pt" version="1.1" viewBox="0 0 684 315.819687" width="684pt" xmlns="http://www.w3.org/2000/svg" xmlns:xlink="http://www.w3.org/1999/xlink">
 <defs>
  <style type="text/css">
*{stroke-linecap:butt;stroke-linejoin:round;}
  </style>
 </defs>
 <g id="figure_1">
  <g id="patch_1">
   <path d="M 0 315.819687 
L 684 315.819687 
L 684 0 
L 0 0 
z
" style="fill:#ffffff;"/>
  </g>
  <g id="axes_1">
   <g id="patch_2">
    <path d="M 7.2 279 
L 676.8 279 
L 676.8 7.2 
L 7.2 7.2 
z
" style="fill:#ffffff;"/>
   </g>
   <g id="PathCollection_1">
    <defs>
     <path d="M 0 1.5 
C 0.397805 1.5 0.77937 1.341951 1.06066 1.06066 
C 1.341951 0.77937 1.5 0.397805 1.5 0 
C 1.5 -0.397805 1.341951 -0.77937 1.06066 -1.06066 
C 0.77937 -1.341951 0.397805 -1.5 0 -1.5 
C -0.397805 -1.5 -0.77937 -1.341951 -1.06066 -1.06066 
C -1.341951 -0.77937 -1.5 -0.397805 -1.5 0 
C -1.5 0.397805 -1.341951 0.77937 -1.06066 1.06066 
C -0.77937 1.341951 -0.397805 1.5 0 1.5 
z
" id="C0_0_e52441c178"/>
    </defs>
    <g clip-path="url(#p6d48110b92)">
     <use style="fill:#66c2a5;" x="286.225052" xlink:href="#C0_0_e52441c178" y="120.385281"/>
    </g>
    <g clip-path="url(#p6d48110b92)">
     <use style="fill:#66c2a5;" x="529.085173" xlink:href="#C0_0_e52441c178" y="113.744066"/>
    </g>
    <g clip-path="url(#p6d48110b92)">
     <use style="fill:#66c2a5;" x="337.05624" xlink:href="#C0_0_e52441c178" y="124.653118"/>
    </g>
    <g clip-path="url(#p6d48110b92)">
     <use style="fill:#66c2a5;" x="346.940082" xlink:href="#C0_0_e52441c178" y="115.595572"/>
    </g>
    <g clip-path="url(#p6d48110b92)">
     <use style="fill:#66c2a5;" x="303.168781" xlink:href="#C0_0_e52441c178" y="116.875023"/>
    </g>
    <g clip-path="url(#p6d48110b92)">
     <use style="fill:#66c2a5;" x="191.622563" xlink:href="#C0_0_e52441c178" y="119.558687"/>
    </g>
    <g clip-path="url(#p6d48110b92)">
     <use style="fill:#66c2a5;" x="194.446518" xlink:href="#C0_0_e52441c178" y="125.083391"/>
    </g>
    <g clip-path="url(#p6d48110b92)">
     <use style="fill:#66c2a5;" x="321.524488" xlink:href="#C0_0_e52441c178" y="126.675319"/>
    </g>
    <g clip-path="url(#p6d48110b92)">
     <use style="fill:#66c2a5;" x="260.809458" xlink:href="#C0_0_e52441c178" y="113.359242"/>
    </g>
    <g clip-path="url(#p6d48110b92)">
     <use style="fill:#66c2a5;" x="481.07794" xlink:href="#C0_0_e52441c178" y="113.714534"/>
    </g>
    <g clip-path="url(#p6d48110b92)">
     <use style="fill:#66c2a5;" x="181.738721" xlink:href="#C0_0_e52441c178" y="110.594002"/>
    </g>
    <g clip-path="url(#p6d48110b92)">
     <use style="fill:#66c2a5;" x="276.34121" xlink:href="#C0_0_e52441c178" y="114.907784"/>
    </g>
    <g clip-path="url(#p6d48110b92)">
     <use style="fill:#66c2a5;" x="355.411947" xlink:href="#C0_0_e52441c178" y="127.938566"/>
    </g>
    <g clip-path="url(#p6d48110b92)">
     <use style="fill:#66c2a5;" x="519.201331" xlink:href="#C0_0_e52441c178" y="127.86347"/>
    </g>
    <g clip-path="url(#p6d48110b92)">
     <use style="fill:#66c2a5;" x="188.798608" xlink:href="#C0_0_e52441c178" y="123.798273"/>
    </g>
    <g clip-path="url(#p6d48110b92)">
     <use style="fill:#66c2a5;" x="149.263239" xlink:href="#C0_0_e52441c178" y="107.912838"/>
    </g>
    <g clip-path="url(#p6d48110b92)">
     <use style="fill:#66c2a5;" x="231.157931" xlink:href="#C0_0_e52441c178" y="121.936743"/>
    </g>
    <g clip-path="url(#p6d48110b92)">
     <use style="fill:#66c2a5;" x="543.204947" xlink:href="#C0_0_e52441c178" y="110.848214"/>
    </g>
    <g clip-path="url(#p6d48110b92)">
     <use style="fill:#66c2a5;" x="209.97827" xlink:href="#C0_0_e52441c178" y="108.203235"/>
    </g>
    <g clip-path="url(#p6d48110b92)">
     <use style="fill:#66c2a5;" x="80.076344" xlink:href="#C0_0_e52441c178" y="108.836832"/>
    </g>
    <g clip-path="url(#p6d48110b92)">
     <use style="fill:#66c2a5;" x="541.79297" xlink:href="#C0_0_e52441c178" y="114.389305"/>
    </g>
    <g clip-path="url(#p6d48110b92)">
     <use style="fill:#66c2a5;" x="39.128998" xlink:href="#C0_0_e52441c178" y="111.007452"/>
    </g>
    <g clip-path="url(#p6d48110b92)">
     <use style="fill:#66c2a5;" x="320.112511" xlink:href="#C0_0_e52441c178" y="122.603212"/>
    </g>
   </g>
   <g id="PathCollection_2">
    <defs>
     <path d="M 0 1.5 
C 0.397805 1.5 0.77937 1.341951 1.06066 1.06066 
C 1.341951 0.77937 1.5 0.397805 1.5 0 
C 1.5 -0.397805 1.341951 -0.77937 1.06066 -1.06066 
C 0.77937 -1.341951 0.397805 -1.5 0 -1.5 
C -0.397805 -1.5 -0.77937 -1.341951 -1.06066 -1.06066 
C -1.341951 -0.77937 -1.5 -0.397805 -1.5 0 
C -1.5 0.397805 -1.341951 0.77937 -1.06066 1.06066 
C -0.77937 1.341951 -0.397805 1.5 0 1.5 
z
" id="C1_0_de5cd2608a"/>
    </defs>
    <g clip-path="url(#p6d48110b92)">
     <use style="fill:#fc8d62;" x="358.235902" xlink:href="#C1_0_de5cd2608a" y="231.58619"/>
    </g>
    <g clip-path="url(#p6d48110b92)">
     <use style="fill:#fc8d62;" x="520.613308" xlink:href="#C1_0_de5cd2608a" y="244.256058"/>
    </g>
    <g clip-path="url(#p6d48110b92)">
     <use style="fill:#fc8d62;" x="383.651496" xlink:href="#C1_0_de5cd2608a" y="249.414513"/>
    </g>
    <g clip-path="url(#p6d48110b92)">
     <use style="fill:#fc8d62;" x="644.867324" xlink:href="#C1_0_de5cd2608a" y="246.141491"/>
    </g>
    <g clip-path="url(#p6d48110b92)">
     <use style="fill:#fc8d62;" x="246.689683" xlink:href="#C1_0_de5cd2608a" y="236.84819"/>
    </g>
    <g clip-path="url(#p6d48110b92)">
     <use style="fill:#fc8d62;" x="362.471834" xlink:href="#C1_0_de5cd2608a" y="241.775988"/>
    </g>
    <g clip-path="url(#p6d48110b92)">
     <use style="fill:#fc8d62;" x="438.718616" xlink:href="#C1_0_de5cd2608a" y="242.79536"/>
    </g>
    <g clip-path="url(#p6d48110b92)">
     <use style="fill:#fc8d62;" x="558.736699" xlink:href="#C1_0_de5cd2608a" y="251.373543"/>
    </g>
    <g clip-path="url(#p6d48110b92)">
     <use style="fill:#fc8d62;" x="200.094427" xlink:href="#C1_0_de5cd2608a" y="252.742263"/>
    </g>
    <g clip-path="url(#p6d48110b92)">
     <use style="fill:#fc8d62;" x="402.007202" xlink:href="#C1_0_de5cd2608a" y="234.691625"/>
    </g>
    <g clip-path="url(#p6d48110b92)">
     <use style="fill:#fc8d62;" x="219.862112" xlink:href="#C1_0_de5cd2608a" y="242.350343"/>
    </g>
   </g>
   <g id="matplotlib.axis_1">
    <g id="xtick_1">
     <g id="line2d_1">
      <path clip-path="url(#p6d48110b92)" d="M 128.083578 279 
L 128.083578 7.2 
" style="fill:none;stroke:#cccccc;stroke-linecap:round;"/>
     </g>
     <g id="text_1">
      <!-- 60 -->
      <defs>
       <path d="M 49.75 54.046875 
L 41.015625 53.375 
Q 39.84375 58.546875 37.703125 60.890625 
Q 34.125 64.65625 28.90625 64.65625 
Q 24.703125 64.65625 21.53125 62.3125 
Q 17.390625 59.28125 14.984375 53.46875 
Q 12.59375 47.65625 12.5 36.921875 
Q 15.671875 41.75 20.265625 44.09375 
Q 24.859375 46.4375 29.890625 46.4375 
Q 38.671875 46.4375 44.84375 39.96875 
Q 51.03125 33.5 51.03125 23.25 
Q 51.03125 16.5 48.125 10.71875 
Q 45.21875 4.9375 40.140625 1.859375 
Q 35.0625 -1.21875 28.609375 -1.21875 
Q 17.625 -1.21875 10.6875 6.859375 
Q 3.765625 14.9375 3.765625 33.5 
Q 3.765625 54.25 11.421875 63.671875 
Q 18.109375 71.875 29.4375 71.875 
Q 37.890625 71.875 43.28125 67.140625 
Q 48.6875 62.40625 49.75 54.046875 
z
M 13.875 23.1875 
Q 13.875 18.65625 15.796875 14.5 
Q 17.71875 10.359375 21.1875 8.171875 
Q 24.65625 6 28.46875 6 
Q 34.03125 6 38.03125 10.484375 
Q 42.046875 14.984375 42.046875 22.703125 
Q 42.046875 30.125 38.078125 34.390625 
Q 34.125 38.671875 28.125 38.671875 
Q 22.171875 38.671875 18.015625 34.390625 
Q 13.875 30.125 13.875 23.1875 
z
" id="ArialMT-54"/>
       <path d="M 4.15625 35.296875 
Q 4.15625 48 6.765625 55.734375 
Q 9.375 63.484375 14.515625 67.671875 
Q 19.671875 71.875 27.484375 71.875 
Q 33.25 71.875 37.59375 69.546875 
Q 41.9375 67.234375 44.765625 62.859375 
Q 47.609375 58.5 49.21875 52.21875 
Q 50.828125 45.953125 50.828125 35.296875 
Q 50.828125 22.703125 48.234375 14.96875 
Q 45.65625 7.234375 40.5 3 
Q 35.359375 -1.21875 27.484375 -1.21875 
Q 17.140625 -1.21875 11.234375 6.203125 
Q 4.15625 15.140625 4.15625 35.296875 
z
M 13.1875 35.296875 
Q 13.1875 17.671875 17.3125 11.828125 
Q 21.4375 6 27.484375 6 
Q 33.546875 6 37.671875 11.859375 
Q 41.796875 17.71875 41.796875 35.296875 
Q 41.796875 52.984375 37.671875 58.78125 
Q 33.546875 64.59375 27.390625 64.59375 
Q 21.34375 64.59375 17.71875 59.46875 
Q 13.1875 52.9375 13.1875 35.296875 
z
" id="ArialMT-48"/>
      </defs>
      <g style="fill:#262626;" transform="translate(115.849515 304.247187)scale(0.22 -0.22)">
       <use xlink:href="#ArialMT-54"/>
       <use x="55.615234" xlink:href="#ArialMT-48"/>
      </g>
     </g>
    </g>
    <g id="xtick_2">
     <g id="line2d_2">
      <path clip-path="url(#p6d48110b92)" d="M 269.281322 279 
L 269.281322 7.2 
" style="fill:none;stroke:#cccccc;stroke-linecap:round;"/>
     </g>
     <g id="text_2">
      <!-- 70 -->
      <defs>
       <path d="M 4.734375 62.203125 
L 4.734375 70.65625 
L 51.078125 70.65625 
L 51.078125 63.8125 
Q 44.234375 56.546875 37.515625 44.484375 
Q 30.8125 32.421875 27.15625 19.671875 
Q 24.515625 10.6875 23.78125 0 
L 14.75 0 
Q 14.890625 8.453125 18.0625 20.40625 
Q 21.234375 32.375 27.171875 43.484375 
Q 33.109375 54.59375 39.796875 62.203125 
z
" id="ArialMT-55"/>
      </defs>
      <g style="fill:#262626;" transform="translate(257.04726 304.247187)scale(0.22 -0.22)">
       <use xlink:href="#ArialMT-55"/>
       <use x="55.615234" xlink:href="#ArialMT-48"/>
      </g>
     </g>
    </g>
    <g id="xtick_3">
     <g id="line2d_3">
      <path clip-path="url(#p6d48110b92)" d="M 410.479067 279 
L 410.479067 7.2 
" style="fill:none;stroke:#cccccc;stroke-linecap:round;"/>
     </g>
     <g id="text_3">
      <!-- 80 -->
      <defs>
       <path d="M 17.671875 38.8125 
Q 12.203125 40.828125 9.5625 44.53125 
Q 6.9375 48.25 6.9375 53.421875 
Q 6.9375 61.234375 12.546875 66.546875 
Q 18.171875 71.875 27.484375 71.875 
Q 36.859375 71.875 42.578125 66.421875 
Q 48.296875 60.984375 48.296875 53.171875 
Q 48.296875 48.1875 45.671875 44.5 
Q 43.0625 40.828125 37.75 38.8125 
Q 44.34375 36.671875 47.78125 31.875 
Q 51.21875 27.09375 51.21875 20.453125 
Q 51.21875 11.28125 44.71875 5.03125 
Q 38.234375 -1.21875 27.640625 -1.21875 
Q 17.046875 -1.21875 10.546875 5.046875 
Q 4.046875 11.328125 4.046875 20.703125 
Q 4.046875 27.6875 7.59375 32.390625 
Q 11.140625 37.109375 17.671875 38.8125 
z
M 15.921875 53.71875 
Q 15.921875 48.640625 19.1875 45.40625 
Q 22.46875 42.1875 27.6875 42.1875 
Q 32.765625 42.1875 36.015625 45.375 
Q 39.265625 48.578125 39.265625 53.21875 
Q 39.265625 58.0625 35.90625 61.359375 
Q 32.5625 64.65625 27.59375 64.65625 
Q 22.5625 64.65625 19.234375 61.421875 
Q 15.921875 58.203125 15.921875 53.71875 
z
M 13.09375 20.65625 
Q 13.09375 16.890625 14.875 13.375 
Q 16.65625 9.859375 20.171875 7.921875 
Q 23.6875 6 27.734375 6 
Q 34.03125 6 38.125 10.046875 
Q 42.234375 14.109375 42.234375 20.359375 
Q 42.234375 26.703125 38.015625 30.859375 
Q 33.796875 35.015625 27.4375 35.015625 
Q 21.234375 35.015625 17.15625 30.90625 
Q 13.09375 26.8125 13.09375 20.65625 
z
" id="ArialMT-56"/>
      </defs>
      <g style="fill:#262626;" transform="translate(398.245005 304.247187)scale(0.22 -0.22)">
       <use xlink:href="#ArialMT-56"/>
       <use x="55.615234" xlink:href="#ArialMT-48"/>
      </g>
     </g>
    </g>
    <g id="xtick_4">
     <g id="line2d_4">
      <path clip-path="url(#p6d48110b92)" d="M 551.676812 279 
L 551.676812 7.2 
" style="fill:none;stroke:#cccccc;stroke-linecap:round;"/>
     </g>
     <g id="text_4">
      <!-- 90 -->
      <defs>
       <path d="M 5.46875 16.546875 
L 13.921875 17.328125 
Q 14.984375 11.375 18.015625 8.6875 
Q 21.046875 6 25.78125 6 
Q 29.828125 6 32.875 7.859375 
Q 35.9375 9.71875 37.890625 12.8125 
Q 39.84375 15.921875 41.15625 21.1875 
Q 42.484375 26.46875 42.484375 31.9375 
Q 42.484375 32.515625 42.4375 33.6875 
Q 39.796875 29.5 35.234375 26.875 
Q 30.671875 24.265625 25.34375 24.265625 
Q 16.453125 24.265625 10.296875 30.703125 
Q 4.15625 37.15625 4.15625 47.703125 
Q 4.15625 58.59375 10.578125 65.234375 
Q 17 71.875 26.65625 71.875 
Q 33.640625 71.875 39.421875 68.109375 
Q 45.21875 64.359375 48.21875 57.390625 
Q 51.21875 50.4375 51.21875 37.25 
Q 51.21875 23.53125 48.234375 15.40625 
Q 45.265625 7.28125 39.375 3.03125 
Q 33.5 -1.21875 25.59375 -1.21875 
Q 17.1875 -1.21875 11.859375 3.4375 
Q 6.546875 8.109375 5.46875 16.546875 
z
M 41.453125 48.140625 
Q 41.453125 55.71875 37.421875 60.15625 
Q 33.40625 64.59375 27.734375 64.59375 
Q 21.875 64.59375 17.53125 59.8125 
Q 13.1875 55.03125 13.1875 47.40625 
Q 13.1875 40.578125 17.3125 36.296875 
Q 21.4375 32.03125 27.484375 32.03125 
Q 33.59375 32.03125 37.515625 36.296875 
Q 41.453125 40.578125 41.453125 48.140625 
z
" id="ArialMT-57"/>
      </defs>
      <g style="fill:#262626;" transform="translate(539.442749 304.247187)scale(0.22 -0.22)">
       <use xlink:href="#ArialMT-57"/>
       <use x="55.615234" xlink:href="#ArialMT-48"/>
      </g>
     </g>
    </g>
   </g>
   <g id="matplotlib.axis_2"/>
   <g id="PolyCollection_1">
    <defs>
     <path d="M 39.128998 -245.660365 
L 39.128998 -253.70572 
L 44.220675 -254.187392 
L 49.312351 -254.544471 
L 54.404027 -254.770975 
L 59.495703 -254.866169 
L 64.58738 -254.833789 
L 69.679056 -254.682022 
L 74.770732 -254.424383 
L 79.862408 -254.081218 
L 84.954085 -253.681198 
L 90.045761 -253.262076 
L 95.137437 -252.870083 
L 100.229113 -252.557749 
L 105.32079 -252.380377 
L 110.412466 -252.391791 
L 115.504142 -252.640162 
L 120.595818 -253.164598 
L 125.687495 -253.992864 
L 130.779171 -255.140118 
L 135.870847 -256.608181 
L 140.962523 -258.384687 
L 146.0542 -260.441621 
L 151.145876 -262.733232 
L 156.237552 -265.193913 
L 161.329228 -267.737202 
L 166.420905 -270.257272 
L 171.512581 -272.634051 
L 176.604257 -274.742346 
L 181.695933 -276.464313 
L 186.78761 -277.703538 
L 191.879286 -278.398248 
L 196.970962 -278.531055 
L 202.062638 -278.133127 
L 207.154315 -277.281784 
L 212.245991 -276.091817 
L 217.337667 -274.702023 
L 222.429343 -273.259265 
L 227.52102 -271.902616 
L 232.612696 -270.749847 
L 237.704372 -269.887881 
L 242.796048 -269.36802 
L 247.887725 -269.205926 
L 252.979401 -269.385708 
L 258.071077 -269.866988 
L 263.162753 -270.593563 
L 268.25443 -271.502184 
L 273.346106 -272.530124 
L 278.437782 -273.620465 
L 283.529458 -274.724527 
L 288.621135 -275.801422 
L 293.712811 -276.815313 
L 298.804487 -277.73141 
L 303.896163 -278.512007 
L 308.98784 -279.113803 
L 314.079516 -279.487471 
L 319.171192 -279.579895 
L 324.262868 -279.338911 
L 329.354545 -278.719831 
L 334.446221 -277.692597 
L 339.537897 -276.248261 
L 344.629573 -274.403515 
L 349.72125 -272.202306 
L 354.812926 -269.714047 
L 359.904602 -267.028491 
L 364.996278 -264.247959 
L 370.087955 -261.478018 
L 375.179631 -258.818038 
L 380.271307 -256.353001 
L 385.362983 -254.147718 
L 390.45466 -252.244089 
L 395.546336 -250.661508 
L 400.638012 -249.39995 
L 405.729688 -248.444862 
L 410.821365 -247.772799 
L 415.913041 -247.356751 
L 421.004717 -247.170352 
L 426.096393 -247.190486 
L 431.18807 -247.398213 
L 436.279746 -247.778302 
L 441.371422 -248.317925 
L 446.463098 -249.005189 
L 451.554775 -249.828149 
L 456.646451 -250.774686 
L 461.738127 -251.833298 
L 466.829804 -252.994434 
L 471.92148 -254.251649 
L 477.013156 -255.601708 
L 482.104832 -257.042916 
L 487.196509 -258.571377 
L 492.288185 -260.175545 
L 497.379861 -261.830161 
L 502.471537 -263.491149 
L 507.563214 -265.093247 
L 512.65489 -266.551752 
L 517.746566 -267.768974 
L 522.838242 -268.644898 
L 527.929919 -269.090449 
L 533.021595 -269.040984 
L 538.113271 -268.467341 
L 543.204947 -267.382199 
L 543.204947 -245.660365 
L 543.204947 -245.660365 
L 538.113271 -245.660365 
L 533.021595 -245.660365 
L 527.929919 -245.660365 
L 522.838242 -245.660365 
L 517.746566 -245.660365 
L 512.65489 -245.660365 
L 507.563214 -245.660365 
L 502.471537 -245.660365 
L 497.379861 -245.660365 
L 492.288185 -245.660365 
L 487.196509 -245.660365 
L 482.104832 -245.660365 
L 477.013156 -245.660365 
L 471.92148 -245.660365 
L 466.829804 -245.660365 
L 461.738127 -245.660365 
L 456.646451 -245.660365 
L 451.554775 -245.660365 
L 446.463098 -245.660365 
L 441.371422 -245.660365 
L 436.279746 -245.660365 
L 431.18807 -245.660365 
L 426.096393 -245.660365 
L 421.004717 -245.660365 
L 415.913041 -245.660365 
L 410.821365 -245.660365 
L 405.729688 -245.660365 
L 400.638012 -245.660365 
L 395.546336 -245.660365 
L 390.45466 -245.660365 
L 385.362983 -245.660365 
L 380.271307 -245.660365 
L 375.179631 -245.660365 
L 370.087955 -245.660365 
L 364.996278 -245.660365 
L 359.904602 -245.660365 
L 354.812926 -245.660365 
L 349.72125 -245.660365 
L 344.629573 -245.660365 
L 339.537897 -245.660365 
L 334.446221 -245.660365 
L 329.354545 -245.660365 
L 324.262868 -245.660365 
L 319.171192 -245.660365 
L 314.079516 -245.660365 
L 308.98784 -245.660365 
L 303.896163 -245.660365 
L 298.804487 -245.660365 
L 293.712811 -245.660365 
L 288.621135 -245.660365 
L 283.529458 -245.660365 
L 278.437782 -245.660365 
L 273.346106 -245.660365 
L 268.25443 -245.660365 
L 263.162753 -245.660365 
L 258.071077 -245.660365 
L 252.979401 -245.660365 
L 247.887725 -245.660365 
L 242.796048 -245.660365 
L 237.704372 -245.660365 
L 232.612696 -245.660365 
L 227.52102 -245.660365 
L 222.429343 -245.660365 
L 217.337667 -245.660365 
L 212.245991 -245.660365 
L 207.154315 -245.660365 
L 202.062638 -245.660365 
L 196.970962 -245.660365 
L 191.879286 -245.660365 
L 186.78761 -245.660365 
L 181.695933 -245.660365 
L 176.604257 -245.660365 
L 171.512581 -245.660365 
L 166.420905 -245.660365 
L 161.329228 -245.660365 
L 156.237552 -245.660365 
L 151.145876 -245.660365 
L 146.0542 -245.660365 
L 140.962523 -245.660365 
L 135.870847 -245.660365 
L 130.779171 -245.660365 
L 125.687495 -245.660365 
L 120.595818 -245.660365 
L 115.504142 -245.660365 
L 110.412466 -245.660365 
L 105.32079 -245.660365 
L 100.229113 -245.660365 
L 95.137437 -245.660365 
L 90.045761 -245.660365 
L 84.954085 -245.660365 
L 79.862408 -245.660365 
L 74.770732 -245.660365 
L 69.679056 -245.660365 
L 64.58738 -245.660365 
L 59.495703 -245.660365 
L 54.404027 -245.660365 
L 49.312351 -245.660365 
L 44.220675 -245.660365 
L 39.128998 -245.660365 
z
" id="mf50bfe0554" style="stroke:#595959;stroke-opacity:0.65;"/>
    </defs>
    <g clip-path="url(#p6d48110b92)">
     <use style="fill:#72b6a1;fill-opacity:0.65;stroke:#595959;stroke-opacity:0.65;" x="0" xlink:href="#mf50bfe0554" y="315.819687"/>
    </g>
   </g>
   <g id="PolyCollection_2">
    <defs>
     <path d="M 200.094427 -122.812908 
L 200.094427 -148.496549 
L 204.587083 -150.273668 
L 209.079738 -151.679926 
L 213.572394 -152.665018 
L 218.06505 -153.197822 
L 222.557705 -153.266706 
L 227.050361 -152.878487 
L 231.543016 -152.056536 
L 236.035672 -150.838488 
L 240.528327 -149.273899 
L 245.020983 -147.422019 
L 249.513638 -145.349656 
L 254.006294 -143.129007 
L 258.498949 -140.835339 
L 262.991605 -138.544484 
L 267.48426 -136.330268 
L 271.976916 -134.262134 
L 276.469571 -132.403262 
L 280.962227 -130.809483 
L 285.454882 -129.529081 
L 289.947538 -128.603402 
L 294.440193 -128.067888 
L 298.932849 -127.953031 
L 303.425504 -128.284631 
L 307.91816 -129.082876 
L 312.410815 -130.359985 
L 316.903471 -132.11653 
L 321.396126 -134.336962 
L 325.888782 -136.985174 
L 330.381437 -140.001166 
L 334.874093 -143.299817 
L 339.366748 -146.772551 
L 343.859404 -150.292178 
L 348.352059 -153.720671 
L 352.844715 -156.919035 
L 357.337371 -159.758048 
L 361.830026 -162.128409 
L 366.322682 -163.948976 
L 370.815337 -165.172048 
L 375.307993 -165.785179 
L 379.800648 -165.809518 
L 384.293304 -165.295146 
L 388.785959 -164.314183 
L 393.278615 -162.95261 
L 397.77127 -161.30174 
L 402.263926 -159.450196 
L 406.756581 -157.47712 
L 411.249237 -155.447183 
L 415.741892 -153.407831 
L 420.234548 -151.388954 
L 424.727203 -149.40498 
L 429.219859 -147.459028 
L 433.712514 -145.548517 
L 438.20517 -143.671321 
L 442.697825 -141.831465 
L 447.190481 -140.043402 
L 451.683136 -138.334103 
L 456.175792 -136.742602 
L 460.668447 -135.317054 
L 465.161103 -134.109758 
L 469.653758 -133.170954 
L 474.146414 -132.542343 
L 478.639069 -132.25128 
L 483.131725 -132.306474 
L 487.62438 -132.695757 
L 492.117036 -133.386205 
L 496.609691 -134.326527 
L 501.102347 -135.451367 
L 505.595003 -136.686858 
L 510.087658 -137.956649 
L 514.580314 -139.187555 
L 519.072969 -140.31412 
L 523.565625 -141.281613 
L 528.05828 -142.047341 
L 532.550936 -142.580508 
L 537.043591 -142.861168 
L 541.536247 -142.878929 
L 546.028902 -142.632031 
L 550.521558 -142.127199 
L 555.014213 -141.380287 
L 559.506869 -140.41744 
L 563.999524 -139.276178 
L 568.49218 -138.005761 
L 572.984835 -136.666267 
L 577.477491 -135.326064 
L 581.970146 -134.057703 
L 586.462802 -132.932545 
L 590.955457 -132.014724 
L 595.448113 -131.35513 
L 599.940768 -130.986135 
L 604.433424 -130.917704 
L 608.926079 -131.135389 
L 613.418735 -131.60053 
L 617.91139 -132.252803 
L 622.404046 -133.01502 
L 626.896701 -133.799847 
L 631.389357 -134.517832 
L 635.882012 -135.085917 
L 640.374668 -135.435447 
L 644.867324 -135.518655 
L 644.867324 -122.812908 
L 644.867324 -122.812908 
L 640.374668 -122.812908 
L 635.882012 -122.812908 
L 631.389357 -122.812908 
L 626.896701 -122.812908 
L 622.404046 -122.812908 
L 617.91139 -122.812908 
L 613.418735 -122.812908 
L 608.926079 -122.812908 
L 604.433424 -122.812908 
L 599.940768 -122.812908 
L 595.448113 -122.812908 
L 590.955457 -122.812908 
L 586.462802 -122.812908 
L 581.970146 -122.812908 
L 577.477491 -122.812908 
L 572.984835 -122.812908 
L 568.49218 -122.812908 
L 563.999524 -122.812908 
L 559.506869 -122.812908 
L 555.014213 -122.812908 
L 550.521558 -122.812908 
L 546.028902 -122.812908 
L 541.536247 -122.812908 
L 537.043591 -122.812908 
L 532.550936 -122.812908 
L 528.05828 -122.812908 
L 523.565625 -122.812908 
L 519.072969 -122.812908 
L 514.580314 -122.812908 
L 510.087658 -122.812908 
L 505.595003 -122.812908 
L 501.102347 -122.812908 
L 496.609691 -122.812908 
L 492.117036 -122.812908 
L 487.62438 -122.812908 
L 483.131725 -122.812908 
L 478.639069 -122.812908 
L 474.146414 -122.812908 
L 469.653758 -122.812908 
L 465.161103 -122.812908 
L 460.668447 -122.812908 
L 456.175792 -122.812908 
L 451.683136 -122.812908 
L 447.190481 -122.812908 
L 442.697825 -122.812908 
L 438.20517 -122.812908 
L 433.712514 -122.812908 
L 429.219859 -122.812908 
L 424.727203 -122.812908 
L 420.234548 -122.812908 
L 415.741892 -122.812908 
L 411.249237 -122.812908 
L 406.756581 -122.812908 
L 402.263926 -122.812908 
L 397.77127 -122.812908 
L 393.278615 -122.812908 
L 388.785959 -122.812908 
L 384.293304 -122.812908 
L 379.800648 -122.812908 
L 375.307993 -122.812908 
L 370.815337 -122.812908 
L 366.322682 -122.812908 
L 361.830026 -122.812908 
L 357.337371 -122.812908 
L 352.844715 -122.812908 
L 348.352059 -122.812908 
L 343.859404 -122.812908 
L 339.366748 -122.812908 
L 334.874093 -122.812908 
L 330.381437 -122.812908 
L 325.888782 -122.812908 
L 321.396126 -122.812908 
L 316.903471 -122.812908 
L 312.410815 -122.812908 
L 307.91816 -122.812908 
L 303.425504 -122.812908 
L 298.932849 -122.812908 
L 294.440193 -122.812908 
L 289.947538 -122.812908 
L 285.454882 -122.812908 
L 280.962227 -122.812908 
L 276.469571 -122.812908 
L 271.976916 -122.812908 
L 267.48426 -122.812908 
L 262.991605 -122.812908 
L 258.498949 -122.812908 
L 254.006294 -122.812908 
L 249.513638 -122.812908 
L 245.020983 -122.812908 
L 240.528327 -122.812908 
L 236.035672 -122.812908 
L 231.543016 -122.812908 
L 227.050361 -122.812908 
L 222.557705 -122.812908 
L 218.06505 -122.812908 
L 213.572394 -122.812908 
L 209.079738 -122.812908 
L 204.587083 -122.812908 
L 200.094427 -122.812908 
z
" id="mfada6522c1" style="stroke:#595959;stroke-opacity:0.65;"/>
    </defs>
    <g clip-path="url(#p6d48110b92)">
     <use style="fill:#e99675;fill-opacity:0.65;stroke:#595959;stroke-opacity:0.65;" x="0" xlink:href="#mfada6522c1" y="315.819687"/>
    </g>
   </g>
   <g id="PathCollection_3">
    <defs>
     <path d="M 0 3.383948 
C 0.897434 3.383948 1.758231 3.027394 2.392813 2.392813 
C 3.027394 1.758231 3.383948 0.897434 3.383948 0 
C 3.383948 -0.897434 3.027394 -1.758231 2.392813 -2.392813 
C 1.758231 -3.027394 0.897434 -3.383948 0 -3.383948 
C -0.897434 -3.383948 -1.758231 -3.027394 -2.392813 -2.392813 
C -3.027394 -1.758231 -3.383948 -0.897434 -3.383948 0 
C -3.383948 0.897434 -3.027394 1.758231 -2.392813 2.392813 
C -1.758231 3.027394 -0.897434 3.383948 0 3.383948 
z
" id="C2_0_0da3319d0f"/>
    </defs>
    <g clip-path="url(#p6d48110b92)">
     <use style="fill:#ff0000;stroke:#ff0000;stroke-width:2.025;" x="299.485362" xlink:href="#C2_0_0da3319d0f" y="94.728814"/>
    </g>
    <g clip-path="url(#p6d48110b92)">
     <use style="fill:#ff0000;stroke:#ff0000;stroke-width:2.025;" x="394.177146" xlink:href="#C2_0_0da3319d0f" y="217.576271"/>
    </g>
   </g>
   <g id="line2d_5">
    <path clip-path="url(#p6d48110b92)" d="M 39.128998 90.122034 
L 39.128998 99.335593 
" style="fill:none;stroke:#595959;stroke-linecap:round;stroke-width:1.5;"/>
   </g>
   <g id="line2d_6">
    <path clip-path="url(#p6d48110b92)" d="M 543.204947 90.122034 
L 543.204947 99.335593 
" style="fill:none;stroke:#595959;stroke-linecap:round;stroke-width:1.5;"/>
   </g>
   <g id="line2d_7"/>
   <g id="line2d_8">
    <path clip-path="url(#p6d48110b92)" d="M 200.094427 212.969492 
L 200.094427 222.183051 
" style="fill:none;stroke:#595959;stroke-linecap:round;stroke-width:1.5;"/>
   </g>
   <g id="line2d_9">
    <path clip-path="url(#p6d48110b92)" d="M 644.867324 212.969492 
L 644.867324 222.183051 
" style="fill:none;stroke:#595959;stroke-linecap:round;stroke-width:1.5;"/>
   </g>
   <g id="line2d_10"/>
   <g id="line2d_11">
    <path clip-path="url(#p6d48110b92)" d="M 299.485362 94.728814 
L 394.177146 217.576271 
" style="fill:none;stroke:#ff0000;stroke-linecap:round;stroke-width:2.7;"/>
   </g>
   <g id="line2d_12">
    <path clip-path="url(#p6d48110b92)" d="M 242.574997 94.728814 
L 356.590641 94.728814 
" style="fill:none;"/>
   </g>
   <g id="line2d_13">
    <path clip-path="url(#p6d48110b92)" d="M 242.574997 94.728814 
L 242.574997 94.728814 
" style="fill:none;"/>
   </g>
   <g id="line2d_14">
    <path clip-path="url(#p6d48110b92)" d="M 356.590641 94.728814 
L 356.590641 94.728814 
" style="fill:none;"/>
   </g>
   <g id="line2d_15">
    <path clip-path="url(#p6d48110b92)" d="M 319.807652 217.576271 
L 475.824742 217.576271 
" style="fill:none;"/>
   </g>
   <g id="line2d_16">
    <path clip-path="url(#p6d48110b92)" d="M 319.807652 217.576271 
L 319.807652 217.576271 
" style="fill:none;"/>
   </g>
   <g id="line2d_17">
    <path clip-path="url(#p6d48110b92)" d="M 475.824742 217.576271 
L 475.824742 217.576271 
" style="fill:none;"/>
   </g>
   <g id="line2d_18">
    <path clip-path="url(#p6d48110b92)" d="M 286.225052 85.515254 
L 286.225052 103.942373 
" style="fill:none;stroke:#595959;stroke-linecap:round;stroke-width:1.5;"/>
   </g>
   <g id="line2d_19">
    <path clip-path="url(#p6d48110b92)" d="M 383.651496 208.362712 
L 383.651496 226.789831 
" style="fill:none;stroke:#595959;stroke-linecap:round;stroke-width:1.5;"/>
   </g>
   <g id="patch_3">
    <path d="M 7.2 279 
L 7.2 7.2 
" style="fill:none;stroke:#cccccc;stroke-linecap:square;stroke-linejoin:miter;stroke-width:1.25;"/>
   </g>
   <g id="patch_4">
    <path d="M 676.8 279 
L 676.8 7.2 
" style="fill:none;stroke:#cccccc;stroke-linecap:square;stroke-linejoin:miter;stroke-width:1.25;"/>
   </g>
   <g id="patch_5">
    <path d="M 7.2 279 
L 676.8 279 
" style="fill:none;stroke:#cccccc;stroke-linecap:square;stroke-linejoin:miter;stroke-width:1.25;"/>
   </g>
   <g id="patch_6">
    <path d="M 7.2 7.2 
L 676.8 7.2 
" style="fill:none;stroke:#cccccc;stroke-linecap:square;stroke-linejoin:miter;stroke-width:1.25;"/>
   </g>
   <g id="line2d_20">
    <path clip-path="url(#p6d48110b92)" d="M 193.03454 94.728814 
L 39.128998 94.728814 
" style="fill:none;stroke:#595959;stroke-linecap:round;stroke-width:2;"/>
   </g>
   <g id="line2d_21">
    <path clip-path="url(#p6d48110b92)" d="M 351.176014 94.728814 
L 543.204947 94.728814 
" style="fill:none;stroke:#595959;stroke-linecap:round;stroke-width:2;"/>
   </g>
   <g id="line2d_22">
    <path clip-path="url(#p6d48110b92)" d="M 302.462792 217.576271 
L 200.094427 217.576271 
" style="fill:none;stroke:#595959;stroke-linecap:round;stroke-width:2;"/>
   </g>
   <g id="line2d_23">
    <path clip-path="url(#p6d48110b92)" d="M 479.665962 217.576271 
L 644.867324 217.576271 
" style="fill:none;stroke:#595959;stroke-linecap:round;stroke-width:2;"/>
   </g>
   <g id="patch_7">
    <path clip-path="url(#p6d48110b92)" d="M 193.03454 85.515254 
L 193.03454 103.942373 
L 351.176014 103.942373 
L 351.176014 85.515254 
L 193.03454 85.515254 
z
" style="fill:none;opacity:0.65;stroke:#595959;stroke-linejoin:miter;stroke-width:1.5;"/>
   </g>
   <g id="patch_8">
    <path clip-path="url(#p6d48110b92)" d="M 302.462792 208.362712 
L 302.462792 226.789831 
L 479.665962 226.789831 
L 479.665962 208.362712 
L 302.462792 208.362712 
z
" style="fill:none;opacity:0.65;stroke:#595959;stroke-linejoin:miter;stroke-width:1.5;"/>
   </g>
  </g>
 </g>
 <defs>
  <clipPath id="p6d48110b92">
   <rect height="271.8" width="669.6" x="7.2" y="7.2"/>
  </clipPath>
 </defs>
</svg>
