<?xml version="1.0" encoding="utf-8" standalone="no"?>
<!DOCTYPE svg PUBLIC "-//W3C//DTD SVG 1.1//EN"
  "http://www.w3.org/Graphics/SVG/1.1/DTD/svg11.dtd">
<!-- Created with matplotlib (https://matplotlib.org/) -->
<svg height="365.254687pt" version="1.1" viewBox="0 0 785.496875 365.254687" width="785.496875pt" xmlns="http://www.w3.org/2000/svg" xmlns:xlink="http://www.w3.org/1999/xlink">
 <defs>
  <style type="text/css">
*{stroke-linecap:butt;stroke-linejoin:round;}
  </style>
 </defs>
 <g id="figure_1">
  <g id="patch_1">
   <path d="M 0 365.254687 
L 785.496875 365.254687 
L 785.496875 0 
L 0 0 
z
" style="fill:#ffffff;"/>
  </g>
  <g id="axes_1">
   <g id="patch_2">
    <path d="M 108.696875 302.48625 
L 778.296875 302.48625 
L 778.296875 30.68625 
L 108.696875 30.68625 
z
" style="fill:#ffffff;"/>
   </g>
   <g id="PathCollection_1">
    <defs>
     <path d="M 0 1.5 
C 0.397805 1.5 0.77937 1.341951 1.06066 1.06066 
C 1.341951 0.77937 1.5 0.397805 1.5 0 
C 1.5 -0.397805 1.341951 -0.77937 1.06066 -1.06066 
C 0.77937 -1.341951 0.397805 -1.5 0 -1.5 
C -0.397805 -1.5 -0.77937 -1.341951 -1.06066 -1.06066 
C -1.341951 -0.77937 -1.5 -0.397805 -1.5 0 
C -1.5 0.397805 -1.341951 0.77937 -1.06066 1.06066 
C -0.77937 1.341951 -0.397805 1.5 0 1.5 
z
" id="C0_0_7a6dfaa794"/>
    </defs>
    <g clip-path="url(#p083d5a765f)">
     <use style="fill:#66c2a5;" x="746.367877" xlink:href="#C0_0_7a6dfaa794" y="136.910411"/>
    </g>
    <g clip-path="url(#p083d5a765f)">
     <use style="fill:#66c2a5;" x="625.220212" xlink:href="#C0_0_7a6dfaa794" y="131.453671"/>
    </g>
    <g clip-path="url(#p083d5a765f)">
     <use style="fill:#66c2a5;" x="504.072547" xlink:href="#C0_0_7a6dfaa794" y="134.809355"/>
    </g>
    <g clip-path="url(#p083d5a765f)">
     <use style="fill:#66c2a5;" x="382.924882" xlink:href="#C0_0_7a6dfaa794" y="132.014505"/>
    </g>
    <g clip-path="url(#p083d5a765f)">
     <use style="fill:#66c2a5;" x="746.367877" xlink:href="#C0_0_7a6dfaa794" y="150.451846"/>
    </g>
    <g clip-path="url(#p083d5a765f)">
     <use style="fill:#66c2a5;" x="625.220212" xlink:href="#C0_0_7a6dfaa794" y="133.988048"/>
    </g>
    <g clip-path="url(#p083d5a765f)">
     <use style="fill:#66c2a5;" x="504.072547" xlink:href="#C0_0_7a6dfaa794" y="140.145499"/>
    </g>
    <g clip-path="url(#p083d5a765f)">
     <use style="fill:#66c2a5;" x="382.924882" xlink:href="#C0_0_7a6dfaa794" y="136.717206"/>
    </g>
    <g clip-path="url(#p083d5a765f)">
     <use style="fill:#66c2a5;" x="746.367877" xlink:href="#C0_0_7a6dfaa794" y="131.203915"/>
    </g>
    <g clip-path="url(#p083d5a765f)">
     <use style="fill:#66c2a5;" x="625.220212" xlink:href="#C0_0_7a6dfaa794" y="150.67237"/>
    </g>
    <g clip-path="url(#p083d5a765f)">
     <use style="fill:#66c2a5;" x="504.072547" xlink:href="#C0_0_7a6dfaa794" y="142.361684"/>
    </g>
    <g clip-path="url(#p083d5a765f)">
     <use style="fill:#66c2a5;" x="382.924882" xlink:href="#C0_0_7a6dfaa794" y="150.042152"/>
    </g>
    <g clip-path="url(#p083d5a765f)">
     <use style="fill:#66c2a5;" x="746.367877" xlink:href="#C0_0_7a6dfaa794" y="148.427206"/>
    </g>
    <g clip-path="url(#p083d5a765f)">
     <use style="fill:#66c2a5;" x="625.220212" xlink:href="#C0_0_7a6dfaa794" y="150.617133"/>
    </g>
    <g clip-path="url(#p083d5a765f)">
     <use style="fill:#66c2a5;" x="504.072547" xlink:href="#C0_0_7a6dfaa794" y="134.199664"/>
    </g>
    <g clip-path="url(#p083d5a765f)">
     <use style="fill:#66c2a5;" x="382.924882" xlink:href="#C0_0_7a6dfaa794" y="140.064919"/>
    </g>
    <g clip-path="url(#p083d5a765f)">
     <use style="fill:#66c2a5;" x="746.367877" xlink:href="#C0_0_7a6dfaa794" y="139.690426"/>
    </g>
    <g clip-path="url(#p083d5a765f)">
     <use style="fill:#66c2a5;" x="625.220212" xlink:href="#C0_0_7a6dfaa794" y="135.042481"/>
    </g>
    <g clip-path="url(#p083d5a765f)">
     <use style="fill:#66c2a5;" x="504.072547" xlink:href="#C0_0_7a6dfaa794" y="136.398278"/>
    </g>
    <g clip-path="url(#p083d5a765f)">
     <use style="fill:#66c2a5;" x="382.924882" xlink:href="#C0_0_7a6dfaa794" y="138.051296"/>
    </g>
    <g clip-path="url(#p083d5a765f)">
     <use style="fill:#66c2a5;" x="746.367877" xlink:href="#C0_0_7a6dfaa794" y="137.104663"/>
    </g>
    <g clip-path="url(#p083d5a765f)">
     <use style="fill:#66c2a5;" x="625.220212" xlink:href="#C0_0_7a6dfaa794" y="147.444953"/>
    </g>
    <g clip-path="url(#p083d5a765f)">
     <use style="fill:#66c2a5;" x="504.072547" xlink:href="#C0_0_7a6dfaa794" y="142.372829"/>
    </g>
    <g clip-path="url(#p083d5a765f)">
     <use style="fill:#66c2a5;" x="382.924882" xlink:href="#C0_0_7a6dfaa794" y="151.377824"/>
    </g>
   </g>
   <g id="PathCollection_2">
    <defs>
     <path d="M 0 1.5 
C 0.397805 1.5 0.77937 1.341951 1.06066 1.06066 
C 1.341951 0.77937 1.5 0.397805 1.5 0 
C 1.5 -0.397805 1.341951 -0.77937 1.06066 -1.06066 
C 0.77937 -1.341951 0.397805 -1.5 0 -1.5 
C -0.397805 -1.5 -0.77937 -1.341951 -1.06066 -1.06066 
C -1.341951 -0.77937 -1.5 -0.397805 -1.5 0 
C -1.5 0.397805 -1.341951 0.77937 -1.06066 1.06066 
C -0.77937 1.341951 -0.397805 1.5 0 1.5 
z
" id="C1_0_ff7c7b63f6"/>
    </defs>
    <g clip-path="url(#p083d5a765f)">
     <use style="fill:#fc8d62;" x="625.220212" xlink:href="#C1_0_ff7c7b63f6" y="261.178643"/>
    </g>
    <g clip-path="url(#p083d5a765f)">
     <use style="fill:#fc8d62;" x="382.924882" xlink:href="#C1_0_ff7c7b63f6" y="274.99595"/>
    </g>
    <g clip-path="url(#p083d5a765f)">
     <use style="fill:#fc8d62;" x="261.777217" xlink:href="#C1_0_ff7c7b63f6" y="265.085353"/>
    </g>
    <g clip-path="url(#p083d5a765f)">
     <use style="fill:#fc8d62;" x="140.629551" xlink:href="#C1_0_ff7c7b63f6" y="274.427712"/>
    </g>
    <g clip-path="url(#p083d5a765f)">
     <use style="fill:#fc8d62;" x="625.220212" xlink:href="#C1_0_ff7c7b63f6" y="261.254085"/>
    </g>
    <g clip-path="url(#p083d5a765f)">
     <use style="fill:#fc8d62;" x="382.924882" xlink:href="#C1_0_ff7c7b63f6" y="266.634247"/>
    </g>
    <g clip-path="url(#p083d5a765f)">
     <use style="fill:#fc8d62;" x="261.777217" xlink:href="#C1_0_ff7c7b63f6" y="259.740148"/>
    </g>
    <g clip-path="url(#p083d5a765f)">
     <use style="fill:#fc8d62;" x="140.629551" xlink:href="#C1_0_ff7c7b63f6" y="269.579168"/>
    </g>
    <g clip-path="url(#p083d5a765f)">
     <use style="fill:#fc8d62;" x="625.220212" xlink:href="#C1_0_ff7c7b63f6" y="267.169441"/>
    </g>
    <g clip-path="url(#p083d5a765f)">
     <use style="fill:#fc8d62;" x="382.924882" xlink:href="#C1_0_ff7c7b63f6" y="273.274546"/>
    </g>
    <g clip-path="url(#p083d5a765f)">
     <use style="fill:#fc8d62;" x="261.777217" xlink:href="#C1_0_ff7c7b63f6" y="262.511508"/>
    </g>
    <g clip-path="url(#p083d5a765f)">
     <use style="fill:#fc8d62;" x="140.629551" xlink:href="#C1_0_ff7c7b63f6" y="265.396993"/>
    </g>
    <g clip-path="url(#p083d5a765f)">
     <use style="fill:#fc8d62;" x="625.220212" xlink:href="#C1_0_ff7c7b63f6" y="255.588314"/>
    </g>
    <g clip-path="url(#p083d5a765f)">
     <use style="fill:#fc8d62;" x="382.924882" xlink:href="#C1_0_ff7c7b63f6" y="271.704782"/>
    </g>
    <g clip-path="url(#p083d5a765f)">
     <use style="fill:#fc8d62;" x="261.777217" xlink:href="#C1_0_ff7c7b63f6" y="258.290508"/>
    </g>
    <g clip-path="url(#p083d5a765f)">
     <use style="fill:#fc8d62;" x="140.629551" xlink:href="#C1_0_ff7c7b63f6" y="270.580108"/>
    </g>
    <g clip-path="url(#p083d5a765f)">
     <use style="fill:#fc8d62;" x="625.220212" xlink:href="#C1_0_ff7c7b63f6" y="274.964397"/>
    </g>
    <g clip-path="url(#p083d5a765f)">
     <use style="fill:#fc8d62;" x="382.924882" xlink:href="#C1_0_ff7c7b63f6" y="276.362946"/>
    </g>
    <g clip-path="url(#p083d5a765f)">
     <use style="fill:#fc8d62;" x="261.777217" xlink:href="#C1_0_ff7c7b63f6" y="261.141723"/>
    </g>
    <g clip-path="url(#p083d5a765f)">
     <use style="fill:#fc8d62;" x="140.629551" xlink:href="#C1_0_ff7c7b63f6" y="274.459548"/>
    </g>
    <g clip-path="url(#p083d5a765f)">
     <use style="fill:#fc8d62;" x="625.220212" xlink:href="#C1_0_ff7c7b63f6" y="262.002848"/>
    </g>
    <g clip-path="url(#p083d5a765f)">
     <use style="fill:#fc8d62;" x="382.924882" xlink:href="#C1_0_ff7c7b63f6" y="266.751449"/>
    </g>
    <g clip-path="url(#p083d5a765f)">
     <use style="fill:#fc8d62;" x="261.777217" xlink:href="#C1_0_ff7c7b63f6" y="260.698331"/>
    </g>
    <g clip-path="url(#p083d5a765f)">
     <use style="fill:#fc8d62;" x="140.629551" xlink:href="#C1_0_ff7c7b63f6" y="254.409093"/>
    </g>
   </g>
   <g id="matplotlib.axis_1">
    <g id="xtick_1">
     <g id="line2d_1">
      <path clip-path="url(#p083d5a765f)" d="M 140.629551 302.48625 
L 140.629551 30.68625 
" style="fill:none;stroke:#cccccc;stroke-linecap:round;"/>
     </g>
     <g id="text_1">
      <!-- 50 -->
      <defs>
       <path d="M 4.15625 18.75 
L 13.375 19.53125 
Q 14.40625 12.796875 18.140625 9.390625 
Q 21.875 6 27.15625 6 
Q 33.5 6 37.890625 10.78125 
Q 42.28125 15.578125 42.28125 23.484375 
Q 42.28125 31 38.0625 35.34375 
Q 33.84375 39.703125 27 39.703125 
Q 22.75 39.703125 19.328125 37.765625 
Q 15.921875 35.84375 13.96875 32.765625 
L 5.71875 33.84375 
L 12.640625 70.609375 
L 48.25 70.609375 
L 48.25 62.203125 
L 19.671875 62.203125 
L 15.828125 42.96875 
Q 22.265625 47.46875 29.34375 47.46875 
Q 38.71875 47.46875 45.15625 40.96875 
Q 51.609375 34.46875 51.609375 24.265625 
Q 51.609375 14.546875 45.953125 7.46875 
Q 39.0625 -1.21875 27.15625 -1.21875 
Q 17.390625 -1.21875 11.203125 4.25 
Q 5.03125 9.71875 4.15625 18.75 
z
" id="ArialMT-53"/>
       <path d="M 4.15625 35.296875 
Q 4.15625 48 6.765625 55.734375 
Q 9.375 63.484375 14.515625 67.671875 
Q 19.671875 71.875 27.484375 71.875 
Q 33.25 71.875 37.59375 69.546875 
Q 41.9375 67.234375 44.765625 62.859375 
Q 47.609375 58.5 49.21875 52.21875 
Q 50.828125 45.953125 50.828125 35.296875 
Q 50.828125 22.703125 48.234375 14.96875 
Q 45.65625 7.234375 40.5 3 
Q 35.359375 -1.21875 27.484375 -1.21875 
Q 17.140625 -1.21875 11.234375 6.203125 
Q 4.15625 15.140625 4.15625 35.296875 
z
M 13.1875 35.296875 
Q 13.1875 17.671875 17.3125 11.828125 
Q 21.4375 6 27.484375 6 
Q 33.546875 6 37.671875 11.859375 
Q 41.796875 17.71875 41.796875 35.296875 
Q 41.796875 52.984375 37.671875 58.78125 
Q 33.546875 64.59375 27.390625 64.59375 
Q 21.34375 64.59375 17.71875 59.46875 
Q 13.1875 52.9375 13.1875 35.296875 
z
" id="ArialMT-48"/>
      </defs>
      <g style="fill:#262626;" transform="translate(128.395489 327.733437)scale(0.22 -0.22)">
       <use xlink:href="#ArialMT-53"/>
       <use x="55.615234" xlink:href="#ArialMT-48"/>
      </g>
     </g>
    </g>
    <g id="xtick_2">
     <g id="line2d_2">
      <path clip-path="url(#p083d5a765f)" d="M 261.777217 302.48625 
L 261.777217 30.68625 
" style="fill:none;stroke:#cccccc;stroke-linecap:round;"/>
     </g>
     <g id="text_2">
      <!-- 60 -->
      <defs>
       <path d="M 49.75 54.046875 
L 41.015625 53.375 
Q 39.84375 58.546875 37.703125 60.890625 
Q 34.125 64.65625 28.90625 64.65625 
Q 24.703125 64.65625 21.53125 62.3125 
Q 17.390625 59.28125 14.984375 53.46875 
Q 12.59375 47.65625 12.5 36.921875 
Q 15.671875 41.75 20.265625 44.09375 
Q 24.859375 46.4375 29.890625 46.4375 
Q 38.671875 46.4375 44.84375 39.96875 
Q 51.03125 33.5 51.03125 23.25 
Q 51.03125 16.5 48.125 10.71875 
Q 45.21875 4.9375 40.140625 1.859375 
Q 35.0625 -1.21875 28.609375 -1.21875 
Q 17.625 -1.21875 10.6875 6.859375 
Q 3.765625 14.9375 3.765625 33.5 
Q 3.765625 54.25 11.421875 63.671875 
Q 18.109375 71.875 29.4375 71.875 
Q 37.890625 71.875 43.28125 67.140625 
Q 48.6875 62.40625 49.75 54.046875 
z
M 13.875 23.1875 
Q 13.875 18.65625 15.796875 14.5 
Q 17.71875 10.359375 21.1875 8.171875 
Q 24.65625 6 28.46875 6 
Q 34.03125 6 38.03125 10.484375 
Q 42.046875 14.984375 42.046875 22.703125 
Q 42.046875 30.125 38.078125 34.390625 
Q 34.125 38.671875 28.125 38.671875 
Q 22.171875 38.671875 18.015625 34.390625 
Q 13.875 30.125 13.875 23.1875 
z
" id="ArialMT-54"/>
      </defs>
      <g style="fill:#262626;" transform="translate(249.543154 327.733437)scale(0.22 -0.22)">
       <use xlink:href="#ArialMT-54"/>
       <use x="55.615234" xlink:href="#ArialMT-48"/>
      </g>
     </g>
    </g>
    <g id="xtick_3">
     <g id="line2d_3">
      <path clip-path="url(#p083d5a765f)" d="M 382.924882 302.48625 
L 382.924882 30.68625 
" style="fill:none;stroke:#cccccc;stroke-linecap:round;"/>
     </g>
     <g id="text_3">
      <!-- 70 -->
      <defs>
       <path d="M 4.734375 62.203125 
L 4.734375 70.65625 
L 51.078125 70.65625 
L 51.078125 63.8125 
Q 44.234375 56.546875 37.515625 44.484375 
Q 30.8125 32.421875 27.15625 19.671875 
Q 24.515625 10.6875 23.78125 0 
L 14.75 0 
Q 14.890625 8.453125 18.0625 20.40625 
Q 21.234375 32.375 27.171875 43.484375 
Q 33.109375 54.59375 39.796875 62.203125 
z
" id="ArialMT-55"/>
      </defs>
      <g style="fill:#262626;" transform="translate(370.690819 327.733437)scale(0.22 -0.22)">
       <use xlink:href="#ArialMT-55"/>
       <use x="55.615234" xlink:href="#ArialMT-48"/>
      </g>
     </g>
    </g>
    <g id="xtick_4">
     <g id="line2d_4">
      <path clip-path="url(#p083d5a765f)" d="M 504.072547 302.48625 
L 504.072547 30.68625 
" style="fill:none;stroke:#cccccc;stroke-linecap:round;"/>
     </g>
     <g id="text_4">
      <!-- 80 -->
      <defs>
       <path d="M 17.671875 38.8125 
Q 12.203125 40.828125 9.5625 44.53125 
Q 6.9375 48.25 6.9375 53.421875 
Q 6.9375 61.234375 12.546875 66.546875 
Q 18.171875 71.875 27.484375 71.875 
Q 36.859375 71.875 42.578125 66.421875 
Q 48.296875 60.984375 48.296875 53.171875 
Q 48.296875 48.1875 45.671875 44.5 
Q 43.0625 40.828125 37.75 38.8125 
Q 44.34375 36.671875 47.78125 31.875 
Q 51.21875 27.09375 51.21875 20.453125 
Q 51.21875 11.28125 44.71875 5.03125 
Q 38.234375 -1.21875 27.640625 -1.21875 
Q 17.046875 -1.21875 10.546875 5.046875 
Q 4.046875 11.328125 4.046875 20.703125 
Q 4.046875 27.6875 7.59375 32.390625 
Q 11.140625 37.109375 17.671875 38.8125 
z
M 15.921875 53.71875 
Q 15.921875 48.640625 19.1875 45.40625 
Q 22.46875 42.1875 27.6875 42.1875 
Q 32.765625 42.1875 36.015625 45.375 
Q 39.265625 48.578125 39.265625 53.21875 
Q 39.265625 58.0625 35.90625 61.359375 
Q 32.5625 64.65625 27.59375 64.65625 
Q 22.5625 64.65625 19.234375 61.421875 
Q 15.921875 58.203125 15.921875 53.71875 
z
M 13.09375 20.65625 
Q 13.09375 16.890625 14.875 13.375 
Q 16.65625 9.859375 20.171875 7.921875 
Q 23.6875 6 27.734375 6 
Q 34.03125 6 38.125 10.046875 
Q 42.234375 14.109375 42.234375 20.359375 
Q 42.234375 26.703125 38.015625 30.859375 
Q 33.796875 35.015625 27.4375 35.015625 
Q 21.234375 35.015625 17.15625 30.90625 
Q 13.09375 26.8125 13.09375 20.65625 
z
" id="ArialMT-56"/>
      </defs>
      <g style="fill:#262626;" transform="translate(491.838484 327.733437)scale(0.22 -0.22)">
       <use xlink:href="#ArialMT-56"/>
       <use x="55.615234" xlink:href="#ArialMT-48"/>
      </g>
     </g>
    </g>
    <g id="xtick_5">
     <g id="line2d_5">
      <path clip-path="url(#p083d5a765f)" d="M 625.220212 302.48625 
L 625.220212 30.68625 
" style="fill:none;stroke:#cccccc;stroke-linecap:round;"/>
     </g>
     <g id="text_5">
      <!-- 90 -->
      <defs>
       <path d="M 5.46875 16.546875 
L 13.921875 17.328125 
Q 14.984375 11.375 18.015625 8.6875 
Q 21.046875 6 25.78125 6 
Q 29.828125 6 32.875 7.859375 
Q 35.9375 9.71875 37.890625 12.8125 
Q 39.84375 15.921875 41.15625 21.1875 
Q 42.484375 26.46875 42.484375 31.9375 
Q 42.484375 32.515625 42.4375 33.6875 
Q 39.796875 29.5 35.234375 26.875 
Q 30.671875 24.265625 25.34375 24.265625 
Q 16.453125 24.265625 10.296875 30.703125 
Q 4.15625 37.15625 4.15625 47.703125 
Q 4.15625 58.59375 10.578125 65.234375 
Q 17 71.875 26.65625 71.875 
Q 33.640625 71.875 39.421875 68.109375 
Q 45.21875 64.359375 48.21875 57.390625 
Q 51.21875 50.4375 51.21875 37.25 
Q 51.21875 23.53125 48.234375 15.40625 
Q 45.265625 7.28125 39.375 3.03125 
Q 33.5 -1.21875 25.59375 -1.21875 
Q 17.1875 -1.21875 11.859375 3.4375 
Q 6.546875 8.109375 5.46875 16.546875 
z
M 41.453125 48.140625 
Q 41.453125 55.71875 37.421875 60.15625 
Q 33.40625 64.59375 27.734375 64.59375 
Q 21.875 64.59375 17.53125 59.8125 
Q 13.1875 55.03125 13.1875 47.40625 
Q 13.1875 40.578125 17.3125 36.296875 
Q 21.4375 32.03125 27.484375 32.03125 
Q 33.59375 32.03125 37.515625 36.296875 
Q 41.453125 40.578125 41.453125 48.140625 
z
" id="ArialMT-57"/>
      </defs>
      <g style="fill:#262626;" transform="translate(612.986149 327.733437)scale(0.22 -0.22)">
       <use xlink:href="#ArialMT-57"/>
       <use x="55.615234" xlink:href="#ArialMT-48"/>
      </g>
     </g>
    </g>
    <g id="xtick_6">
     <g id="line2d_6">
      <path clip-path="url(#p083d5a765f)" d="M 746.367877 302.48625 
L 746.367877 30.68625 
" style="fill:none;stroke:#cccccc;stroke-linecap:round;"/>
     </g>
     <g id="text_6">
      <!-- 100 -->
      <defs>
       <path d="M 37.25 0 
L 28.46875 0 
L 28.46875 56 
Q 25.296875 52.984375 20.140625 49.953125 
Q 14.984375 46.921875 10.890625 45.40625 
L 10.890625 53.90625 
Q 18.265625 57.375 23.78125 62.296875 
Q 29.296875 67.234375 31.59375 71.875 
L 37.25 71.875 
z
" id="ArialMT-49"/>
      </defs>
      <g style="fill:#262626;" transform="translate(728.016783 327.733437)scale(0.22 -0.22)">
       <use xlink:href="#ArialMT-49"/>
       <use x="55.615234" xlink:href="#ArialMT-48"/>
       <use x="111.230469" xlink:href="#ArialMT-48"/>
      </g>
     </g>
    </g>
    <g id="text_7">
     <!-- PDQ39 -->
     <defs>
      <path d="M 7.71875 0 
L 7.71875 71.578125 
L 34.71875 71.578125 
Q 41.84375 71.578125 45.609375 70.90625 
Q 50.875 70.015625 54.4375 67.546875 
Q 58.015625 65.09375 60.1875 60.640625 
Q 62.359375 56.203125 62.359375 50.875 
Q 62.359375 41.75 56.546875 35.421875 
Q 50.734375 29.109375 35.546875 29.109375 
L 17.1875 29.109375 
L 17.1875 0 
z
M 17.1875 37.546875 
L 35.6875 37.546875 
Q 44.875 37.546875 48.734375 40.96875 
Q 52.59375 44.390625 52.59375 50.59375 
Q 52.59375 55.078125 50.3125 58.265625 
Q 48.046875 61.46875 44.34375 62.5 
Q 41.9375 63.140625 35.5 63.140625 
L 17.1875 63.140625 
z
" id="ArialMT-80"/>
      <path d="M 7.71875 0 
L 7.71875 71.578125 
L 32.375 71.578125 
Q 40.71875 71.578125 45.125 70.5625 
Q 51.265625 69.140625 55.609375 65.4375 
Q 61.28125 60.640625 64.078125 53.1875 
Q 66.890625 45.75 66.890625 36.1875 
Q 66.890625 28.03125 64.984375 21.734375 
Q 63.09375 15.4375 60.109375 11.296875 
Q 57.125 7.171875 53.578125 4.796875 
Q 50.046875 2.4375 45.046875 1.21875 
Q 40.046875 0 33.546875 0 
z
M 17.1875 8.453125 
L 32.46875 8.453125 
Q 39.546875 8.453125 43.578125 9.765625 
Q 47.609375 11.078125 50 13.484375 
Q 53.375 16.84375 55.25 22.53125 
Q 57.125 28.21875 57.125 36.328125 
Q 57.125 47.5625 53.4375 53.59375 
Q 49.75 59.625 44.484375 61.671875 
Q 40.671875 63.140625 32.234375 63.140625 
L 17.1875 63.140625 
z
" id="ArialMT-68"/>
      <path d="M 61.96875 7.671875 
Q 68.5625 3.125 74.125 1.03125 
L 71.34375 -5.5625 
Q 63.625 -2.78125 55.953125 3.21875 
Q 48 -1.21875 38.375 -1.21875 
Q 28.65625 -1.21875 20.75 3.46875 
Q 12.84375 8.15625 8.5625 16.640625 
Q 4.296875 25.140625 4.296875 35.796875 
Q 4.296875 46.390625 8.59375 55.078125 
Q 12.890625 63.765625 20.828125 68.3125 
Q 28.765625 72.859375 38.578125 72.859375 
Q 48.484375 72.859375 56.4375 68.140625 
Q 64.40625 63.421875 68.578125 54.953125 
Q 72.75 46.484375 72.75 35.84375 
Q 72.75 27 70.0625 19.9375 
Q 67.390625 12.890625 61.96875 7.671875 
z
M 41.109375 19.78125 
Q 49.3125 17.484375 54.640625 12.9375 
Q 62.984375 20.5625 62.984375 35.84375 
Q 62.984375 44.53125 60.03125 51.015625 
Q 57.078125 57.515625 51.390625 61.109375 
Q 45.703125 64.703125 38.625 64.703125 
Q 28.03125 64.703125 21.046875 57.453125 
Q 14.0625 50.203125 14.0625 35.796875 
Q 14.0625 21.828125 20.96875 14.359375 
Q 27.875 6.890625 38.625 6.890625 
Q 43.703125 6.890625 48.1875 8.796875 
Q 43.75 11.671875 38.8125 12.890625 
z
" id="ArialMT-81"/>
      <path d="M 4.203125 18.890625 
L 12.984375 20.0625 
Q 14.5 12.59375 18.140625 9.296875 
Q 21.78125 6 27 6 
Q 33.203125 6 37.46875 10.296875 
Q 41.75 14.59375 41.75 20.953125 
Q 41.75 27 37.796875 30.921875 
Q 33.84375 34.859375 27.734375 34.859375 
Q 25.25 34.859375 21.53125 33.890625 
L 22.515625 41.609375 
Q 23.390625 41.5 23.921875 41.5 
Q 29.546875 41.5 34.03125 44.421875 
Q 38.53125 47.359375 38.53125 53.46875 
Q 38.53125 58.296875 35.25 61.46875 
Q 31.984375 64.65625 26.8125 64.65625 
Q 21.6875 64.65625 18.265625 61.421875 
Q 14.84375 58.203125 13.875 51.765625 
L 5.078125 53.328125 
Q 6.6875 62.15625 12.390625 67.015625 
Q 18.109375 71.875 26.609375 71.875 
Q 32.46875 71.875 37.390625 69.359375 
Q 42.328125 66.84375 44.9375 62.5 
Q 47.5625 58.15625 47.5625 53.265625 
Q 47.5625 48.640625 45.0625 44.828125 
Q 42.578125 41.015625 37.703125 38.765625 
Q 44.046875 37.3125 47.5625 32.6875 
Q 51.078125 28.078125 51.078125 21.140625 
Q 51.078125 11.765625 44.234375 5.25 
Q 37.40625 -1.265625 26.953125 -1.265625 
Q 17.53125 -1.265625 11.296875 4.34375 
Q 5.078125 9.96875 4.203125 18.890625 
z
" id="ArialMT-51"/>
     </defs>
     <g style="fill:#262626;" transform="translate(404.14625 353.284687)scale(0.24 -0.24)">
      <use xlink:href="#ArialMT-80"/>
      <use x="66.699219" xlink:href="#ArialMT-68"/>
      <use x="138.916016" xlink:href="#ArialMT-81"/>
      <use x="216.699219" xlink:href="#ArialMT-51"/>
      <use x="272.314453" xlink:href="#ArialMT-57"/>
     </g>
    </g>
   </g>
   <g id="matplotlib.axis_2">
    <g id="ytick_1">
     <g id="text_8">
      <!-- preop -->
      <defs>
       <path d="M 6.59375 -19.875 
L 6.59375 51.859375 
L 14.59375 51.859375 
L 14.59375 45.125 
Q 17.4375 49.078125 21 51.046875 
Q 24.5625 53.03125 29.640625 53.03125 
Q 36.28125 53.03125 41.359375 49.609375 
Q 46.4375 46.1875 49.015625 39.953125 
Q 51.609375 33.734375 51.609375 26.3125 
Q 51.609375 18.359375 48.75 11.984375 
Q 45.90625 5.609375 40.453125 2.21875 
Q 35.015625 -1.171875 29 -1.171875 
Q 24.609375 -1.171875 21.109375 0.6875 
Q 17.625 2.546875 15.375 5.375 
L 15.375 -19.875 
z
M 14.546875 25.640625 
Q 14.546875 15.625 18.59375 10.84375 
Q 22.65625 6.0625 28.421875 6.0625 
Q 34.28125 6.0625 38.453125 11.015625 
Q 42.625 15.96875 42.625 26.375 
Q 42.625 36.28125 38.546875 41.203125 
Q 34.46875 46.140625 28.8125 46.140625 
Q 23.1875 46.140625 18.859375 40.890625 
Q 14.546875 35.640625 14.546875 25.640625 
z
" id="ArialMT-112"/>
       <path d="M 6.5 0 
L 6.5 51.859375 
L 14.40625 51.859375 
L 14.40625 44 
Q 17.4375 49.515625 20 51.265625 
Q 22.5625 53.03125 25.640625 53.03125 
Q 30.078125 53.03125 34.671875 50.203125 
L 31.640625 42.046875 
Q 28.421875 43.953125 25.203125 43.953125 
Q 22.3125 43.953125 20.015625 42.21875 
Q 17.71875 40.484375 16.75 37.40625 
Q 15.28125 32.71875 15.28125 27.15625 
L 15.28125 0 
z
" id="ArialMT-114"/>
       <path d="M 42.09375 16.703125 
L 51.171875 15.578125 
Q 49.03125 7.625 43.21875 3.21875 
Q 37.40625 -1.171875 28.375 -1.171875 
Q 17 -1.171875 10.328125 5.828125 
Q 3.65625 12.84375 3.65625 25.484375 
Q 3.65625 38.578125 10.390625 45.796875 
Q 17.140625 53.03125 27.875 53.03125 
Q 38.28125 53.03125 44.875 45.953125 
Q 51.46875 38.875 51.46875 26.03125 
Q 51.46875 25.25 51.421875 23.6875 
L 12.75 23.6875 
Q 13.234375 15.140625 17.578125 10.59375 
Q 21.921875 6.0625 28.421875 6.0625 
Q 33.25 6.0625 36.671875 8.59375 
Q 40.09375 11.140625 42.09375 16.703125 
z
M 13.234375 30.90625 
L 42.1875 30.90625 
Q 41.609375 37.453125 38.875 40.71875 
Q 34.671875 45.796875 27.984375 45.796875 
Q 21.921875 45.796875 17.796875 41.75 
Q 13.671875 37.703125 13.234375 30.90625 
z
" id="ArialMT-101"/>
       <path d="M 3.328125 25.921875 
Q 3.328125 40.328125 11.328125 47.265625 
Q 18.015625 53.03125 27.640625 53.03125 
Q 38.328125 53.03125 45.109375 46.015625 
Q 51.90625 39.015625 51.90625 26.65625 
Q 51.90625 16.65625 48.90625 10.90625 
Q 45.90625 5.171875 40.15625 2 
Q 34.421875 -1.171875 27.640625 -1.171875 
Q 16.75 -1.171875 10.03125 5.8125 
Q 3.328125 12.796875 3.328125 25.921875 
z
M 12.359375 25.921875 
Q 12.359375 15.96875 16.703125 11.015625 
Q 21.046875 6.0625 27.640625 6.0625 
Q 34.1875 6.0625 38.53125 11.03125 
Q 42.875 16.015625 42.875 26.21875 
Q 42.875 35.84375 38.5 40.796875 
Q 34.125 45.75 27.640625 45.75 
Q 21.046875 45.75 16.703125 40.8125 
Q 12.359375 35.890625 12.359375 25.921875 
z
" id="ArialMT-111"/>
      </defs>
      <g style="fill:#262626;" transform="translate(42.935313 126.088657)scale(0.22 -0.22)">
       <use xlink:href="#ArialMT-112"/>
       <use x="55.615234" xlink:href="#ArialMT-114"/>
       <use x="88.916016" xlink:href="#ArialMT-101"/>
       <use x="144.53125" xlink:href="#ArialMT-111"/>
       <use x="200.146484" xlink:href="#ArialMT-112"/>
      </g>
     </g>
    </g>
    <g id="ytick_2">
     <g id="text_9">
      <!-- postop -->
      <defs>
       <path d="M 3.078125 15.484375 
L 11.765625 16.84375 
Q 12.5 11.625 15.84375 8.84375 
Q 19.1875 6.0625 25.203125 6.0625 
Q 31.25 6.0625 34.171875 8.515625 
Q 37.109375 10.984375 37.109375 14.3125 
Q 37.109375 17.28125 34.515625 19 
Q 32.71875 20.171875 25.53125 21.96875 
Q 15.875 24.421875 12.140625 26.203125 
Q 8.40625 27.984375 6.46875 31.125 
Q 4.546875 34.28125 4.546875 38.09375 
Q 4.546875 41.546875 6.125 44.5 
Q 7.71875 47.46875 10.453125 49.421875 
Q 12.5 50.921875 16.03125 51.96875 
Q 19.578125 53.03125 23.640625 53.03125 
Q 29.734375 53.03125 34.34375 51.265625 
Q 38.96875 49.515625 41.15625 46.5 
Q 43.359375 43.5 44.1875 38.484375 
L 35.59375 37.3125 
Q 35.015625 41.3125 32.203125 43.546875 
Q 29.390625 45.796875 24.265625 45.796875 
Q 18.21875 45.796875 15.625 43.796875 
Q 13.03125 41.796875 13.03125 39.109375 
Q 13.03125 37.40625 14.109375 36.03125 
Q 15.1875 34.625 17.484375 33.6875 
Q 18.796875 33.203125 25.25 31.453125 
Q 34.578125 28.953125 38.25 27.359375 
Q 41.9375 25.78125 44.03125 22.75 
Q 46.140625 19.734375 46.140625 15.234375 
Q 46.140625 10.84375 43.578125 6.953125 
Q 41.015625 3.078125 36.171875 0.953125 
Q 31.34375 -1.171875 25.25 -1.171875 
Q 15.140625 -1.171875 9.84375 3.03125 
Q 4.546875 7.234375 3.078125 15.484375 
z
" id="ArialMT-115"/>
       <path d="M 25.78125 7.859375 
L 27.046875 0.09375 
Q 23.34375 -0.6875 20.40625 -0.6875 
Q 15.625 -0.6875 12.984375 0.828125 
Q 10.359375 2.34375 9.28125 4.8125 
Q 8.203125 7.28125 8.203125 15.1875 
L 8.203125 45.015625 
L 1.765625 45.015625 
L 1.765625 51.859375 
L 8.203125 51.859375 
L 8.203125 64.703125 
L 16.9375 69.96875 
L 16.9375 51.859375 
L 25.78125 51.859375 
L 25.78125 45.015625 
L 16.9375 45.015625 
L 16.9375 14.703125 
Q 16.9375 10.9375 17.40625 9.859375 
Q 17.875 8.796875 18.921875 8.15625 
Q 19.96875 7.515625 21.921875 7.515625 
Q 23.390625 7.515625 25.78125 7.859375 
z
" id="ArialMT-116"/>
      </defs>
      <g style="fill:#262626;" transform="translate(33.14875 248.936115)scale(0.22 -0.22)">
       <use xlink:href="#ArialMT-112"/>
       <use x="55.615234" xlink:href="#ArialMT-111"/>
       <use x="111.230469" xlink:href="#ArialMT-115"/>
       <use x="161.230469" xlink:href="#ArialMT-116"/>
       <use x="189.013672" xlink:href="#ArialMT-111"/>
       <use x="244.628906" xlink:href="#ArialMT-112"/>
      </g>
     </g>
    </g>
    <g id="text_10">
     <!-- timepoint -->
     <defs>
      <path d="M 6.640625 61.46875 
L 6.640625 71.578125 
L 15.4375 71.578125 
L 15.4375 61.46875 
z
M 6.640625 0 
L 6.640625 51.859375 
L 15.4375 51.859375 
L 15.4375 0 
z
" id="ArialMT-105"/>
      <path d="M 6.59375 0 
L 6.59375 51.859375 
L 14.453125 51.859375 
L 14.453125 44.578125 
Q 16.890625 48.390625 20.9375 50.703125 
Q 25 53.03125 30.171875 53.03125 
Q 35.9375 53.03125 39.625 50.640625 
Q 43.3125 48.25 44.828125 43.953125 
Q 50.984375 53.03125 60.84375 53.03125 
Q 68.5625 53.03125 72.703125 48.75 
Q 76.859375 44.484375 76.859375 35.59375 
L 76.859375 0 
L 68.109375 0 
L 68.109375 32.671875 
Q 68.109375 37.9375 67.25 40.25 
Q 66.40625 42.578125 64.15625 43.984375 
Q 61.921875 45.40625 58.890625 45.40625 
Q 53.421875 45.40625 49.796875 41.765625 
Q 46.1875 38.140625 46.1875 30.125 
L 46.1875 0 
L 37.40625 0 
L 37.40625 33.6875 
Q 37.40625 39.546875 35.25 42.46875 
Q 33.109375 45.40625 28.21875 45.40625 
Q 24.515625 45.40625 21.359375 43.453125 
Q 18.21875 41.5 16.796875 37.734375 
Q 15.375 33.984375 15.375 26.90625 
L 15.375 0 
z
" id="ArialMT-109"/>
      <path d="M 6.59375 0 
L 6.59375 51.859375 
L 14.5 51.859375 
L 14.5 44.484375 
Q 20.21875 53.03125 31 53.03125 
Q 35.6875 53.03125 39.625 51.34375 
Q 43.5625 49.65625 45.515625 46.921875 
Q 47.46875 44.1875 48.25 40.4375 
Q 48.734375 37.984375 48.734375 31.890625 
L 48.734375 0 
L 39.9375 0 
L 39.9375 31.546875 
Q 39.9375 36.921875 38.90625 39.578125 
Q 37.890625 42.234375 35.28125 43.8125 
Q 32.671875 45.40625 29.15625 45.40625 
Q 23.53125 45.40625 19.453125 41.84375 
Q 15.375 38.28125 15.375 28.328125 
L 15.375 0 
z
" id="ArialMT-110"/>
     </defs>
     <g style="fill:#262626;" transform="translate(24.37875 215.274375)rotate(-90)scale(0.24 -0.24)">
      <use xlink:href="#ArialMT-116"/>
      <use x="27.783203" xlink:href="#ArialMT-105"/>
      <use x="50" xlink:href="#ArialMT-109"/>
      <use x="133.300781" xlink:href="#ArialMT-101"/>
      <use x="188.916016" xlink:href="#ArialMT-112"/>
      <use x="244.53125" xlink:href="#ArialMT-111"/>
      <use x="300.146484" xlink:href="#ArialMT-105"/>
      <use x="322.363281" xlink:href="#ArialMT-110"/>
      <use x="377.978516" xlink:href="#ArialMT-116"/>
     </g>
    </g>
   </g>
   <g id="PolyCollection_1">
    <defs>
     <path d="M 382.924882 -271.609115 
L 382.924882 -314.602765 
L 386.596023 -314.228387 
L 390.267164 -313.121968 
L 393.938306 -311.341862 
L 397.609447 -308.979719 
L 401.280588 -306.153202 
L 404.95173 -302.997029 
L 408.622871 -299.653395 
L 412.294012 -296.262819 
L 415.965154 -292.956322 
L 419.636295 -289.849602 
L 423.307437 -287.039526 
L 426.978578 -284.602934 
L 430.649719 -282.597445 
L 434.320861 -281.063693 
L 437.992002 -280.02833 
L 441.663143 -279.507058 
L 445.334285 -279.507059 
L 449.005426 -280.02833 
L 452.676567 -281.063693 
L 456.347709 -282.597445 
L 460.01885 -284.602935 
L 463.689992 -287.039527 
L 467.361133 -289.849605 
L 471.032274 -292.956329 
L 474.703416 -296.262835 
L 478.374557 -299.653428 
L 482.045698 -302.997095 
L 485.71684 -306.153332 
L 489.387981 -308.979971 
L 493.059122 -311.342341 
L 496.730264 -313.122863 
L 500.401405 -314.230028 
L 504.072547 -314.605726 
L 507.743688 -314.230028 
L 511.414829 -313.122863 
L 515.085971 -311.342341 
L 518.757112 -308.979971 
L 522.428253 -306.153332 
L 526.099395 -302.997095 
L 529.770536 -299.653428 
L 533.441677 -296.262835 
L 537.112819 -292.956329 
L 540.78396 -289.849605 
L 544.455102 -287.039527 
L 548.126243 -284.602935 
L 551.797384 -282.597445 
L 555.468526 -281.063693 
L 559.139667 -280.02833 
L 562.810808 -279.507059 
L 566.48195 -279.507059 
L 570.153091 -280.02833 
L 573.824232 -281.063693 
L 577.495374 -282.597445 
L 581.166515 -284.602935 
L 584.837657 -287.039527 
L 588.508798 -289.849605 
L 592.179939 -292.956329 
L 595.851081 -296.262835 
L 599.522222 -299.653428 
L 603.193363 -302.997095 
L 606.864505 -306.153332 
L 610.535646 -308.979971 
L 614.206787 -311.342341 
L 617.877929 -313.122863 
L 621.54907 -314.230028 
L 625.220212 -314.605726 
L 628.891353 -314.230028 
L 632.562494 -313.122863 
L 636.233636 -311.342341 
L 639.904777 -308.979971 
L 643.575918 -306.153332 
L 647.24706 -302.997095 
L 650.918201 -299.653428 
L 654.589342 -296.262835 
L 658.260484 -292.956329 
L 661.931625 -289.849605 
L 665.602767 -287.039527 
L 669.273908 -284.602935 
L 672.945049 -282.597445 
L 676.616191 -281.063693 
L 680.287332 -280.02833 
L 683.958473 -279.507059 
L 687.629615 -279.507058 
L 691.300756 -280.02833 
L 694.971898 -281.063693 
L 698.643039 -282.597445 
L 702.31418 -284.602934 
L 705.985322 -287.039526 
L 709.656463 -289.849602 
L 713.327604 -292.956322 
L 716.998746 -296.262819 
L 720.669887 -299.653395 
L 724.341028 -302.997029 
L 728.01217 -306.153202 
L 731.683311 -308.979719 
L 735.354453 -311.341862 
L 739.025594 -313.121968 
L 742.696735 -314.228387 
L 746.367877 -314.602765 
L 746.367877 -271.609115 
L 746.367877 -271.609115 
L 742.696735 -271.609115 
L 739.025594 -271.609115 
L 735.354453 -271.609115 
L 731.683311 -271.609115 
L 728.01217 -271.609115 
L 724.341028 -271.609115 
L 720.669887 -271.609115 
L 716.998746 -271.609115 
L 713.327604 -271.609115 
L 709.656463 -271.609115 
L 705.985322 -271.609115 
L 702.31418 -271.609115 
L 698.643039 -271.609115 
L 694.971898 -271.609115 
L 691.300756 -271.609115 
L 687.629615 -271.609115 
L 683.958473 -271.609115 
L 680.287332 -271.609115 
L 676.616191 -271.609115 
L 672.945049 -271.609115 
L 669.273908 -271.609115 
L 665.602767 -271.609115 
L 661.931625 -271.609115 
L 658.260484 -271.609115 
L 654.589342 -271.609115 
L 650.918201 -271.609115 
L 647.24706 -271.609115 
L 643.575918 -271.609115 
L 639.904777 -271.609115 
L 636.233636 -271.609115 
L 632.562494 -271.609115 
L 628.891353 -271.609115 
L 625.220212 -271.609115 
L 621.54907 -271.609115 
L 617.877929 -271.609115 
L 614.206787 -271.609115 
L 610.535646 -271.609115 
L 606.864505 -271.609115 
L 603.193363 -271.609115 
L 599.522222 -271.609115 
L 595.851081 -271.609115 
L 592.179939 -271.609115 
L 588.508798 -271.609115 
L 584.837657 -271.609115 
L 581.166515 -271.609115 
L 577.495374 -271.609115 
L 573.824232 -271.609115 
L 570.153091 -271.609115 
L 566.48195 -271.609115 
L 562.810808 -271.609115 
L 559.139667 -271.609115 
L 555.468526 -271.609115 
L 551.797384 -271.609115 
L 548.126243 -271.609115 
L 544.455102 -271.609115 
L 540.78396 -271.609115 
L 537.112819 -271.609115 
L 533.441677 -271.609115 
L 529.770536 -271.609115 
L 526.099395 -271.609115 
L 522.428253 -271.609115 
L 518.757112 -271.609115 
L 515.085971 -271.609115 
L 511.414829 -271.609115 
L 507.743688 -271.609115 
L 504.072547 -271.609115 
L 500.401405 -271.609115 
L 496.730264 -271.609115 
L 493.059122 -271.609115 
L 489.387981 -271.609115 
L 485.71684 -271.609115 
L 482.045698 -271.609115 
L 478.374557 -271.609115 
L 474.703416 -271.609115 
L 471.032274 -271.609115 
L 467.361133 -271.609115 
L 463.689992 -271.609115 
L 460.01885 -271.609115 
L 456.347709 -271.609115 
L 452.676567 -271.609115 
L 449.005426 -271.609115 
L 445.334285 -271.609115 
L 441.663143 -271.609115 
L 437.992002 -271.609115 
L 434.320861 -271.609115 
L 430.649719 -271.609115 
L 426.978578 -271.609115 
L 423.307437 -271.609115 
L 419.636295 -271.609115 
L 415.965154 -271.609115 
L 412.294012 -271.609115 
L 408.622871 -271.609115 
L 404.95173 -271.609115 
L 401.280588 -271.609115 
L 397.609447 -271.609115 
L 393.938306 -271.609115 
L 390.267164 -271.609115 
L 386.596023 -271.609115 
L 382.924882 -271.609115 
z
" id="m15bf33d276" style="stroke:#595959;stroke-opacity:0.65;"/>
    </defs>
    <g clip-path="url(#p083d5a765f)">
     <use style="fill:#72b6a1;fill-opacity:0.65;stroke:#595959;stroke-opacity:0.65;" x="0" xlink:href="#m15bf33d276" y="365.254687"/>
    </g>
   </g>
   <g id="PolyCollection_2">
    <defs>
     <path d="M 140.629551 -148.761658 
L 140.629551 -181.395576 
L 145.524407 -181.180169 
L 150.419262 -180.435987 
L 155.314117 -179.220616 
L 160.208972 -177.620449 
L 165.103827 -175.744953 
L 169.998682 -173.719291 
L 174.893538 -171.676007 
L 179.788393 -169.746502 
L 184.683248 -168.052935 
L 189.578103 -166.70106 
L 194.472958 -165.774335 
L 199.367813 -165.329493 
L 204.262668 -165.393643 
L 209.157524 -165.962934 
L 214.052379 -167.002756 
L 218.947234 -168.4495 
L 223.842089 -170.213872 
L 228.736944 -172.185759 
L 233.631799 -174.240526 
L 238.526655 -176.246572 
L 243.42151 -178.073726 
L 248.316365 -179.601998 
L 253.21122 -180.729989 
L 258.106075 -181.382257 
L 263.00093 -181.514948 
L 267.895785 -181.11912 
L 272.790641 -180.221428 
L 277.685496 -178.882089 
L 282.580351 -177.190351 
L 287.475206 -175.257911 
L 292.370061 -173.21094 
L 297.264916 -171.181409 
L 302.159772 -169.298444 
L 307.054627 -167.680291 
L 311.949482 -166.427356 
L 316.844337 -165.616601 
L 321.739192 -165.297454 
L 326.634047 -165.489267 
L 331.528902 -166.18034 
L 336.423758 -167.328488 
L 341.318613 -168.863156 
L 346.213468 -170.689092 
L 351.108323 -172.691514 
L 356.003178 -174.742681 
L 360.898033 -176.709568 
L 365.792888 -178.462251 
L 370.687744 -179.882418 
L 375.582599 -180.871304 
L 380.477454 -181.35633 
L 385.372309 -181.295785 
L 390.267164 -180.681051 
L 395.162019 -179.536123 
L 400.056875 -177.914488 
L 404.95173 -175.89371 
L 409.846585 -173.568351 
L 414.74144 -171.041998 
L 419.636295 -168.419242 
L 424.53115 -165.798403 
L 429.426005 -163.265622 
L 434.320861 -160.890733 
L 439.215716 -158.725075 
L 444.110571 -156.801158 
L 449.005426 -155.133916 
L 453.900281 -153.723132 
L 458.795136 -152.556602 
L 463.689992 -151.613572 
L 468.584847 -150.868088 
L 473.479702 -150.291983 
L 478.374557 -149.857326 
L 483.269412 -149.538286 
L 488.164267 -149.312426 
L 493.059122 -149.161519 
L 497.953978 -149.072004 
L 502.848833 -149.035195 
L 507.743688 -149.047361 
L 512.638543 -149.109746 
L 517.533398 -149.228564 
L 522.428253 -149.414953 
L 527.323109 -149.684847 
L 532.217964 -150.058654 
L 537.112819 -150.560636 
L 542.007674 -151.217871 
L 546.902529 -152.058675 
L 551.797384 -153.110449 
L 556.692239 -154.39694 
L 561.587095 -155.935051 
L 566.48195 -157.731392 
L 571.376805 -159.77893 
L 576.27166 -162.05412 
L 581.166515 -164.514994 
L 586.06137 -167.100629 
L 590.956226 -169.732338 
L 595.851081 -172.316765 
L 600.745936 -174.750843 
L 605.640791 -176.928311 
L 610.535646 -178.747262 
L 615.430501 -180.117996 
L 620.325356 -180.970334 
L 625.220212 -181.259564 
L 625.220212 -148.761658 
L 625.220212 -148.761658 
L 620.325356 -148.761658 
L 615.430501 -148.761658 
L 610.535646 -148.761658 
L 605.640791 -148.761658 
L 600.745936 -148.761658 
L 595.851081 -148.761658 
L 590.956226 -148.761658 
L 586.06137 -148.761658 
L 581.166515 -148.761658 
L 576.27166 -148.761658 
L 571.376805 -148.761658 
L 566.48195 -148.761658 
L 561.587095 -148.761658 
L 556.692239 -148.761658 
L 551.797384 -148.761658 
L 546.902529 -148.761658 
L 542.007674 -148.761658 
L 537.112819 -148.761658 
L 532.217964 -148.761658 
L 527.323109 -148.761658 
L 522.428253 -148.761658 
L 517.533398 -148.761658 
L 512.638543 -148.761658 
L 507.743688 -148.761658 
L 502.848833 -148.761658 
L 497.953978 -148.761658 
L 493.059122 -148.761658 
L 488.164267 -148.761658 
L 483.269412 -148.761658 
L 478.374557 -148.761658 
L 473.479702 -148.761658 
L 468.584847 -148.761658 
L 463.689992 -148.761658 
L 458.795136 -148.761658 
L 453.900281 -148.761658 
L 449.005426 -148.761658 
L 444.110571 -148.761658 
L 439.215716 -148.761658 
L 434.320861 -148.761658 
L 429.426005 -148.761658 
L 424.53115 -148.761658 
L 419.636295 -148.761658 
L 414.74144 -148.761658 
L 409.846585 -148.761658 
L 404.95173 -148.761658 
L 400.056875 -148.761658 
L 395.162019 -148.761658 
L 390.267164 -148.761658 
L 385.372309 -148.761658 
L 380.477454 -148.761658 
L 375.582599 -148.761658 
L 370.687744 -148.761658 
L 365.792888 -148.761658 
L 360.898033 -148.761658 
L 356.003178 -148.761658 
L 351.108323 -148.761658 
L 346.213468 -148.761658 
L 341.318613 -148.761658 
L 336.423758 -148.761658 
L 331.528902 -148.761658 
L 326.634047 -148.761658 
L 321.739192 -148.761658 
L 316.844337 -148.761658 
L 311.949482 -148.761658 
L 307.054627 -148.761658 
L 302.159772 -148.761658 
L 297.264916 -148.761658 
L 292.370061 -148.761658 
L 287.475206 -148.761658 
L 282.580351 -148.761658 
L 277.685496 -148.761658 
L 272.790641 -148.761658 
L 267.895785 -148.761658 
L 263.00093 -148.761658 
L 258.106075 -148.761658 
L 253.21122 -148.761658 
L 248.316365 -148.761658 
L 243.42151 -148.761658 
L 238.526655 -148.761658 
L 233.631799 -148.761658 
L 228.736944 -148.761658 
L 223.842089 -148.761658 
L 218.947234 -148.761658 
L 214.052379 -148.761658 
L 209.157524 -148.761658 
L 204.262668 -148.761658 
L 199.367813 -148.761658 
L 194.472958 -148.761658 
L 189.578103 -148.761658 
L 184.683248 -148.761658 
L 179.788393 -148.761658 
L 174.893538 -148.761658 
L 169.998682 -148.761658 
L 165.103827 -148.761658 
L 160.208972 -148.761658 
L 155.314117 -148.761658 
L 150.419262 -148.761658 
L 145.524407 -148.761658 
L 140.629551 -148.761658 
z
" id="mfff617e69e" style="stroke:#595959;stroke-opacity:0.65;"/>
    </defs>
    <g clip-path="url(#p083d5a765f)">
     <use style="fill:#e99675;fill-opacity:0.65;stroke:#595959;stroke-opacity:0.65;" x="0" xlink:href="#mfff617e69e" y="365.254687"/>
    </g>
   </g>
   <g id="PathCollection_3">
    <defs>
     <path d="M 0 3.383948 
C 0.897434 3.383948 1.758231 3.027394 2.392813 2.392813 
C 3.027394 1.758231 3.383948 0.897434 3.383948 0 
C 3.383948 -0.897434 3.027394 -1.758231 2.392813 -2.392813 
C 1.758231 -3.027394 0.897434 -3.383948 0 -3.383948 
C -0.897434 -3.383948 -1.758231 -3.027394 -2.392813 -2.392813 
C -3.027394 -1.758231 -3.383948 -0.897434 -3.383948 0 
C -3.383948 0.897434 -3.027394 1.758231 -2.392813 2.392813 
C -1.758231 3.027394 -0.897434 3.383948 0 3.383948 
z
" id="C2_0_d966cd2ff6"/>
    </defs>
    <g clip-path="url(#p083d5a765f)">
     <use style="fill:#ff0000;stroke:#ff0000;stroke-width:2.025;" x="564.646379" xlink:href="#C2_0_d966cd2ff6" y="118.215064"/>
    </g>
    <g clip-path="url(#p083d5a765f)">
     <use style="fill:#ff0000;stroke:#ff0000;stroke-width:2.025;" x="352.637965" xlink:href="#C2_0_d966cd2ff6" y="241.062521"/>
    </g>
   </g>
   <g id="line2d_7">
    <path clip-path="url(#p083d5a765f)" d="M 382.924882 113.608284 
L 382.924882 122.821843 
" style="fill:none;stroke:#595959;stroke-linecap:round;stroke-width:1.5;"/>
   </g>
   <g id="line2d_8">
    <path clip-path="url(#p083d5a765f)" d="M 746.367877 113.608284 
L 746.367877 122.821843 
" style="fill:none;stroke:#595959;stroke-linecap:round;stroke-width:1.5;"/>
   </g>
   <g id="line2d_9"/>
   <g id="line2d_10">
    <path clip-path="url(#p083d5a765f)" d="M 140.629551 236.455742 
L 140.629551 245.669301 
" style="fill:none;stroke:#595959;stroke-linecap:round;stroke-width:1.5;"/>
   </g>
   <g id="line2d_11">
    <path clip-path="url(#p083d5a765f)" d="M 625.220212 236.455742 
L 625.220212 245.669301 
" style="fill:none;stroke:#595959;stroke-linecap:round;stroke-width:1.5;"/>
   </g>
   <g id="line2d_12"/>
   <g id="line2d_13">
    <path clip-path="url(#p083d5a765f)" d="M 564.646379 118.215064 
L 352.637965 241.062521 
" style="fill:none;stroke:#ff0000;stroke-linecap:round;stroke-width:2.7;"/>
   </g>
   <g id="line2d_14">
    <path clip-path="url(#p083d5a765f)" d="M 509.120366 118.215064 
L 625.220212 118.215064 
" style="fill:none;"/>
   </g>
   <g id="line2d_15">
    <path clip-path="url(#p083d5a765f)" d="M 509.120366 118.215064 
L 509.120366 118.215064 
" style="fill:none;"/>
   </g>
   <g id="line2d_16">
    <path clip-path="url(#p083d5a765f)" d="M 625.220212 118.215064 
L 625.220212 118.215064 
" style="fill:none;"/>
   </g>
   <g id="line2d_17">
    <path clip-path="url(#p083d5a765f)" d="M 281.968494 241.062521 
L 423.307437 241.062521 
" style="fill:none;"/>
   </g>
   <g id="line2d_18">
    <path clip-path="url(#p083d5a765f)" d="M 281.968494 241.062521 
L 281.968494 241.062521 
" style="fill:none;"/>
   </g>
   <g id="line2d_19">
    <path clip-path="url(#p083d5a765f)" d="M 423.307437 241.062521 
L 423.307437 241.062521 
" style="fill:none;"/>
   </g>
   <g id="line2d_20">
    <path clip-path="url(#p083d5a765f)" d="M 564.646379 109.001504 
L 564.646379 127.428623 
" style="fill:none;stroke:#595959;stroke-linecap:round;stroke-width:1.5;"/>
   </g>
   <g id="line2d_21">
    <path clip-path="url(#p083d5a765f)" d="M 322.351049 231.848962 
L 322.351049 250.276081 
" style="fill:none;stroke:#595959;stroke-linecap:round;stroke-width:1.5;"/>
   </g>
   <g id="patch_3">
    <path d="M 108.696875 302.48625 
L 108.696875 30.68625 
" style="fill:none;stroke:#cccccc;stroke-linecap:square;stroke-linejoin:miter;stroke-width:1.25;"/>
   </g>
   <g id="patch_4">
    <path d="M 778.296875 302.48625 
L 778.296875 30.68625 
" style="fill:none;stroke:#cccccc;stroke-linecap:square;stroke-linejoin:miter;stroke-width:1.25;"/>
   </g>
   <g id="patch_5">
    <path d="M 108.696875 302.48625 
L 778.296875 302.48625 
" style="fill:none;stroke:#cccccc;stroke-linecap:square;stroke-linejoin:miter;stroke-width:1.25;"/>
   </g>
   <g id="patch_6">
    <path d="M 108.696875 30.68625 
L 778.296875 30.68625 
" style="fill:none;stroke:#cccccc;stroke-linecap:square;stroke-linejoin:miter;stroke-width:1.25;"/>
   </g>
   <g id="text_11">
    <!-- PDQ39 pre &amp; post-op -->
    <defs>
     <path id="ArialMT-32"/>
     <path d="M 47.515625 8.453125 
Q 43.171875 3.609375 38.03125 1.1875 
Q 32.90625 -1.21875 26.953125 -1.21875 
Q 15.96875 -1.21875 9.515625 6.203125 
Q 4.296875 12.25 4.296875 19.734375 
Q 4.296875 26.375 8.5625 31.71875 
Q 12.84375 37.0625 21.34375 41.109375 
Q 16.5 46.6875 14.890625 50.140625 
Q 13.28125 53.609375 13.28125 56.84375 
Q 13.28125 63.28125 18.328125 68.03125 
Q 23.390625 72.796875 31.0625 72.796875 
Q 38.375 72.796875 43.03125 68.296875 
Q 47.703125 63.8125 47.703125 57.515625 
Q 47.703125 47.3125 34.1875 40.09375 
L 47.015625 23.734375 
Q 49.21875 28.03125 50.4375 33.6875 
L 59.578125 31.734375 
Q 57.234375 22.359375 53.21875 16.3125 
Q 58.15625 9.765625 64.40625 5.328125 
L 58.5 -1.65625 
Q 53.171875 1.765625 47.515625 8.453125 
z
M 29.640625 45.75 
Q 35.359375 49.125 37.03125 51.65625 
Q 38.71875 54.203125 38.71875 57.28125 
Q 38.71875 60.9375 36.390625 63.25 
Q 34.078125 65.578125 30.609375 65.578125 
Q 27.046875 65.578125 24.671875 63.28125 
Q 22.3125 60.984375 22.3125 57.671875 
Q 22.3125 56 23.171875 54.171875 
Q 24.03125 52.34375 25.734375 50.296875 
z
M 42 15.375 
L 25.875 35.359375 
Q 18.75 31.109375 16.25 27.46875 
Q 13.765625 23.828125 13.765625 20.265625 
Q 13.765625 15.921875 17.234375 11.234375 
Q 20.703125 6.546875 27.046875 6.546875 
Q 31 6.546875 35.21875 9 
Q 39.453125 11.46875 42 15.375 
z
" id="ArialMT-38"/>
     <path d="M 3.171875 21.484375 
L 3.171875 30.328125 
L 30.171875 30.328125 
L 30.171875 21.484375 
z
" id="ArialMT-45"/>
    </defs>
    <g style="fill:#262626;" transform="translate(328.776875 24.68625)scale(0.24 -0.24)">
     <use xlink:href="#ArialMT-80"/>
     <use x="66.699219" xlink:href="#ArialMT-68"/>
     <use x="138.916016" xlink:href="#ArialMT-81"/>
     <use x="216.699219" xlink:href="#ArialMT-51"/>
     <use x="272.314453" xlink:href="#ArialMT-57"/>
     <use x="327.929688" xlink:href="#ArialMT-32"/>
     <use x="355.712891" xlink:href="#ArialMT-112"/>
     <use x="411.328125" xlink:href="#ArialMT-114"/>
     <use x="444.628906" xlink:href="#ArialMT-101"/>
     <use x="500.244141" xlink:href="#ArialMT-32"/>
     <use x="528.027344" xlink:href="#ArialMT-38"/>
     <use x="594.726562" xlink:href="#ArialMT-32"/>
     <use x="622.509766" xlink:href="#ArialMT-112"/>
     <use x="678.125" xlink:href="#ArialMT-111"/>
     <use x="733.740234" xlink:href="#ArialMT-115"/>
     <use x="783.740234" xlink:href="#ArialMT-116"/>
     <use x="811.523438" xlink:href="#ArialMT-45"/>
     <use x="844.824219" xlink:href="#ArialMT-111"/>
     <use x="900.439453" xlink:href="#ArialMT-112"/>
    </g>
   </g>
   <g id="line2d_22">
    <path clip-path="url(#p083d5a765f)" d="M 473.78563 118.215064 
L 382.924882 118.215064 
" style="fill:none;stroke:#595959;stroke-linecap:round;stroke-width:2;"/>
   </g>
   <g id="line2d_23">
    <path clip-path="url(#p083d5a765f)" d="M 655.507128 118.215064 
L 746.367877 118.215064 
" style="fill:none;stroke:#595959;stroke-linecap:round;stroke-width:2;"/>
   </g>
   <g id="line2d_24">
    <path clip-path="url(#p083d5a765f)" d="M 231.4903 241.062521 
L 140.629551 241.062521 
" style="fill:none;stroke:#595959;stroke-linecap:round;stroke-width:2;"/>
   </g>
   <g id="line2d_25">
    <path clip-path="url(#p083d5a765f)" d="M 443.498714 241.062521 
L 625.220212 241.062521 
" style="fill:none;stroke:#595959;stroke-linecap:round;stroke-width:2;"/>
   </g>
   <g id="patch_7">
    <path clip-path="url(#p083d5a765f)" d="M 473.78563 109.001504 
L 473.78563 127.428623 
L 655.507128 127.428623 
L 655.507128 109.001504 
L 473.78563 109.001504 
z
" style="fill:none;opacity:0.65;stroke:#595959;stroke-linejoin:miter;stroke-width:1.5;"/>
   </g>
   <g id="patch_8">
    <path clip-path="url(#p083d5a765f)" d="M 231.4903 231.848962 
L 231.4903 250.276081 
L 443.498714 250.276081 
L 443.498714 231.848962 
L 231.4903 231.848962 
z
" style="fill:none;opacity:0.65;stroke:#595959;stroke-linejoin:miter;stroke-width:1.5;"/>
   </g>
  </g>
 </g>
 <defs>
  <clipPath id="p083d5a765f">
   <rect height="271.8" width="669.6" x="108.696875" y="30.68625"/>
  </clipPath>
 </defs>
</svg>
