<svg class="main-svg" xmlns="http://www.w3.org/2000/svg" xmlns:xlink="http://www.w3.org/1999/xlink" width="700" height="500" style="" viewBox="0 0 700 500"><rect x="0" y="0" width="700" height="500" style="fill: rgb(255, 255, 255); fill-opacity: 1;"/><defs id="defs-881ae5"><g class="clips"><clipPath id="clip881ae5xyplot" class="plotclip"><rect width="527" height="360"/></clipPath><clipPath class="axesclip" id="clip881ae5x"><rect x="80" y="0" width="527" height="500"/></clipPath><clipPath class="axesclip" id="clip881ae5y"><rect x="0" y="60" width="700" height="360"/></clipPath><clipPath class="axesclip" id="clip881ae5xy"><rect x="80" y="60" width="527" height="360"/></clipPath></g><g class="gradients"/></defs><g class="bglayer"><rect class="bg" x="80" y="60" width="527" height="360" style="fill: rgb(229, 236, 246); fill-opacity: 1; stroke-width: 0;"/></g><g class="layer-below"><g class="imagelayer"/><g class="shapelayer"/></g><g class="cartesianlayer"><g class="subplot xy"><g class="layer-subplot"><g class="shapelayer"/><g class="imagelayer"/></g><g class="gridlayer"><g class="x"/><g class="y"><path class="ygrid crisp" transform="translate(0,270.58000000000004)" d="M80,0h527" style="stroke: rgb(255, 255, 255); stroke-opacity: 1; stroke-width: 1px;"/><path class="ygrid crisp" transform="translate(0,194.14)" d="M80,0h527" style="stroke: rgb(255, 255, 255); stroke-opacity: 1; stroke-width: 1px;"/><path class="ygrid crisp" transform="translate(0,117.7)" d="M80,0h527" style="stroke: rgb(255, 255, 255); stroke-opacity: 1; stroke-width: 1px;"/></g></g><g class="zerolinelayer"><path class="yzl zl crisp" transform="translate(0,347.01)" d="M80,0h527" style="stroke: rgb(255, 255, 255); stroke-opacity: 1; stroke-width: 2px;"/></g><path class="xlines-below"/><path class="ylines-below"/><g class="overlines-below"/><g class="xaxislayer-below"/><g class="yaxislayer-below"/><g class="overaxes-below"/><g class="plot" transform="translate(80, 60)" clip-path="url('#clip881ae5xyplot')"><g class="violinlayer mlayer"><g class="trace violins" style="opacity: 1;"><path class="violin" d="M114.33,342Q115.1,334.46 115.66,330.71C116.22,326.94 116.89,323.18 117.68,319.43C118.48,315.65 119.43,311.89 120.45,308.14C121.48,304.37 122.66,300.61 123.85,296.86C125.04,293.09 126.35,289.33 127.59,285.57C128.83,281.81 130.11,278.06 131.27,274.29C132.42,270.54 133.55,266.78 134.53,263C135.5,259.25 136.37,255.49 137.11,251.72C137.84,247.97 138.45,244.2 138.95,240.43C139.45,236.67 139.81,232.91 140.11,229.14C140.41,225.38 140.61,221.62 140.77,217.86C140.93,214.1 141.02,210.33 141.09,206.57C141.16,202.81 141.18,199.05 141.18,195.29C141.18,191.53 141.16,187.76 141.09,184C141.02,180.24 140.93,176.48 140.77,172.72C140.61,168.96 140.41,165.19 140.11,161.43C139.81,157.67 139.45,153.9 138.95,150.15C138.45,146.38 137.84,142.61 137.11,138.86C136.37,135.08 135.5,131.32 134.53,127.57C133.55,123.8 132.42,120.04 131.27,116.29C130.11,112.52 128.83,108.76 127.59,105C126.35,101.24 125.04,97.49 123.85,93.72C122.66,89.97 121.48,86.21 120.45,82.43C119.43,78.68 118.48,74.92 117.68,71.15C116.88,67.4 116.22,63.63 115.66,59.86Q115.1,56.11 114.33,48.58L111.31,48.58Q110.54,56.11 109.98,59.86C109.42,63.63 108.76,67.4 107.96,71.15C107.16,74.92 106.21,78.68 105.19,82.43C104.16,86.21 102.98,89.97 101.79,93.72C100.6,97.49 99.29,101.24 98.05,105C96.81,108.76 95.53,112.52 94.37,116.29C93.22,120.04 92.09,123.8 91.11,127.57C90.14,131.32 89.27,135.08 88.53,138.86C87.8,142.61 87.19,146.38 86.69,150.15C86.19,153.9 85.83,157.67 85.53,161.43C85.23,165.19 85.03,168.96 84.87,172.72C84.71,176.48 84.62,180.24 84.55,184C84.48,187.76 84.46,191.53 84.46,195.29C84.46,199.05 84.48,202.81 84.55,206.57C84.62,210.33 84.71,214.1 84.87,217.86C85.03,221.62 85.23,225.38 85.53,229.14C85.83,232.91 86.19,236.67 86.69,240.43C87.19,244.2 87.8,247.97 88.53,251.72C89.27,255.49 90.14,259.25 91.11,263C92.09,266.78 93.22,270.54 94.37,274.29C95.53,278.06 96.81,281.81 98.05,285.57C99.29,289.33 100.6,293.09 101.79,296.86C102.98,300.61 104.16,304.37 105.19,308.14C106.21,311.89 107.16,315.65 107.96,319.43C108.75,323.18 109.42,326.94 109.98,330.71Q110.54,334.46 111.31,342Z" style="vector-effect: non-scaling-stroke; stroke-width: 2px; stroke: rgb(99, 110, 250); stroke-opacity: 1; fill: rgb(99, 110, 250); fill-opacity: 0.5;"/><path class="violin" d="M345.87,326.71Q346.64,319.18 347.2,315.43C347.76,311.66 348.42,307.89 349.22,304.14C350.02,300.37 350.97,296.61 351.99,292.86C353.02,289.08 354.2,285.33 355.39,281.57C356.58,277.8 357.89,274.04 359.13,270.28C360.37,266.52 361.65,262.77 362.81,259C363.96,255.25 365.09,251.49 366.07,247.71C367.04,243.96 367.91,240.2 368.65,236.43C369.38,232.68 369.99,228.91 370.49,225.14C370.99,221.39 371.35,217.62 371.65,213.86C371.95,210.1 372.15,206.33 372.31,202.57C372.47,198.81 372.56,195.05 372.63,191.29C372.7,187.53 372.72,183.76 372.72,180C372.72,176.24 372.7,172.47 372.63,168.71C372.56,164.95 372.47,161.19 372.31,157.43C372.15,153.67 371.95,149.9 371.65,146.14C371.35,142.38 370.99,138.61 370.49,134.86C369.99,131.09 369.38,127.32 368.65,123.57C367.91,119.8 367.04,116.04 366.07,112.29C365.09,108.51 363.96,104.75 362.81,101C361.65,97.23 360.37,93.48 359.13,89.72C357.89,85.96 356.58,82.2 355.39,78.43C354.2,74.67 353.02,70.92 351.99,67.14C350.97,63.39 350.02,59.63 349.22,55.86C348.42,52.11 347.76,48.34 347.2,44.57Q346.64,40.82 345.87,33.29L342.85,33.29Q342.08,40.82 341.52,44.57C340.96,48.34 340.3,52.11 339.5,55.86C338.7,59.63 337.75,63.39 336.73,67.14C335.7,70.92 334.52,74.67 333.33,78.43C332.14,82.2 330.83,85.96 329.59,89.72C328.35,93.48 327.07,97.23 325.91,101C324.76,104.75 323.63,108.51 322.65,112.29C321.68,116.04 320.81,119.8 320.07,123.57C319.34,127.32 318.73,131.09 318.23,134.86C317.73,138.61 317.37,142.38 317.07,146.14C316.77,149.9 316.57,153.67 316.41,157.43C316.25,161.19 316.16,164.95 316.09,168.71C316.02,172.47 316,176.24 316,180C316,183.76 316.02,187.53 316.09,191.29C316.16,195.05 316.25,198.81 316.41,202.57C316.57,206.33 316.77,210.1 317.07,213.86C317.37,217.62 317.73,221.39 318.23,225.14C318.73,228.91 319.34,232.68 320.07,236.43C320.81,240.2 321.68,243.96 322.65,247.71C323.63,251.49 324.76,255.25 325.91,259C327.07,262.77 328.35,266.52 329.59,270.28C330.83,274.04 332.14,277.8 333.33,281.57C334.52,285.33 335.7,289.08 336.73,292.86C337.75,296.61 338.7,300.37 339.5,304.14C340.3,307.89 340.96,311.66 341.52,315.43Q342.08,319.18 342.85,326.71Z" style="vector-effect: non-scaling-stroke; stroke-width: 2px; stroke: rgb(99, 110, 250); stroke-opacity: 1; fill: rgb(99, 110, 250); fill-opacity: 0.5;"/><path class="box" d="M105.73,195.29H119.91M105.73,241.15H119.91V149.42H105.73ZM112.82,241.15V271.73M112.82,149.42V118.85" style="vector-effect: non-scaling-stroke; stroke-width: 2px; stroke: rgb(99, 110, 250); stroke-opacity: 1; fill: rgb(99, 110, 250); fill-opacity: 0.5;"/><path class="box" d="M337.27,180H351.45M337.27,225.86H351.45V134.14H337.27ZM344.36,225.86V256.44M344.36,134.14V103.56" style="vector-effect: non-scaling-stroke; stroke-width: 2px; stroke: rgb(99, 110, 250); stroke-opacity: 1; fill: rgb(99, 110, 250); fill-opacity: 0.5;"/><g class="points"><path class="point" transform="translate(74.69,271.73)" d="M3,0A3,3 0 1,1 0,-3A3,3 0 0,1 3,0Z" style="opacity: 1; stroke-width: 0px; fill: rgb(99, 110, 250); fill-opacity: 1;"/><path class="point" transform="translate(65.42,271.73)" d="M3,0A3,3 0 1,1 0,-3A3,3 0 0,1 3,0Z" style="opacity: 1; stroke-width: 0px; fill: rgb(99, 110, 250); fill-opacity: 1;"/><path class="point" transform="translate(76.65,241.15)" d="M3,0A3,3 0 1,1 0,-3A3,3 0 0,1 3,0Z" style="opacity: 1; stroke-width: 0px; fill: rgb(99, 110, 250); fill-opacity: 1;"/><path class="point" transform="translate(63.84,241.15)" d="M3,0A3,3 0 1,1 0,-3A3,3 0 0,1 3,0Z" style="opacity: 1; stroke-width: 0px; fill: rgb(99, 110, 250); fill-opacity: 1;"/><path class="point" transform="translate(68.29,210.58)" d="M3,0A3,3 0 1,1 0,-3A3,3 0 0,1 3,0Z" style="opacity: 1; stroke-width: 0px; fill: rgb(99, 110, 250); fill-opacity: 1;"/><path class="point" transform="translate(74.27,210.58)" d="M3,0A3,3 0 1,1 0,-3A3,3 0 0,1 3,0Z" style="opacity: 1; stroke-width: 0px; fill: rgb(99, 110, 250); fill-opacity: 1;"/><path class="point" transform="translate(69.99,180)" d="M3,0A3,3 0 1,1 0,-3A3,3 0 0,1 3,0Z" style="opacity: 1; stroke-width: 0px; fill: rgb(99, 110, 250); fill-opacity: 1;"/><path class="point" transform="translate(72.61,180)" d="M3,0A3,3 0 1,1 0,-3A3,3 0 0,1 3,0Z" style="opacity: 1; stroke-width: 0px; fill: rgb(99, 110, 250); fill-opacity: 1;"/><path class="point" transform="translate(67.85,149.42)" d="M3,0A3,3 0 1,1 0,-3A3,3 0 0,1 3,0Z" style="opacity: 1; stroke-width: 0px; fill: rgb(99, 110, 250); fill-opacity: 1;"/><path class="point" transform="translate(64.25,149.42)" d="M3,0A3,3 0 1,1 0,-3A3,3 0 0,1 3,0Z" style="opacity: 1; stroke-width: 0px; fill: rgb(99, 110, 250); fill-opacity: 1;"/><path class="point" transform="translate(72.31,118.85)" d="M3,0A3,3 0 1,1 0,-3A3,3 0 0,1 3,0Z" style="opacity: 1; stroke-width: 0px; fill: rgb(99, 110, 250); fill-opacity: 1;"/><path class="point" transform="translate(67.47,118.85)" d="M3,0A3,3 0 1,1 0,-3A3,3 0 0,1 3,0Z" style="opacity: 1; stroke-width: 0px; fill: rgb(99, 110, 250); fill-opacity: 1;"/></g><g class="points"><path class="point" transform="translate(307.21,256.44)" d="M3,0A3,3 0 1,1 0,-3A3,3 0 0,1 3,0Z" style="opacity: 1; stroke-width: 0px; fill: rgb(99, 110, 250); fill-opacity: 1;"/><path class="point" transform="translate(294.41,256.44)" d="M3,0A3,3 0 1,1 0,-3A3,3 0 0,1 3,0Z" style="opacity: 1; stroke-width: 0px; fill: rgb(99, 110, 250); fill-opacity: 1;"/><path class="point" transform="translate(297.06,225.86)" d="M3,0A3,3 0 1,1 0,-3A3,3 0 0,1 3,0Z" style="opacity: 1; stroke-width: 0px; fill: rgb(99, 110, 250); fill-opacity: 1;"/><path class="point" transform="translate(308.55,225.86)" d="M3,0A3,3 0 1,1 0,-3A3,3 0 0,1 3,0Z" style="opacity: 1; stroke-width: 0px; fill: rgb(99, 110, 250); fill-opacity: 1;"/><path class="point" transform="translate(299.79,195.29)" d="M3,0A3,3 0 1,1 0,-3A3,3 0 0,1 3,0Z" style="opacity: 1; stroke-width: 0px; fill: rgb(99, 110, 250); fill-opacity: 1;"/><path class="point" transform="translate(295.28,195.29)" d="M3,0A3,3 0 1,1 0,-3A3,3 0 0,1 3,0Z" style="opacity: 1; stroke-width: 0px; fill: rgb(99, 110, 250); fill-opacity: 1;"/><path class="point" transform="translate(299.3,164.71)" d="M3,0A3,3 0 1,1 0,-3A3,3 0 0,1 3,0Z" style="opacity: 1; stroke-width: 0px; fill: rgb(99, 110, 250); fill-opacity: 1;"/><path class="point" transform="translate(301.64,164.71)" d="M3,0A3,3 0 1,1 0,-3A3,3 0 0,1 3,0Z" style="opacity: 1; stroke-width: 0px; fill: rgb(99, 110, 250); fill-opacity: 1;"/><path class="point" transform="translate(305.24,134.14)" d="M3,0A3,3 0 1,1 0,-3A3,3 0 0,1 3,0Z" style="opacity: 1; stroke-width: 0px; fill: rgb(99, 110, 250); fill-opacity: 1;"/><path class="point" transform="translate(302.73,134.14)" d="M3,0A3,3 0 1,1 0,-3A3,3 0 0,1 3,0Z" style="opacity: 1; stroke-width: 0px; fill: rgb(99, 110, 250); fill-opacity: 1;"/><path class="point" transform="translate(299.67,103.56)" d="M3,0A3,3 0 1,1 0,-3A3,3 0 0,1 3,0Z" style="opacity: 1; stroke-width: 0px; fill: rgb(99, 110, 250); fill-opacity: 1;"/><path class="point" transform="translate(294.7,103.56)" d="M3,0A3,3 0 1,1 0,-3A3,3 0 0,1 3,0Z" style="opacity: 1; stroke-width: 0px; fill: rgb(99, 110, 250); fill-opacity: 1;"/></g></g><g class="trace violins" style="opacity: 1;"><path class="violin" d="M195.37,326.71Q196.14,319.18 196.7,315.43C197.26,311.66 197.92,307.89 198.72,304.14C199.52,300.37 200.47,296.61 201.49,292.86C202.52,289.08 203.7,285.33 204.89,281.57C206.08,277.8 207.38,274.04 208.62,270.28C209.86,266.52 211.15,262.77 212.31,259C213.47,255.25 214.59,251.49 215.57,247.71C216.54,243.96 217.41,240.2 218.15,236.43C218.88,232.68 219.49,228.91 219.99,225.14C220.49,221.39 220.85,217.62 221.15,213.86C221.45,210.1 221.65,206.33 221.81,202.57C221.97,198.81 222.06,195.05 222.13,191.29C222.2,187.53 222.22,183.76 222.22,180C222.22,176.24 222.2,172.47 222.13,168.71C222.06,164.95 221.97,161.19 221.81,157.43C221.65,153.67 221.45,149.9 221.15,146.14C220.85,142.38 220.49,138.61 219.99,134.86C219.49,131.09 218.88,127.32 218.15,123.57C217.41,119.8 216.54,116.04 215.57,112.29C214.59,108.51 213.47,104.75 212.31,101C211.15,97.23 209.86,93.48 208.62,89.72C207.38,85.96 206.08,82.2 204.89,78.43C203.7,74.67 202.52,70.92 201.49,67.14C200.47,63.39 199.52,59.63 198.72,55.86C197.92,52.11 197.26,48.34 196.7,44.57Q196.14,40.82 195.37,33.29L192.35,33.29Q191.58,40.82 191.02,44.57C190.46,48.34 189.8,52.11 189,55.86C188.2,59.63 187.25,63.39 186.23,67.14C185.2,70.92 184.02,74.67 182.83,78.43C181.64,82.2 180.33,85.96 179.09,89.72C177.85,93.48 176.57,97.23 175.41,101C174.26,104.75 173.13,108.51 172.15,112.29C171.18,116.04 170.31,119.8 169.57,123.57C168.84,127.32 168.23,131.09 167.73,134.86C167.23,138.61 166.87,142.38 166.57,146.14C166.27,149.9 166.07,153.67 165.91,157.43C165.75,161.19 165.66,164.95 165.59,168.71C165.52,172.47 165.5,176.24 165.5,180C165.5,183.76 165.52,187.53 165.59,191.29C165.66,195.05 165.75,198.81 165.91,202.57C166.07,206.33 166.27,210.1 166.57,213.86C166.87,217.62 167.23,221.39 167.73,225.14C168.23,228.91 168.84,232.68 169.57,236.43C170.31,240.2 171.18,243.96 172.15,247.71C173.13,251.49 174.26,255.25 175.41,259C176.57,262.77 177.85,266.52 179.09,270.28C180.33,274.04 181.64,277.8 182.83,281.57C184.02,285.33 185.2,289.08 186.23,292.86C187.25,296.61 188.2,300.37 189,304.14C189.8,307.89 190.46,311.66 191.02,315.43Q191.58,319.18 192.35,326.71Z" style="vector-effect: non-scaling-stroke; stroke-width: 2px; stroke: rgb(239, 85, 59); stroke-opacity: 1; fill: rgb(239, 85, 59); fill-opacity: 0.5;"/><path class="violin" d="M426.91,311.42Q427.68,303.89 428.24,300.14C428.8,296.37 429.46,292.6 430.26,288.85C431.06,285.08 432.01,281.32 433.03,277.57C434.06,273.79 435.24,270.03 436.43,266.28C437.62,262.51 438.93,258.76 440.17,255C441.41,251.24 442.69,247.48 443.85,243.71C445,239.96 446.13,236.2 447.11,232.43C448.08,228.68 448.95,224.92 449.69,221.14C450.42,217.39 451.03,213.62 451.53,209.85C452.03,206.1 452.39,202.33 452.69,198.57C452.99,194.81 453.19,191.04 453.35,187.28C453.51,183.52 453.6,179.76 453.67,176C453.74,172.24 453.76,168.47 453.76,164.71C453.76,160.95 453.74,157.19 453.67,153.43C453.6,149.67 453.51,145.9 453.35,142.14C453.19,138.38 452.99,134.62 452.69,130.86C452.39,127.09 452.03,123.33 451.53,119.57C451.03,115.8 450.42,112.03 449.69,108.28C448.95,104.51 448.08,100.75 447.11,97C446.13,93.22 445,89.46 443.85,85.71C442.69,81.94 441.41,78.19 440.17,74.43C438.93,70.67 437.62,66.91 436.43,63.14C435.24,59.39 434.06,55.63 433.03,51.86C432.01,48.11 431.06,44.35 430.26,40.57C429.47,36.82 428.8,33.06 428.24,29.29Q427.68,25.54 426.91,18L423.89,18Q423.12,25.54 422.56,29.29C422,33.06 421.33,36.82 420.54,40.57C419.74,44.35 418.79,48.11 417.77,51.86C416.74,55.63 415.56,59.39 414.37,63.14C413.18,66.91 411.87,70.67 410.63,74.43C409.39,78.19 408.11,81.94 406.95,85.71C405.8,89.46 404.67,93.22 403.69,97C402.72,100.75 401.85,104.51 401.11,108.28C400.38,112.03 399.77,115.8 399.27,119.57C398.77,123.33 398.41,127.09 398.11,130.86C397.81,134.62 397.61,138.38 397.45,142.14C397.29,145.9 397.2,149.67 397.13,153.43C397.06,157.19 397.04,160.95 397.04,164.71C397.04,168.47 397.06,172.24 397.13,176C397.2,179.76 397.29,183.52 397.45,187.28C397.61,191.04 397.81,194.81 398.11,198.57C398.41,202.33 398.77,206.1 399.27,209.85C399.77,213.62 400.38,217.39 401.11,221.14C401.85,224.92 402.72,228.68 403.69,232.43C404.67,236.2 405.8,239.96 406.95,243.71C408.11,247.48 409.39,251.24 410.63,255C411.87,258.76 413.18,262.51 414.37,266.28C415.56,270.03 416.74,273.79 417.77,277.57C418.79,281.32 419.74,285.08 420.54,288.85C421.34,292.6 422,296.37 422.56,300.14Q423.12,303.89 423.89,311.42Z" style="vector-effect: non-scaling-stroke; stroke-width: 2px; stroke: rgb(239, 85, 59); stroke-opacity: 1; fill: rgb(239, 85, 59); fill-opacity: 0.5;"/><path class="box" d="M186.77,180H200.95M186.77,225.86H200.95V134.14H186.77ZM193.86,225.86V256.44M193.86,134.14V103.56" style="vector-effect: non-scaling-stroke; stroke-width: 2px; stroke: rgb(239, 85, 59); stroke-opacity: 1; fill: rgb(239, 85, 59); fill-opacity: 0.5;"/><path class="box" d="M418.31,164.71H432.49M418.31,210.58H432.49V118.85H418.31ZM425.4,210.58V241.15M425.4,118.85V88.27" style="vector-effect: non-scaling-stroke; stroke-width: 2px; stroke: rgb(239, 85, 59); stroke-opacity: 1; fill: rgb(239, 85, 59); fill-opacity: 0.5;"/><g class="points"><path class="point" transform="translate(155.73,256.44)" d="M3,0A3,3 0 1,1 0,-3A3,3 0 0,1 3,0Z" style="opacity: 1; stroke-width: 0px; fill: rgb(239, 85, 59); fill-opacity: 1;"/><path class="point" transform="translate(146.46,256.44)" d="M3,0A3,3 0 1,1 0,-3A3,3 0 0,1 3,0Z" style="opacity: 1; stroke-width: 0px; fill: rgb(239, 85, 59); fill-opacity: 1;"/><path class="point" transform="translate(157.69,225.86)" d="M3,0A3,3 0 1,1 0,-3A3,3 0 0,1 3,0Z" style="opacity: 1; stroke-width: 0px; fill: rgb(239, 85, 59); fill-opacity: 1;"/><path class="point" transform="translate(144.88,225.86)" d="M3,0A3,3 0 1,1 0,-3A3,3 0 0,1 3,0Z" style="opacity: 1; stroke-width: 0px; fill: rgb(239, 85, 59); fill-opacity: 1;"/><path class="point" transform="translate(149.33,195.29)" d="M3,0A3,3 0 1,1 0,-3A3,3 0 0,1 3,0Z" style="opacity: 1; stroke-width: 0px; fill: rgb(239, 85, 59); fill-opacity: 1;"/><path class="point" transform="translate(155.31,195.29)" d="M3,0A3,3 0 1,1 0,-3A3,3 0 0,1 3,0Z" style="opacity: 1; stroke-width: 0px; fill: rgb(239, 85, 59); fill-opacity: 1;"/><path class="point" transform="translate(151.03,164.71)" d="M3,0A3,3 0 1,1 0,-3A3,3 0 0,1 3,0Z" style="opacity: 1; stroke-width: 0px; fill: rgb(239, 85, 59); fill-opacity: 1;"/><path class="point" transform="translate(153.65,164.71)" d="M3,0A3,3 0 1,1 0,-3A3,3 0 0,1 3,0Z" style="opacity: 1; stroke-width: 0px; fill: rgb(239, 85, 59); fill-opacity: 1;"/><path class="point" transform="translate(148.89,134.14)" d="M3,0A3,3 0 1,1 0,-3A3,3 0 0,1 3,0Z" style="opacity: 1; stroke-width: 0px; fill: rgb(239, 85, 59); fill-opacity: 1;"/><path class="point" transform="translate(145.29,134.14)" d="M3,0A3,3 0 1,1 0,-3A3,3 0 0,1 3,0Z" style="opacity: 1; stroke-width: 0px; fill: rgb(239, 85, 59); fill-opacity: 1;"/><path class="point" transform="translate(153.35,103.56)" d="M3,0A3,3 0 1,1 0,-3A3,3 0 0,1 3,0Z" style="opacity: 1; stroke-width: 0px; fill: rgb(239, 85, 59); fill-opacity: 1;"/><path class="point" transform="translate(148.51,103.56)" d="M3,0A3,3 0 1,1 0,-3A3,3 0 0,1 3,0Z" style="opacity: 1; stroke-width: 0px; fill: rgb(239, 85, 59); fill-opacity: 1;"/></g><g class="points"><path class="point" transform="translate(388.25,241.15)" d="M3,0A3,3 0 1,1 0,-3A3,3 0 0,1 3,0Z" style="opacity: 1; stroke-width: 0px; fill: rgb(239, 85, 59); fill-opacity: 1;"/><path class="point" transform="translate(375.44,241.15)" d="M3,0A3,3 0 1,1 0,-3A3,3 0 0,1 3,0Z" style="opacity: 1; stroke-width: 0px; fill: rgb(239, 85, 59); fill-opacity: 1;"/><path class="point" transform="translate(378.1,210.58)" d="M3,0A3,3 0 1,1 0,-3A3,3 0 0,1 3,0Z" style="opacity: 1; stroke-width: 0px; fill: rgb(239, 85, 59); fill-opacity: 1;"/><path class="point" transform="translate(389.59,210.58)" d="M3,0A3,3 0 1,1 0,-3A3,3 0 0,1 3,0Z" style="opacity: 1; stroke-width: 0px; fill: rgb(239, 85, 59); fill-opacity: 1;"/><path class="point" transform="translate(380.83,180)" d="M3,0A3,3 0 1,1 0,-3A3,3 0 0,1 3,0Z" style="opacity: 1; stroke-width: 0px; fill: rgb(239, 85, 59); fill-opacity: 1;"/><path class="point" transform="translate(376.32,180)" d="M3,0A3,3 0 1,1 0,-3A3,3 0 0,1 3,0Z" style="opacity: 1; stroke-width: 0px; fill: rgb(239, 85, 59); fill-opacity: 1;"/><path class="point" transform="translate(380.34,149.42)" d="M3,0A3,3 0 1,1 0,-3A3,3 0 0,1 3,0Z" style="opacity: 1; stroke-width: 0px; fill: rgb(239, 85, 59); fill-opacity: 1;"/><path class="point" transform="translate(382.68,149.42)" d="M3,0A3,3 0 1,1 0,-3A3,3 0 0,1 3,0Z" style="opacity: 1; stroke-width: 0px; fill: rgb(239, 85, 59); fill-opacity: 1;"/><path class="point" transform="translate(386.28,118.85)" d="M3,0A3,3 0 1,1 0,-3A3,3 0 0,1 3,0Z" style="opacity: 1; stroke-width: 0px; fill: rgb(239, 85, 59); fill-opacity: 1;"/><path class="point" transform="translate(383.77,118.85)" d="M3,0A3,3 0 1,1 0,-3A3,3 0 0,1 3,0Z" style="opacity: 1; stroke-width: 0px; fill: rgb(239, 85, 59); fill-opacity: 1;"/><path class="point" transform="translate(380.71,88.27)" d="M3,0A3,3 0 1,1 0,-3A3,3 0 0,1 3,0Z" style="opacity: 1; stroke-width: 0px; fill: rgb(239, 85, 59); fill-opacity: 1;"/><path class="point" transform="translate(375.74,88.27)" d="M3,0A3,3 0 1,1 0,-3A3,3 0 0,1 3,0Z" style="opacity: 1; stroke-width: 0px; fill: rgb(239, 85, 59); fill-opacity: 1;"/></g></g></g></g><g class="overplot"/><path class="xlines-above crisp" style="fill: none;" d="M0,0"/><path class="ylines-above crisp" style="fill: none;" d="M0,0"/><g class="overlines-above"/><g class="xaxislayer-above"><g class="xtick"><text text-anchor="middle" x="0" y="433" transform="translate(233.34,0)" style="font-family: 'Open Sans', verdana, arial, sans-serif; font-size: 12px; fill: rgb(42, 63, 95); fill-opacity: 1; white-space: pre;">overall</text></g><g class="xtick"><text text-anchor="middle" x="0" y="433" transform="translate(464.88,0)" style="font-family: 'Open Sans', verdana, arial, sans-serif; font-size: 12px; fill: rgb(42, 63, 95); fill-opacity: 1; white-space: pre;">motor</text></g></g><g class="yaxislayer-above"><g class="ytick"><text text-anchor="end" x="79" y="4.199999999999999" transform="translate(0,347.01)" style="font-family: 'Open Sans', verdana, arial, sans-serif; font-size: 12px; fill: rgb(42, 63, 95); fill-opacity: 1; white-space: pre;">0</text></g><g class="ytick"><text text-anchor="end" x="79" y="4.199999999999999" transform="translate(0,270.58000000000004)" style="font-family: 'Open Sans', verdana, arial, sans-serif; font-size: 12px; fill: rgb(42, 63, 95); fill-opacity: 1; white-space: pre;">0.5</text></g><g class="ytick"><text text-anchor="end" x="79" y="4.199999999999999" transform="translate(0,194.14)" style="font-family: 'Open Sans', verdana, arial, sans-serif; font-size: 12px; fill: rgb(42, 63, 95); fill-opacity: 1; white-space: pre;">1</text></g><g class="ytick"><text text-anchor="end" x="79" y="4.199999999999999" transform="translate(0,117.7)" style="font-family: 'Open Sans', verdana, arial, sans-serif; font-size: 12px; fill: rgb(42, 63, 95); fill-opacity: 1; white-space: pre;">1.5</text></g></g><g class="overaxes-above"/></g></g><g class="polarlayer"/><g class="ternarylayer"/><g class="geolayer"/><g class="funnelarealayer"/><g class="pielayer"/><g class="treemaplayer"/><g class="sunburstlayer"/><g class="glimages"/><defs id="topdefs-881ae5"><g class="clips"/><clipPath id="legend881ae5"><rect width="70" height="64" x="0" y="0"/></clipPath></defs><g class="layer-above"><g class="imagelayer"/><g class="shapelayer"/></g><g class="infolayer"><g class="legend" pointer-events="all" transform="translate(617.54, 60)"><rect class="bg" shape-rendering="crispEdges" style="stroke: rgb(68, 68, 68); stroke-opacity: 1; fill: rgb(255, 255, 255); fill-opacity: 1; stroke-width: 0px;" width="70" height="64" x="0" y="0"/><g class="scrollbox" transform="translate(0, 0)" clip-path="url('#legend881ae5')"><text class="legendtitletext user-select-none" text-anchor="start" x="2" y="15.600000000000001" style="font-family: 'Open Sans', verdana, arial, sans-serif; font-size: 12px; fill: rgb(42, 63, 95); fill-opacity: 1; white-space: pre;">Target</text><g class="groups" transform="translate(0, 0)"><g class="traces" transform="translate(0, 30.1)" style="opacity: 1;"><text class="legendtext user-select-none" text-anchor="start" x="40" y="4.680000000000001" style="font-family: 'Open Sans', verdana, arial, sans-serif; font-size: 12px; fill: rgb(42, 63, 95); fill-opacity: 1; white-space: pre;">Gpi</text><g class="layers" style="opacity: 1;"><g class="legendfill"/><g class="legendlines"/><g class="legendsymbols"><g class="legendpoints"><path class="legendbox" d="M6,6H-6V-6H6Z" transform="translate(20,0)" style="stroke-width: 2px; fill: rgb(99, 110, 250); fill-opacity: 0.5; stroke: rgb(99, 110, 250); stroke-opacity: 1;"/></g></g></g><rect class="legendtoggle" pointer-events="all" x="0" y="-9.5" width="64.578125" height="19" style="cursor: pointer; fill: rgb(0, 0, 0); fill-opacity: 0;"/></g></g><g class="groups" transform="translate(0, 0)"><g class="traces" transform="translate(0, 49.1)" style="opacity: 1;"><text class="legendtext user-select-none" text-anchor="start" x="40" y="4.680000000000001" style="font-family: 'Open Sans', verdana, arial, sans-serif; font-size: 12px; fill: rgb(42, 63, 95); fill-opacity: 1; white-space: pre;">STN</text><g class="layers" style="opacity: 1;"><g class="legendfill"/><g class="legendlines"/><g class="legendsymbols"><g class="legendpoints"><path class="legendbox" d="M6,6H-6V-6H6Z" transform="translate(20,0)" style="stroke-width: 2px; fill: rgb(239, 85, 59); fill-opacity: 0.5; stroke: rgb(239, 85, 59); stroke-opacity: 1;"/></g></g></g><rect class="legendtoggle" pointer-events="all" x="0" y="-9.5" width="64.578125" height="19" style="cursor: pointer; fill: rgb(0, 0, 0); fill-opacity: 0;"/></g></g></g><rect class="scrollbar" rx="20" ry="3" width="0" height="0" style="fill: rgb(128, 139, 164); fill-opacity: 1;" x="0" y="0"/></g><g class="g-gtitle"/><g class="g-xtitle"><text class="xtitle" x="343.5" y="460.3" text-anchor="middle" style="font-family: 'Open Sans', verdana, arial, sans-serif; font-size: 14px; fill: rgb(42, 63, 95); opacity: 1; font-weight: normal; white-space: pre;">Nucleus</text></g><g class="g-ytitle"><text class="ytitle" transform="rotate(-90,34.575,240)" x="34.575" y="240" text-anchor="middle" style="font-family: 'Open Sans', verdana, arial, sans-serif; font-size: 14px; fill: rgb(42, 63, 95); opacity: 1; font-weight: normal; white-space: pre;">Distance</text></g></g></svg>